G04 #@! TF.GenerationSoftware,KiCad,Pcbnew,(6.0.0-rc1-dev-1425-g4c184f07a)*
G04 #@! TF.CreationDate,2018-12-24T19:16:23+01:00
G04 #@! TF.ProjectId,UsbDmx,55736244-6d78-42e6-9b69-6361645f7063,rev?*
G04 #@! TF.SameCoordinates,Original*
G04 #@! TF.FileFunction,Soldermask,Top*
G04 #@! TF.FilePolarity,Negative*
%FSLAX46Y46*%
G04 Gerber Fmt 4.6, Leading zero omitted, Abs format (unit mm)*
G04 Created by KiCad (PCBNEW (6.0.0-rc1-dev-1425-g4c184f07a)) date 24.12.2018 19:16:23*
%MOMM*%
%LPD*%
G04 APERTURE LIST*
%ADD10C,0.100000*%
G04 APERTURE END LIST*
D10*
G36*
X88564073Y-161974905D02*
G01*
X88557277Y-162021001D01*
X88536483Y-162051395D01*
X88501462Y-162066244D01*
X88451984Y-162065704D01*
X88434443Y-162062597D01*
X88397816Y-162051806D01*
X88353205Y-162032617D01*
X88299084Y-162004143D01*
X88233928Y-161965500D01*
X88156212Y-161915804D01*
X88064410Y-161854167D01*
X88006436Y-161814214D01*
X87931957Y-161762870D01*
X87851896Y-161708314D01*
X87771302Y-161653942D01*
X87695223Y-161603153D01*
X87628709Y-161559343D01*
X87598830Y-161539966D01*
X87538544Y-161501447D01*
X87493550Y-161473535D01*
X87461546Y-161455051D01*
X87440232Y-161444815D01*
X87427306Y-161441648D01*
X87420470Y-161444369D01*
X87418613Y-161447577D01*
X87411045Y-161466883D01*
X87398608Y-161498723D01*
X87385288Y-161532881D01*
X87331057Y-161646256D01*
X87261876Y-161745452D01*
X87199125Y-161808907D01*
X87199125Y-161338986D01*
X87189947Y-161322002D01*
X87169809Y-161308302D01*
X87137650Y-161293686D01*
X87130886Y-161290797D01*
X86999375Y-161245090D01*
X86857272Y-161214896D01*
X86709060Y-161200862D01*
X86559225Y-161203632D01*
X86537648Y-161205465D01*
X86396128Y-161224358D01*
X86272577Y-161252797D01*
X86167226Y-161290674D01*
X86080305Y-161337883D01*
X86012047Y-161394317D01*
X85962682Y-161459869D01*
X85954802Y-161474655D01*
X85934238Y-161534152D01*
X85927642Y-161597494D01*
X85935508Y-161656804D01*
X85942128Y-161676016D01*
X85965467Y-161712582D01*
X86003270Y-161750671D01*
X86049923Y-161785083D01*
X86075571Y-161799671D01*
X86148443Y-161828949D01*
X86236659Y-161851636D01*
X86335301Y-161867287D01*
X86439450Y-161875460D01*
X86544188Y-161875710D01*
X86644595Y-161867593D01*
X86709060Y-161856824D01*
X86819575Y-161823450D01*
X86919444Y-161772605D01*
X87007079Y-161705679D01*
X87080892Y-161624063D01*
X87139298Y-161529147D01*
X87171504Y-161451636D01*
X87188843Y-161399604D01*
X87198404Y-161363453D01*
X87199125Y-161338986D01*
X87199125Y-161808907D01*
X87176793Y-161831490D01*
X87074856Y-161905394D01*
X87000326Y-161946800D01*
X86898596Y-161989519D01*
X86789092Y-162020679D01*
X86674250Y-162040664D01*
X86556512Y-162049855D01*
X86438314Y-162048636D01*
X86322096Y-162037389D01*
X86210297Y-162016497D01*
X86105355Y-161986342D01*
X86009710Y-161947307D01*
X85925799Y-161899775D01*
X85856062Y-161844128D01*
X85802937Y-161780749D01*
X85788661Y-161756702D01*
X85777051Y-161732199D01*
X85769666Y-161707455D01*
X85765598Y-161676709D01*
X85763935Y-161634201D01*
X85763714Y-161598749D01*
X85764208Y-161546987D01*
X85766417Y-161510293D01*
X85771429Y-161482571D01*
X85780331Y-161457725D01*
X85793721Y-161430586D01*
X85847499Y-161349813D01*
X85919652Y-161274851D01*
X86007844Y-161207111D01*
X86109736Y-161148002D01*
X86222991Y-161098935D01*
X86345271Y-161061319D01*
X86437759Y-161042090D01*
X86525717Y-161031977D01*
X86627737Y-161027868D01*
X86737640Y-161029542D01*
X86849247Y-161036780D01*
X86956379Y-161049362D01*
X87035859Y-161063367D01*
X87088086Y-161074662D01*
X87134974Y-161085483D01*
X87171368Y-161094596D01*
X87192028Y-161100733D01*
X87219529Y-161111189D01*
X87219516Y-160949988D01*
X87219114Y-160900769D01*
X87217993Y-160839852D01*
X87216271Y-160770335D01*
X87214063Y-160695316D01*
X87211489Y-160617892D01*
X87208666Y-160541161D01*
X87205710Y-160468221D01*
X87202739Y-160402170D01*
X87199872Y-160346105D01*
X87197224Y-160303125D01*
X87194913Y-160276327D01*
X87193720Y-160269250D01*
X87182170Y-160263652D01*
X87152262Y-160263227D01*
X87112069Y-160266844D01*
X87074666Y-160269885D01*
X87021661Y-160272518D01*
X86958627Y-160274550D01*
X86891140Y-160275784D01*
X86848958Y-160276063D01*
X86741450Y-160274307D01*
X86650336Y-160268115D01*
X86571144Y-160256676D01*
X86499403Y-160239175D01*
X86430643Y-160214799D01*
X86374867Y-160189847D01*
X86321867Y-160161925D01*
X86277211Y-160132131D01*
X86233029Y-160094754D01*
X86200458Y-160063310D01*
X86167197Y-160029184D01*
X86140411Y-159999951D01*
X86123200Y-159979107D01*
X86118403Y-159970738D01*
X86126404Y-159957872D01*
X86144786Y-159942798D01*
X86161912Y-159933230D01*
X86176703Y-159932575D01*
X86196768Y-159941956D01*
X86214947Y-159953147D01*
X86302926Y-159997897D01*
X86406659Y-160031997D01*
X86523478Y-160055235D01*
X86650713Y-160067399D01*
X86785694Y-160068278D01*
X86925752Y-160057658D01*
X87068217Y-160035328D01*
X87117501Y-160024856D01*
X87190172Y-160008343D01*
X87183791Y-159969761D01*
X87182274Y-159950181D01*
X87180879Y-159912196D01*
X87179651Y-159858576D01*
X87178634Y-159792092D01*
X87177873Y-159715513D01*
X87177414Y-159631611D01*
X87177294Y-159567018D01*
X87177178Y-159202857D01*
X87105710Y-159209603D01*
X87007520Y-159217798D01*
X86905311Y-159224402D01*
X86803090Y-159229297D01*
X86704859Y-159232368D01*
X86614624Y-159233498D01*
X86536389Y-159232572D01*
X86474158Y-159229473D01*
X86461114Y-159228299D01*
X86335328Y-159209092D01*
X86226297Y-159178284D01*
X86132606Y-159135144D01*
X86052838Y-159078944D01*
X85985577Y-159008954D01*
X85955746Y-158967884D01*
X85939323Y-158941754D01*
X85929285Y-158923218D01*
X85927824Y-158918810D01*
X85935735Y-158908757D01*
X85954774Y-158894239D01*
X85954927Y-158894139D01*
X85971705Y-158884492D01*
X85984998Y-158884002D01*
X86001532Y-158894530D01*
X86022362Y-158912818D01*
X86064938Y-158944896D01*
X86115749Y-158970628D01*
X86176971Y-158990463D01*
X86250781Y-159004851D01*
X86339356Y-159014239D01*
X86444871Y-159019077D01*
X86541913Y-159019977D01*
X86631356Y-159019137D01*
X86709009Y-159016877D01*
X86780828Y-159012707D01*
X86852771Y-159006135D01*
X86930795Y-158996670D01*
X87020856Y-158983820D01*
X87068653Y-158976531D01*
X87177178Y-158959744D01*
X87176994Y-158661969D01*
X87176499Y-158556078D01*
X87174942Y-158468600D01*
X87171995Y-158396785D01*
X87167333Y-158337885D01*
X87160630Y-158289149D01*
X87151561Y-158247828D01*
X87139799Y-158211173D01*
X87125018Y-158176433D01*
X87117663Y-158161418D01*
X87094947Y-158123184D01*
X87068023Y-158086955D01*
X87054083Y-158071736D01*
X87027631Y-158040831D01*
X87019113Y-158015079D01*
X87027009Y-157991105D01*
X87041406Y-157986737D01*
X87071264Y-157989711D01*
X87112680Y-157998793D01*
X87161755Y-158012750D01*
X87214586Y-158030350D01*
X87267271Y-158050360D01*
X87315910Y-158071547D01*
X87356601Y-158092677D01*
X87365467Y-158098054D01*
X87413282Y-158135207D01*
X87451311Y-158178402D01*
X87475287Y-158222369D01*
X87480094Y-158239561D01*
X87481845Y-158263637D01*
X87481808Y-158304193D01*
X87480111Y-158356624D01*
X87476878Y-158416321D01*
X87474217Y-158454189D01*
X87468989Y-158526830D01*
X87463897Y-158605333D01*
X87459438Y-158681534D01*
X87456107Y-158747270D01*
X87455396Y-158763881D01*
X87453400Y-158819761D01*
X87452924Y-158857830D01*
X87454264Y-158881417D01*
X87457717Y-158893852D01*
X87463580Y-158898463D01*
X87467440Y-158898874D01*
X87481948Y-158896273D01*
X87514105Y-158888931D01*
X87561093Y-158877545D01*
X87620094Y-158862809D01*
X87688291Y-158845420D01*
X87762866Y-158826071D01*
X87769053Y-158824451D01*
X87892012Y-158792691D01*
X87996683Y-158766688D01*
X88085039Y-158746039D01*
X88159050Y-158730339D01*
X88220689Y-158719184D01*
X88271926Y-158712169D01*
X88314735Y-158708890D01*
X88334264Y-158708528D01*
X88401295Y-158714952D01*
X88453560Y-158733141D01*
X88489780Y-158762249D01*
X88508677Y-158801432D01*
X88511234Y-158825419D01*
X88502327Y-158851096D01*
X88478429Y-158881635D01*
X88443767Y-158913016D01*
X88402573Y-158941217D01*
X88373617Y-158956244D01*
X88335245Y-158970805D01*
X88279293Y-158988400D01*
X88209019Y-159008265D01*
X88127674Y-159029639D01*
X88038514Y-159051757D01*
X87944793Y-159073858D01*
X87849764Y-159095177D01*
X87756683Y-159114952D01*
X87668803Y-159132420D01*
X87589378Y-159146817D01*
X87521664Y-159157382D01*
X87508045Y-159159194D01*
X87452459Y-159166296D01*
X87452459Y-159550352D01*
X87452459Y-159934407D01*
X87587453Y-159884095D01*
X87644282Y-159862582D01*
X87713913Y-159835710D01*
X87789548Y-159806134D01*
X87864389Y-159776504D01*
X87907732Y-159759139D01*
X88000637Y-159722256D01*
X88076984Y-159693309D01*
X88139497Y-159671476D01*
X88190894Y-159655931D01*
X88233898Y-159645850D01*
X88271229Y-159640409D01*
X88304990Y-159638783D01*
X88362927Y-159642220D01*
X88404437Y-159653536D01*
X88433198Y-159673949D01*
X88441345Y-159684055D01*
X88456877Y-159722740D01*
X88452354Y-159764420D01*
X88428509Y-159808050D01*
X88386073Y-159852585D01*
X88325777Y-159896980D01*
X88269395Y-159929494D01*
X88198011Y-159964137D01*
X88110918Y-160001949D01*
X88012999Y-160041161D01*
X87909135Y-160080004D01*
X87804211Y-160116709D01*
X87703107Y-160149507D01*
X87610708Y-160176630D01*
X87534721Y-160195686D01*
X87452873Y-160213788D01*
X87450019Y-160699710D01*
X87447165Y-161185632D01*
X87558336Y-161230046D01*
X87644922Y-161267046D01*
X87742609Y-161312818D01*
X87845064Y-161364115D01*
X87945958Y-161417686D01*
X88038957Y-161470284D01*
X88105551Y-161510832D01*
X88231521Y-161594800D01*
X88337405Y-161673675D01*
X88423139Y-161747393D01*
X88488657Y-161815888D01*
X88533894Y-161879094D01*
X88558786Y-161936944D01*
X88564073Y-161974905D01*
X88564073Y-161974905D01*
G37*
X88564073Y-161974905D02*
X88557277Y-162021001D01*
X88536483Y-162051395D01*
X88501462Y-162066244D01*
X88451984Y-162065704D01*
X88434443Y-162062597D01*
X88397816Y-162051806D01*
X88353205Y-162032617D01*
X88299084Y-162004143D01*
X88233928Y-161965500D01*
X88156212Y-161915804D01*
X88064410Y-161854167D01*
X88006436Y-161814214D01*
X87931957Y-161762870D01*
X87851896Y-161708314D01*
X87771302Y-161653942D01*
X87695223Y-161603153D01*
X87628709Y-161559343D01*
X87598830Y-161539966D01*
X87538544Y-161501447D01*
X87493550Y-161473535D01*
X87461546Y-161455051D01*
X87440232Y-161444815D01*
X87427306Y-161441648D01*
X87420470Y-161444369D01*
X87418613Y-161447577D01*
X87411045Y-161466883D01*
X87398608Y-161498723D01*
X87385288Y-161532881D01*
X87331057Y-161646256D01*
X87261876Y-161745452D01*
X87199125Y-161808907D01*
X87199125Y-161338986D01*
X87189947Y-161322002D01*
X87169809Y-161308302D01*
X87137650Y-161293686D01*
X87130886Y-161290797D01*
X86999375Y-161245090D01*
X86857272Y-161214896D01*
X86709060Y-161200862D01*
X86559225Y-161203632D01*
X86537648Y-161205465D01*
X86396128Y-161224358D01*
X86272577Y-161252797D01*
X86167226Y-161290674D01*
X86080305Y-161337883D01*
X86012047Y-161394317D01*
X85962682Y-161459869D01*
X85954802Y-161474655D01*
X85934238Y-161534152D01*
X85927642Y-161597494D01*
X85935508Y-161656804D01*
X85942128Y-161676016D01*
X85965467Y-161712582D01*
X86003270Y-161750671D01*
X86049923Y-161785083D01*
X86075571Y-161799671D01*
X86148443Y-161828949D01*
X86236659Y-161851636D01*
X86335301Y-161867287D01*
X86439450Y-161875460D01*
X86544188Y-161875710D01*
X86644595Y-161867593D01*
X86709060Y-161856824D01*
X86819575Y-161823450D01*
X86919444Y-161772605D01*
X87007079Y-161705679D01*
X87080892Y-161624063D01*
X87139298Y-161529147D01*
X87171504Y-161451636D01*
X87188843Y-161399604D01*
X87198404Y-161363453D01*
X87199125Y-161338986D01*
X87199125Y-161808907D01*
X87176793Y-161831490D01*
X87074856Y-161905394D01*
X87000326Y-161946800D01*
X86898596Y-161989519D01*
X86789092Y-162020679D01*
X86674250Y-162040664D01*
X86556512Y-162049855D01*
X86438314Y-162048636D01*
X86322096Y-162037389D01*
X86210297Y-162016497D01*
X86105355Y-161986342D01*
X86009710Y-161947307D01*
X85925799Y-161899775D01*
X85856062Y-161844128D01*
X85802937Y-161780749D01*
X85788661Y-161756702D01*
X85777051Y-161732199D01*
X85769666Y-161707455D01*
X85765598Y-161676709D01*
X85763935Y-161634201D01*
X85763714Y-161598749D01*
X85764208Y-161546987D01*
X85766417Y-161510293D01*
X85771429Y-161482571D01*
X85780331Y-161457725D01*
X85793721Y-161430586D01*
X85847499Y-161349813D01*
X85919652Y-161274851D01*
X86007844Y-161207111D01*
X86109736Y-161148002D01*
X86222991Y-161098935D01*
X86345271Y-161061319D01*
X86437759Y-161042090D01*
X86525717Y-161031977D01*
X86627737Y-161027868D01*
X86737640Y-161029542D01*
X86849247Y-161036780D01*
X86956379Y-161049362D01*
X87035859Y-161063367D01*
X87088086Y-161074662D01*
X87134974Y-161085483D01*
X87171368Y-161094596D01*
X87192028Y-161100733D01*
X87219529Y-161111189D01*
X87219516Y-160949988D01*
X87219114Y-160900769D01*
X87217993Y-160839852D01*
X87216271Y-160770335D01*
X87214063Y-160695316D01*
X87211489Y-160617892D01*
X87208666Y-160541161D01*
X87205710Y-160468221D01*
X87202739Y-160402170D01*
X87199872Y-160346105D01*
X87197224Y-160303125D01*
X87194913Y-160276327D01*
X87193720Y-160269250D01*
X87182170Y-160263652D01*
X87152262Y-160263227D01*
X87112069Y-160266844D01*
X87074666Y-160269885D01*
X87021661Y-160272518D01*
X86958627Y-160274550D01*
X86891140Y-160275784D01*
X86848958Y-160276063D01*
X86741450Y-160274307D01*
X86650336Y-160268115D01*
X86571144Y-160256676D01*
X86499403Y-160239175D01*
X86430643Y-160214799D01*
X86374867Y-160189847D01*
X86321867Y-160161925D01*
X86277211Y-160132131D01*
X86233029Y-160094754D01*
X86200458Y-160063310D01*
X86167197Y-160029184D01*
X86140411Y-159999951D01*
X86123200Y-159979107D01*
X86118403Y-159970738D01*
X86126404Y-159957872D01*
X86144786Y-159942798D01*
X86161912Y-159933230D01*
X86176703Y-159932575D01*
X86196768Y-159941956D01*
X86214947Y-159953147D01*
X86302926Y-159997897D01*
X86406659Y-160031997D01*
X86523478Y-160055235D01*
X86650713Y-160067399D01*
X86785694Y-160068278D01*
X86925752Y-160057658D01*
X87068217Y-160035328D01*
X87117501Y-160024856D01*
X87190172Y-160008343D01*
X87183791Y-159969761D01*
X87182274Y-159950181D01*
X87180879Y-159912196D01*
X87179651Y-159858576D01*
X87178634Y-159792092D01*
X87177873Y-159715513D01*
X87177414Y-159631611D01*
X87177294Y-159567018D01*
X87177178Y-159202857D01*
X87105710Y-159209603D01*
X87007520Y-159217798D01*
X86905311Y-159224402D01*
X86803090Y-159229297D01*
X86704859Y-159232368D01*
X86614624Y-159233498D01*
X86536389Y-159232572D01*
X86474158Y-159229473D01*
X86461114Y-159228299D01*
X86335328Y-159209092D01*
X86226297Y-159178284D01*
X86132606Y-159135144D01*
X86052838Y-159078944D01*
X85985577Y-159008954D01*
X85955746Y-158967884D01*
X85939323Y-158941754D01*
X85929285Y-158923218D01*
X85927824Y-158918810D01*
X85935735Y-158908757D01*
X85954774Y-158894239D01*
X85954927Y-158894139D01*
X85971705Y-158884492D01*
X85984998Y-158884002D01*
X86001532Y-158894530D01*
X86022362Y-158912818D01*
X86064938Y-158944896D01*
X86115749Y-158970628D01*
X86176971Y-158990463D01*
X86250781Y-159004851D01*
X86339356Y-159014239D01*
X86444871Y-159019077D01*
X86541913Y-159019977D01*
X86631356Y-159019137D01*
X86709009Y-159016877D01*
X86780828Y-159012707D01*
X86852771Y-159006135D01*
X86930795Y-158996670D01*
X87020856Y-158983820D01*
X87068653Y-158976531D01*
X87177178Y-158959744D01*
X87176994Y-158661969D01*
X87176499Y-158556078D01*
X87174942Y-158468600D01*
X87171995Y-158396785D01*
X87167333Y-158337885D01*
X87160630Y-158289149D01*
X87151561Y-158247828D01*
X87139799Y-158211173D01*
X87125018Y-158176433D01*
X87117663Y-158161418D01*
X87094947Y-158123184D01*
X87068023Y-158086955D01*
X87054083Y-158071736D01*
X87027631Y-158040831D01*
X87019113Y-158015079D01*
X87027009Y-157991105D01*
X87041406Y-157986737D01*
X87071264Y-157989711D01*
X87112680Y-157998793D01*
X87161755Y-158012750D01*
X87214586Y-158030350D01*
X87267271Y-158050360D01*
X87315910Y-158071547D01*
X87356601Y-158092677D01*
X87365467Y-158098054D01*
X87413282Y-158135207D01*
X87451311Y-158178402D01*
X87475287Y-158222369D01*
X87480094Y-158239561D01*
X87481845Y-158263637D01*
X87481808Y-158304193D01*
X87480111Y-158356624D01*
X87476878Y-158416321D01*
X87474217Y-158454189D01*
X87468989Y-158526830D01*
X87463897Y-158605333D01*
X87459438Y-158681534D01*
X87456107Y-158747270D01*
X87455396Y-158763881D01*
X87453400Y-158819761D01*
X87452924Y-158857830D01*
X87454264Y-158881417D01*
X87457717Y-158893852D01*
X87463580Y-158898463D01*
X87467440Y-158898874D01*
X87481948Y-158896273D01*
X87514105Y-158888931D01*
X87561093Y-158877545D01*
X87620094Y-158862809D01*
X87688291Y-158845420D01*
X87762866Y-158826071D01*
X87769053Y-158824451D01*
X87892012Y-158792691D01*
X87996683Y-158766688D01*
X88085039Y-158746039D01*
X88159050Y-158730339D01*
X88220689Y-158719184D01*
X88271926Y-158712169D01*
X88314735Y-158708890D01*
X88334264Y-158708528D01*
X88401295Y-158714952D01*
X88453560Y-158733141D01*
X88489780Y-158762249D01*
X88508677Y-158801432D01*
X88511234Y-158825419D01*
X88502327Y-158851096D01*
X88478429Y-158881635D01*
X88443767Y-158913016D01*
X88402573Y-158941217D01*
X88373617Y-158956244D01*
X88335245Y-158970805D01*
X88279293Y-158988400D01*
X88209019Y-159008265D01*
X88127674Y-159029639D01*
X88038514Y-159051757D01*
X87944793Y-159073858D01*
X87849764Y-159095177D01*
X87756683Y-159114952D01*
X87668803Y-159132420D01*
X87589378Y-159146817D01*
X87521664Y-159157382D01*
X87508045Y-159159194D01*
X87452459Y-159166296D01*
X87452459Y-159550352D01*
X87452459Y-159934407D01*
X87587453Y-159884095D01*
X87644282Y-159862582D01*
X87713913Y-159835710D01*
X87789548Y-159806134D01*
X87864389Y-159776504D01*
X87907732Y-159759139D01*
X88000637Y-159722256D01*
X88076984Y-159693309D01*
X88139497Y-159671476D01*
X88190894Y-159655931D01*
X88233898Y-159645850D01*
X88271229Y-159640409D01*
X88304990Y-159638783D01*
X88362927Y-159642220D01*
X88404437Y-159653536D01*
X88433198Y-159673949D01*
X88441345Y-159684055D01*
X88456877Y-159722740D01*
X88452354Y-159764420D01*
X88428509Y-159808050D01*
X88386073Y-159852585D01*
X88325777Y-159896980D01*
X88269395Y-159929494D01*
X88198011Y-159964137D01*
X88110918Y-160001949D01*
X88012999Y-160041161D01*
X87909135Y-160080004D01*
X87804211Y-160116709D01*
X87703107Y-160149507D01*
X87610708Y-160176630D01*
X87534721Y-160195686D01*
X87452873Y-160213788D01*
X87450019Y-160699710D01*
X87447165Y-161185632D01*
X87558336Y-161230046D01*
X87644922Y-161267046D01*
X87742609Y-161312818D01*
X87845064Y-161364115D01*
X87945958Y-161417686D01*
X88038957Y-161470284D01*
X88105551Y-161510832D01*
X88231521Y-161594800D01*
X88337405Y-161673675D01*
X88423139Y-161747393D01*
X88488657Y-161815888D01*
X88533894Y-161879094D01*
X88558786Y-161936944D01*
X88564073Y-161974905D01*
G36*
X97233693Y-158850305D02*
G01*
X97226541Y-158872500D01*
X97207607Y-158898189D01*
X97202292Y-158904334D01*
X97162221Y-158939275D01*
X97102392Y-158975848D01*
X97024118Y-159013588D01*
X96928710Y-159052027D01*
X96817481Y-159090698D01*
X96691744Y-159129135D01*
X96552813Y-159166870D01*
X96401998Y-159203436D01*
X96295041Y-159227032D01*
X96243222Y-159238254D01*
X96199351Y-159248172D01*
X96167335Y-159255871D01*
X96151081Y-159260436D01*
X96149896Y-159261018D01*
X96146271Y-159271690D01*
X96137416Y-159300754D01*
X96123909Y-159346239D01*
X96106324Y-159406172D01*
X96085237Y-159478581D01*
X96061225Y-159561496D01*
X96034864Y-159652942D01*
X96006730Y-159750949D01*
X96003501Y-159762221D01*
X95928073Y-160022693D01*
X95856341Y-160264182D01*
X95787711Y-160488445D01*
X95721591Y-160697234D01*
X95657388Y-160892306D01*
X95594511Y-161075414D01*
X95532365Y-161248314D01*
X95470360Y-161412759D01*
X95407901Y-161570506D01*
X95344397Y-161723308D01*
X95329322Y-161758540D01*
X95288939Y-161849726D01*
X95254142Y-161922256D01*
X95224084Y-161977650D01*
X95197917Y-162017426D01*
X95174795Y-162043104D01*
X95167264Y-162049042D01*
X95142445Y-162059073D01*
X95108872Y-162064365D01*
X95100690Y-162064610D01*
X95067469Y-162061257D01*
X95043909Y-162047948D01*
X95029573Y-162032797D01*
X95003433Y-161985385D01*
X94994546Y-161925980D01*
X95002954Y-161854923D01*
X95006269Y-161841073D01*
X95011147Y-161822418D01*
X95016195Y-161804830D01*
X95022305Y-161786187D01*
X95030371Y-161764365D01*
X95041283Y-161737241D01*
X95055937Y-161702692D01*
X95075223Y-161658593D01*
X95100036Y-161602822D01*
X95131267Y-161533256D01*
X95169810Y-161447770D01*
X95196272Y-161389160D01*
X95314906Y-161115605D01*
X95428412Y-160832498D01*
X95533938Y-160547332D01*
X95628633Y-160267601D01*
X95656327Y-160179992D01*
X95681021Y-160099088D01*
X95706838Y-160012105D01*
X95733163Y-159921337D01*
X95759378Y-159829074D01*
X95784868Y-159737610D01*
X95809016Y-159649237D01*
X95831206Y-159566248D01*
X95850821Y-159490934D01*
X95867246Y-159425588D01*
X95879863Y-159372502D01*
X95888056Y-159333969D01*
X95891209Y-159312281D01*
X95890668Y-159308435D01*
X95878883Y-159308229D01*
X95850343Y-159311031D01*
X95809179Y-159316354D01*
X95759520Y-159323709D01*
X95753251Y-159324695D01*
X95643479Y-159338067D01*
X95520429Y-159345289D01*
X95440913Y-159346788D01*
X95373726Y-159347014D01*
X95323133Y-159346390D01*
X95284556Y-159344439D01*
X95253416Y-159340685D01*
X95225135Y-159334654D01*
X95195134Y-159325871D01*
X95174553Y-159319131D01*
X95115975Y-159295910D01*
X95056477Y-159266023D01*
X95002179Y-159233011D01*
X94959203Y-159200419D01*
X94944306Y-159185868D01*
X94932664Y-159170946D01*
X94932162Y-159158126D01*
X94943480Y-159139028D01*
X94948723Y-159131607D01*
X94972292Y-159098508D01*
X95000141Y-159124535D01*
X95028194Y-159148878D01*
X95054974Y-159166348D01*
X95084726Y-159178010D01*
X95121695Y-159184930D01*
X95170124Y-159188172D01*
X95234258Y-159188802D01*
X95255627Y-159188656D01*
X95334967Y-159186406D01*
X95412841Y-159180711D01*
X95493487Y-159170955D01*
X95581143Y-159156517D01*
X95680046Y-159136782D01*
X95794434Y-159111130D01*
X95806190Y-159108379D01*
X95858068Y-159096148D01*
X95901921Y-159085700D01*
X95933951Y-159077951D01*
X95950362Y-159073812D01*
X95951692Y-159073400D01*
X95955527Y-159062325D01*
X95962148Y-159033998D01*
X95970872Y-158992057D01*
X95981017Y-158940141D01*
X95991900Y-158881888D01*
X96002838Y-158820935D01*
X96013148Y-158760921D01*
X96022148Y-158705482D01*
X96027841Y-158667608D01*
X96043725Y-158545451D01*
X96053588Y-158441349D01*
X96057341Y-158353031D01*
X96054899Y-158278224D01*
X96046176Y-158214657D01*
X96031085Y-158160058D01*
X96009541Y-158112156D01*
X96006523Y-158106761D01*
X95978694Y-158067314D01*
X95945659Y-158033603D01*
X95932435Y-158023594D01*
X95889689Y-157995306D01*
X95916521Y-157968474D01*
X95932347Y-157953934D01*
X95946819Y-157947242D01*
X95966867Y-157947356D01*
X95999422Y-157953229D01*
X96007158Y-157954821D01*
X96056865Y-157966661D01*
X96113581Y-157982643D01*
X96171840Y-158000959D01*
X96226175Y-158019800D01*
X96271120Y-158037358D01*
X96301207Y-158051826D01*
X96302164Y-158052399D01*
X96330616Y-158073386D01*
X96352900Y-158099079D01*
X96368974Y-158131086D01*
X96378796Y-158171014D01*
X96382323Y-158220470D01*
X96379515Y-158281063D01*
X96370328Y-158354400D01*
X96354721Y-158442089D01*
X96332653Y-158545737D01*
X96304080Y-158666951D01*
X96283993Y-158747999D01*
X96266834Y-158816631D01*
X96251684Y-158877896D01*
X96239223Y-158928988D01*
X96230132Y-158967101D01*
X96225091Y-158989428D01*
X96224329Y-158994164D01*
X96236898Y-158990753D01*
X96266221Y-158981261D01*
X96309135Y-158966796D01*
X96362478Y-158948469D01*
X96423085Y-158927388D01*
X96487794Y-158904663D01*
X96553442Y-158881405D01*
X96616866Y-158858721D01*
X96674903Y-158837722D01*
X96724390Y-158819518D01*
X96753793Y-158808442D01*
X96832571Y-158778361D01*
X96894292Y-158755042D01*
X96941657Y-158737625D01*
X96977365Y-158725250D01*
X97004115Y-158717055D01*
X97024607Y-158712181D01*
X97041540Y-158709766D01*
X97057615Y-158708950D01*
X97066131Y-158708873D01*
X97110327Y-158714214D01*
X97155658Y-158728361D01*
X97193942Y-158748213D01*
X97212665Y-158764434D01*
X97223398Y-158786005D01*
X97231485Y-158816938D01*
X97232360Y-158822648D01*
X97233693Y-158850305D01*
X97233693Y-158850305D01*
G37*
X97233693Y-158850305D02*
X97226541Y-158872500D01*
X97207607Y-158898189D01*
X97202292Y-158904334D01*
X97162221Y-158939275D01*
X97102392Y-158975848D01*
X97024118Y-159013588D01*
X96928710Y-159052027D01*
X96817481Y-159090698D01*
X96691744Y-159129135D01*
X96552813Y-159166870D01*
X96401998Y-159203436D01*
X96295041Y-159227032D01*
X96243222Y-159238254D01*
X96199351Y-159248172D01*
X96167335Y-159255871D01*
X96151081Y-159260436D01*
X96149896Y-159261018D01*
X96146271Y-159271690D01*
X96137416Y-159300754D01*
X96123909Y-159346239D01*
X96106324Y-159406172D01*
X96085237Y-159478581D01*
X96061225Y-159561496D01*
X96034864Y-159652942D01*
X96006730Y-159750949D01*
X96003501Y-159762221D01*
X95928073Y-160022693D01*
X95856341Y-160264182D01*
X95787711Y-160488445D01*
X95721591Y-160697234D01*
X95657388Y-160892306D01*
X95594511Y-161075414D01*
X95532365Y-161248314D01*
X95470360Y-161412759D01*
X95407901Y-161570506D01*
X95344397Y-161723308D01*
X95329322Y-161758540D01*
X95288939Y-161849726D01*
X95254142Y-161922256D01*
X95224084Y-161977650D01*
X95197917Y-162017426D01*
X95174795Y-162043104D01*
X95167264Y-162049042D01*
X95142445Y-162059073D01*
X95108872Y-162064365D01*
X95100690Y-162064610D01*
X95067469Y-162061257D01*
X95043909Y-162047948D01*
X95029573Y-162032797D01*
X95003433Y-161985385D01*
X94994546Y-161925980D01*
X95002954Y-161854923D01*
X95006269Y-161841073D01*
X95011147Y-161822418D01*
X95016195Y-161804830D01*
X95022305Y-161786187D01*
X95030371Y-161764365D01*
X95041283Y-161737241D01*
X95055937Y-161702692D01*
X95075223Y-161658593D01*
X95100036Y-161602822D01*
X95131267Y-161533256D01*
X95169810Y-161447770D01*
X95196272Y-161389160D01*
X95314906Y-161115605D01*
X95428412Y-160832498D01*
X95533938Y-160547332D01*
X95628633Y-160267601D01*
X95656327Y-160179992D01*
X95681021Y-160099088D01*
X95706838Y-160012105D01*
X95733163Y-159921337D01*
X95759378Y-159829074D01*
X95784868Y-159737610D01*
X95809016Y-159649237D01*
X95831206Y-159566248D01*
X95850821Y-159490934D01*
X95867246Y-159425588D01*
X95879863Y-159372502D01*
X95888056Y-159333969D01*
X95891209Y-159312281D01*
X95890668Y-159308435D01*
X95878883Y-159308229D01*
X95850343Y-159311031D01*
X95809179Y-159316354D01*
X95759520Y-159323709D01*
X95753251Y-159324695D01*
X95643479Y-159338067D01*
X95520429Y-159345289D01*
X95440913Y-159346788D01*
X95373726Y-159347014D01*
X95323133Y-159346390D01*
X95284556Y-159344439D01*
X95253416Y-159340685D01*
X95225135Y-159334654D01*
X95195134Y-159325871D01*
X95174553Y-159319131D01*
X95115975Y-159295910D01*
X95056477Y-159266023D01*
X95002179Y-159233011D01*
X94959203Y-159200419D01*
X94944306Y-159185868D01*
X94932664Y-159170946D01*
X94932162Y-159158126D01*
X94943480Y-159139028D01*
X94948723Y-159131607D01*
X94972292Y-159098508D01*
X95000141Y-159124535D01*
X95028194Y-159148878D01*
X95054974Y-159166348D01*
X95084726Y-159178010D01*
X95121695Y-159184930D01*
X95170124Y-159188172D01*
X95234258Y-159188802D01*
X95255627Y-159188656D01*
X95334967Y-159186406D01*
X95412841Y-159180711D01*
X95493487Y-159170955D01*
X95581143Y-159156517D01*
X95680046Y-159136782D01*
X95794434Y-159111130D01*
X95806190Y-159108379D01*
X95858068Y-159096148D01*
X95901921Y-159085700D01*
X95933951Y-159077951D01*
X95950362Y-159073812D01*
X95951692Y-159073400D01*
X95955527Y-159062325D01*
X95962148Y-159033998D01*
X95970872Y-158992057D01*
X95981017Y-158940141D01*
X95991900Y-158881888D01*
X96002838Y-158820935D01*
X96013148Y-158760921D01*
X96022148Y-158705482D01*
X96027841Y-158667608D01*
X96043725Y-158545451D01*
X96053588Y-158441349D01*
X96057341Y-158353031D01*
X96054899Y-158278224D01*
X96046176Y-158214657D01*
X96031085Y-158160058D01*
X96009541Y-158112156D01*
X96006523Y-158106761D01*
X95978694Y-158067314D01*
X95945659Y-158033603D01*
X95932435Y-158023594D01*
X95889689Y-157995306D01*
X95916521Y-157968474D01*
X95932347Y-157953934D01*
X95946819Y-157947242D01*
X95966867Y-157947356D01*
X95999422Y-157953229D01*
X96007158Y-157954821D01*
X96056865Y-157966661D01*
X96113581Y-157982643D01*
X96171840Y-158000959D01*
X96226175Y-158019800D01*
X96271120Y-158037358D01*
X96301207Y-158051826D01*
X96302164Y-158052399D01*
X96330616Y-158073386D01*
X96352900Y-158099079D01*
X96368974Y-158131086D01*
X96378796Y-158171014D01*
X96382323Y-158220470D01*
X96379515Y-158281063D01*
X96370328Y-158354400D01*
X96354721Y-158442089D01*
X96332653Y-158545737D01*
X96304080Y-158666951D01*
X96283993Y-158747999D01*
X96266834Y-158816631D01*
X96251684Y-158877896D01*
X96239223Y-158928988D01*
X96230132Y-158967101D01*
X96225091Y-158989428D01*
X96224329Y-158994164D01*
X96236898Y-158990753D01*
X96266221Y-158981261D01*
X96309135Y-158966796D01*
X96362478Y-158948469D01*
X96423085Y-158927388D01*
X96487794Y-158904663D01*
X96553442Y-158881405D01*
X96616866Y-158858721D01*
X96674903Y-158837722D01*
X96724390Y-158819518D01*
X96753793Y-158808442D01*
X96832571Y-158778361D01*
X96894292Y-158755042D01*
X96941657Y-158737625D01*
X96977365Y-158725250D01*
X97004115Y-158717055D01*
X97024607Y-158712181D01*
X97041540Y-158709766D01*
X97057615Y-158708950D01*
X97066131Y-158708873D01*
X97110327Y-158714214D01*
X97155658Y-158728361D01*
X97193942Y-158748213D01*
X97212665Y-158764434D01*
X97223398Y-158786005D01*
X97231485Y-158816938D01*
X97232360Y-158822648D01*
X97233693Y-158850305D01*
G36*
X83812202Y-160825423D02*
G01*
X83811240Y-160839437D01*
X83799603Y-160857457D01*
X83755753Y-160914594D01*
X83698756Y-160982840D01*
X83631276Y-161059223D01*
X83555978Y-161140769D01*
X83475529Y-161224505D01*
X83424626Y-161275823D01*
X83292430Y-161402689D01*
X83166383Y-161513382D01*
X83042958Y-161610568D01*
X82918626Y-161696909D01*
X82789861Y-161775070D01*
X82696484Y-161825676D01*
X82519287Y-161908267D01*
X82342641Y-161972347D01*
X82167922Y-162017618D01*
X81996504Y-162043777D01*
X81829762Y-162050527D01*
X81704586Y-162042211D01*
X81571651Y-162018444D01*
X81445738Y-161979490D01*
X81329324Y-161926670D01*
X81224890Y-161861303D01*
X81134913Y-161784710D01*
X81063877Y-161701053D01*
X81004953Y-161606406D01*
X80955330Y-161501055D01*
X80914548Y-161383294D01*
X80882146Y-161251415D01*
X80857665Y-161103710D01*
X80840643Y-160938472D01*
X80834980Y-160852313D01*
X80831533Y-160758180D01*
X80830363Y-160645718D01*
X80831330Y-160517635D01*
X80834296Y-160376640D01*
X80839123Y-160225441D01*
X80845674Y-160066746D01*
X80853810Y-159903263D01*
X80863394Y-159737702D01*
X80874286Y-159572770D01*
X80886349Y-159411176D01*
X80899445Y-159255628D01*
X80913436Y-159108835D01*
X80928183Y-158973505D01*
X80932687Y-158935932D01*
X80943445Y-158837006D01*
X80950691Y-158741430D01*
X80954874Y-158641302D01*
X80956444Y-158528718D01*
X80956472Y-158517716D01*
X80956475Y-158441670D01*
X80955989Y-158383397D01*
X80954734Y-158339497D01*
X80952428Y-158306569D01*
X80948791Y-158281211D01*
X80943540Y-158260023D01*
X80936395Y-158239603D01*
X80932711Y-158230313D01*
X80898125Y-158160352D01*
X80856885Y-158102844D01*
X80812054Y-158062002D01*
X80808893Y-158059898D01*
X80782826Y-158035502D01*
X80777867Y-158009952D01*
X80791497Y-157986024D01*
X80805057Y-157984270D01*
X80834512Y-157987408D01*
X80875406Y-157994480D01*
X80923283Y-158004529D01*
X80973687Y-158016595D01*
X81022161Y-158029720D01*
X81064251Y-158042946D01*
X81076184Y-158047247D01*
X81145423Y-158079405D01*
X81205472Y-158119207D01*
X81252166Y-158163453D01*
X81278577Y-158202843D01*
X81293818Y-158246599D01*
X81300186Y-158298779D01*
X81297761Y-158362869D01*
X81286627Y-158442355D01*
X81284510Y-158454189D01*
X81240270Y-158704969D01*
X81202376Y-158939397D01*
X81170471Y-159161207D01*
X81144195Y-159374133D01*
X81123190Y-159581910D01*
X81107098Y-159788270D01*
X81095560Y-159996950D01*
X81088218Y-160211681D01*
X81084714Y-160436199D01*
X81084294Y-160539975D01*
X81084419Y-160665149D01*
X81085154Y-160771813D01*
X81086704Y-160862629D01*
X81089275Y-160940258D01*
X81093070Y-161007362D01*
X81098296Y-161066603D01*
X81105158Y-161120642D01*
X81113860Y-161172141D01*
X81124607Y-161223761D01*
X81137604Y-161278165D01*
X81142705Y-161298286D01*
X81183722Y-161423305D01*
X81238381Y-161532241D01*
X81306400Y-161624965D01*
X81387497Y-161701346D01*
X81481387Y-161761255D01*
X81587790Y-161804562D01*
X81706421Y-161831136D01*
X81836998Y-161840847D01*
X81979238Y-161833566D01*
X82132859Y-161809163D01*
X82213647Y-161790551D01*
X82394836Y-161735454D01*
X82580539Y-161660962D01*
X82769268Y-161567988D01*
X82959533Y-161457444D01*
X83149844Y-161330242D01*
X83338713Y-161187294D01*
X83524650Y-161029512D01*
X83655773Y-160907332D01*
X83702218Y-160862485D01*
X83735929Y-160830675D01*
X83759379Y-160810203D01*
X83775041Y-160799371D01*
X83785388Y-160796479D01*
X83792893Y-160799828D01*
X83800030Y-160807721D01*
X83800297Y-160808052D01*
X83812202Y-160825423D01*
X83812202Y-160825423D01*
G37*
X83812202Y-160825423D02*
X83811240Y-160839437D01*
X83799603Y-160857457D01*
X83755753Y-160914594D01*
X83698756Y-160982840D01*
X83631276Y-161059223D01*
X83555978Y-161140769D01*
X83475529Y-161224505D01*
X83424626Y-161275823D01*
X83292430Y-161402689D01*
X83166383Y-161513382D01*
X83042958Y-161610568D01*
X82918626Y-161696909D01*
X82789861Y-161775070D01*
X82696484Y-161825676D01*
X82519287Y-161908267D01*
X82342641Y-161972347D01*
X82167922Y-162017618D01*
X81996504Y-162043777D01*
X81829762Y-162050527D01*
X81704586Y-162042211D01*
X81571651Y-162018444D01*
X81445738Y-161979490D01*
X81329324Y-161926670D01*
X81224890Y-161861303D01*
X81134913Y-161784710D01*
X81063877Y-161701053D01*
X81004953Y-161606406D01*
X80955330Y-161501055D01*
X80914548Y-161383294D01*
X80882146Y-161251415D01*
X80857665Y-161103710D01*
X80840643Y-160938472D01*
X80834980Y-160852313D01*
X80831533Y-160758180D01*
X80830363Y-160645718D01*
X80831330Y-160517635D01*
X80834296Y-160376640D01*
X80839123Y-160225441D01*
X80845674Y-160066746D01*
X80853810Y-159903263D01*
X80863394Y-159737702D01*
X80874286Y-159572770D01*
X80886349Y-159411176D01*
X80899445Y-159255628D01*
X80913436Y-159108835D01*
X80928183Y-158973505D01*
X80932687Y-158935932D01*
X80943445Y-158837006D01*
X80950691Y-158741430D01*
X80954874Y-158641302D01*
X80956444Y-158528718D01*
X80956472Y-158517716D01*
X80956475Y-158441670D01*
X80955989Y-158383397D01*
X80954734Y-158339497D01*
X80952428Y-158306569D01*
X80948791Y-158281211D01*
X80943540Y-158260023D01*
X80936395Y-158239603D01*
X80932711Y-158230313D01*
X80898125Y-158160352D01*
X80856885Y-158102844D01*
X80812054Y-158062002D01*
X80808893Y-158059898D01*
X80782826Y-158035502D01*
X80777867Y-158009952D01*
X80791497Y-157986024D01*
X80805057Y-157984270D01*
X80834512Y-157987408D01*
X80875406Y-157994480D01*
X80923283Y-158004529D01*
X80973687Y-158016595D01*
X81022161Y-158029720D01*
X81064251Y-158042946D01*
X81076184Y-158047247D01*
X81145423Y-158079405D01*
X81205472Y-158119207D01*
X81252166Y-158163453D01*
X81278577Y-158202843D01*
X81293818Y-158246599D01*
X81300186Y-158298779D01*
X81297761Y-158362869D01*
X81286627Y-158442355D01*
X81284510Y-158454189D01*
X81240270Y-158704969D01*
X81202376Y-158939397D01*
X81170471Y-159161207D01*
X81144195Y-159374133D01*
X81123190Y-159581910D01*
X81107098Y-159788270D01*
X81095560Y-159996950D01*
X81088218Y-160211681D01*
X81084714Y-160436199D01*
X81084294Y-160539975D01*
X81084419Y-160665149D01*
X81085154Y-160771813D01*
X81086704Y-160862629D01*
X81089275Y-160940258D01*
X81093070Y-161007362D01*
X81098296Y-161066603D01*
X81105158Y-161120642D01*
X81113860Y-161172141D01*
X81124607Y-161223761D01*
X81137604Y-161278165D01*
X81142705Y-161298286D01*
X81183722Y-161423305D01*
X81238381Y-161532241D01*
X81306400Y-161624965D01*
X81387497Y-161701346D01*
X81481387Y-161761255D01*
X81587790Y-161804562D01*
X81706421Y-161831136D01*
X81836998Y-161840847D01*
X81979238Y-161833566D01*
X82132859Y-161809163D01*
X82213647Y-161790551D01*
X82394836Y-161735454D01*
X82580539Y-161660962D01*
X82769268Y-161567988D01*
X82959533Y-161457444D01*
X83149844Y-161330242D01*
X83338713Y-161187294D01*
X83524650Y-161029512D01*
X83655773Y-160907332D01*
X83702218Y-160862485D01*
X83735929Y-160830675D01*
X83759379Y-160810203D01*
X83775041Y-160799371D01*
X83785388Y-160796479D01*
X83792893Y-160799828D01*
X83800030Y-160807721D01*
X83800297Y-160808052D01*
X83812202Y-160825423D01*
G36*
X98738995Y-161856196D02*
G01*
X98732494Y-161887988D01*
X98712273Y-161915933D01*
X98677256Y-161940401D01*
X98626366Y-161961763D01*
X98558528Y-161980390D01*
X98472664Y-161996653D01*
X98367700Y-162010923D01*
X98257253Y-162022256D01*
X98216902Y-162024896D01*
X98161208Y-162027109D01*
X98094128Y-162028870D01*
X98019618Y-162030155D01*
X97941634Y-162030940D01*
X97864133Y-162031203D01*
X97791071Y-162030919D01*
X97726405Y-162030065D01*
X97674090Y-162028617D01*
X97638084Y-162026551D01*
X97632576Y-162025992D01*
X97473317Y-162002563D01*
X97331941Y-161970886D01*
X97206507Y-161930157D01*
X97095072Y-161879572D01*
X96995696Y-161818326D01*
X96906438Y-161745616D01*
X96870258Y-161710186D01*
X96789200Y-161613307D01*
X96728648Y-161511181D01*
X96688559Y-161403674D01*
X96668890Y-161290653D01*
X96669598Y-161171984D01*
X96677645Y-161110105D01*
X96697196Y-161017741D01*
X96724742Y-160918972D01*
X96757380Y-160823261D01*
X96789225Y-160746436D01*
X96818631Y-160682909D01*
X96836892Y-160710760D01*
X96845843Y-160726211D01*
X96849441Y-160741220D01*
X96847503Y-160761695D01*
X96839849Y-160793546D01*
X96833660Y-160816168D01*
X96805541Y-160939978D01*
X96790649Y-161058922D01*
X96789175Y-161169585D01*
X96801313Y-161268554D01*
X96806834Y-161292385D01*
X96844190Y-161395783D01*
X96899725Y-161490791D01*
X96971336Y-161575104D01*
X97056922Y-161646419D01*
X97154378Y-161702432D01*
X97197714Y-161720604D01*
X97264427Y-161743430D01*
X97329659Y-161760383D01*
X97398185Y-161772143D01*
X97474784Y-161779390D01*
X97564232Y-161782805D01*
X97637870Y-161783276D01*
X97713884Y-161782497D01*
X97779963Y-161780245D01*
X97840492Y-161775902D01*
X97899853Y-161768849D01*
X97962429Y-161758469D01*
X98032606Y-161744143D01*
X98114765Y-161725255D01*
X98204248Y-161703428D01*
X98291861Y-161682444D01*
X98362395Y-161667453D01*
X98418982Y-161658128D01*
X98464754Y-161654146D01*
X98502842Y-161655178D01*
X98536380Y-161660900D01*
X98556564Y-161666759D01*
X98607903Y-161690433D01*
X98655630Y-161724325D01*
X98695872Y-161764416D01*
X98724757Y-161806685D01*
X98738414Y-161847111D01*
X98738995Y-161856196D01*
X98738995Y-161856196D01*
G37*
X98738995Y-161856196D02*
X98732494Y-161887988D01*
X98712273Y-161915933D01*
X98677256Y-161940401D01*
X98626366Y-161961763D01*
X98558528Y-161980390D01*
X98472664Y-161996653D01*
X98367700Y-162010923D01*
X98257253Y-162022256D01*
X98216902Y-162024896D01*
X98161208Y-162027109D01*
X98094128Y-162028870D01*
X98019618Y-162030155D01*
X97941634Y-162030940D01*
X97864133Y-162031203D01*
X97791071Y-162030919D01*
X97726405Y-162030065D01*
X97674090Y-162028617D01*
X97638084Y-162026551D01*
X97632576Y-162025992D01*
X97473317Y-162002563D01*
X97331941Y-161970886D01*
X97206507Y-161930157D01*
X97095072Y-161879572D01*
X96995696Y-161818326D01*
X96906438Y-161745616D01*
X96870258Y-161710186D01*
X96789200Y-161613307D01*
X96728648Y-161511181D01*
X96688559Y-161403674D01*
X96668890Y-161290653D01*
X96669598Y-161171984D01*
X96677645Y-161110105D01*
X96697196Y-161017741D01*
X96724742Y-160918972D01*
X96757380Y-160823261D01*
X96789225Y-160746436D01*
X96818631Y-160682909D01*
X96836892Y-160710760D01*
X96845843Y-160726211D01*
X96849441Y-160741220D01*
X96847503Y-160761695D01*
X96839849Y-160793546D01*
X96833660Y-160816168D01*
X96805541Y-160939978D01*
X96790649Y-161058922D01*
X96789175Y-161169585D01*
X96801313Y-161268554D01*
X96806834Y-161292385D01*
X96844190Y-161395783D01*
X96899725Y-161490791D01*
X96971336Y-161575104D01*
X97056922Y-161646419D01*
X97154378Y-161702432D01*
X97197714Y-161720604D01*
X97264427Y-161743430D01*
X97329659Y-161760383D01*
X97398185Y-161772143D01*
X97474784Y-161779390D01*
X97564232Y-161782805D01*
X97637870Y-161783276D01*
X97713884Y-161782497D01*
X97779963Y-161780245D01*
X97840492Y-161775902D01*
X97899853Y-161768849D01*
X97962429Y-161758469D01*
X98032606Y-161744143D01*
X98114765Y-161725255D01*
X98204248Y-161703428D01*
X98291861Y-161682444D01*
X98362395Y-161667453D01*
X98418982Y-161658128D01*
X98464754Y-161654146D01*
X98502842Y-161655178D01*
X98536380Y-161660900D01*
X98556564Y-161666759D01*
X98607903Y-161690433D01*
X98655630Y-161724325D01*
X98695872Y-161764416D01*
X98724757Y-161806685D01*
X98738414Y-161847111D01*
X98738995Y-161856196D01*
G36*
X93600811Y-160026469D02*
G01*
X93598238Y-160184517D01*
X93574974Y-160340791D01*
X93531504Y-160493616D01*
X93468313Y-160641320D01*
X93385884Y-160782229D01*
X93379069Y-160792288D01*
X93328207Y-160859052D01*
X93263752Y-160932043D01*
X93190357Y-161006741D01*
X93112678Y-161078627D01*
X93035366Y-161143179D01*
X92964516Y-161194922D01*
X92823689Y-161280282D01*
X92672425Y-161355248D01*
X92509446Y-161420163D01*
X92333476Y-161475370D01*
X92143236Y-161521213D01*
X91937450Y-161558033D01*
X91714841Y-161586175D01*
X91474131Y-161605981D01*
X91422863Y-161609019D01*
X91341438Y-161613489D01*
X91278640Y-161616680D01*
X91231959Y-161618548D01*
X91198882Y-161619046D01*
X91176899Y-161618128D01*
X91163497Y-161615747D01*
X91156165Y-161611859D01*
X91152391Y-161606417D01*
X91151411Y-161604043D01*
X91149180Y-161577856D01*
X91165073Y-161561491D01*
X91194241Y-161556398D01*
X91227868Y-161554657D01*
X91278362Y-161549799D01*
X91341735Y-161542377D01*
X91413997Y-161532941D01*
X91491162Y-161522043D01*
X91569239Y-161510235D01*
X91644242Y-161498067D01*
X91712180Y-161486091D01*
X91737034Y-161481371D01*
X91948344Y-161433395D01*
X92148754Y-161374266D01*
X92337340Y-161304630D01*
X92513176Y-161225136D01*
X92675340Y-161136431D01*
X92822905Y-161039162D01*
X92954949Y-160933977D01*
X93070547Y-160821523D01*
X93168774Y-160702447D01*
X93248707Y-160577397D01*
X93309420Y-160447020D01*
X93338068Y-160359983D01*
X93367567Y-160218697D01*
X93376798Y-160082886D01*
X93366154Y-159953395D01*
X93336028Y-159831068D01*
X93286815Y-159716749D01*
X93218907Y-159611281D01*
X93132699Y-159515509D01*
X93028585Y-159430275D01*
X92906958Y-159356425D01*
X92858761Y-159332695D01*
X92783875Y-159300462D01*
X92713755Y-159276556D01*
X92643048Y-159259943D01*
X92566397Y-159249587D01*
X92478450Y-159244454D01*
X92396936Y-159243411D01*
X92325239Y-159243849D01*
X92269224Y-159245312D01*
X92223403Y-159248320D01*
X92182288Y-159253391D01*
X92140393Y-159261044D01*
X92092229Y-159271801D01*
X92089064Y-159272545D01*
X92004635Y-159293497D01*
X91924605Y-159315796D01*
X91846261Y-159340535D01*
X91766890Y-159368810D01*
X91683779Y-159401714D01*
X91594216Y-159440342D01*
X91495487Y-159485787D01*
X91384880Y-159539143D01*
X91259682Y-159601505D01*
X91205815Y-159628756D01*
X91094086Y-159684793D01*
X90998860Y-159730947D01*
X90918315Y-159767944D01*
X90850628Y-159796514D01*
X90793978Y-159817383D01*
X90746543Y-159831280D01*
X90706499Y-159838931D01*
X90674150Y-159841080D01*
X90608171Y-159830718D01*
X90541114Y-159800840D01*
X90475097Y-159752863D01*
X90412238Y-159688205D01*
X90377244Y-159642454D01*
X90355052Y-159610212D01*
X90343621Y-159589931D01*
X90341494Y-159576279D01*
X90347214Y-159563921D01*
X90353452Y-159555379D01*
X90372773Y-159529765D01*
X90407686Y-159563899D01*
X90451326Y-159596256D01*
X90500636Y-159611522D01*
X90559790Y-159610753D01*
X90580265Y-159607519D01*
X90634403Y-159594628D01*
X90706578Y-159572745D01*
X90795820Y-159542211D01*
X90901158Y-159503367D01*
X91021621Y-159456555D01*
X91105231Y-159422968D01*
X91319665Y-159339307D01*
X91519386Y-159268782D01*
X91706048Y-159211089D01*
X91881304Y-159165925D01*
X92046806Y-159132987D01*
X92204208Y-159111971D01*
X92355161Y-159102576D01*
X92501320Y-159104497D01*
X92644336Y-159117431D01*
X92714568Y-159127831D01*
X92870665Y-159162458D01*
X93012099Y-159211992D01*
X93139680Y-159276884D01*
X93254220Y-159357583D01*
X93356528Y-159454540D01*
X93405355Y-159511774D01*
X93483572Y-159625150D01*
X93541530Y-159743534D01*
X93579891Y-159868673D01*
X93599320Y-160002314D01*
X93600811Y-160026469D01*
X93600811Y-160026469D01*
G37*
X93600811Y-160026469D02*
X93598238Y-160184517D01*
X93574974Y-160340791D01*
X93531504Y-160493616D01*
X93468313Y-160641320D01*
X93385884Y-160782229D01*
X93379069Y-160792288D01*
X93328207Y-160859052D01*
X93263752Y-160932043D01*
X93190357Y-161006741D01*
X93112678Y-161078627D01*
X93035366Y-161143179D01*
X92964516Y-161194922D01*
X92823689Y-161280282D01*
X92672425Y-161355248D01*
X92509446Y-161420163D01*
X92333476Y-161475370D01*
X92143236Y-161521213D01*
X91937450Y-161558033D01*
X91714841Y-161586175D01*
X91474131Y-161605981D01*
X91422863Y-161609019D01*
X91341438Y-161613489D01*
X91278640Y-161616680D01*
X91231959Y-161618548D01*
X91198882Y-161619046D01*
X91176899Y-161618128D01*
X91163497Y-161615747D01*
X91156165Y-161611859D01*
X91152391Y-161606417D01*
X91151411Y-161604043D01*
X91149180Y-161577856D01*
X91165073Y-161561491D01*
X91194241Y-161556398D01*
X91227868Y-161554657D01*
X91278362Y-161549799D01*
X91341735Y-161542377D01*
X91413997Y-161532941D01*
X91491162Y-161522043D01*
X91569239Y-161510235D01*
X91644242Y-161498067D01*
X91712180Y-161486091D01*
X91737034Y-161481371D01*
X91948344Y-161433395D01*
X92148754Y-161374266D01*
X92337340Y-161304630D01*
X92513176Y-161225136D01*
X92675340Y-161136431D01*
X92822905Y-161039162D01*
X92954949Y-160933977D01*
X93070547Y-160821523D01*
X93168774Y-160702447D01*
X93248707Y-160577397D01*
X93309420Y-160447020D01*
X93338068Y-160359983D01*
X93367567Y-160218697D01*
X93376798Y-160082886D01*
X93366154Y-159953395D01*
X93336028Y-159831068D01*
X93286815Y-159716749D01*
X93218907Y-159611281D01*
X93132699Y-159515509D01*
X93028585Y-159430275D01*
X92906958Y-159356425D01*
X92858761Y-159332695D01*
X92783875Y-159300462D01*
X92713755Y-159276556D01*
X92643048Y-159259943D01*
X92566397Y-159249587D01*
X92478450Y-159244454D01*
X92396936Y-159243411D01*
X92325239Y-159243849D01*
X92269224Y-159245312D01*
X92223403Y-159248320D01*
X92182288Y-159253391D01*
X92140393Y-159261044D01*
X92092229Y-159271801D01*
X92089064Y-159272545D01*
X92004635Y-159293497D01*
X91924605Y-159315796D01*
X91846261Y-159340535D01*
X91766890Y-159368810D01*
X91683779Y-159401714D01*
X91594216Y-159440342D01*
X91495487Y-159485787D01*
X91384880Y-159539143D01*
X91259682Y-159601505D01*
X91205815Y-159628756D01*
X91094086Y-159684793D01*
X90998860Y-159730947D01*
X90918315Y-159767944D01*
X90850628Y-159796514D01*
X90793978Y-159817383D01*
X90746543Y-159831280D01*
X90706499Y-159838931D01*
X90674150Y-159841080D01*
X90608171Y-159830718D01*
X90541114Y-159800840D01*
X90475097Y-159752863D01*
X90412238Y-159688205D01*
X90377244Y-159642454D01*
X90355052Y-159610212D01*
X90343621Y-159589931D01*
X90341494Y-159576279D01*
X90347214Y-159563921D01*
X90353452Y-159555379D01*
X90372773Y-159529765D01*
X90407686Y-159563899D01*
X90451326Y-159596256D01*
X90500636Y-159611522D01*
X90559790Y-159610753D01*
X90580265Y-159607519D01*
X90634403Y-159594628D01*
X90706578Y-159572745D01*
X90795820Y-159542211D01*
X90901158Y-159503367D01*
X91021621Y-159456555D01*
X91105231Y-159422968D01*
X91319665Y-159339307D01*
X91519386Y-159268782D01*
X91706048Y-159211089D01*
X91881304Y-159165925D01*
X92046806Y-159132987D01*
X92204208Y-159111971D01*
X92355161Y-159102576D01*
X92501320Y-159104497D01*
X92644336Y-159117431D01*
X92714568Y-159127831D01*
X92870665Y-159162458D01*
X93012099Y-159211992D01*
X93139680Y-159276884D01*
X93254220Y-159357583D01*
X93356528Y-159454540D01*
X93405355Y-159511774D01*
X93483572Y-159625150D01*
X93541530Y-159743534D01*
X93579891Y-159868673D01*
X93599320Y-160002314D01*
X93600811Y-160026469D01*
G36*
X98569591Y-159457654D02*
G01*
X98564697Y-159477947D01*
X98548890Y-159498093D01*
X98520481Y-159519025D01*
X98477783Y-159541675D01*
X98419105Y-159566975D01*
X98342760Y-159595857D01*
X98278017Y-159618666D01*
X98063708Y-159699600D01*
X97867616Y-159788536D01*
X97688012Y-159886360D01*
X97523169Y-159993958D01*
X97470897Y-160032380D01*
X97438092Y-160056589D01*
X97411766Y-160074859D01*
X97396378Y-160084132D01*
X97394562Y-160084702D01*
X97384993Y-160076395D01*
X97372377Y-160056740D01*
X97366263Y-160043568D01*
X97365680Y-160031997D01*
X97372912Y-160018433D01*
X97390240Y-159999283D01*
X97419947Y-159970953D01*
X97436762Y-159955363D01*
X97532057Y-159868903D01*
X97623961Y-159788829D01*
X97709607Y-159717538D01*
X97786125Y-159657429D01*
X97840388Y-159617928D01*
X97882793Y-159587931D01*
X97921063Y-159559798D01*
X97950359Y-159537143D01*
X97963756Y-159525711D01*
X97980260Y-159507568D01*
X97982216Y-159493699D01*
X97973562Y-159478067D01*
X97963793Y-159466535D01*
X97950175Y-159459624D01*
X97927684Y-159456239D01*
X97891292Y-159455282D01*
X97869364Y-159455350D01*
X97831980Y-159456774D01*
X97791880Y-159460981D01*
X97745260Y-159468657D01*
X97688314Y-159480486D01*
X97617239Y-159497154D01*
X97563755Y-159510381D01*
X97429927Y-159543047D01*
X97313677Y-159569233D01*
X97212485Y-159589116D01*
X97123826Y-159602872D01*
X97045178Y-159610678D01*
X96974019Y-159612710D01*
X96907824Y-159609144D01*
X96844073Y-159600157D01*
X96780241Y-159585925D01*
X96722030Y-159569211D01*
X96684565Y-159556577D01*
X96663847Y-159545707D01*
X96656112Y-159533109D01*
X96657593Y-159515297D01*
X96658723Y-159510562D01*
X96665409Y-159483923D01*
X96730777Y-159504703D01*
X96769980Y-159514688D01*
X96812328Y-159520072D01*
X96859740Y-159520496D01*
X96914135Y-159515599D01*
X96977429Y-159505023D01*
X97051543Y-159488408D01*
X97138393Y-159465395D01*
X97239898Y-159435623D01*
X97357977Y-159398733D01*
X97443374Y-159371143D01*
X97545665Y-159338031D01*
X97631128Y-159311192D01*
X97702944Y-159289970D01*
X97764295Y-159273708D01*
X97818362Y-159261750D01*
X97868326Y-159253437D01*
X97917369Y-159248114D01*
X97968672Y-159245125D01*
X98025415Y-159243811D01*
X98061379Y-159243560D01*
X98130162Y-159243686D01*
X98182729Y-159244894D01*
X98224028Y-159247648D01*
X98259011Y-159252408D01*
X98292626Y-159259637D01*
X98323689Y-159268029D01*
X98397515Y-159294047D01*
X98461278Y-159326200D01*
X98512510Y-159362585D01*
X98548742Y-159401299D01*
X98567505Y-159440439D01*
X98569591Y-159457654D01*
X98569591Y-159457654D01*
G37*
X98569591Y-159457654D02*
X98564697Y-159477947D01*
X98548890Y-159498093D01*
X98520481Y-159519025D01*
X98477783Y-159541675D01*
X98419105Y-159566975D01*
X98342760Y-159595857D01*
X98278017Y-159618666D01*
X98063708Y-159699600D01*
X97867616Y-159788536D01*
X97688012Y-159886360D01*
X97523169Y-159993958D01*
X97470897Y-160032380D01*
X97438092Y-160056589D01*
X97411766Y-160074859D01*
X97396378Y-160084132D01*
X97394562Y-160084702D01*
X97384993Y-160076395D01*
X97372377Y-160056740D01*
X97366263Y-160043568D01*
X97365680Y-160031997D01*
X97372912Y-160018433D01*
X97390240Y-159999283D01*
X97419947Y-159970953D01*
X97436762Y-159955363D01*
X97532057Y-159868903D01*
X97623961Y-159788829D01*
X97709607Y-159717538D01*
X97786125Y-159657429D01*
X97840388Y-159617928D01*
X97882793Y-159587931D01*
X97921063Y-159559798D01*
X97950359Y-159537143D01*
X97963756Y-159525711D01*
X97980260Y-159507568D01*
X97982216Y-159493699D01*
X97973562Y-159478067D01*
X97963793Y-159466535D01*
X97950175Y-159459624D01*
X97927684Y-159456239D01*
X97891292Y-159455282D01*
X97869364Y-159455350D01*
X97831980Y-159456774D01*
X97791880Y-159460981D01*
X97745260Y-159468657D01*
X97688314Y-159480486D01*
X97617239Y-159497154D01*
X97563755Y-159510381D01*
X97429927Y-159543047D01*
X97313677Y-159569233D01*
X97212485Y-159589116D01*
X97123826Y-159602872D01*
X97045178Y-159610678D01*
X96974019Y-159612710D01*
X96907824Y-159609144D01*
X96844073Y-159600157D01*
X96780241Y-159585925D01*
X96722030Y-159569211D01*
X96684565Y-159556577D01*
X96663847Y-159545707D01*
X96656112Y-159533109D01*
X96657593Y-159515297D01*
X96658723Y-159510562D01*
X96665409Y-159483923D01*
X96730777Y-159504703D01*
X96769980Y-159514688D01*
X96812328Y-159520072D01*
X96859740Y-159520496D01*
X96914135Y-159515599D01*
X96977429Y-159505023D01*
X97051543Y-159488408D01*
X97138393Y-159465395D01*
X97239898Y-159435623D01*
X97357977Y-159398733D01*
X97443374Y-159371143D01*
X97545665Y-159338031D01*
X97631128Y-159311192D01*
X97702944Y-159289970D01*
X97764295Y-159273708D01*
X97818362Y-159261750D01*
X97868326Y-159253437D01*
X97917369Y-159248114D01*
X97968672Y-159245125D01*
X98025415Y-159243811D01*
X98061379Y-159243560D01*
X98130162Y-159243686D01*
X98182729Y-159244894D01*
X98224028Y-159247648D01*
X98259011Y-159252408D01*
X98292626Y-159259637D01*
X98323689Y-159268029D01*
X98397515Y-159294047D01*
X98461278Y-159326200D01*
X98512510Y-159362585D01*
X98548742Y-159401299D01*
X98567505Y-159440439D01*
X98569591Y-159457654D01*
G36*
X110089257Y-158321094D02*
G01*
X110314650Y-158414455D01*
X110517498Y-158549994D01*
X110690006Y-158722502D01*
X110825545Y-158925350D01*
X110918906Y-159150743D01*
X110966500Y-159390018D01*
X110966500Y-159633982D01*
X110918906Y-159873257D01*
X110825545Y-160098650D01*
X110690006Y-160301498D01*
X110517498Y-160474006D01*
X110314650Y-160609545D01*
X110089257Y-160702906D01*
X109849982Y-160750500D01*
X109606018Y-160750500D01*
X109366743Y-160702906D01*
X109141350Y-160609545D01*
X108938502Y-160474006D01*
X108765994Y-160301498D01*
X108630455Y-160098650D01*
X108537094Y-159873257D01*
X108489500Y-159633982D01*
X108489500Y-159390018D01*
X108537094Y-159150743D01*
X108630455Y-158925350D01*
X108765994Y-158722502D01*
X108938502Y-158549994D01*
X109141350Y-158414455D01*
X109366743Y-158321094D01*
X109606018Y-158273500D01*
X109849982Y-158273500D01*
X110089257Y-158321094D01*
X110089257Y-158321094D01*
G37*
G36*
X105009257Y-158321094D02*
G01*
X105234650Y-158414455D01*
X105437498Y-158549994D01*
X105610006Y-158722502D01*
X105745545Y-158925350D01*
X105838906Y-159150743D01*
X105886500Y-159390018D01*
X105886500Y-159633982D01*
X105838906Y-159873257D01*
X105745545Y-160098650D01*
X105610006Y-160301498D01*
X105437498Y-160474006D01*
X105234650Y-160609545D01*
X105009257Y-160702906D01*
X104769982Y-160750500D01*
X104526018Y-160750500D01*
X104286743Y-160702906D01*
X104061350Y-160609545D01*
X103858502Y-160474006D01*
X103685994Y-160301498D01*
X103550455Y-160098650D01*
X103457094Y-159873257D01*
X103409500Y-159633982D01*
X103409500Y-159390018D01*
X103457094Y-159150743D01*
X103550455Y-158925350D01*
X103685994Y-158722502D01*
X103858502Y-158549994D01*
X104061350Y-158414455D01*
X104286743Y-158321094D01*
X104526018Y-158273500D01*
X104769982Y-158273500D01*
X105009257Y-158321094D01*
X105009257Y-158321094D01*
G37*
G36*
X107347350Y-158986694D02*
G01*
X107446770Y-159027875D01*
X107536249Y-159087663D01*
X107612337Y-159163751D01*
X107672125Y-159253230D01*
X107713306Y-159352650D01*
X107734300Y-159458194D01*
X107734300Y-159565806D01*
X107713306Y-159671350D01*
X107672125Y-159770770D01*
X107612337Y-159860249D01*
X107536249Y-159936337D01*
X107536246Y-159936339D01*
X107446770Y-159996125D01*
X107347350Y-160037306D01*
X107241806Y-160058300D01*
X107134194Y-160058300D01*
X107028650Y-160037306D01*
X106929230Y-159996125D01*
X106839754Y-159936339D01*
X106839751Y-159936337D01*
X106763663Y-159860249D01*
X106703875Y-159770770D01*
X106662694Y-159671350D01*
X106641700Y-159565806D01*
X106641700Y-159458194D01*
X106662694Y-159352650D01*
X106703875Y-159253230D01*
X106763663Y-159163751D01*
X106839751Y-159087663D01*
X106929230Y-159027875D01*
X107028650Y-158986694D01*
X107134194Y-158965700D01*
X107241806Y-158965700D01*
X107347350Y-158986694D01*
X107347350Y-158986694D01*
G37*
G36*
X149950316Y-156845153D02*
G01*
X149950318Y-156845154D01*
X149950319Y-156845154D01*
X150031056Y-156878597D01*
X150168888Y-156935688D01*
X150267576Y-157001629D01*
X150365593Y-157067122D01*
X150532878Y-157234407D01*
X150588346Y-157317421D01*
X150664312Y-157431112D01*
X150754847Y-157649684D01*
X150801000Y-157881710D01*
X150801000Y-158118290D01*
X150754847Y-158350316D01*
X150664312Y-158568888D01*
X150598371Y-158667576D01*
X150532878Y-158765593D01*
X150365593Y-158932878D01*
X150316471Y-158965700D01*
X150168888Y-159064312D01*
X150112518Y-159087661D01*
X149950319Y-159154846D01*
X149950318Y-159154846D01*
X149950316Y-159154847D01*
X149718290Y-159201000D01*
X149481710Y-159201000D01*
X149249684Y-159154847D01*
X149249682Y-159154846D01*
X149249681Y-159154846D01*
X149087482Y-159087661D01*
X149031112Y-159064312D01*
X148883529Y-158965700D01*
X148834407Y-158932878D01*
X148667122Y-158765593D01*
X148601629Y-158667576D01*
X148535688Y-158568888D01*
X148445153Y-158350316D01*
X148399000Y-158118290D01*
X148399000Y-157881710D01*
X148445153Y-157649684D01*
X148535688Y-157431112D01*
X148611654Y-157317421D01*
X148667122Y-157234407D01*
X148834407Y-157067122D01*
X148932424Y-157001629D01*
X149031112Y-156935688D01*
X149168944Y-156878597D01*
X149249681Y-156845154D01*
X149249682Y-156845154D01*
X149249684Y-156845153D01*
X149481710Y-156799000D01*
X149718290Y-156799000D01*
X149950316Y-156845153D01*
X149950316Y-156845153D01*
G37*
G36*
X107952714Y-157814389D02*
G01*
X108033644Y-157847911D01*
X108106483Y-157896581D01*
X108168419Y-157958517D01*
X108217089Y-158031356D01*
X108250611Y-158112286D01*
X108267700Y-158198199D01*
X108267700Y-158285801D01*
X108250611Y-158371714D01*
X108217089Y-158452644D01*
X108168419Y-158525483D01*
X108106483Y-158587419D01*
X108033644Y-158636089D01*
X107952714Y-158669611D01*
X107866801Y-158686700D01*
X107779199Y-158686700D01*
X107693286Y-158669611D01*
X107612356Y-158636089D01*
X107539517Y-158587419D01*
X107477581Y-158525483D01*
X107428911Y-158452644D01*
X107395389Y-158371714D01*
X107378300Y-158285801D01*
X107378300Y-158198199D01*
X107395389Y-158112286D01*
X107428911Y-158031356D01*
X107477581Y-157958517D01*
X107539517Y-157896581D01*
X107612356Y-157847911D01*
X107693286Y-157814389D01*
X107779199Y-157797300D01*
X107866801Y-157797300D01*
X107952714Y-157814389D01*
X107952714Y-157814389D01*
G37*
G36*
X106682714Y-157814389D02*
G01*
X106763644Y-157847911D01*
X106836483Y-157896581D01*
X106898419Y-157958517D01*
X106947089Y-158031356D01*
X106980611Y-158112286D01*
X106997700Y-158198199D01*
X106997700Y-158285801D01*
X106980611Y-158371714D01*
X106947089Y-158452644D01*
X106898419Y-158525483D01*
X106836483Y-158587419D01*
X106763644Y-158636089D01*
X106682714Y-158669611D01*
X106596801Y-158686700D01*
X106509199Y-158686700D01*
X106423286Y-158669611D01*
X106342356Y-158636089D01*
X106269517Y-158587419D01*
X106207581Y-158525483D01*
X106158911Y-158452644D01*
X106125389Y-158371714D01*
X106108300Y-158285801D01*
X106108300Y-158198199D01*
X106125389Y-158112286D01*
X106158911Y-158031356D01*
X106207581Y-157958517D01*
X106269517Y-157896581D01*
X106342356Y-157847911D01*
X106423286Y-157814389D01*
X106509199Y-157797300D01*
X106596801Y-157797300D01*
X106682714Y-157814389D01*
X106682714Y-157814389D01*
G37*
G36*
X141537000Y-158489000D02*
G01*
X140235000Y-158489000D01*
X140235000Y-157487000D01*
X141537000Y-157487000D01*
X141537000Y-158489000D01*
X141537000Y-158489000D01*
G37*
G36*
X143737000Y-158489000D02*
G01*
X142435000Y-158489000D01*
X142435000Y-157487000D01*
X143737000Y-157487000D01*
X143737000Y-158489000D01*
X143737000Y-158489000D01*
G37*
G36*
X145242480Y-158437780D02*
G01*
X144342920Y-158437780D01*
X144342920Y-157538220D01*
X145242480Y-157538220D01*
X145242480Y-158437780D01*
X145242480Y-158437780D01*
G37*
G36*
X146741080Y-158437780D02*
G01*
X145841520Y-158437780D01*
X145841520Y-157538220D01*
X146741080Y-157538220D01*
X146741080Y-158437780D01*
X146741080Y-158437780D01*
G37*
G36*
X107952714Y-156544389D02*
G01*
X108033644Y-156577911D01*
X108106483Y-156626581D01*
X108168419Y-156688517D01*
X108217089Y-156761356D01*
X108250611Y-156842286D01*
X108267700Y-156928199D01*
X108267700Y-157015801D01*
X108250611Y-157101714D01*
X108217089Y-157182644D01*
X108168419Y-157255483D01*
X108106483Y-157317419D01*
X108033644Y-157366089D01*
X107952714Y-157399611D01*
X107866801Y-157416700D01*
X107779199Y-157416700D01*
X107693286Y-157399611D01*
X107612356Y-157366089D01*
X107539517Y-157317419D01*
X107477581Y-157255483D01*
X107428911Y-157182644D01*
X107395389Y-157101714D01*
X107378300Y-157015801D01*
X107378300Y-156928199D01*
X107395389Y-156842286D01*
X107428911Y-156761356D01*
X107477581Y-156688517D01*
X107539517Y-156626581D01*
X107612356Y-156577911D01*
X107693286Y-156544389D01*
X107779199Y-156527300D01*
X107866801Y-156527300D01*
X107952714Y-156544389D01*
X107952714Y-156544389D01*
G37*
G36*
X106682714Y-156544389D02*
G01*
X106763644Y-156577911D01*
X106836483Y-156626581D01*
X106898419Y-156688517D01*
X106947089Y-156761356D01*
X106980611Y-156842286D01*
X106997700Y-156928199D01*
X106997700Y-157015801D01*
X106980611Y-157101714D01*
X106947089Y-157182644D01*
X106898419Y-157255483D01*
X106836483Y-157317419D01*
X106763644Y-157366089D01*
X106682714Y-157399611D01*
X106596801Y-157416700D01*
X106509199Y-157416700D01*
X106423286Y-157399611D01*
X106342356Y-157366089D01*
X106269517Y-157317419D01*
X106207581Y-157255483D01*
X106158911Y-157182644D01*
X106125389Y-157101714D01*
X106108300Y-157015801D01*
X106108300Y-156928199D01*
X106125389Y-156842286D01*
X106158911Y-156761356D01*
X106207581Y-156688517D01*
X106269517Y-156626581D01*
X106342356Y-156577911D01*
X106423286Y-156544389D01*
X106509199Y-156527300D01*
X106596801Y-156527300D01*
X106682714Y-156544389D01*
X106682714Y-156544389D01*
G37*
G36*
X140963000Y-156183000D02*
G01*
X139961000Y-156183000D01*
X139961000Y-154881000D01*
X140963000Y-154881000D01*
X140963000Y-156183000D01*
X140963000Y-156183000D01*
G37*
G36*
X146043000Y-156183000D02*
G01*
X145041000Y-156183000D01*
X145041000Y-154881000D01*
X146043000Y-154881000D01*
X146043000Y-156183000D01*
X146043000Y-156183000D01*
G37*
G36*
X107952714Y-155274389D02*
G01*
X108033644Y-155307911D01*
X108106483Y-155356581D01*
X108168419Y-155418517D01*
X108217089Y-155491356D01*
X108250611Y-155572286D01*
X108267700Y-155658199D01*
X108267700Y-155745801D01*
X108250611Y-155831714D01*
X108217089Y-155912644D01*
X108168419Y-155985483D01*
X108106483Y-156047419D01*
X108033644Y-156096089D01*
X107952714Y-156129611D01*
X107866801Y-156146700D01*
X107779199Y-156146700D01*
X107693286Y-156129611D01*
X107612356Y-156096089D01*
X107539517Y-156047419D01*
X107477581Y-155985483D01*
X107428911Y-155912644D01*
X107395389Y-155831714D01*
X107378300Y-155745801D01*
X107378300Y-155658199D01*
X107395389Y-155572286D01*
X107428911Y-155491356D01*
X107477581Y-155418517D01*
X107539517Y-155356581D01*
X107612356Y-155307911D01*
X107693286Y-155274389D01*
X107779199Y-155257300D01*
X107866801Y-155257300D01*
X107952714Y-155274389D01*
X107952714Y-155274389D01*
G37*
G36*
X106682714Y-155274389D02*
G01*
X106763644Y-155307911D01*
X106836483Y-155356581D01*
X106898419Y-155418517D01*
X106947089Y-155491356D01*
X106980611Y-155572286D01*
X106997700Y-155658199D01*
X106997700Y-155745801D01*
X106980611Y-155831714D01*
X106947089Y-155912644D01*
X106898419Y-155985483D01*
X106836483Y-156047419D01*
X106763644Y-156096089D01*
X106682714Y-156129611D01*
X106596801Y-156146700D01*
X106509199Y-156146700D01*
X106423286Y-156129611D01*
X106342356Y-156096089D01*
X106269517Y-156047419D01*
X106207581Y-155985483D01*
X106158911Y-155912644D01*
X106125389Y-155831714D01*
X106108300Y-155745801D01*
X106108300Y-155658199D01*
X106125389Y-155572286D01*
X106158911Y-155491356D01*
X106207581Y-155418517D01*
X106269517Y-155356581D01*
X106342356Y-155307911D01*
X106423286Y-155274389D01*
X106509199Y-155257300D01*
X106596801Y-155257300D01*
X106682714Y-155274389D01*
X106682714Y-155274389D01*
G37*
G36*
X147583000Y-155833000D02*
G01*
X146581000Y-155833000D01*
X146581000Y-154931000D01*
X147583000Y-154931000D01*
X147583000Y-155833000D01*
X147583000Y-155833000D01*
G37*
G36*
X142503000Y-155833000D02*
G01*
X141501000Y-155833000D01*
X141501000Y-154931000D01*
X142503000Y-154931000D01*
X142503000Y-155833000D01*
X142503000Y-155833000D01*
G37*
G36*
X96692000Y-155271000D02*
G01*
X95840000Y-155271000D01*
X95840000Y-153969000D01*
X96692000Y-153969000D01*
X96692000Y-155271000D01*
X96692000Y-155271000D01*
G37*
G36*
X110089257Y-152606094D02*
G01*
X110314650Y-152699455D01*
X110517498Y-152834994D01*
X110690006Y-153007502D01*
X110825545Y-153210350D01*
X110918906Y-153435743D01*
X110966500Y-153675018D01*
X110966500Y-153918982D01*
X110918906Y-154158257D01*
X110825545Y-154383650D01*
X110690006Y-154586498D01*
X110517498Y-154759006D01*
X110314650Y-154894545D01*
X110089257Y-154987906D01*
X109849982Y-155035500D01*
X109606018Y-155035500D01*
X109366743Y-154987906D01*
X109141350Y-154894545D01*
X108938502Y-154759006D01*
X108765994Y-154586498D01*
X108630455Y-154383650D01*
X108537094Y-154158257D01*
X108489500Y-153918982D01*
X108489500Y-153675018D01*
X108537094Y-153435743D01*
X108630455Y-153210350D01*
X108765994Y-153007502D01*
X108938502Y-152834994D01*
X109141350Y-152699455D01*
X109366743Y-152606094D01*
X109606018Y-152558500D01*
X109849982Y-152558500D01*
X110089257Y-152606094D01*
X110089257Y-152606094D01*
G37*
G36*
X105009257Y-152606094D02*
G01*
X105234650Y-152699455D01*
X105437498Y-152834994D01*
X105610006Y-153007502D01*
X105745545Y-153210350D01*
X105838906Y-153435743D01*
X105886500Y-153675018D01*
X105886500Y-153918982D01*
X105838906Y-154158257D01*
X105745545Y-154383650D01*
X105610006Y-154586498D01*
X105437498Y-154759006D01*
X105234650Y-154894545D01*
X105009257Y-154987906D01*
X104769982Y-155035500D01*
X104526018Y-155035500D01*
X104286743Y-154987906D01*
X104061350Y-154894545D01*
X103858502Y-154759006D01*
X103685994Y-154586498D01*
X103550455Y-154383650D01*
X103457094Y-154158257D01*
X103409500Y-153918982D01*
X103409500Y-153675018D01*
X103457094Y-153435743D01*
X103550455Y-153210350D01*
X103685994Y-153007502D01*
X103858502Y-152834994D01*
X104061350Y-152699455D01*
X104286743Y-152606094D01*
X104526018Y-152558500D01*
X104769982Y-152558500D01*
X105009257Y-152606094D01*
X105009257Y-152606094D01*
G37*
G36*
X149583000Y-154883000D02*
G01*
X148581000Y-154883000D01*
X148581000Y-153981000D01*
X149583000Y-153981000D01*
X149583000Y-154883000D01*
X149583000Y-154883000D01*
G37*
G36*
X144503000Y-154883000D02*
G01*
X143501000Y-154883000D01*
X143501000Y-153981000D01*
X144503000Y-153981000D01*
X144503000Y-154883000D01*
X144503000Y-154883000D01*
G37*
G36*
X107952714Y-154004389D02*
G01*
X108033644Y-154037911D01*
X108106483Y-154086581D01*
X108168419Y-154148517D01*
X108217089Y-154221356D01*
X108250611Y-154302286D01*
X108267700Y-154388199D01*
X108267700Y-154475801D01*
X108250611Y-154561714D01*
X108217089Y-154642644D01*
X108168419Y-154715483D01*
X108106483Y-154777419D01*
X108033644Y-154826089D01*
X107952714Y-154859611D01*
X107866801Y-154876700D01*
X107779199Y-154876700D01*
X107693286Y-154859611D01*
X107612356Y-154826089D01*
X107539517Y-154777419D01*
X107477581Y-154715483D01*
X107428911Y-154642644D01*
X107395389Y-154561714D01*
X107378300Y-154475801D01*
X107378300Y-154388199D01*
X107395389Y-154302286D01*
X107428911Y-154221356D01*
X107477581Y-154148517D01*
X107539517Y-154086581D01*
X107612356Y-154037911D01*
X107693286Y-154004389D01*
X107779199Y-153987300D01*
X107866801Y-153987300D01*
X107952714Y-154004389D01*
X107952714Y-154004389D01*
G37*
G36*
X106682714Y-154004389D02*
G01*
X106763644Y-154037911D01*
X106836483Y-154086581D01*
X106898419Y-154148517D01*
X106947089Y-154221356D01*
X106980611Y-154302286D01*
X106997700Y-154388199D01*
X106997700Y-154475801D01*
X106980611Y-154561714D01*
X106947089Y-154642644D01*
X106898419Y-154715483D01*
X106836483Y-154777419D01*
X106763644Y-154826089D01*
X106682714Y-154859611D01*
X106596801Y-154876700D01*
X106509199Y-154876700D01*
X106423286Y-154859611D01*
X106342356Y-154826089D01*
X106269517Y-154777419D01*
X106207581Y-154715483D01*
X106158911Y-154642644D01*
X106125389Y-154561714D01*
X106108300Y-154475801D01*
X106108300Y-154388199D01*
X106125389Y-154302286D01*
X106158911Y-154221356D01*
X106207581Y-154148517D01*
X106269517Y-154086581D01*
X106342356Y-154037911D01*
X106423286Y-154004389D01*
X106509199Y-153987300D01*
X106596801Y-153987300D01*
X106682714Y-154004389D01*
X106682714Y-154004389D01*
G37*
G36*
X129753000Y-154611000D02*
G01*
X127651000Y-154611000D01*
X127651000Y-152729000D01*
X129753000Y-152729000D01*
X129753000Y-154611000D01*
X129753000Y-154611000D01*
G37*
G36*
X120253000Y-154611000D02*
G01*
X118151000Y-154611000D01*
X118151000Y-152729000D01*
X120253000Y-152729000D01*
X120253000Y-154611000D01*
X120253000Y-154611000D01*
G37*
G36*
X115779000Y-154096000D02*
G01*
X114477000Y-154096000D01*
X114477000Y-153244000D01*
X115779000Y-153244000D01*
X115779000Y-154096000D01*
X115779000Y-154096000D01*
G37*
G36*
X117679000Y-154096000D02*
G01*
X116377000Y-154096000D01*
X116377000Y-153244000D01*
X117679000Y-153244000D01*
X117679000Y-154096000D01*
X117679000Y-154096000D01*
G37*
G36*
X140963000Y-153983000D02*
G01*
X139961000Y-153983000D01*
X139961000Y-152681000D01*
X140963000Y-152681000D01*
X140963000Y-153983000D01*
X140963000Y-153983000D01*
G37*
G36*
X146043000Y-153983000D02*
G01*
X145041000Y-153983000D01*
X145041000Y-152681000D01*
X146043000Y-152681000D01*
X146043000Y-153983000D01*
X146043000Y-153983000D01*
G37*
G36*
X142503000Y-153933000D02*
G01*
X141501000Y-153933000D01*
X141501000Y-153031000D01*
X142503000Y-153031000D01*
X142503000Y-153933000D01*
X142503000Y-153933000D01*
G37*
G36*
X147583000Y-153933000D02*
G01*
X146581000Y-153933000D01*
X146581000Y-153031000D01*
X147583000Y-153031000D01*
X147583000Y-153933000D01*
X147583000Y-153933000D01*
G37*
G36*
X106682714Y-152734389D02*
G01*
X106763644Y-152767911D01*
X106836483Y-152816581D01*
X106898419Y-152878517D01*
X106947089Y-152951356D01*
X106980611Y-153032286D01*
X106997700Y-153118199D01*
X106997700Y-153205801D01*
X106980611Y-153291714D01*
X106947089Y-153372644D01*
X106898419Y-153445483D01*
X106836483Y-153507419D01*
X106763644Y-153556089D01*
X106682714Y-153589611D01*
X106596801Y-153606700D01*
X106509199Y-153606700D01*
X106423286Y-153589611D01*
X106342356Y-153556089D01*
X106269517Y-153507419D01*
X106207581Y-153445483D01*
X106158911Y-153372644D01*
X106125389Y-153291714D01*
X106108300Y-153205801D01*
X106108300Y-153118199D01*
X106125389Y-153032286D01*
X106158911Y-152951356D01*
X106207581Y-152878517D01*
X106269517Y-152816581D01*
X106342356Y-152767911D01*
X106423286Y-152734389D01*
X106509199Y-152717300D01*
X106596801Y-152717300D01*
X106682714Y-152734389D01*
X106682714Y-152734389D01*
G37*
G36*
X107952714Y-152734389D02*
G01*
X108033644Y-152767911D01*
X108106483Y-152816581D01*
X108168419Y-152878517D01*
X108217089Y-152951356D01*
X108250611Y-153032286D01*
X108267700Y-153118199D01*
X108267700Y-153205801D01*
X108250611Y-153291714D01*
X108217089Y-153372644D01*
X108168419Y-153445483D01*
X108106483Y-153507419D01*
X108033644Y-153556089D01*
X107952714Y-153589611D01*
X107866801Y-153606700D01*
X107779199Y-153606700D01*
X107693286Y-153589611D01*
X107612356Y-153556089D01*
X107539517Y-153507419D01*
X107477581Y-153445483D01*
X107428911Y-153372644D01*
X107395389Y-153291714D01*
X107378300Y-153205801D01*
X107378300Y-153118199D01*
X107395389Y-153032286D01*
X107428911Y-152951356D01*
X107477581Y-152878517D01*
X107539517Y-152816581D01*
X107612356Y-152767911D01*
X107693286Y-152734389D01*
X107779199Y-152717300D01*
X107866801Y-152717300D01*
X107952714Y-152734389D01*
X107952714Y-152734389D01*
G37*
G36*
X96692000Y-153371000D02*
G01*
X95840000Y-153371000D01*
X95840000Y-152069000D01*
X96692000Y-152069000D01*
X96692000Y-153371000D01*
X96692000Y-153371000D01*
G37*
G36*
X108362350Y-151366694D02*
G01*
X108461770Y-151407875D01*
X108551249Y-151467663D01*
X108627337Y-151543751D01*
X108687125Y-151633230D01*
X108728306Y-151732650D01*
X108749300Y-151838194D01*
X108749300Y-151945806D01*
X108728306Y-152051350D01*
X108687125Y-152150770D01*
X108627337Y-152240249D01*
X108551249Y-152316337D01*
X108461770Y-152376125D01*
X108362350Y-152417306D01*
X108256806Y-152438300D01*
X108149194Y-152438300D01*
X108043650Y-152417306D01*
X107944230Y-152376125D01*
X107854751Y-152316337D01*
X107778663Y-152240249D01*
X107718875Y-152150770D01*
X107677694Y-152051350D01*
X107656700Y-151945806D01*
X107656700Y-151838194D01*
X107677694Y-151732650D01*
X107718875Y-151633230D01*
X107778663Y-151543751D01*
X107854751Y-151467663D01*
X107944230Y-151407875D01*
X108043650Y-151366694D01*
X108149194Y-151345700D01*
X108256806Y-151345700D01*
X108362350Y-151366694D01*
X108362350Y-151366694D01*
G37*
G36*
X106332350Y-151366694D02*
G01*
X106431770Y-151407875D01*
X106521249Y-151467663D01*
X106597337Y-151543751D01*
X106657125Y-151633230D01*
X106698306Y-151732650D01*
X106719300Y-151838194D01*
X106719300Y-151945806D01*
X106698306Y-152051350D01*
X106657125Y-152150770D01*
X106597337Y-152240249D01*
X106521249Y-152316337D01*
X106431770Y-152376125D01*
X106332350Y-152417306D01*
X106226806Y-152438300D01*
X106119194Y-152438300D01*
X106013650Y-152417306D01*
X105914230Y-152376125D01*
X105824751Y-152316337D01*
X105748663Y-152240249D01*
X105688875Y-152150770D01*
X105647694Y-152051350D01*
X105626700Y-151945806D01*
X105626700Y-151838194D01*
X105647694Y-151732650D01*
X105688875Y-151633230D01*
X105748663Y-151543751D01*
X105824751Y-151467663D01*
X105914230Y-151407875D01*
X106013650Y-151366694D01*
X106119194Y-151345700D01*
X106226806Y-151345700D01*
X106332350Y-151366694D01*
X106332350Y-151366694D01*
G37*
G36*
X139673000Y-152139000D02*
G01*
X138371000Y-152139000D01*
X138371000Y-151137000D01*
X139673000Y-151137000D01*
X139673000Y-152139000D01*
X139673000Y-152139000D01*
G37*
G36*
X141537000Y-152139000D02*
G01*
X140235000Y-152139000D01*
X140235000Y-151137000D01*
X141537000Y-151137000D01*
X141537000Y-152139000D01*
X141537000Y-152139000D01*
G37*
G36*
X143737000Y-152139000D02*
G01*
X142435000Y-152139000D01*
X142435000Y-151137000D01*
X143737000Y-151137000D01*
X143737000Y-152139000D01*
X143737000Y-152139000D01*
G37*
G36*
X137473000Y-152139000D02*
G01*
X136171000Y-152139000D01*
X136171000Y-151137000D01*
X137473000Y-151137000D01*
X137473000Y-152139000D01*
X137473000Y-152139000D01*
G37*
G36*
X129753000Y-152071000D02*
G01*
X127651000Y-152071000D01*
X127651000Y-150189000D01*
X129753000Y-150189000D01*
X129753000Y-152071000D01*
X129753000Y-152071000D01*
G37*
G36*
X120253000Y-152071000D02*
G01*
X118151000Y-152071000D01*
X118151000Y-150189000D01*
X120253000Y-150189000D01*
X120253000Y-152071000D01*
X120253000Y-152071000D01*
G37*
G36*
X131631000Y-151631000D02*
G01*
X130329000Y-151631000D01*
X130329000Y-150629000D01*
X131631000Y-150629000D01*
X131631000Y-151631000D01*
X131631000Y-151631000D01*
G37*
G36*
X133831000Y-151631000D02*
G01*
X132529000Y-151631000D01*
X132529000Y-150629000D01*
X133831000Y-150629000D01*
X133831000Y-151631000D01*
X133831000Y-151631000D01*
G37*
G36*
X117595000Y-151611000D02*
G01*
X116593000Y-151611000D01*
X116593000Y-150309000D01*
X117595000Y-150309000D01*
X117595000Y-151611000D01*
X117595000Y-151611000D01*
G37*
G36*
X101354000Y-151535000D02*
G01*
X92702000Y-151535000D01*
X92702000Y-149933000D01*
X101354000Y-149933000D01*
X101354000Y-151535000D01*
X101354000Y-151535000D01*
G37*
G36*
X149950316Y-148845153D02*
G01*
X149950318Y-148845154D01*
X149950319Y-148845154D01*
X150019959Y-148874000D01*
X150168888Y-148935688D01*
X150267576Y-149001629D01*
X150365593Y-149067122D01*
X150532878Y-149234407D01*
X150598371Y-149332424D01*
X150664312Y-149431112D01*
X150754847Y-149649684D01*
X150801000Y-149881710D01*
X150801000Y-150118290D01*
X150754847Y-150350316D01*
X150664312Y-150568888D01*
X150624146Y-150629000D01*
X150532878Y-150765593D01*
X150365593Y-150932878D01*
X150267576Y-150998371D01*
X150168888Y-151064312D01*
X150031056Y-151121403D01*
X149950319Y-151154846D01*
X149950318Y-151154846D01*
X149950316Y-151154847D01*
X149718290Y-151201000D01*
X149481710Y-151201000D01*
X149249684Y-151154847D01*
X149249682Y-151154846D01*
X149249681Y-151154846D01*
X149168944Y-151121403D01*
X149031112Y-151064312D01*
X148932424Y-150998371D01*
X148834407Y-150932878D01*
X148667122Y-150765593D01*
X148575854Y-150629000D01*
X148535688Y-150568888D01*
X148445153Y-150350316D01*
X148399000Y-150118290D01*
X148399000Y-149881710D01*
X148445153Y-149649684D01*
X148535688Y-149431112D01*
X148601629Y-149332424D01*
X148667122Y-149234407D01*
X148834407Y-149067122D01*
X148932424Y-149001629D01*
X149031112Y-148935688D01*
X149180041Y-148874000D01*
X149249681Y-148845154D01*
X149249682Y-148845154D01*
X149249684Y-148845153D01*
X149481710Y-148799000D01*
X149718290Y-148799000D01*
X149950316Y-148845153D01*
X149950316Y-148845153D01*
G37*
G36*
X76107000Y-150846000D02*
G01*
X74005000Y-150846000D01*
X74005000Y-150144000D01*
X76107000Y-150144000D01*
X76107000Y-150846000D01*
X76107000Y-150846000D01*
G37*
G36*
X85507000Y-150846000D02*
G01*
X83405000Y-150846000D01*
X83405000Y-150144000D01*
X85507000Y-150144000D01*
X85507000Y-150846000D01*
X85507000Y-150846000D01*
G37*
G36*
X141537000Y-150615000D02*
G01*
X140235000Y-150615000D01*
X140235000Y-149613000D01*
X141537000Y-149613000D01*
X141537000Y-150615000D01*
X141537000Y-150615000D01*
G37*
G36*
X143737000Y-150615000D02*
G01*
X142435000Y-150615000D01*
X142435000Y-149613000D01*
X143737000Y-149613000D01*
X143737000Y-150615000D01*
X143737000Y-150615000D01*
G37*
G36*
X146741080Y-150563780D02*
G01*
X145841520Y-150563780D01*
X145841520Y-149664220D01*
X146741080Y-149664220D01*
X146741080Y-150563780D01*
X146741080Y-150563780D01*
G37*
G36*
X145242480Y-150563780D02*
G01*
X144342920Y-150563780D01*
X144342920Y-149664220D01*
X145242480Y-149664220D01*
X145242480Y-150563780D01*
X145242480Y-150563780D01*
G37*
G36*
X109660000Y-150234000D02*
G01*
X108358000Y-150234000D01*
X108358000Y-149232000D01*
X109660000Y-149232000D01*
X109660000Y-150234000D01*
X109660000Y-150234000D01*
G37*
G36*
X111860000Y-150234000D02*
G01*
X110558000Y-150234000D01*
X110558000Y-149232000D01*
X111860000Y-149232000D01*
X111860000Y-150234000D01*
X111860000Y-150234000D01*
G37*
G36*
X85507000Y-149576000D02*
G01*
X83405000Y-149576000D01*
X83405000Y-148874000D01*
X85507000Y-148874000D01*
X85507000Y-149576000D01*
X85507000Y-149576000D01*
G37*
G36*
X76107000Y-149576000D02*
G01*
X74005000Y-149576000D01*
X74005000Y-148874000D01*
X76107000Y-148874000D01*
X76107000Y-149576000D01*
X76107000Y-149576000D01*
G37*
G36*
X120253000Y-149531000D02*
G01*
X118151000Y-149531000D01*
X118151000Y-147649000D01*
X120253000Y-147649000D01*
X120253000Y-149531000D01*
X120253000Y-149531000D01*
G37*
G36*
X129753000Y-149531000D02*
G01*
X127651000Y-149531000D01*
X127651000Y-147649000D01*
X129753000Y-147649000D01*
X129753000Y-149531000D01*
X129753000Y-149531000D01*
G37*
G36*
X117595000Y-149411000D02*
G01*
X116593000Y-149411000D01*
X116593000Y-148109000D01*
X117595000Y-148109000D01*
X117595000Y-149411000D01*
X117595000Y-149411000D01*
G37*
G36*
X92129000Y-149360000D02*
G01*
X90527000Y-149360000D01*
X90527000Y-140708000D01*
X92129000Y-140708000D01*
X92129000Y-149360000D01*
X92129000Y-149360000D01*
G37*
G36*
X103529000Y-149360000D02*
G01*
X101927000Y-149360000D01*
X101927000Y-140708000D01*
X103529000Y-140708000D01*
X103529000Y-149360000D01*
X103529000Y-149360000D01*
G37*
G36*
X141537000Y-149091000D02*
G01*
X140235000Y-149091000D01*
X140235000Y-148089000D01*
X141537000Y-148089000D01*
X141537000Y-149091000D01*
X141537000Y-149091000D01*
G37*
G36*
X143737000Y-149091000D02*
G01*
X142435000Y-149091000D01*
X142435000Y-148089000D01*
X143737000Y-148089000D01*
X143737000Y-149091000D01*
X143737000Y-149091000D01*
G37*
G36*
X85507000Y-148306000D02*
G01*
X83405000Y-148306000D01*
X83405000Y-147604000D01*
X85507000Y-147604000D01*
X85507000Y-148306000D01*
X85507000Y-148306000D01*
G37*
G36*
X76107000Y-148306000D02*
G01*
X74005000Y-148306000D01*
X74005000Y-147604000D01*
X76107000Y-147604000D01*
X76107000Y-148306000D01*
X76107000Y-148306000D01*
G37*
G36*
X76107000Y-147036000D02*
G01*
X74005000Y-147036000D01*
X74005000Y-146334000D01*
X76107000Y-146334000D01*
X76107000Y-147036000D01*
X76107000Y-147036000D01*
G37*
G36*
X85507000Y-147036000D02*
G01*
X83405000Y-147036000D01*
X83405000Y-146334000D01*
X85507000Y-146334000D01*
X85507000Y-147036000D01*
X85507000Y-147036000D01*
G37*
G36*
X72274000Y-147036000D02*
G01*
X70222000Y-147036000D01*
X70222000Y-146334000D01*
X72274000Y-146334000D01*
X72274000Y-147036000D01*
X72274000Y-147036000D01*
G37*
G36*
X62874000Y-147036000D02*
G01*
X60822000Y-147036000D01*
X60822000Y-146334000D01*
X62874000Y-146334000D01*
X62874000Y-147036000D01*
X62874000Y-147036000D01*
G37*
G36*
X120253000Y-146991000D02*
G01*
X118151000Y-146991000D01*
X118151000Y-145109000D01*
X120253000Y-145109000D01*
X120253000Y-146991000D01*
X120253000Y-146991000D01*
G37*
G36*
X129753000Y-146991000D02*
G01*
X127651000Y-146991000D01*
X127651000Y-145109000D01*
X129753000Y-145109000D01*
X129753000Y-146991000D01*
X129753000Y-146991000D01*
G37*
G36*
X62874000Y-145766000D02*
G01*
X60822000Y-145766000D01*
X60822000Y-145064000D01*
X62874000Y-145064000D01*
X62874000Y-145766000D01*
X62874000Y-145766000D01*
G37*
G36*
X72274000Y-145766000D02*
G01*
X70222000Y-145766000D01*
X70222000Y-145064000D01*
X72274000Y-145064000D01*
X72274000Y-145766000D01*
X72274000Y-145766000D01*
G37*
G36*
X76107000Y-145766000D02*
G01*
X74005000Y-145766000D01*
X74005000Y-145064000D01*
X76107000Y-145064000D01*
X76107000Y-145766000D01*
X76107000Y-145766000D01*
G37*
G36*
X85507000Y-145766000D02*
G01*
X83405000Y-145766000D01*
X83405000Y-145064000D01*
X85507000Y-145064000D01*
X85507000Y-145766000D01*
X85507000Y-145766000D01*
G37*
G36*
X85507000Y-144496000D02*
G01*
X83405000Y-144496000D01*
X83405000Y-143794000D01*
X85507000Y-143794000D01*
X85507000Y-144496000D01*
X85507000Y-144496000D01*
G37*
G36*
X76107000Y-144496000D02*
G01*
X74005000Y-144496000D01*
X74005000Y-143794000D01*
X76107000Y-143794000D01*
X76107000Y-144496000D01*
X76107000Y-144496000D01*
G37*
G36*
X72274000Y-144496000D02*
G01*
X70222000Y-144496000D01*
X70222000Y-143794000D01*
X72274000Y-143794000D01*
X72274000Y-144496000D01*
X72274000Y-144496000D01*
G37*
G36*
X62874000Y-144496000D02*
G01*
X60822000Y-144496000D01*
X60822000Y-143794000D01*
X62874000Y-143794000D01*
X62874000Y-144496000D01*
X62874000Y-144496000D01*
G37*
G36*
X85507000Y-143226000D02*
G01*
X83405000Y-143226000D01*
X83405000Y-142524000D01*
X85507000Y-142524000D01*
X85507000Y-143226000D01*
X85507000Y-143226000D01*
G37*
G36*
X76107000Y-143226000D02*
G01*
X74005000Y-143226000D01*
X74005000Y-142524000D01*
X76107000Y-142524000D01*
X76107000Y-143226000D01*
X76107000Y-143226000D01*
G37*
G36*
X72274000Y-143226000D02*
G01*
X70222000Y-143226000D01*
X70222000Y-142524000D01*
X72274000Y-142524000D01*
X72274000Y-143226000D01*
X72274000Y-143226000D01*
G37*
G36*
X62874000Y-143226000D02*
G01*
X60822000Y-143226000D01*
X60822000Y-142524000D01*
X62874000Y-142524000D01*
X62874000Y-143226000D01*
X62874000Y-143226000D01*
G37*
G36*
X107646000Y-143047000D02*
G01*
X106344000Y-143047000D01*
X106344000Y-142195000D01*
X107646000Y-142195000D01*
X107646000Y-143047000D01*
X107646000Y-143047000D01*
G37*
G36*
X105746000Y-143047000D02*
G01*
X104444000Y-143047000D01*
X104444000Y-142195000D01*
X105746000Y-142195000D01*
X105746000Y-143047000D01*
X105746000Y-143047000D01*
G37*
G36*
X85507000Y-141956000D02*
G01*
X83405000Y-141956000D01*
X83405000Y-141254000D01*
X85507000Y-141254000D01*
X85507000Y-141956000D01*
X85507000Y-141956000D01*
G37*
G36*
X76107000Y-141956000D02*
G01*
X74005000Y-141956000D01*
X74005000Y-141254000D01*
X76107000Y-141254000D01*
X76107000Y-141956000D01*
X76107000Y-141956000D01*
G37*
G36*
X72274000Y-141956000D02*
G01*
X70222000Y-141956000D01*
X70222000Y-141254000D01*
X72274000Y-141254000D01*
X72274000Y-141956000D01*
X72274000Y-141956000D01*
G37*
G36*
X62874000Y-141956000D02*
G01*
X60822000Y-141956000D01*
X60822000Y-141254000D01*
X62874000Y-141254000D01*
X62874000Y-141956000D01*
X62874000Y-141956000D01*
G37*
G36*
X135016000Y-141667000D02*
G01*
X133414000Y-141667000D01*
X133414000Y-139765000D01*
X135016000Y-139765000D01*
X135016000Y-141667000D01*
X135016000Y-141667000D01*
G37*
G36*
X132016000Y-141667000D02*
G01*
X130414000Y-141667000D01*
X130414000Y-139765000D01*
X132016000Y-139765000D01*
X132016000Y-141667000D01*
X132016000Y-141667000D01*
G37*
G36*
X126437000Y-141659000D02*
G01*
X125785000Y-141659000D01*
X125785000Y-139807000D01*
X126437000Y-139807000D01*
X126437000Y-141659000D01*
X126437000Y-141659000D01*
G37*
G36*
X128977000Y-141659000D02*
G01*
X128325000Y-141659000D01*
X128325000Y-139807000D01*
X128977000Y-139807000D01*
X128977000Y-141659000D01*
X128977000Y-141659000D01*
G37*
G36*
X127707000Y-141659000D02*
G01*
X127055000Y-141659000D01*
X127055000Y-139807000D01*
X127707000Y-139807000D01*
X127707000Y-141659000D01*
X127707000Y-141659000D01*
G37*
G36*
X125167000Y-141659000D02*
G01*
X124515000Y-141659000D01*
X124515000Y-139807000D01*
X125167000Y-139807000D01*
X125167000Y-141659000D01*
X125167000Y-141659000D01*
G37*
G36*
X105746000Y-141523000D02*
G01*
X104444000Y-141523000D01*
X104444000Y-140671000D01*
X105746000Y-140671000D01*
X105746000Y-141523000D01*
X105746000Y-141523000D01*
G37*
G36*
X107646000Y-141523000D02*
G01*
X106344000Y-141523000D01*
X106344000Y-140671000D01*
X107646000Y-140671000D01*
X107646000Y-141523000D01*
X107646000Y-141523000D01*
G37*
G36*
X85507000Y-140686000D02*
G01*
X83405000Y-140686000D01*
X83405000Y-139984000D01*
X85507000Y-139984000D01*
X85507000Y-140686000D01*
X85507000Y-140686000D01*
G37*
G36*
X76107000Y-140686000D02*
G01*
X74005000Y-140686000D01*
X74005000Y-139984000D01*
X76107000Y-139984000D01*
X76107000Y-140686000D01*
X76107000Y-140686000D01*
G37*
G36*
X62874000Y-140686000D02*
G01*
X60822000Y-140686000D01*
X60822000Y-139984000D01*
X62874000Y-139984000D01*
X62874000Y-140686000D01*
X62874000Y-140686000D01*
G37*
G36*
X72274000Y-140686000D02*
G01*
X70222000Y-140686000D01*
X70222000Y-139984000D01*
X72274000Y-139984000D01*
X72274000Y-140686000D01*
X72274000Y-140686000D01*
G37*
G36*
X137686703Y-137271486D02*
G01*
X137977883Y-137392097D01*
X138239944Y-137567201D01*
X138462799Y-137790056D01*
X138637903Y-138052117D01*
X138758514Y-138343297D01*
X138820000Y-138652412D01*
X138820000Y-138967588D01*
X138758514Y-139276703D01*
X138637903Y-139567883D01*
X138462799Y-139829944D01*
X138239944Y-140052799D01*
X137977883Y-140227903D01*
X137686703Y-140348514D01*
X137377588Y-140410000D01*
X137062412Y-140410000D01*
X136753297Y-140348514D01*
X136462117Y-140227903D01*
X136200056Y-140052799D01*
X135977201Y-139829944D01*
X135802097Y-139567883D01*
X135681486Y-139276703D01*
X135620000Y-138967588D01*
X135620000Y-138652412D01*
X135681486Y-138343297D01*
X135802097Y-138052117D01*
X135977201Y-137790056D01*
X136200056Y-137567201D01*
X136462117Y-137392097D01*
X136753297Y-137271486D01*
X137062412Y-137210000D01*
X137377588Y-137210000D01*
X137686703Y-137271486D01*
X137686703Y-137271486D01*
G37*
G36*
X101354000Y-140135000D02*
G01*
X92702000Y-140135000D01*
X92702000Y-138533000D01*
X101354000Y-138533000D01*
X101354000Y-140135000D01*
X101354000Y-140135000D01*
G37*
G36*
X146372521Y-137944586D02*
G01*
X146536309Y-138012429D01*
X146683720Y-138110926D01*
X146809074Y-138236280D01*
X146907571Y-138383691D01*
X146975414Y-138547479D01*
X147010000Y-138721356D01*
X147010000Y-138898644D01*
X146975414Y-139072521D01*
X146907571Y-139236309D01*
X146809074Y-139383720D01*
X146683720Y-139509074D01*
X146536309Y-139607571D01*
X146372521Y-139675414D01*
X146198644Y-139710000D01*
X146021356Y-139710000D01*
X145847479Y-139675414D01*
X145683691Y-139607571D01*
X145536280Y-139509074D01*
X145410926Y-139383720D01*
X145312429Y-139236309D01*
X145244586Y-139072521D01*
X145210000Y-138898644D01*
X145210000Y-138721356D01*
X145244586Y-138547479D01*
X145312429Y-138383691D01*
X145410926Y-138236280D01*
X145536280Y-138110926D01*
X145683691Y-138012429D01*
X145847479Y-137944586D01*
X146021356Y-137910000D01*
X146198644Y-137910000D01*
X146372521Y-137944586D01*
X146372521Y-137944586D01*
G37*
G36*
X85507000Y-139416000D02*
G01*
X83405000Y-139416000D01*
X83405000Y-138714000D01*
X85507000Y-138714000D01*
X85507000Y-139416000D01*
X85507000Y-139416000D01*
G37*
G36*
X62874000Y-139416000D02*
G01*
X60822000Y-139416000D01*
X60822000Y-138714000D01*
X62874000Y-138714000D01*
X62874000Y-139416000D01*
X62874000Y-139416000D01*
G37*
G36*
X72274000Y-139416000D02*
G01*
X70222000Y-139416000D01*
X70222000Y-138714000D01*
X72274000Y-138714000D01*
X72274000Y-139416000D01*
X72274000Y-139416000D01*
G37*
G36*
X76107000Y-139416000D02*
G01*
X74005000Y-139416000D01*
X74005000Y-138714000D01*
X76107000Y-138714000D01*
X76107000Y-139416000D01*
X76107000Y-139416000D01*
G37*
G36*
X135190000Y-139207000D02*
G01*
X133288000Y-139207000D01*
X133288000Y-137605000D01*
X135190000Y-137605000D01*
X135190000Y-139207000D01*
X135190000Y-139207000D01*
G37*
G36*
X85507000Y-138146000D02*
G01*
X83405000Y-138146000D01*
X83405000Y-137444000D01*
X85507000Y-137444000D01*
X85507000Y-138146000D01*
X85507000Y-138146000D01*
G37*
G36*
X76107000Y-138146000D02*
G01*
X74005000Y-138146000D01*
X74005000Y-137444000D01*
X76107000Y-137444000D01*
X76107000Y-138146000D01*
X76107000Y-138146000D01*
G37*
G36*
X72274000Y-138146000D02*
G01*
X70222000Y-138146000D01*
X70222000Y-137444000D01*
X72274000Y-137444000D01*
X72274000Y-138146000D01*
X72274000Y-138146000D01*
G37*
G36*
X62874000Y-138146000D02*
G01*
X60822000Y-138146000D01*
X60822000Y-137444000D01*
X62874000Y-137444000D01*
X62874000Y-138146000D01*
X62874000Y-138146000D01*
G37*
G36*
X72274000Y-136876000D02*
G01*
X70222000Y-136876000D01*
X70222000Y-136174000D01*
X72274000Y-136174000D01*
X72274000Y-136876000D01*
X72274000Y-136876000D01*
G37*
G36*
X76107000Y-136876000D02*
G01*
X74005000Y-136876000D01*
X74005000Y-136174000D01*
X76107000Y-136174000D01*
X76107000Y-136876000D01*
X76107000Y-136876000D01*
G37*
G36*
X85507000Y-136876000D02*
G01*
X83405000Y-136876000D01*
X83405000Y-136174000D01*
X85507000Y-136174000D01*
X85507000Y-136876000D01*
X85507000Y-136876000D01*
G37*
G36*
X62874000Y-136876000D02*
G01*
X60822000Y-136876000D01*
X60822000Y-136174000D01*
X62874000Y-136174000D01*
X62874000Y-136876000D01*
X62874000Y-136876000D01*
G37*
G36*
X137686703Y-133461486D02*
G01*
X137977883Y-133582097D01*
X138239944Y-133757201D01*
X138462799Y-133980056D01*
X138637903Y-134242117D01*
X138758514Y-134533297D01*
X138820000Y-134842412D01*
X138820000Y-135157588D01*
X138758514Y-135466703D01*
X138637903Y-135757883D01*
X138462799Y-136019944D01*
X138239944Y-136242799D01*
X137977883Y-136417903D01*
X137686703Y-136538514D01*
X137377588Y-136600000D01*
X137062412Y-136600000D01*
X136753297Y-136538514D01*
X136462117Y-136417903D01*
X136200056Y-136242799D01*
X135977201Y-136019944D01*
X135802097Y-135757883D01*
X135681486Y-135466703D01*
X135620000Y-135157588D01*
X135620000Y-134842412D01*
X135681486Y-134533297D01*
X135802097Y-134242117D01*
X135977201Y-133980056D01*
X136200056Y-133757201D01*
X136462117Y-133582097D01*
X136753297Y-133461486D01*
X137062412Y-133400000D01*
X137377588Y-133400000D01*
X137686703Y-133461486D01*
X137686703Y-133461486D01*
G37*
G36*
X142766703Y-133461486D02*
G01*
X143057883Y-133582097D01*
X143319944Y-133757201D01*
X143542799Y-133980056D01*
X143717903Y-134242117D01*
X143838514Y-134533297D01*
X143900000Y-134842412D01*
X143900000Y-135157588D01*
X143838514Y-135466703D01*
X143717903Y-135757883D01*
X143542799Y-136019944D01*
X143319944Y-136242799D01*
X143057883Y-136417903D01*
X142766703Y-136538514D01*
X142457588Y-136600000D01*
X142142412Y-136600000D01*
X141833297Y-136538514D01*
X141542117Y-136417903D01*
X141280056Y-136242799D01*
X141057201Y-136019944D01*
X140882097Y-135757883D01*
X140761486Y-135466703D01*
X140700000Y-135157588D01*
X140700000Y-134842412D01*
X140761486Y-134533297D01*
X140882097Y-134242117D01*
X141057201Y-133980056D01*
X141280056Y-133757201D01*
X141542117Y-133582097D01*
X141833297Y-133461486D01*
X142142412Y-133400000D01*
X142457588Y-133400000D01*
X142766703Y-133461486D01*
X142766703Y-133461486D01*
G37*
G36*
X135190000Y-136207000D02*
G01*
X133288000Y-136207000D01*
X133288000Y-134605000D01*
X135190000Y-134605000D01*
X135190000Y-136207000D01*
X135190000Y-136207000D01*
G37*
G36*
X62874000Y-135606000D02*
G01*
X60822000Y-135606000D01*
X60822000Y-134904000D01*
X62874000Y-134904000D01*
X62874000Y-135606000D01*
X62874000Y-135606000D01*
G37*
G36*
X72274000Y-135606000D02*
G01*
X70222000Y-135606000D01*
X70222000Y-134904000D01*
X72274000Y-134904000D01*
X72274000Y-135606000D01*
X72274000Y-135606000D01*
G37*
G36*
X76107000Y-135606000D02*
G01*
X74005000Y-135606000D01*
X74005000Y-134904000D01*
X76107000Y-134904000D01*
X76107000Y-135606000D01*
X76107000Y-135606000D01*
G37*
G36*
X85507000Y-135606000D02*
G01*
X83405000Y-135606000D01*
X83405000Y-134904000D01*
X85507000Y-134904000D01*
X85507000Y-135606000D01*
X85507000Y-135606000D01*
G37*
G36*
X87331000Y-134411000D02*
G01*
X86029000Y-134411000D01*
X86029000Y-133559000D01*
X87331000Y-133559000D01*
X87331000Y-134411000D01*
X87331000Y-134411000D01*
G37*
G36*
X89231000Y-134411000D02*
G01*
X87929000Y-134411000D01*
X87929000Y-133559000D01*
X89231000Y-133559000D01*
X89231000Y-134411000D01*
X89231000Y-134411000D01*
G37*
G36*
X76107000Y-134336000D02*
G01*
X74005000Y-134336000D01*
X74005000Y-133634000D01*
X76107000Y-133634000D01*
X76107000Y-134336000D01*
X76107000Y-134336000D01*
G37*
G36*
X85507000Y-134336000D02*
G01*
X83405000Y-134336000D01*
X83405000Y-133634000D01*
X85507000Y-133634000D01*
X85507000Y-134336000D01*
X85507000Y-134336000D01*
G37*
G36*
X125167000Y-134259000D02*
G01*
X124515000Y-134259000D01*
X124515000Y-132407000D01*
X125167000Y-132407000D01*
X125167000Y-134259000D01*
X125167000Y-134259000D01*
G37*
G36*
X126437000Y-134259000D02*
G01*
X125785000Y-134259000D01*
X125785000Y-132407000D01*
X126437000Y-132407000D01*
X126437000Y-134259000D01*
X126437000Y-134259000D01*
G37*
G36*
X127707000Y-134259000D02*
G01*
X127055000Y-134259000D01*
X127055000Y-132407000D01*
X127707000Y-132407000D01*
X127707000Y-134259000D01*
X127707000Y-134259000D01*
G37*
G36*
X128977000Y-134259000D02*
G01*
X128325000Y-134259000D01*
X128325000Y-132407000D01*
X128977000Y-132407000D01*
X128977000Y-134259000D01*
X128977000Y-134259000D01*
G37*
G36*
X132016000Y-134047000D02*
G01*
X130414000Y-134047000D01*
X130414000Y-132145000D01*
X132016000Y-132145000D01*
X132016000Y-134047000D01*
X132016000Y-134047000D01*
G37*
G36*
X135016000Y-134047000D02*
G01*
X133414000Y-134047000D01*
X133414000Y-132145000D01*
X135016000Y-132145000D01*
X135016000Y-134047000D01*
X135016000Y-134047000D01*
G37*
G36*
X69932000Y-133903000D02*
G01*
X68630000Y-133903000D01*
X68630000Y-133051000D01*
X69932000Y-133051000D01*
X69932000Y-133903000D01*
X69932000Y-133903000D01*
G37*
G36*
X71832000Y-133903000D02*
G01*
X70530000Y-133903000D01*
X70530000Y-133051000D01*
X71832000Y-133051000D01*
X71832000Y-133903000D01*
X71832000Y-133903000D01*
G37*
G36*
X137686703Y-129651486D02*
G01*
X137977883Y-129772097D01*
X138239944Y-129947201D01*
X138462799Y-130170056D01*
X138637903Y-130432117D01*
X138758514Y-130723297D01*
X138820000Y-131032412D01*
X138820000Y-131347588D01*
X138758514Y-131656703D01*
X138637903Y-131947883D01*
X138462799Y-132209944D01*
X138239944Y-132432799D01*
X137977883Y-132607903D01*
X137686703Y-132728514D01*
X137377588Y-132790000D01*
X137062412Y-132790000D01*
X136753297Y-132728514D01*
X136462117Y-132607903D01*
X136200056Y-132432799D01*
X135977201Y-132209944D01*
X135802097Y-131947883D01*
X135681486Y-131656703D01*
X135620000Y-131347588D01*
X135620000Y-131032412D01*
X135681486Y-130723297D01*
X135802097Y-130432117D01*
X135977201Y-130170056D01*
X136200056Y-129947201D01*
X136462117Y-129772097D01*
X136753297Y-129651486D01*
X137062412Y-129590000D01*
X137377588Y-129590000D01*
X137686703Y-129651486D01*
X137686703Y-129651486D01*
G37*
G36*
X151452521Y-130324586D02*
G01*
X151616309Y-130392429D01*
X151763720Y-130490926D01*
X151889074Y-130616280D01*
X151987571Y-130763691D01*
X152055414Y-130927479D01*
X152090000Y-131101356D01*
X152090000Y-131278644D01*
X152055414Y-131452521D01*
X151987571Y-131616309D01*
X151889074Y-131763720D01*
X151763720Y-131889074D01*
X151616309Y-131987571D01*
X151452521Y-132055414D01*
X151278644Y-132090000D01*
X151101356Y-132090000D01*
X150927479Y-132055414D01*
X150763691Y-131987571D01*
X150616280Y-131889074D01*
X150490926Y-131763720D01*
X150392429Y-131616309D01*
X150324586Y-131452521D01*
X150290000Y-131278644D01*
X150290000Y-131101356D01*
X150324586Y-130927479D01*
X150392429Y-130763691D01*
X150490926Y-130616280D01*
X150616280Y-130490926D01*
X150763691Y-130392429D01*
X150927479Y-130324586D01*
X151101356Y-130290000D01*
X151278644Y-130290000D01*
X151452521Y-130324586D01*
X151452521Y-130324586D01*
G37*
G36*
X128347000Y-131871000D02*
G01*
X127045000Y-131871000D01*
X127045000Y-131019000D01*
X128347000Y-131019000D01*
X128347000Y-131871000D01*
X128347000Y-131871000D01*
G37*
G36*
X126447000Y-131871000D02*
G01*
X125145000Y-131871000D01*
X125145000Y-131019000D01*
X126447000Y-131019000D01*
X126447000Y-131871000D01*
X126447000Y-131871000D01*
G37*
G36*
X132016000Y-131507000D02*
G01*
X130414000Y-131507000D01*
X130414000Y-129605000D01*
X132016000Y-129605000D01*
X132016000Y-131507000D01*
X132016000Y-131507000D01*
G37*
G36*
X135016000Y-131507000D02*
G01*
X133414000Y-131507000D01*
X133414000Y-129605000D01*
X135016000Y-129605000D01*
X135016000Y-131507000D01*
X135016000Y-131507000D01*
G37*
G36*
X98014000Y-128179000D02*
G01*
X97312000Y-128179000D01*
X97312000Y-126077000D01*
X98014000Y-126077000D01*
X98014000Y-128179000D01*
X98014000Y-128179000D01*
G37*
G36*
X99284000Y-128179000D02*
G01*
X98582000Y-128179000D01*
X98582000Y-126077000D01*
X99284000Y-126077000D01*
X99284000Y-128179000D01*
X99284000Y-128179000D01*
G37*
G36*
X96744000Y-128179000D02*
G01*
X96042000Y-128179000D01*
X96042000Y-126077000D01*
X96744000Y-126077000D01*
X96744000Y-128179000D01*
X96744000Y-128179000D01*
G37*
G36*
X95474000Y-128179000D02*
G01*
X94772000Y-128179000D01*
X94772000Y-126077000D01*
X95474000Y-126077000D01*
X95474000Y-128179000D01*
X95474000Y-128179000D01*
G37*
G36*
X85314000Y-128179000D02*
G01*
X84612000Y-128179000D01*
X84612000Y-126077000D01*
X85314000Y-126077000D01*
X85314000Y-128179000D01*
X85314000Y-128179000D01*
G37*
G36*
X101824000Y-128179000D02*
G01*
X101122000Y-128179000D01*
X101122000Y-126077000D01*
X101824000Y-126077000D01*
X101824000Y-128179000D01*
X101824000Y-128179000D01*
G37*
G36*
X100554000Y-128179000D02*
G01*
X99852000Y-128179000D01*
X99852000Y-126077000D01*
X100554000Y-126077000D01*
X100554000Y-128179000D01*
X100554000Y-128179000D01*
G37*
G36*
X86584000Y-128179000D02*
G01*
X85882000Y-128179000D01*
X85882000Y-126077000D01*
X86584000Y-126077000D01*
X86584000Y-128179000D01*
X86584000Y-128179000D01*
G37*
G36*
X87854000Y-128179000D02*
G01*
X87152000Y-128179000D01*
X87152000Y-126077000D01*
X87854000Y-126077000D01*
X87854000Y-128179000D01*
X87854000Y-128179000D01*
G37*
G36*
X89124000Y-128179000D02*
G01*
X88422000Y-128179000D01*
X88422000Y-126077000D01*
X89124000Y-126077000D01*
X89124000Y-128179000D01*
X89124000Y-128179000D01*
G37*
G36*
X91664000Y-128179000D02*
G01*
X90962000Y-128179000D01*
X90962000Y-126077000D01*
X91664000Y-126077000D01*
X91664000Y-128179000D01*
X91664000Y-128179000D01*
G37*
G36*
X92934000Y-128179000D02*
G01*
X92232000Y-128179000D01*
X92232000Y-126077000D01*
X92934000Y-126077000D01*
X92934000Y-128179000D01*
X92934000Y-128179000D01*
G37*
G36*
X94204000Y-128179000D02*
G01*
X93502000Y-128179000D01*
X93502000Y-126077000D01*
X94204000Y-126077000D01*
X94204000Y-128179000D01*
X94204000Y-128179000D01*
G37*
G36*
X90394000Y-128179000D02*
G01*
X89692000Y-128179000D01*
X89692000Y-126077000D01*
X90394000Y-126077000D01*
X90394000Y-128179000D01*
X90394000Y-128179000D01*
G37*
G36*
X139618565Y-118496389D02*
G01*
X139809834Y-118575615D01*
X139981976Y-118690637D01*
X140128363Y-118837024D01*
X140243385Y-119009166D01*
X140322611Y-119200435D01*
X140363000Y-119403484D01*
X140363000Y-119610516D01*
X140322611Y-119813565D01*
X140243385Y-120004834D01*
X140128363Y-120176976D01*
X139981976Y-120323363D01*
X139809834Y-120438385D01*
X139618565Y-120517611D01*
X139415516Y-120558000D01*
X139208484Y-120558000D01*
X139005435Y-120517611D01*
X138814166Y-120438385D01*
X138642024Y-120323363D01*
X138495637Y-120176976D01*
X138380615Y-120004834D01*
X138301389Y-119813565D01*
X138261000Y-119610516D01*
X138261000Y-119403484D01*
X138301389Y-119200435D01*
X138380615Y-119009166D01*
X138495637Y-118837024D01*
X138642024Y-118690637D01*
X138814166Y-118575615D01*
X139005435Y-118496389D01*
X139208484Y-118456000D01*
X139415516Y-118456000D01*
X139618565Y-118496389D01*
X139618565Y-118496389D01*
G37*
G36*
X147118565Y-118496389D02*
G01*
X147309834Y-118575615D01*
X147481976Y-118690637D01*
X147628363Y-118837024D01*
X147743385Y-119009166D01*
X147822611Y-119200435D01*
X147863000Y-119403484D01*
X147863000Y-119610516D01*
X147822611Y-119813565D01*
X147743385Y-120004834D01*
X147628363Y-120176976D01*
X147481976Y-120323363D01*
X147309834Y-120438385D01*
X147118565Y-120517611D01*
X146915516Y-120558000D01*
X146708484Y-120558000D01*
X146505435Y-120517611D01*
X146314166Y-120438385D01*
X146142024Y-120323363D01*
X145995637Y-120176976D01*
X145880615Y-120004834D01*
X145801389Y-119813565D01*
X145761000Y-119610516D01*
X145761000Y-119403484D01*
X145801389Y-119200435D01*
X145880615Y-119009166D01*
X145995637Y-118837024D01*
X146142024Y-118690637D01*
X146314166Y-118575615D01*
X146505435Y-118496389D01*
X146708484Y-118456000D01*
X146915516Y-118456000D01*
X147118565Y-118496389D01*
X147118565Y-118496389D01*
G37*
G36*
X90394000Y-118779000D02*
G01*
X89692000Y-118779000D01*
X89692000Y-116677000D01*
X90394000Y-116677000D01*
X90394000Y-118779000D01*
X90394000Y-118779000D01*
G37*
G36*
X91664000Y-118779000D02*
G01*
X90962000Y-118779000D01*
X90962000Y-116677000D01*
X91664000Y-116677000D01*
X91664000Y-118779000D01*
X91664000Y-118779000D01*
G37*
G36*
X89124000Y-118779000D02*
G01*
X88422000Y-118779000D01*
X88422000Y-116677000D01*
X89124000Y-116677000D01*
X89124000Y-118779000D01*
X89124000Y-118779000D01*
G37*
G36*
X87854000Y-118779000D02*
G01*
X87152000Y-118779000D01*
X87152000Y-116677000D01*
X87854000Y-116677000D01*
X87854000Y-118779000D01*
X87854000Y-118779000D01*
G37*
G36*
X86584000Y-118779000D02*
G01*
X85882000Y-118779000D01*
X85882000Y-116677000D01*
X86584000Y-116677000D01*
X86584000Y-118779000D01*
X86584000Y-118779000D01*
G37*
G36*
X85314000Y-118779000D02*
G01*
X84612000Y-118779000D01*
X84612000Y-116677000D01*
X85314000Y-116677000D01*
X85314000Y-118779000D01*
X85314000Y-118779000D01*
G37*
G36*
X96744000Y-118779000D02*
G01*
X96042000Y-118779000D01*
X96042000Y-116677000D01*
X96744000Y-116677000D01*
X96744000Y-118779000D01*
X96744000Y-118779000D01*
G37*
G36*
X94204000Y-118779000D02*
G01*
X93502000Y-118779000D01*
X93502000Y-116677000D01*
X94204000Y-116677000D01*
X94204000Y-118779000D01*
X94204000Y-118779000D01*
G37*
G36*
X92934000Y-118779000D02*
G01*
X92232000Y-118779000D01*
X92232000Y-116677000D01*
X92934000Y-116677000D01*
X92934000Y-118779000D01*
X92934000Y-118779000D01*
G37*
G36*
X100554000Y-118779000D02*
G01*
X99852000Y-118779000D01*
X99852000Y-116677000D01*
X100554000Y-116677000D01*
X100554000Y-118779000D01*
X100554000Y-118779000D01*
G37*
G36*
X101824000Y-118779000D02*
G01*
X101122000Y-118779000D01*
X101122000Y-116677000D01*
X101824000Y-116677000D01*
X101824000Y-118779000D01*
X101824000Y-118779000D01*
G37*
G36*
X98014000Y-118779000D02*
G01*
X97312000Y-118779000D01*
X97312000Y-116677000D01*
X98014000Y-116677000D01*
X98014000Y-118779000D01*
X98014000Y-118779000D01*
G37*
G36*
X99284000Y-118779000D02*
G01*
X98582000Y-118779000D01*
X98582000Y-116677000D01*
X99284000Y-116677000D01*
X99284000Y-118779000D01*
X99284000Y-118779000D01*
G37*
G36*
X95474000Y-118779000D02*
G01*
X94772000Y-118779000D01*
X94772000Y-116677000D01*
X95474000Y-116677000D01*
X95474000Y-118779000D01*
X95474000Y-118779000D01*
G37*
G36*
X75864000Y-118441000D02*
G01*
X75012000Y-118441000D01*
X75012000Y-117139000D01*
X75864000Y-117139000D01*
X75864000Y-118441000D01*
X75864000Y-118441000D01*
G37*
G36*
X79227643Y-116577781D02*
G01*
X79373415Y-116638162D01*
X79504611Y-116725824D01*
X79616176Y-116837389D01*
X79703838Y-116968585D01*
X79764219Y-117114357D01*
X79795000Y-117269107D01*
X79795000Y-117426893D01*
X79764219Y-117581643D01*
X79703838Y-117727415D01*
X79616176Y-117858611D01*
X79504611Y-117970176D01*
X79373415Y-118057838D01*
X79227643Y-118118219D01*
X79072893Y-118149000D01*
X78915107Y-118149000D01*
X78760357Y-118118219D01*
X78614585Y-118057838D01*
X78483389Y-117970176D01*
X78371824Y-117858611D01*
X78284162Y-117727415D01*
X78223781Y-117581643D01*
X78193000Y-117426893D01*
X78193000Y-117269107D01*
X78223781Y-117114357D01*
X78284162Y-116968585D01*
X78371824Y-116837389D01*
X78483389Y-116725824D01*
X78614585Y-116638162D01*
X78760357Y-116577781D01*
X78915107Y-116547000D01*
X79072893Y-116547000D01*
X79227643Y-116577781D01*
X79227643Y-116577781D01*
G37*
G36*
X83305000Y-116559000D02*
G01*
X82303000Y-116559000D01*
X82303000Y-115257000D01*
X83305000Y-115257000D01*
X83305000Y-116559000D01*
X83305000Y-116559000D01*
G37*
G36*
X75864000Y-116541000D02*
G01*
X75012000Y-116541000D01*
X75012000Y-115239000D01*
X75864000Y-115239000D01*
X75864000Y-116541000D01*
X75864000Y-116541000D01*
G37*
G36*
X131562565Y-113989389D02*
G01*
X131753834Y-114068615D01*
X131925976Y-114183637D01*
X132072363Y-114330024D01*
X132187385Y-114502166D01*
X132266611Y-114693435D01*
X132307000Y-114896484D01*
X132307000Y-115103516D01*
X132266611Y-115306565D01*
X132187385Y-115497834D01*
X132072363Y-115669976D01*
X131925976Y-115816363D01*
X131753834Y-115931385D01*
X131562565Y-116010611D01*
X131359516Y-116051000D01*
X131152484Y-116051000D01*
X130949435Y-116010611D01*
X130758166Y-115931385D01*
X130586024Y-115816363D01*
X130439637Y-115669976D01*
X130324615Y-115497834D01*
X130245389Y-115306565D01*
X130205000Y-115103516D01*
X130205000Y-114896484D01*
X130245389Y-114693435D01*
X130324615Y-114502166D01*
X130439637Y-114330024D01*
X130586024Y-114183637D01*
X130758166Y-114068615D01*
X130949435Y-113989389D01*
X131152484Y-113949000D01*
X131359516Y-113949000D01*
X131562565Y-113989389D01*
X131562565Y-113989389D01*
G37*
G36*
X126482565Y-113989389D02*
G01*
X126673834Y-114068615D01*
X126845976Y-114183637D01*
X126992363Y-114330024D01*
X127107385Y-114502166D01*
X127186611Y-114693435D01*
X127227000Y-114896484D01*
X127227000Y-115103516D01*
X127186611Y-115306565D01*
X127107385Y-115497834D01*
X126992363Y-115669976D01*
X126845976Y-115816363D01*
X126673834Y-115931385D01*
X126482565Y-116010611D01*
X126279516Y-116051000D01*
X126072484Y-116051000D01*
X125869435Y-116010611D01*
X125678166Y-115931385D01*
X125506024Y-115816363D01*
X125359637Y-115669976D01*
X125244615Y-115497834D01*
X125165389Y-115306565D01*
X125125000Y-115103516D01*
X125125000Y-114896484D01*
X125165389Y-114693435D01*
X125244615Y-114502166D01*
X125359637Y-114330024D01*
X125506024Y-114183637D01*
X125678166Y-114068615D01*
X125869435Y-113989389D01*
X126072484Y-113949000D01*
X126279516Y-113949000D01*
X126482565Y-113989389D01*
X126482565Y-113989389D01*
G37*
G36*
X129022565Y-113989389D02*
G01*
X129213834Y-114068615D01*
X129385976Y-114183637D01*
X129532363Y-114330024D01*
X129647385Y-114502166D01*
X129726611Y-114693435D01*
X129767000Y-114896484D01*
X129767000Y-115103516D01*
X129726611Y-115306565D01*
X129647385Y-115497834D01*
X129532363Y-115669976D01*
X129385976Y-115816363D01*
X129213834Y-115931385D01*
X129022565Y-116010611D01*
X128819516Y-116051000D01*
X128612484Y-116051000D01*
X128409435Y-116010611D01*
X128218166Y-115931385D01*
X128046024Y-115816363D01*
X127899637Y-115669976D01*
X127784615Y-115497834D01*
X127705389Y-115306565D01*
X127665000Y-115103516D01*
X127665000Y-114896484D01*
X127705389Y-114693435D01*
X127784615Y-114502166D01*
X127899637Y-114330024D01*
X128046024Y-114183637D01*
X128218166Y-114068615D01*
X128409435Y-113989389D01*
X128612484Y-113949000D01*
X128819516Y-113949000D01*
X129022565Y-113989389D01*
X129022565Y-113989389D01*
G37*
G36*
X121402565Y-113989389D02*
G01*
X121593834Y-114068615D01*
X121765976Y-114183637D01*
X121912363Y-114330024D01*
X122027385Y-114502166D01*
X122106611Y-114693435D01*
X122147000Y-114896484D01*
X122147000Y-115103516D01*
X122106611Y-115306565D01*
X122027385Y-115497834D01*
X121912363Y-115669976D01*
X121765976Y-115816363D01*
X121593834Y-115931385D01*
X121402565Y-116010611D01*
X121199516Y-116051000D01*
X120992484Y-116051000D01*
X120789435Y-116010611D01*
X120598166Y-115931385D01*
X120426024Y-115816363D01*
X120279637Y-115669976D01*
X120164615Y-115497834D01*
X120085389Y-115306565D01*
X120045000Y-115103516D01*
X120045000Y-114896484D01*
X120085389Y-114693435D01*
X120164615Y-114502166D01*
X120279637Y-114330024D01*
X120426024Y-114183637D01*
X120598166Y-114068615D01*
X120789435Y-113989389D01*
X120992484Y-113949000D01*
X121199516Y-113949000D01*
X121402565Y-113989389D01*
X121402565Y-113989389D01*
G37*
G36*
X118862565Y-113989389D02*
G01*
X119053834Y-114068615D01*
X119225976Y-114183637D01*
X119372363Y-114330024D01*
X119487385Y-114502166D01*
X119566611Y-114693435D01*
X119607000Y-114896484D01*
X119607000Y-115103516D01*
X119566611Y-115306565D01*
X119487385Y-115497834D01*
X119372363Y-115669976D01*
X119225976Y-115816363D01*
X119053834Y-115931385D01*
X118862565Y-116010611D01*
X118659516Y-116051000D01*
X118452484Y-116051000D01*
X118249435Y-116010611D01*
X118058166Y-115931385D01*
X117886024Y-115816363D01*
X117739637Y-115669976D01*
X117624615Y-115497834D01*
X117545389Y-115306565D01*
X117505000Y-115103516D01*
X117505000Y-114896484D01*
X117545389Y-114693435D01*
X117624615Y-114502166D01*
X117739637Y-114330024D01*
X117886024Y-114183637D01*
X118058166Y-114068615D01*
X118249435Y-113989389D01*
X118452484Y-113949000D01*
X118659516Y-113949000D01*
X118862565Y-113989389D01*
X118862565Y-113989389D01*
G37*
G36*
X134102565Y-113989389D02*
G01*
X134293834Y-114068615D01*
X134465976Y-114183637D01*
X134612363Y-114330024D01*
X134727385Y-114502166D01*
X134806611Y-114693435D01*
X134847000Y-114896484D01*
X134847000Y-115103516D01*
X134806611Y-115306565D01*
X134727385Y-115497834D01*
X134612363Y-115669976D01*
X134465976Y-115816363D01*
X134293834Y-115931385D01*
X134102565Y-116010611D01*
X133899516Y-116051000D01*
X133692484Y-116051000D01*
X133489435Y-116010611D01*
X133298166Y-115931385D01*
X133126024Y-115816363D01*
X132979637Y-115669976D01*
X132864615Y-115497834D01*
X132785389Y-115306565D01*
X132745000Y-115103516D01*
X132745000Y-114896484D01*
X132785389Y-114693435D01*
X132864615Y-114502166D01*
X132979637Y-114330024D01*
X133126024Y-114183637D01*
X133298166Y-114068615D01*
X133489435Y-113989389D01*
X133692484Y-113949000D01*
X133899516Y-113949000D01*
X134102565Y-113989389D01*
X134102565Y-113989389D01*
G37*
G36*
X140963000Y-116051000D02*
G01*
X139961000Y-116051000D01*
X139961000Y-114749000D01*
X140963000Y-114749000D01*
X140963000Y-116051000D01*
X140963000Y-116051000D01*
G37*
G36*
X146043000Y-116051000D02*
G01*
X145041000Y-116051000D01*
X145041000Y-114749000D01*
X146043000Y-114749000D01*
X146043000Y-116051000D01*
X146043000Y-116051000D01*
G37*
G36*
X89199000Y-116028000D02*
G01*
X88347000Y-116028000D01*
X88347000Y-114726000D01*
X89199000Y-114726000D01*
X89199000Y-116028000D01*
X89199000Y-116028000D01*
G37*
G36*
X99105000Y-116028000D02*
G01*
X98253000Y-116028000D01*
X98253000Y-114726000D01*
X99105000Y-114726000D01*
X99105000Y-116028000D01*
X99105000Y-116028000D01*
G37*
G36*
X100920000Y-115996000D02*
G01*
X99618000Y-115996000D01*
X99618000Y-115144000D01*
X100920000Y-115144000D01*
X100920000Y-115996000D01*
X100920000Y-115996000D01*
G37*
G36*
X102820000Y-115996000D02*
G01*
X101518000Y-115996000D01*
X101518000Y-115144000D01*
X102820000Y-115144000D01*
X102820000Y-115996000D01*
X102820000Y-115996000D01*
G37*
G36*
X142503000Y-115701000D02*
G01*
X141501000Y-115701000D01*
X141501000Y-114799000D01*
X142503000Y-114799000D01*
X142503000Y-115701000D01*
X142503000Y-115701000D01*
G37*
G36*
X147583000Y-115701000D02*
G01*
X146581000Y-115701000D01*
X146581000Y-114799000D01*
X147583000Y-114799000D01*
X147583000Y-115701000D01*
X147583000Y-115701000D01*
G37*
G36*
X144503000Y-114751000D02*
G01*
X143501000Y-114751000D01*
X143501000Y-113849000D01*
X144503000Y-113849000D01*
X144503000Y-114751000D01*
X144503000Y-114751000D01*
G37*
G36*
X149583000Y-114751000D02*
G01*
X148581000Y-114751000D01*
X148581000Y-113849000D01*
X149583000Y-113849000D01*
X149583000Y-114751000D01*
X149583000Y-114751000D01*
G37*
G36*
X75864000Y-114631000D02*
G01*
X75012000Y-114631000D01*
X75012000Y-113329000D01*
X75864000Y-113329000D01*
X75864000Y-114631000D01*
X75864000Y-114631000D01*
G37*
G36*
X83305000Y-114359000D02*
G01*
X82303000Y-114359000D01*
X82303000Y-113057000D01*
X83305000Y-113057000D01*
X83305000Y-114359000D01*
X83305000Y-114359000D01*
G37*
G36*
X99105000Y-114128000D02*
G01*
X98253000Y-114128000D01*
X98253000Y-112826000D01*
X99105000Y-112826000D01*
X99105000Y-114128000D01*
X99105000Y-114128000D01*
G37*
G36*
X89199000Y-114128000D02*
G01*
X88347000Y-114128000D01*
X88347000Y-112826000D01*
X89199000Y-112826000D01*
X89199000Y-114128000D01*
X89199000Y-114128000D01*
G37*
G36*
X95563000Y-113912000D02*
G01*
X94261000Y-113912000D01*
X94261000Y-112910000D01*
X95563000Y-112910000D01*
X95563000Y-113912000D01*
X95563000Y-113912000D01*
G37*
G36*
X97763000Y-113912000D02*
G01*
X96461000Y-113912000D01*
X96461000Y-112910000D01*
X97763000Y-112910000D01*
X97763000Y-113912000D01*
X97763000Y-113912000D01*
G37*
G36*
X140963000Y-113851000D02*
G01*
X139961000Y-113851000D01*
X139961000Y-112549000D01*
X140963000Y-112549000D01*
X140963000Y-113851000D01*
X140963000Y-113851000D01*
G37*
G36*
X146043000Y-113851000D02*
G01*
X145041000Y-113851000D01*
X145041000Y-112549000D01*
X146043000Y-112549000D01*
X146043000Y-113851000D01*
X146043000Y-113851000D01*
G37*
G36*
X147583000Y-113801000D02*
G01*
X146581000Y-113801000D01*
X146581000Y-112899000D01*
X147583000Y-112899000D01*
X147583000Y-113801000D01*
X147583000Y-113801000D01*
G37*
G36*
X142503000Y-113801000D02*
G01*
X141501000Y-113801000D01*
X141501000Y-112899000D01*
X142503000Y-112899000D01*
X142503000Y-113801000D01*
X142503000Y-113801000D01*
G37*
G36*
X79227643Y-111697781D02*
G01*
X79373415Y-111758162D01*
X79504611Y-111845824D01*
X79616176Y-111957389D01*
X79703838Y-112088585D01*
X79764219Y-112234357D01*
X79795000Y-112389107D01*
X79795000Y-112546893D01*
X79764219Y-112701643D01*
X79703838Y-112847415D01*
X79616176Y-112978611D01*
X79504611Y-113090176D01*
X79373415Y-113177838D01*
X79227643Y-113238219D01*
X79072893Y-113269000D01*
X78915107Y-113269000D01*
X78760357Y-113238219D01*
X78614585Y-113177838D01*
X78483389Y-113090176D01*
X78371824Y-112978611D01*
X78284162Y-112847415D01*
X78223781Y-112701643D01*
X78193000Y-112546893D01*
X78193000Y-112389107D01*
X78223781Y-112234357D01*
X78284162Y-112088585D01*
X78371824Y-111957389D01*
X78483389Y-111845824D01*
X78614585Y-111758162D01*
X78760357Y-111697781D01*
X78915107Y-111667000D01*
X79072893Y-111667000D01*
X79227643Y-111697781D01*
X79227643Y-111697781D01*
G37*
G36*
X130765000Y-112948000D02*
G01*
X129463000Y-112948000D01*
X129463000Y-112096000D01*
X130765000Y-112096000D01*
X130765000Y-112948000D01*
X130765000Y-112948000D01*
G37*
G36*
X132665000Y-112948000D02*
G01*
X131363000Y-112948000D01*
X131363000Y-112096000D01*
X132665000Y-112096000D01*
X132665000Y-112948000D01*
X132665000Y-112948000D01*
G37*
G36*
X117621000Y-112944000D02*
G01*
X116019000Y-112944000D01*
X116019000Y-111592000D01*
X117621000Y-111592000D01*
X117621000Y-112944000D01*
X117621000Y-112944000D01*
G37*
G36*
X115121000Y-112944000D02*
G01*
X113519000Y-112944000D01*
X113519000Y-111592000D01*
X115121000Y-111592000D01*
X115121000Y-112944000D01*
X115121000Y-112944000D01*
G37*
G36*
X75864000Y-112731000D02*
G01*
X75012000Y-112731000D01*
X75012000Y-111429000D01*
X75864000Y-111429000D01*
X75864000Y-112731000D01*
X75864000Y-112731000D01*
G37*
G36*
X141791000Y-112007000D02*
G01*
X140489000Y-112007000D01*
X140489000Y-111005000D01*
X141791000Y-111005000D01*
X141791000Y-112007000D01*
X141791000Y-112007000D01*
G37*
G36*
X139927000Y-112007000D02*
G01*
X138625000Y-112007000D01*
X138625000Y-111005000D01*
X139927000Y-111005000D01*
X139927000Y-112007000D01*
X139927000Y-112007000D01*
G37*
G36*
X137727000Y-112007000D02*
G01*
X136425000Y-112007000D01*
X136425000Y-111005000D01*
X137727000Y-111005000D01*
X137727000Y-112007000D01*
X137727000Y-112007000D01*
G37*
G36*
X143991000Y-112007000D02*
G01*
X142689000Y-112007000D01*
X142689000Y-111005000D01*
X143991000Y-111005000D01*
X143991000Y-112007000D01*
X143991000Y-112007000D01*
G37*
G36*
X97217890Y-108745017D02*
G01*
X97336361Y-108794089D01*
X97336364Y-108794091D01*
X97412784Y-108845153D01*
X97442992Y-108865338D01*
X97533662Y-108956008D01*
X97533664Y-108956011D01*
X97533665Y-108956012D01*
X97536482Y-108960228D01*
X97604911Y-109062639D01*
X97653983Y-109181110D01*
X97679000Y-109306881D01*
X97679000Y-109435119D01*
X97653983Y-109560890D01*
X97604911Y-109679361D01*
X97533662Y-109785992D01*
X97442992Y-109876662D01*
X97442989Y-109876664D01*
X97442988Y-109876665D01*
X97364012Y-109929435D01*
X97336361Y-109947911D01*
X97260061Y-109979515D01*
X97238450Y-109991066D01*
X97219508Y-110006611D01*
X97203963Y-110025553D01*
X97192411Y-110047164D01*
X97185298Y-110070613D01*
X97182896Y-110094999D01*
X97185298Y-110119386D01*
X97192411Y-110142835D01*
X97203962Y-110164446D01*
X97219507Y-110183388D01*
X97238449Y-110198933D01*
X97260060Y-110210485D01*
X97283509Y-110217598D01*
X97307896Y-110220000D01*
X97679000Y-110220000D01*
X97679000Y-111522000D01*
X96377000Y-111522000D01*
X96377000Y-110220000D01*
X96748104Y-110220000D01*
X96772490Y-110217598D01*
X96795939Y-110210485D01*
X96817550Y-110198934D01*
X96836492Y-110183388D01*
X96852038Y-110164446D01*
X96863589Y-110142835D01*
X96870702Y-110119386D01*
X96873104Y-110095000D01*
X96870702Y-110070614D01*
X96863589Y-110047165D01*
X96852038Y-110025554D01*
X96836492Y-110006612D01*
X96817550Y-109991066D01*
X96795939Y-109979515D01*
X96719639Y-109947911D01*
X96691988Y-109929435D01*
X96613012Y-109876665D01*
X96613011Y-109876664D01*
X96613008Y-109876662D01*
X96522338Y-109785992D01*
X96451089Y-109679361D01*
X96402017Y-109560890D01*
X96377000Y-109435119D01*
X96377000Y-109306881D01*
X96402017Y-109181110D01*
X96451089Y-109062639D01*
X96519518Y-108960228D01*
X96522335Y-108956012D01*
X96522336Y-108956011D01*
X96522338Y-108956008D01*
X96613008Y-108865338D01*
X96643217Y-108845153D01*
X96719636Y-108794091D01*
X96719639Y-108794089D01*
X96838110Y-108745017D01*
X96963881Y-108720000D01*
X97092119Y-108720000D01*
X97217890Y-108745017D01*
X97217890Y-108745017D01*
G37*
G36*
X128068565Y-109225389D02*
G01*
X128259834Y-109304615D01*
X128431976Y-109419637D01*
X128578363Y-109566024D01*
X128693385Y-109738166D01*
X128772611Y-109929435D01*
X128813000Y-110132484D01*
X128813000Y-110339516D01*
X128772611Y-110542565D01*
X128693385Y-110733834D01*
X128578363Y-110905976D01*
X128431976Y-111052363D01*
X128259834Y-111167385D01*
X128068565Y-111246611D01*
X127865516Y-111287000D01*
X127658484Y-111287000D01*
X127455435Y-111246611D01*
X127264166Y-111167385D01*
X127092024Y-111052363D01*
X126945637Y-110905976D01*
X126830615Y-110733834D01*
X126751389Y-110542565D01*
X126711000Y-110339516D01*
X126711000Y-110132484D01*
X126751389Y-109929435D01*
X126830615Y-109738166D01*
X126945637Y-109566024D01*
X127092024Y-109419637D01*
X127264166Y-109304615D01*
X127455435Y-109225389D01*
X127658484Y-109185000D01*
X127865516Y-109185000D01*
X128068565Y-109225389D01*
X128068565Y-109225389D01*
G37*
G36*
X120568565Y-109225389D02*
G01*
X120759834Y-109304615D01*
X120931976Y-109419637D01*
X121078363Y-109566024D01*
X121193385Y-109738166D01*
X121272611Y-109929435D01*
X121313000Y-110132484D01*
X121313000Y-110339516D01*
X121272611Y-110542565D01*
X121193385Y-110733834D01*
X121078363Y-110905976D01*
X120931976Y-111052363D01*
X120759834Y-111167385D01*
X120568565Y-111246611D01*
X120365516Y-111287000D01*
X120158484Y-111287000D01*
X119955435Y-111246611D01*
X119764166Y-111167385D01*
X119592024Y-111052363D01*
X119445637Y-110905976D01*
X119330615Y-110733834D01*
X119251389Y-110542565D01*
X119211000Y-110339516D01*
X119211000Y-110132484D01*
X119251389Y-109929435D01*
X119330615Y-109738166D01*
X119445637Y-109566024D01*
X119592024Y-109419637D01*
X119764166Y-109304615D01*
X119955435Y-109225389D01*
X120158484Y-109185000D01*
X120365516Y-109185000D01*
X120568565Y-109225389D01*
X120568565Y-109225389D01*
G37*
G36*
X149950316Y-108845153D02*
G01*
X149950318Y-108845154D01*
X149950319Y-108845154D01*
X149999040Y-108865335D01*
X150168888Y-108935688D01*
X150267576Y-109001629D01*
X150365593Y-109067122D01*
X150532878Y-109234407D01*
X150579789Y-109304615D01*
X150664312Y-109431112D01*
X150754847Y-109649684D01*
X150801000Y-109881710D01*
X150801000Y-110118290D01*
X150754847Y-110350316D01*
X150664312Y-110568888D01*
X150598371Y-110667576D01*
X150532878Y-110765593D01*
X150365593Y-110932878D01*
X150267576Y-110998371D01*
X150168888Y-111064312D01*
X150031056Y-111121403D01*
X149950319Y-111154846D01*
X149950318Y-111154846D01*
X149950316Y-111154847D01*
X149718290Y-111201000D01*
X149481710Y-111201000D01*
X149249684Y-111154847D01*
X149249682Y-111154846D01*
X149249681Y-111154846D01*
X149168944Y-111121403D01*
X149031112Y-111064312D01*
X148932424Y-110998371D01*
X148834407Y-110932878D01*
X148667122Y-110765593D01*
X148601629Y-110667576D01*
X148535688Y-110568888D01*
X148445153Y-110350316D01*
X148399000Y-110118290D01*
X148399000Y-109881710D01*
X148445153Y-109649684D01*
X148535688Y-109431112D01*
X148620211Y-109304615D01*
X148667122Y-109234407D01*
X148834407Y-109067122D01*
X148932424Y-109001629D01*
X149031112Y-108935688D01*
X149200960Y-108865335D01*
X149249681Y-108845154D01*
X149249682Y-108845154D01*
X149249684Y-108845153D01*
X149481710Y-108799000D01*
X149718290Y-108799000D01*
X149950316Y-108845153D01*
X149950316Y-108845153D01*
G37*
G36*
X116101000Y-110865000D02*
G01*
X112499000Y-110865000D01*
X112499000Y-107263000D01*
X116101000Y-107263000D01*
X116101000Y-110865000D01*
X116101000Y-110865000D01*
G37*
G36*
X143991000Y-110483000D02*
G01*
X142689000Y-110483000D01*
X142689000Y-109481000D01*
X143991000Y-109481000D01*
X143991000Y-110483000D01*
X143991000Y-110483000D01*
G37*
G36*
X141791000Y-110483000D02*
G01*
X140489000Y-110483000D01*
X140489000Y-109481000D01*
X141791000Y-109481000D01*
X141791000Y-110483000D01*
X141791000Y-110483000D01*
G37*
G36*
X145496480Y-110431780D02*
G01*
X144596920Y-110431780D01*
X144596920Y-109532220D01*
X145496480Y-109532220D01*
X145496480Y-110431780D01*
X145496480Y-110431780D01*
G37*
G36*
X146995080Y-110431780D02*
G01*
X146095520Y-110431780D01*
X146095520Y-109532220D01*
X146995080Y-109532220D01*
X146995080Y-110431780D01*
X146995080Y-110431780D01*
G37*
G36*
X133947000Y-109563000D02*
G01*
X132245000Y-109563000D01*
X132245000Y-107861000D01*
X133947000Y-107861000D01*
X133947000Y-109563000D01*
X133947000Y-109563000D01*
G37*
G36*
X131344228Y-107893703D02*
G01*
X131499100Y-107957853D01*
X131638481Y-108050985D01*
X131757015Y-108169519D01*
X131850147Y-108308900D01*
X131914297Y-108463772D01*
X131947000Y-108628184D01*
X131947000Y-108795816D01*
X131914297Y-108960228D01*
X131850147Y-109115100D01*
X131757015Y-109254481D01*
X131638481Y-109373015D01*
X131499100Y-109466147D01*
X131344228Y-109530297D01*
X131179816Y-109563000D01*
X131012184Y-109563000D01*
X130847772Y-109530297D01*
X130692900Y-109466147D01*
X130553519Y-109373015D01*
X130434985Y-109254481D01*
X130341853Y-109115100D01*
X130277703Y-108960228D01*
X130245000Y-108795816D01*
X130245000Y-108628184D01*
X130277703Y-108463772D01*
X130341853Y-108308900D01*
X130434985Y-108169519D01*
X130553519Y-108050985D01*
X130692900Y-107957853D01*
X130847772Y-107893703D01*
X131012184Y-107861000D01*
X131179816Y-107861000D01*
X131344228Y-107893703D01*
X131344228Y-107893703D01*
G37*
G36*
X141791000Y-108959000D02*
G01*
X140489000Y-108959000D01*
X140489000Y-107957000D01*
X141791000Y-107957000D01*
X141791000Y-108959000D01*
X141791000Y-108959000D01*
G37*
G36*
X143991000Y-108959000D02*
G01*
X142689000Y-108959000D01*
X142689000Y-107957000D01*
X143991000Y-107957000D01*
X143991000Y-108959000D01*
X143991000Y-108959000D01*
G37*
G36*
X61119816Y-105537853D02*
G01*
X61119818Y-105537854D01*
X61119819Y-105537854D01*
X61200556Y-105571297D01*
X61338388Y-105628388D01*
X61437076Y-105694329D01*
X61535093Y-105759822D01*
X61702378Y-105927107D01*
X61767871Y-106025124D01*
X61833812Y-106123812D01*
X61924347Y-106342384D01*
X61970500Y-106574410D01*
X61970500Y-106810990D01*
X61924347Y-107043016D01*
X61833812Y-107261588D01*
X61767871Y-107360276D01*
X61702378Y-107458293D01*
X61535093Y-107625578D01*
X61437076Y-107691071D01*
X61338388Y-107757012D01*
X61200556Y-107814103D01*
X61119819Y-107847546D01*
X61119818Y-107847546D01*
X61119816Y-107847547D01*
X60887790Y-107893700D01*
X60651210Y-107893700D01*
X60419184Y-107847547D01*
X60419182Y-107847546D01*
X60419181Y-107847546D01*
X60338444Y-107814103D01*
X60200612Y-107757012D01*
X60101924Y-107691071D01*
X60003907Y-107625578D01*
X59836622Y-107458293D01*
X59771129Y-107360276D01*
X59705188Y-107261588D01*
X59614653Y-107043016D01*
X59568500Y-106810990D01*
X59568500Y-106574410D01*
X59614653Y-106342384D01*
X59705188Y-106123812D01*
X59771129Y-106025124D01*
X59836622Y-105927107D01*
X60003907Y-105759822D01*
X60101924Y-105694329D01*
X60200612Y-105628388D01*
X60338444Y-105571297D01*
X60419181Y-105537854D01*
X60419182Y-105537854D01*
X60419184Y-105537853D01*
X60651210Y-105491700D01*
X60887790Y-105491700D01*
X61119816Y-105537853D01*
X61119816Y-105537853D01*
G37*
G36*
X68512000Y-107181000D02*
G01*
X67210000Y-107181000D01*
X67210000Y-106179000D01*
X68512000Y-106179000D01*
X68512000Y-107181000D01*
X68512000Y-107181000D01*
G37*
G36*
X70712000Y-107181000D02*
G01*
X69410000Y-107181000D01*
X69410000Y-106179000D01*
X70712000Y-106179000D01*
X70712000Y-107181000D01*
X70712000Y-107181000D01*
G37*
G36*
X66007180Y-107129780D02*
G01*
X65107620Y-107129780D01*
X65107620Y-106230220D01*
X66007180Y-106230220D01*
X66007180Y-107129780D01*
X66007180Y-107129780D01*
G37*
G36*
X64508580Y-107129780D02*
G01*
X63609020Y-107129780D01*
X63609020Y-106230220D01*
X64508580Y-106230220D01*
X64508580Y-107129780D01*
X64508580Y-107129780D01*
G37*
G36*
X79602000Y-105911000D02*
G01*
X78300000Y-105911000D01*
X78300000Y-104909000D01*
X79602000Y-104909000D01*
X79602000Y-105911000D01*
X79602000Y-105911000D01*
G37*
G36*
X77402000Y-105911000D02*
G01*
X76100000Y-105911000D01*
X76100000Y-104909000D01*
X77402000Y-104909000D01*
X77402000Y-105911000D01*
X77402000Y-105911000D01*
G37*
G36*
X75538000Y-105911000D02*
G01*
X74236000Y-105911000D01*
X74236000Y-104909000D01*
X75538000Y-104909000D01*
X75538000Y-105911000D01*
X75538000Y-105911000D01*
G37*
G36*
X73338000Y-105911000D02*
G01*
X72036000Y-105911000D01*
X72036000Y-104909000D01*
X73338000Y-104909000D01*
X73338000Y-105911000D01*
X73338000Y-105911000D01*
G37*
G36*
X63589252Y-100739818D02*
G01*
X63589254Y-100739819D01*
X63589255Y-100739819D01*
X63962513Y-100894427D01*
X63962514Y-100894428D01*
X64298439Y-101118886D01*
X64584114Y-101404561D01*
X64584116Y-101404564D01*
X64808573Y-101740487D01*
X64963181Y-102113745D01*
X65042000Y-102509994D01*
X65042000Y-102914006D01*
X64963181Y-103310255D01*
X64808573Y-103683513D01*
X64808572Y-103683514D01*
X64584114Y-104019439D01*
X64298439Y-104305114D01*
X64298436Y-104305116D01*
X63962513Y-104529573D01*
X63589255Y-104684181D01*
X63589254Y-104684181D01*
X63589252Y-104684182D01*
X63193007Y-104763000D01*
X62788993Y-104763000D01*
X62392748Y-104684182D01*
X62392746Y-104684181D01*
X62392745Y-104684181D01*
X62019487Y-104529573D01*
X61683564Y-104305116D01*
X61683561Y-104305114D01*
X61397886Y-104019439D01*
X61173428Y-103683514D01*
X61173427Y-103683513D01*
X61018819Y-103310255D01*
X60940000Y-102914006D01*
X60940000Y-102509994D01*
X61018819Y-102113745D01*
X61173427Y-101740487D01*
X61397884Y-101404564D01*
X61397886Y-101404561D01*
X61683561Y-101118886D01*
X62019486Y-100894428D01*
X62019487Y-100894427D01*
X62392745Y-100739819D01*
X62392746Y-100739819D01*
X62392748Y-100739818D01*
X62788993Y-100661000D01*
X63193007Y-100661000D01*
X63589252Y-100739818D01*
X63589252Y-100739818D01*
G37*
G36*
X116101000Y-104065000D02*
G01*
X112499000Y-104065000D01*
X112499000Y-100463000D01*
X116101000Y-100463000D01*
X116101000Y-104065000D01*
X116101000Y-104065000D01*
G37*
G36*
X79358000Y-103567000D02*
G01*
X75756000Y-103567000D01*
X75756000Y-101665000D01*
X79358000Y-101665000D01*
X79358000Y-103567000D01*
X79358000Y-103567000D01*
G37*
G36*
X74358000Y-103567000D02*
G01*
X70756000Y-103567000D01*
X70756000Y-101665000D01*
X74358000Y-101665000D01*
X74358000Y-103567000D01*
X74358000Y-103567000D01*
G37*
G36*
X132016000Y-101662000D02*
G01*
X130414000Y-101662000D01*
X130414000Y-99760000D01*
X132016000Y-99760000D01*
X132016000Y-101662000D01*
X132016000Y-101662000D01*
G37*
G36*
X135016000Y-101662000D02*
G01*
X133414000Y-101662000D01*
X133414000Y-99760000D01*
X135016000Y-99760000D01*
X135016000Y-101662000D01*
X135016000Y-101662000D01*
G37*
G36*
X125167000Y-101654000D02*
G01*
X124515000Y-101654000D01*
X124515000Y-99802000D01*
X125167000Y-99802000D01*
X125167000Y-101654000D01*
X125167000Y-101654000D01*
G37*
G36*
X126437000Y-101654000D02*
G01*
X125785000Y-101654000D01*
X125785000Y-99802000D01*
X126437000Y-99802000D01*
X126437000Y-101654000D01*
X126437000Y-101654000D01*
G37*
G36*
X127707000Y-101654000D02*
G01*
X127055000Y-101654000D01*
X127055000Y-99802000D01*
X127707000Y-99802000D01*
X127707000Y-101654000D01*
X127707000Y-101654000D01*
G37*
G36*
X128977000Y-101654000D02*
G01*
X128325000Y-101654000D01*
X128325000Y-99802000D01*
X128977000Y-99802000D01*
X128977000Y-101654000D01*
X128977000Y-101654000D01*
G37*
G36*
X142131703Y-97271486D02*
G01*
X142422883Y-97392097D01*
X142684944Y-97567201D01*
X142907799Y-97790056D01*
X143082903Y-98052117D01*
X143203514Y-98343297D01*
X143265000Y-98652412D01*
X143265000Y-98967588D01*
X143203514Y-99276703D01*
X143082903Y-99567883D01*
X142907799Y-99829944D01*
X142684944Y-100052799D01*
X142422883Y-100227903D01*
X142131703Y-100348514D01*
X141822588Y-100410000D01*
X141507412Y-100410000D01*
X141198297Y-100348514D01*
X140907117Y-100227903D01*
X140645056Y-100052799D01*
X140422201Y-99829944D01*
X140247097Y-99567883D01*
X140126486Y-99276703D01*
X140065000Y-98967588D01*
X140065000Y-98652412D01*
X140126486Y-98343297D01*
X140247097Y-98052117D01*
X140422201Y-97790056D01*
X140645056Y-97567201D01*
X140907117Y-97392097D01*
X141198297Y-97271486D01*
X141507412Y-97210000D01*
X141822588Y-97210000D01*
X142131703Y-97271486D01*
X142131703Y-97271486D01*
G37*
G36*
X77253000Y-100126000D02*
G01*
X74501000Y-100126000D01*
X74501000Y-97994000D01*
X77253000Y-97994000D01*
X77253000Y-100126000D01*
X77253000Y-100126000D01*
G37*
G36*
X73073000Y-100126000D02*
G01*
X70321000Y-100126000D01*
X70321000Y-97994000D01*
X73073000Y-97994000D01*
X73073000Y-100126000D01*
X73073000Y-100126000D01*
G37*
G36*
X117621000Y-99736000D02*
G01*
X116019000Y-99736000D01*
X116019000Y-98384000D01*
X117621000Y-98384000D01*
X117621000Y-99736000D01*
X117621000Y-99736000D01*
G37*
G36*
X115121000Y-99736000D02*
G01*
X113519000Y-99736000D01*
X113519000Y-98384000D01*
X115121000Y-98384000D01*
X115121000Y-99736000D01*
X115121000Y-99736000D01*
G37*
G36*
X146372521Y-97944586D02*
G01*
X146536309Y-98012429D01*
X146683720Y-98110926D01*
X146809074Y-98236280D01*
X146907571Y-98383691D01*
X146975414Y-98547479D01*
X147010000Y-98721356D01*
X147010000Y-98898644D01*
X146975414Y-99072521D01*
X146907571Y-99236309D01*
X146809074Y-99383720D01*
X146683720Y-99509074D01*
X146536309Y-99607571D01*
X146372521Y-99675414D01*
X146198644Y-99710000D01*
X146021356Y-99710000D01*
X145847479Y-99675414D01*
X145683691Y-99607571D01*
X145536280Y-99509074D01*
X145410926Y-99383720D01*
X145312429Y-99236309D01*
X145244586Y-99072521D01*
X145210000Y-98898644D01*
X145210000Y-98721356D01*
X145244586Y-98547479D01*
X145312429Y-98383691D01*
X145410926Y-98236280D01*
X145536280Y-98110926D01*
X145683691Y-98012429D01*
X145847479Y-97944586D01*
X146021356Y-97910000D01*
X146198644Y-97910000D01*
X146372521Y-97944586D01*
X146372521Y-97944586D01*
G37*
G36*
X112134000Y-99668000D02*
G01*
X111132000Y-99668000D01*
X111132000Y-98366000D01*
X112134000Y-98366000D01*
X112134000Y-99668000D01*
X112134000Y-99668000D01*
G37*
G36*
X135190000Y-99202000D02*
G01*
X133288000Y-99202000D01*
X133288000Y-97600000D01*
X135190000Y-97600000D01*
X135190000Y-99202000D01*
X135190000Y-99202000D01*
G37*
G36*
X67927560Y-97202166D02*
G01*
X68075153Y-97263301D01*
X68087404Y-97271487D01*
X68207985Y-97352057D01*
X68320943Y-97465015D01*
X68320945Y-97465018D01*
X68389221Y-97567199D01*
X68409700Y-97597849D01*
X68470834Y-97745440D01*
X68502000Y-97902122D01*
X68502000Y-98061878D01*
X68470834Y-98218560D01*
X68409700Y-98366151D01*
X68320943Y-98498985D01*
X68207985Y-98611943D01*
X68207982Y-98611945D01*
X68075153Y-98700699D01*
X68075152Y-98700700D01*
X68075151Y-98700700D01*
X67927560Y-98761834D01*
X67770878Y-98793000D01*
X67611122Y-98793000D01*
X67454440Y-98761834D01*
X67306849Y-98700700D01*
X67306848Y-98700700D01*
X67306847Y-98700699D01*
X67174018Y-98611945D01*
X67174015Y-98611943D01*
X67061057Y-98498985D01*
X66972300Y-98366151D01*
X66911166Y-98218560D01*
X66880000Y-98061878D01*
X66880000Y-97902122D01*
X66911166Y-97745440D01*
X66972300Y-97597849D01*
X66992780Y-97567199D01*
X67061055Y-97465018D01*
X67061057Y-97465015D01*
X67174015Y-97352057D01*
X67294596Y-97271487D01*
X67306847Y-97263301D01*
X67454440Y-97202166D01*
X67611122Y-97171000D01*
X67770878Y-97171000D01*
X67927560Y-97202166D01*
X67927560Y-97202166D01*
G37*
G36*
X65927560Y-97202166D02*
G01*
X66075153Y-97263301D01*
X66087404Y-97271487D01*
X66207985Y-97352057D01*
X66320943Y-97465015D01*
X66320945Y-97465018D01*
X66389221Y-97567199D01*
X66409700Y-97597849D01*
X66470834Y-97745440D01*
X66502000Y-97902122D01*
X66502000Y-98061878D01*
X66470834Y-98218560D01*
X66409700Y-98366151D01*
X66320943Y-98498985D01*
X66207985Y-98611943D01*
X66207982Y-98611945D01*
X66075153Y-98700699D01*
X66075152Y-98700700D01*
X66075151Y-98700700D01*
X65927560Y-98761834D01*
X65770878Y-98793000D01*
X65611122Y-98793000D01*
X65454440Y-98761834D01*
X65306849Y-98700700D01*
X65306848Y-98700700D01*
X65306847Y-98700699D01*
X65174018Y-98611945D01*
X65174015Y-98611943D01*
X65061057Y-98498985D01*
X64972300Y-98366151D01*
X64911166Y-98218560D01*
X64880000Y-98061878D01*
X64880000Y-97902122D01*
X64911166Y-97745440D01*
X64972300Y-97597849D01*
X64992780Y-97567199D01*
X65061055Y-97465018D01*
X65061057Y-97465015D01*
X65174015Y-97352057D01*
X65294596Y-97271487D01*
X65306847Y-97263301D01*
X65454440Y-97202166D01*
X65611122Y-97171000D01*
X65770878Y-97171000D01*
X65927560Y-97202166D01*
X65927560Y-97202166D01*
G37*
G36*
X114751000Y-97513000D02*
G01*
X113849000Y-97513000D01*
X113849000Y-96511000D01*
X114751000Y-96511000D01*
X114751000Y-97513000D01*
X114751000Y-97513000D01*
G37*
G36*
X112134000Y-97468000D02*
G01*
X111132000Y-97468000D01*
X111132000Y-96166000D01*
X112134000Y-96166000D01*
X112134000Y-97468000D01*
X112134000Y-97468000D01*
G37*
G36*
X138316703Y-93461486D02*
G01*
X138607883Y-93582097D01*
X138869944Y-93757201D01*
X139092799Y-93980056D01*
X139267903Y-94242117D01*
X139388514Y-94533297D01*
X139450000Y-94842412D01*
X139450000Y-95157588D01*
X139388514Y-95466703D01*
X139267903Y-95757883D01*
X139092799Y-96019944D01*
X138869944Y-96242799D01*
X138607883Y-96417903D01*
X138316703Y-96538514D01*
X138007588Y-96600000D01*
X137692412Y-96600000D01*
X137383297Y-96538514D01*
X137092117Y-96417903D01*
X136830056Y-96242799D01*
X136607201Y-96019944D01*
X136432097Y-95757883D01*
X136311486Y-95466703D01*
X136250000Y-95157588D01*
X136250000Y-94842412D01*
X136311486Y-94533297D01*
X136432097Y-94242117D01*
X136607201Y-93980056D01*
X136830056Y-93757201D01*
X137092117Y-93582097D01*
X137383297Y-93461486D01*
X137692412Y-93400000D01*
X138007588Y-93400000D01*
X138316703Y-93461486D01*
X138316703Y-93461486D01*
G37*
G36*
X67927560Y-94662166D02*
G01*
X68075153Y-94723301D01*
X68113614Y-94749000D01*
X68207985Y-94812057D01*
X68320943Y-94925015D01*
X68409700Y-95057849D01*
X68470834Y-95205440D01*
X68502000Y-95362122D01*
X68502000Y-95521878D01*
X68470834Y-95678560D01*
X68409700Y-95826151D01*
X68320943Y-95958985D01*
X68207985Y-96071943D01*
X68207982Y-96071945D01*
X68075153Y-96160699D01*
X68075152Y-96160700D01*
X68075151Y-96160700D01*
X67927560Y-96221834D01*
X67770878Y-96253000D01*
X67611122Y-96253000D01*
X67454440Y-96221834D01*
X67306849Y-96160700D01*
X67306848Y-96160700D01*
X67306847Y-96160699D01*
X67174018Y-96071945D01*
X67174015Y-96071943D01*
X67061057Y-95958985D01*
X66972300Y-95826151D01*
X66911166Y-95678560D01*
X66880000Y-95521878D01*
X66880000Y-95362122D01*
X66911166Y-95205440D01*
X66972300Y-95057849D01*
X67061057Y-94925015D01*
X67174015Y-94812057D01*
X67268386Y-94749000D01*
X67306847Y-94723301D01*
X67454440Y-94662166D01*
X67611122Y-94631000D01*
X67770878Y-94631000D01*
X67927560Y-94662166D01*
X67927560Y-94662166D01*
G37*
G36*
X65927560Y-94662166D02*
G01*
X66075153Y-94723301D01*
X66113614Y-94749000D01*
X66207985Y-94812057D01*
X66320943Y-94925015D01*
X66409700Y-95057849D01*
X66470834Y-95205440D01*
X66502000Y-95362122D01*
X66502000Y-95521878D01*
X66470834Y-95678560D01*
X66409700Y-95826151D01*
X66320943Y-95958985D01*
X66207985Y-96071943D01*
X66207982Y-96071945D01*
X66075153Y-96160699D01*
X66075152Y-96160700D01*
X66075151Y-96160700D01*
X65927560Y-96221834D01*
X65770878Y-96253000D01*
X65611122Y-96253000D01*
X65454440Y-96221834D01*
X65306849Y-96160700D01*
X65306848Y-96160700D01*
X65306847Y-96160699D01*
X65174018Y-96071945D01*
X65174015Y-96071943D01*
X65061057Y-95958985D01*
X64972300Y-95826151D01*
X64911166Y-95678560D01*
X64880000Y-95521878D01*
X64880000Y-95362122D01*
X64911166Y-95205440D01*
X64972300Y-95057849D01*
X65061057Y-94925015D01*
X65174015Y-94812057D01*
X65268386Y-94749000D01*
X65306847Y-94723301D01*
X65454440Y-94662166D01*
X65611122Y-94631000D01*
X65770878Y-94631000D01*
X65927560Y-94662166D01*
X65927560Y-94662166D01*
G37*
G36*
X135190000Y-96202000D02*
G01*
X133288000Y-96202000D01*
X133288000Y-94600000D01*
X135190000Y-94600000D01*
X135190000Y-96202000D01*
X135190000Y-96202000D01*
G37*
G36*
X78348000Y-95814000D02*
G01*
X77186000Y-95814000D01*
X77186000Y-93162000D01*
X78348000Y-93162000D01*
X78348000Y-95814000D01*
X78348000Y-95814000D01*
G37*
G36*
X80548000Y-95814000D02*
G01*
X79386000Y-95814000D01*
X79386000Y-93162000D01*
X80548000Y-93162000D01*
X80548000Y-95814000D01*
X80548000Y-95814000D01*
G37*
G36*
X71814000Y-95751000D02*
G01*
X70512000Y-95751000D01*
X70512000Y-94749000D01*
X71814000Y-94749000D01*
X71814000Y-95751000D01*
X71814000Y-95751000D01*
G37*
G36*
X74014000Y-95751000D02*
G01*
X72712000Y-95751000D01*
X72712000Y-94749000D01*
X74014000Y-94749000D01*
X74014000Y-95751000D01*
X74014000Y-95751000D01*
G37*
G36*
X113801000Y-95513000D02*
G01*
X112899000Y-95513000D01*
X112899000Y-94511000D01*
X113801000Y-94511000D01*
X113801000Y-95513000D01*
X113801000Y-95513000D01*
G37*
G36*
X115701000Y-95513000D02*
G01*
X114799000Y-95513000D01*
X114799000Y-94511000D01*
X115701000Y-94511000D01*
X115701000Y-95513000D01*
X115701000Y-95513000D01*
G37*
G36*
X75987000Y-95269000D02*
G01*
X74635000Y-95269000D01*
X74635000Y-93667000D01*
X75987000Y-93667000D01*
X75987000Y-95269000D01*
X75987000Y-95269000D01*
G37*
G36*
X125167000Y-94254000D02*
G01*
X124515000Y-94254000D01*
X124515000Y-92402000D01*
X125167000Y-92402000D01*
X125167000Y-94254000D01*
X125167000Y-94254000D01*
G37*
G36*
X128977000Y-94254000D02*
G01*
X128325000Y-94254000D01*
X128325000Y-92402000D01*
X128977000Y-92402000D01*
X128977000Y-94254000D01*
X128977000Y-94254000D01*
G37*
G36*
X126437000Y-94254000D02*
G01*
X125785000Y-94254000D01*
X125785000Y-92402000D01*
X126437000Y-92402000D01*
X126437000Y-94254000D01*
X126437000Y-94254000D01*
G37*
G36*
X127707000Y-94254000D02*
G01*
X127055000Y-94254000D01*
X127055000Y-92402000D01*
X127707000Y-92402000D01*
X127707000Y-94254000D01*
X127707000Y-94254000D01*
G37*
G36*
X71814000Y-94227000D02*
G01*
X70512000Y-94227000D01*
X70512000Y-93225000D01*
X71814000Y-93225000D01*
X71814000Y-94227000D01*
X71814000Y-94227000D01*
G37*
G36*
X74014000Y-94227000D02*
G01*
X72712000Y-94227000D01*
X72712000Y-93225000D01*
X74014000Y-93225000D01*
X74014000Y-94227000D01*
X74014000Y-94227000D01*
G37*
G36*
X132016000Y-94042000D02*
G01*
X130414000Y-94042000D01*
X130414000Y-92140000D01*
X132016000Y-92140000D01*
X132016000Y-94042000D01*
X132016000Y-94042000D01*
G37*
G36*
X135016000Y-94042000D02*
G01*
X133414000Y-94042000D01*
X133414000Y-92140000D01*
X135016000Y-92140000D01*
X135016000Y-94042000D01*
X135016000Y-94042000D01*
G37*
G36*
X142766703Y-89651486D02*
G01*
X143057883Y-89772097D01*
X143319944Y-89947201D01*
X143542799Y-90170056D01*
X143717903Y-90432117D01*
X143838514Y-90723297D01*
X143900000Y-91032412D01*
X143900000Y-91347588D01*
X143838514Y-91656703D01*
X143717903Y-91947883D01*
X143542799Y-92209944D01*
X143319944Y-92432799D01*
X143057883Y-92607903D01*
X142766703Y-92728514D01*
X142457588Y-92790000D01*
X142142412Y-92790000D01*
X141833297Y-92728514D01*
X141542117Y-92607903D01*
X141280056Y-92432799D01*
X141057201Y-92209944D01*
X140882097Y-91947883D01*
X140761486Y-91656703D01*
X140700000Y-91347588D01*
X140700000Y-91032412D01*
X140761486Y-90723297D01*
X140882097Y-90432117D01*
X141057201Y-90170056D01*
X141280056Y-89947201D01*
X141542117Y-89772097D01*
X141833297Y-89651486D01*
X142142412Y-89590000D01*
X142457588Y-89590000D01*
X142766703Y-89651486D01*
X142766703Y-89651486D01*
G37*
G36*
X75987000Y-92769000D02*
G01*
X74635000Y-92769000D01*
X74635000Y-91167000D01*
X75987000Y-91167000D01*
X75987000Y-92769000D01*
X75987000Y-92769000D01*
G37*
G36*
X63589252Y-88739818D02*
G01*
X63589254Y-88739819D01*
X63589255Y-88739819D01*
X63962513Y-88894427D01*
X63962514Y-88894428D01*
X64298439Y-89118886D01*
X64584114Y-89404561D01*
X64584116Y-89404564D01*
X64808573Y-89740487D01*
X64894196Y-89947201D01*
X64963182Y-90113748D01*
X65042000Y-90509993D01*
X65042000Y-90914007D01*
X64969470Y-91278642D01*
X64963181Y-91310255D01*
X64808573Y-91683513D01*
X64808572Y-91683514D01*
X64584114Y-92019439D01*
X64298439Y-92305114D01*
X64298436Y-92305116D01*
X63962513Y-92529573D01*
X63589255Y-92684181D01*
X63589254Y-92684181D01*
X63589252Y-92684182D01*
X63193007Y-92763000D01*
X62788993Y-92763000D01*
X62392748Y-92684182D01*
X62392746Y-92684181D01*
X62392745Y-92684181D01*
X62019487Y-92529573D01*
X61683564Y-92305116D01*
X61683561Y-92305114D01*
X61397886Y-92019439D01*
X61173428Y-91683514D01*
X61173427Y-91683513D01*
X61018819Y-91310255D01*
X61012531Y-91278642D01*
X60940000Y-90914007D01*
X60940000Y-90509993D01*
X61018818Y-90113748D01*
X61087804Y-89947201D01*
X61173427Y-89740487D01*
X61397884Y-89404564D01*
X61397886Y-89404561D01*
X61683561Y-89118886D01*
X62019486Y-88894428D01*
X62019487Y-88894427D01*
X62392745Y-88739819D01*
X62392746Y-88739819D01*
X62392748Y-88739818D01*
X62788993Y-88661000D01*
X63193007Y-88661000D01*
X63589252Y-88739818D01*
X63589252Y-88739818D01*
G37*
G36*
X151452521Y-90324586D02*
G01*
X151616309Y-90392429D01*
X151763720Y-90490926D01*
X151889074Y-90616280D01*
X151987571Y-90763691D01*
X152055414Y-90927479D01*
X152090000Y-91101356D01*
X152090000Y-91278644D01*
X152055414Y-91452521D01*
X151987571Y-91616309D01*
X151889074Y-91763720D01*
X151763720Y-91889074D01*
X151616309Y-91987571D01*
X151452521Y-92055414D01*
X151278644Y-92090000D01*
X151101356Y-92090000D01*
X150927479Y-92055414D01*
X150763691Y-91987571D01*
X150616280Y-91889074D01*
X150490926Y-91763720D01*
X150392429Y-91616309D01*
X150324586Y-91452521D01*
X150290000Y-91278644D01*
X150290000Y-91101356D01*
X150324586Y-90927479D01*
X150392429Y-90763691D01*
X150490926Y-90616280D01*
X150616280Y-90490926D01*
X150763691Y-90392429D01*
X150927479Y-90324586D01*
X151101356Y-90290000D01*
X151278644Y-90290000D01*
X151452521Y-90324586D01*
X151452521Y-90324586D01*
G37*
G36*
X115532228Y-90367703D02*
G01*
X115687100Y-90431853D01*
X115826481Y-90524985D01*
X115945015Y-90643519D01*
X116038147Y-90782900D01*
X116102297Y-90937772D01*
X116135000Y-91102184D01*
X116135000Y-91269816D01*
X116102297Y-91434228D01*
X116038147Y-91589100D01*
X115945015Y-91728481D01*
X115826481Y-91847015D01*
X115687100Y-91940147D01*
X115532228Y-92004297D01*
X115367816Y-92037000D01*
X115200184Y-92037000D01*
X115035772Y-92004297D01*
X114880900Y-91940147D01*
X114741519Y-91847015D01*
X114622985Y-91728481D01*
X114529853Y-91589100D01*
X114465703Y-91434228D01*
X114433000Y-91269816D01*
X114433000Y-91102184D01*
X114465703Y-90937772D01*
X114529853Y-90782900D01*
X114622985Y-90643519D01*
X114741519Y-90524985D01*
X114880900Y-90431853D01*
X115035772Y-90367703D01*
X115200184Y-90335000D01*
X115367816Y-90335000D01*
X115532228Y-90367703D01*
X115532228Y-90367703D01*
G37*
G36*
X114135000Y-92037000D02*
G01*
X112433000Y-92037000D01*
X112433000Y-90335000D01*
X114135000Y-90335000D01*
X114135000Y-92037000D01*
X114135000Y-92037000D01*
G37*
G36*
X128347000Y-91866000D02*
G01*
X127045000Y-91866000D01*
X127045000Y-91014000D01*
X128347000Y-91014000D01*
X128347000Y-91866000D01*
X128347000Y-91866000D01*
G37*
G36*
X126447000Y-91866000D02*
G01*
X125145000Y-91866000D01*
X125145000Y-91014000D01*
X126447000Y-91014000D01*
X126447000Y-91866000D01*
X126447000Y-91866000D01*
G37*
G36*
X135016000Y-91502000D02*
G01*
X133414000Y-91502000D01*
X133414000Y-89600000D01*
X135016000Y-89600000D01*
X135016000Y-91502000D01*
X135016000Y-91502000D01*
G37*
G36*
X132016000Y-91502000D02*
G01*
X130414000Y-91502000D01*
X130414000Y-89600000D01*
X132016000Y-89600000D01*
X132016000Y-91502000D01*
X132016000Y-91502000D01*
G37*
G36*
X147216703Y-86481486D02*
G01*
X147507883Y-86602097D01*
X147769944Y-86777201D01*
X147992799Y-87000056D01*
X148167903Y-87262117D01*
X148288514Y-87553297D01*
X148350000Y-87862412D01*
X148350000Y-88177588D01*
X148288514Y-88486703D01*
X148167903Y-88777883D01*
X147992799Y-89039944D01*
X147769944Y-89262799D01*
X147507883Y-89437903D01*
X147216703Y-89558514D01*
X146907588Y-89620000D01*
X146592412Y-89620000D01*
X146283297Y-89558514D01*
X145992117Y-89437903D01*
X145730056Y-89262799D01*
X145507201Y-89039944D01*
X145332097Y-88777883D01*
X145211486Y-88486703D01*
X145150000Y-88177588D01*
X145150000Y-87862412D01*
X145211486Y-87553297D01*
X145332097Y-87262117D01*
X145507201Y-87000056D01*
X145730056Y-86777201D01*
X145992117Y-86602097D01*
X146283297Y-86481486D01*
X146592412Y-86420000D01*
X146907588Y-86420000D01*
X147216703Y-86481486D01*
X147216703Y-86481486D01*
G37*
G36*
X83629000Y-89343000D02*
G01*
X80027000Y-89343000D01*
X80027000Y-87441000D01*
X83629000Y-87441000D01*
X83629000Y-89343000D01*
X83629000Y-89343000D01*
G37*
G36*
X88629000Y-89343000D02*
G01*
X85027000Y-89343000D01*
X85027000Y-87441000D01*
X88629000Y-87441000D01*
X88629000Y-89343000D01*
X88629000Y-89343000D01*
G37*
G36*
X92683000Y-88893000D02*
G01*
X91381000Y-88893000D01*
X91381000Y-87891000D01*
X92683000Y-87891000D01*
X92683000Y-88893000D01*
X92683000Y-88893000D01*
G37*
G36*
X94547000Y-88893000D02*
G01*
X93245000Y-88893000D01*
X93245000Y-87891000D01*
X94547000Y-87891000D01*
X94547000Y-88893000D01*
X94547000Y-88893000D01*
G37*
G36*
X90483000Y-88893000D02*
G01*
X89181000Y-88893000D01*
X89181000Y-87891000D01*
X90483000Y-87891000D01*
X90483000Y-88893000D01*
X90483000Y-88893000D01*
G37*
G36*
X96747000Y-88893000D02*
G01*
X95445000Y-88893000D01*
X95445000Y-87891000D01*
X96747000Y-87891000D01*
X96747000Y-88893000D01*
X96747000Y-88893000D01*
G37*
G36*
X102170000Y-88629000D02*
G01*
X100268000Y-88629000D01*
X100268000Y-85027000D01*
X102170000Y-85027000D01*
X102170000Y-88629000D01*
X102170000Y-88629000D01*
G37*
G36*
X66567000Y-87874200D02*
G01*
X64965000Y-87874200D01*
X64965000Y-86522200D01*
X66567000Y-86522200D01*
X66567000Y-87874200D01*
X66567000Y-87874200D01*
G37*
G36*
X64067000Y-87874200D02*
G01*
X62465000Y-87874200D01*
X62465000Y-86522200D01*
X64067000Y-86522200D01*
X64067000Y-87874200D01*
X64067000Y-87874200D01*
G37*
G36*
X82609000Y-86274000D02*
G01*
X81007000Y-86274000D01*
X81007000Y-84922000D01*
X82609000Y-84922000D01*
X82609000Y-86274000D01*
X82609000Y-86274000D01*
G37*
G36*
X85109000Y-86274000D02*
G01*
X83507000Y-86274000D01*
X83507000Y-84922000D01*
X85109000Y-84922000D01*
X85109000Y-86274000D01*
X85109000Y-86274000D01*
G37*
G36*
X91136000Y-86024000D02*
G01*
X89834000Y-86024000D01*
X89834000Y-85172000D01*
X91136000Y-85172000D01*
X91136000Y-86024000D01*
X91136000Y-86024000D01*
G37*
G36*
X89236000Y-86024000D02*
G01*
X87934000Y-86024000D01*
X87934000Y-85172000D01*
X89236000Y-85172000D01*
X89236000Y-86024000D01*
X89236000Y-86024000D01*
G37*
G36*
X96006228Y-83469703D02*
G01*
X96161100Y-83533853D01*
X96300481Y-83626985D01*
X96419015Y-83745519D01*
X96512147Y-83884900D01*
X96576297Y-84039772D01*
X96609000Y-84204184D01*
X96609000Y-84371816D01*
X96576297Y-84536228D01*
X96512147Y-84691100D01*
X96419015Y-84830481D01*
X96300481Y-84949015D01*
X96161100Y-85042147D01*
X96006228Y-85106297D01*
X95841816Y-85139000D01*
X95674184Y-85139000D01*
X95509772Y-85106297D01*
X95354900Y-85042147D01*
X95215519Y-84949015D01*
X95096985Y-84830481D01*
X95003853Y-84691100D01*
X94939703Y-84536228D01*
X94907000Y-84371816D01*
X94907000Y-84204184D01*
X94939703Y-84039772D01*
X95003853Y-83884900D01*
X95096985Y-83745519D01*
X95215519Y-83626985D01*
X95354900Y-83533853D01*
X95509772Y-83469703D01*
X95674184Y-83437000D01*
X95841816Y-83437000D01*
X96006228Y-83469703D01*
X96006228Y-83469703D01*
G37*
G36*
X129753000Y-84761000D02*
G01*
X127651000Y-84761000D01*
X127651000Y-82879000D01*
X129753000Y-82879000D01*
X129753000Y-84761000D01*
X129753000Y-84761000D01*
G37*
G36*
X120253000Y-84761000D02*
G01*
X118151000Y-84761000D01*
X118151000Y-82879000D01*
X120253000Y-82879000D01*
X120253000Y-84761000D01*
X120253000Y-84761000D01*
G37*
G36*
X87469000Y-84072000D02*
G01*
X86267000Y-84072000D01*
X86267000Y-79370000D01*
X87469000Y-79370000D01*
X87469000Y-84072000D01*
X87469000Y-84072000D01*
G37*
G36*
X82389000Y-84072000D02*
G01*
X81187000Y-84072000D01*
X81187000Y-79370000D01*
X82389000Y-79370000D01*
X82389000Y-84072000D01*
X82389000Y-84072000D01*
G37*
G36*
X102170000Y-83629000D02*
G01*
X100268000Y-83629000D01*
X100268000Y-80027000D01*
X102170000Y-80027000D01*
X102170000Y-83629000D01*
X102170000Y-83629000D01*
G37*
G36*
X70744565Y-80777389D02*
G01*
X70935834Y-80856615D01*
X71107976Y-80971637D01*
X71254363Y-81118024D01*
X71369385Y-81290166D01*
X71448611Y-81481435D01*
X71489000Y-81684484D01*
X71489000Y-81891516D01*
X71448611Y-82094565D01*
X71369385Y-82285834D01*
X71254363Y-82457976D01*
X71107976Y-82604363D01*
X70935834Y-82719385D01*
X70744565Y-82798611D01*
X70541516Y-82839000D01*
X70334484Y-82839000D01*
X70131435Y-82798611D01*
X69940166Y-82719385D01*
X69768024Y-82604363D01*
X69621637Y-82457976D01*
X69506615Y-82285834D01*
X69427389Y-82094565D01*
X69387000Y-81891516D01*
X69387000Y-81684484D01*
X69427389Y-81481435D01*
X69506615Y-81290166D01*
X69621637Y-81118024D01*
X69768024Y-80971637D01*
X69940166Y-80856615D01*
X70131435Y-80777389D01*
X70334484Y-80737000D01*
X70541516Y-80737000D01*
X70744565Y-80777389D01*
X70744565Y-80777389D01*
G37*
G36*
X76489000Y-82839000D02*
G01*
X74387000Y-82839000D01*
X74387000Y-80737000D01*
X76489000Y-80737000D01*
X76489000Y-82839000D01*
X76489000Y-82839000D01*
G37*
G36*
X96609000Y-82639000D02*
G01*
X94907000Y-82639000D01*
X94907000Y-80937000D01*
X96609000Y-80937000D01*
X96609000Y-82639000D01*
X96609000Y-82639000D01*
G37*
G36*
X120253000Y-82221000D02*
G01*
X118151000Y-82221000D01*
X118151000Y-80339000D01*
X120253000Y-80339000D01*
X120253000Y-82221000D01*
X120253000Y-82221000D01*
G37*
G36*
X129753000Y-82221000D02*
G01*
X127651000Y-82221000D01*
X127651000Y-80339000D01*
X129753000Y-80339000D01*
X129753000Y-82221000D01*
X129753000Y-82221000D01*
G37*
G36*
X131311000Y-81761000D02*
G01*
X130309000Y-81761000D01*
X130309000Y-80459000D01*
X131311000Y-80459000D01*
X131311000Y-81761000D01*
X131311000Y-81761000D01*
G37*
G36*
X147118565Y-78491389D02*
G01*
X147309834Y-78570615D01*
X147481976Y-78685637D01*
X147628363Y-78832024D01*
X147743385Y-79004166D01*
X147822611Y-79195435D01*
X147863000Y-79398484D01*
X147863000Y-79605516D01*
X147822611Y-79808565D01*
X147743385Y-79999834D01*
X147628363Y-80171976D01*
X147481976Y-80318363D01*
X147309834Y-80433385D01*
X147118565Y-80512611D01*
X146915516Y-80553000D01*
X146708484Y-80553000D01*
X146505435Y-80512611D01*
X146314166Y-80433385D01*
X146142024Y-80318363D01*
X145995637Y-80171976D01*
X145880615Y-79999834D01*
X145801389Y-79808565D01*
X145761000Y-79605516D01*
X145761000Y-79398484D01*
X145801389Y-79195435D01*
X145880615Y-79004166D01*
X145995637Y-78832024D01*
X146142024Y-78685637D01*
X146314166Y-78570615D01*
X146505435Y-78491389D01*
X146708484Y-78451000D01*
X146915516Y-78451000D01*
X147118565Y-78491389D01*
X147118565Y-78491389D01*
G37*
G36*
X139618565Y-78491389D02*
G01*
X139809834Y-78570615D01*
X139981976Y-78685637D01*
X140128363Y-78832024D01*
X140243385Y-79004166D01*
X140322611Y-79195435D01*
X140363000Y-79398484D01*
X140363000Y-79605516D01*
X140322611Y-79808565D01*
X140243385Y-79999834D01*
X140128363Y-80171976D01*
X139981976Y-80318363D01*
X139809834Y-80433385D01*
X139618565Y-80512611D01*
X139415516Y-80553000D01*
X139208484Y-80553000D01*
X139005435Y-80512611D01*
X138814166Y-80433385D01*
X138642024Y-80318363D01*
X138495637Y-80171976D01*
X138380615Y-79999834D01*
X138301389Y-79808565D01*
X138261000Y-79605516D01*
X138261000Y-79398484D01*
X138301389Y-79195435D01*
X138380615Y-79004166D01*
X138495637Y-78832024D01*
X138642024Y-78685637D01*
X138814166Y-78570615D01*
X139005435Y-78491389D01*
X139208484Y-78451000D01*
X139415516Y-78451000D01*
X139618565Y-78491389D01*
X139618565Y-78491389D01*
G37*
G36*
X65079460Y-80279060D02*
G01*
X61477340Y-80279060D01*
X61477340Y-76676940D01*
X65079460Y-76676940D01*
X65079460Y-80279060D01*
X65079460Y-80279060D01*
G37*
G36*
X129753000Y-79681000D02*
G01*
X127651000Y-79681000D01*
X127651000Y-77799000D01*
X129753000Y-77799000D01*
X129753000Y-79681000D01*
X129753000Y-79681000D01*
G37*
G36*
X120253000Y-79681000D02*
G01*
X118151000Y-79681000D01*
X118151000Y-77799000D01*
X120253000Y-77799000D01*
X120253000Y-79681000D01*
X120253000Y-79681000D01*
G37*
G36*
X131311000Y-79561000D02*
G01*
X130309000Y-79561000D01*
X130309000Y-78259000D01*
X131311000Y-78259000D01*
X131311000Y-79561000D01*
X131311000Y-79561000D01*
G37*
G36*
X117575000Y-79241000D02*
G01*
X116273000Y-79241000D01*
X116273000Y-78239000D01*
X117575000Y-78239000D01*
X117575000Y-79241000D01*
X117575000Y-79241000D01*
G37*
G36*
X115375000Y-79241000D02*
G01*
X114073000Y-79241000D01*
X114073000Y-78239000D01*
X115375000Y-78239000D01*
X115375000Y-79241000D01*
X115375000Y-79241000D01*
G37*
G36*
X89779000Y-77322000D02*
G01*
X78877000Y-77322000D01*
X78877000Y-67820000D01*
X89779000Y-67820000D01*
X89779000Y-77322000D01*
X89779000Y-77322000D01*
G37*
G36*
X129753000Y-77141000D02*
G01*
X127651000Y-77141000D01*
X127651000Y-75259000D01*
X129753000Y-75259000D01*
X129753000Y-77141000D01*
X129753000Y-77141000D01*
G37*
G36*
X120253000Y-77141000D02*
G01*
X118151000Y-77141000D01*
X118151000Y-75259000D01*
X120253000Y-75259000D01*
X120253000Y-77141000D01*
X120253000Y-77141000D01*
G37*
G36*
X133427000Y-76626000D02*
G01*
X132125000Y-76626000D01*
X132125000Y-75774000D01*
X133427000Y-75774000D01*
X133427000Y-76626000D01*
X133427000Y-76626000D01*
G37*
G36*
X131527000Y-76626000D02*
G01*
X130225000Y-76626000D01*
X130225000Y-75774000D01*
X131527000Y-75774000D01*
X131527000Y-76626000D01*
X131527000Y-76626000D01*
G37*
G36*
X67929060Y-75529000D02*
G01*
X64326940Y-75529000D01*
X64326940Y-71427000D01*
X67929060Y-71427000D01*
X67929060Y-75529000D01*
X67929060Y-75529000D01*
G37*
G36*
X61779060Y-75279060D02*
G01*
X58176940Y-75279060D01*
X58176940Y-71676940D01*
X61779060Y-71676940D01*
X61779060Y-75279060D01*
X61779060Y-75279060D01*
G37*
G36*
X77199000Y-74357000D02*
G01*
X73597000Y-74357000D01*
X73597000Y-72455000D01*
X77199000Y-72455000D01*
X77199000Y-74357000D01*
X77199000Y-74357000D01*
G37*
G36*
X72199000Y-74357000D02*
G01*
X68597000Y-74357000D01*
X68597000Y-72455000D01*
X72199000Y-72455000D01*
X72199000Y-74357000D01*
X72199000Y-74357000D01*
G37*
M02*
