G04 #@! TF.GenerationSoftware,KiCad,Pcbnew,(6.0.0-rc1-dev-1425-g4c184f07a)*
G04 #@! TF.CreationDate,2018-12-24T19:16:23+01:00
G04 #@! TF.ProjectId,UsbDmx,55736244-6d78-42e6-9b69-6361645f7063,rev?*
G04 #@! TF.SameCoordinates,Original*
G04 #@! TF.FileFunction,Legend,Bot*
G04 #@! TF.FilePolarity,Positive*
%FSLAX46Y46*%
G04 Gerber Fmt 4.6, Leading zero omitted, Abs format (unit mm)*
G04 Created by KiCad (PCBNEW (6.0.0-rc1-dev-1425-g4c184f07a)) date 24.12.2018 19:16:23*
%MOMM*%
%LPD*%
G04 APERTURE LIST*
%ADD10C,0.120000*%
%ADD11C,2.477000*%
%ADD12C,1.092600*%
%ADD13C,4.102000*%
%ADD14C,1.622000*%
%ADD15C,1.702000*%
%ADD16R,1.702000X1.702000*%
%ADD17R,2.002000X0.902000*%
%ADD18C,1.302000*%
%ADD19R,1.302000X1.302000*%
%ADD20C,2.102000*%
%ADD21R,2.102000X2.102000*%
%ADD22C,1.800000*%
%ADD23C,3.200000*%
%ADD24R,3.602120X3.602120*%
%ADD25R,3.602120X4.102000*%
%ADD26C,1.602000*%
%ADD27C,2.402000*%
G04 APERTURE END LIST*
D10*
X131828000Y-99497000D02*
X133288000Y-99497000D01*
X131828000Y-96337000D02*
X134988000Y-96337000D01*
X131828000Y-96337000D02*
X131828000Y-97267000D01*
X131828000Y-99497000D02*
X131828000Y-98567000D01*
X131828000Y-138486000D02*
X131828000Y-137556000D01*
X131828000Y-135326000D02*
X131828000Y-136256000D01*
X131828000Y-135326000D02*
X134988000Y-135326000D01*
X131828000Y-138486000D02*
X133288000Y-138486000D01*
%LPC*%
D11*
X104648000Y-159512000D03*
D12*
X107188000Y-159512000D03*
X106173000Y-151892000D03*
X108203000Y-151892000D03*
D11*
X109728000Y-159512000D03*
X109728000Y-153797000D03*
X104648000Y-153797000D03*
D13*
X62991000Y-102712000D03*
X62991000Y-90712000D03*
D14*
X65691000Y-95442000D03*
X65691000Y-97982000D03*
X67691000Y-97982000D03*
X67691000Y-95442000D03*
D15*
X95758000Y-84288000D03*
D16*
X95758000Y-81788000D03*
D17*
X131088000Y-97917000D03*
X134088000Y-98867000D03*
X134088000Y-96967000D03*
D18*
X97028000Y-109371000D03*
D19*
X97028000Y-110871000D03*
D20*
X70438000Y-81788000D03*
D21*
X75438000Y-81788000D03*
D20*
X139312000Y-79502000D03*
X146812000Y-79502000D03*
D15*
X115284000Y-91186000D03*
D16*
X113284000Y-91186000D03*
X133096000Y-108712000D03*
D15*
X131096000Y-108712000D03*
D20*
X120262000Y-110236000D03*
X127762000Y-110236000D03*
X146812000Y-119507000D03*
X139312000Y-119507000D03*
D22*
X146110000Y-98810000D03*
X151190000Y-91190000D03*
D23*
X142300000Y-91190000D03*
X141665000Y-98810000D03*
X137850000Y-95000000D03*
X146750000Y-88020000D03*
D22*
X146110000Y-138810000D03*
X151190000Y-131190000D03*
D23*
X137220000Y-131190000D03*
X137220000Y-138810000D03*
X137220000Y-135000000D03*
X142300000Y-135000000D03*
D24*
X63278400Y-78478000D03*
X59978000Y-73478000D03*
D25*
X66128000Y-73478000D03*
D20*
X118556000Y-115000000D03*
X121096000Y-115000000D03*
X126176000Y-115000000D03*
X128716000Y-115000000D03*
X131256000Y-115000000D03*
X133796000Y-115000000D03*
D26*
X78994000Y-112468000D03*
X78994000Y-117348000D03*
D27*
X60769500Y-106692700D03*
X149600000Y-110000000D03*
X149600000Y-158000000D03*
X149600000Y-150000000D03*
D17*
X134088000Y-135956000D03*
X134088000Y-137856000D03*
X131088000Y-136906000D03*
M02*
