%FSLAX45Y45*%
G04 Gerber Fmt 4.5, Leading zero omitted, Abs format (unit mm)*
G04 Created by KiCad (PCBNEW 5.0.1) date Sa 02 Feb 2019 17:50:20 CET*
%MOMM*%
%LPD*%
G01*
G04 APERTURE LIST*
%ADD10C,0.050000*%
%ADD11C,0.200000*%
%ADD12C,0.300000*%
G04 APERTURE END LIST*
D10*
X5500000Y-16500000D02*
X5500000Y-6500000D01*
X15500000Y-16500000D02*
X5500000Y-16500000D01*
X15500000Y-6500000D02*
X15500000Y-16500000D01*
X5500000Y-6500000D02*
X15500000Y-6500000D01*
D11*
X5987100Y-13505500D02*
X6027100Y-13545500D01*
X6027100Y-13505500D02*
X5987100Y-13545500D01*
X5987100Y-14648500D02*
X6027100Y-14688500D01*
X6027100Y-14648500D02*
X5987100Y-14688500D01*
X6385880Y-10781350D02*
X6425880Y-10821350D01*
X6425880Y-10781350D02*
X6385880Y-10821350D01*
X6774500Y-13327700D02*
X6814500Y-13367700D01*
X6814500Y-13327700D02*
X6774500Y-13367700D01*
X6963730Y-12164380D02*
X7003730Y-12204380D01*
X7003730Y-12164380D02*
X6963730Y-12204380D01*
X6965000Y-12045000D02*
X7005000Y-12085000D01*
X7005000Y-12045000D02*
X6965000Y-12085000D01*
X7244400Y-15029500D02*
X7284400Y-15069500D01*
X7284400Y-15029500D02*
X7244400Y-15069500D01*
X7302820Y-12164380D02*
X7342820Y-12204380D01*
X7342820Y-12164380D02*
X7302820Y-12204380D01*
X7302866Y-12042041D02*
X7342866Y-12082041D01*
X7342866Y-12042041D02*
X7302866Y-12082041D01*
X7511100Y-9022400D02*
X7551100Y-9062400D01*
X7551100Y-9022400D02*
X7511100Y-9062400D01*
X7523800Y-9657400D02*
X7563800Y-9697400D01*
X7563800Y-9657400D02*
X7523800Y-9697400D01*
X7625400Y-11473500D02*
X7665400Y-11513500D01*
X7665400Y-11473500D02*
X7625400Y-11513500D01*
X7638100Y-9428800D02*
X7678100Y-9468800D01*
X7678100Y-9428800D02*
X7638100Y-9468800D01*
X8006400Y-10521000D02*
X8046400Y-10561000D01*
X8046400Y-10521000D02*
X8006400Y-10561000D01*
X8082600Y-9428800D02*
X8122600Y-9468800D01*
X8122600Y-9428800D02*
X8082600Y-9468800D01*
X8207699Y-14189399D02*
X8247699Y-14229399D01*
X8247699Y-14189399D02*
X8207699Y-14229399D01*
X8209600Y-13607100D02*
X8249600Y-13647100D01*
X8249600Y-13607100D02*
X8209600Y-13647100D01*
X8273100Y-14407200D02*
X8313100Y-14447200D01*
X8313100Y-14407200D02*
X8273100Y-14447200D01*
X8285800Y-13823000D02*
X8325800Y-13863000D01*
X8325800Y-13823000D02*
X8285800Y-13863000D01*
X8539800Y-8539800D02*
X8579800Y-8579800D01*
X8579800Y-8539800D02*
X8539800Y-8579800D01*
X8666800Y-14140500D02*
X8706800Y-14180500D01*
X8706800Y-14140500D02*
X8666800Y-14180500D01*
X8666800Y-14013500D02*
X8706800Y-14053500D01*
X8706800Y-14013500D02*
X8666800Y-14053500D01*
X8717600Y-14394500D02*
X8757600Y-14434500D01*
X8757600Y-14394500D02*
X8717600Y-14434500D01*
X8831900Y-13238800D02*
X8871900Y-13278800D01*
X8871900Y-13238800D02*
X8831900Y-13278800D01*
X8857765Y-13912365D02*
X8897765Y-13952365D01*
X8897765Y-13912365D02*
X8857765Y-13952365D01*
X8920800Y-14559600D02*
X8960800Y-14599600D01*
X8960800Y-14559600D02*
X8920800Y-14599600D01*
X8920800Y-15280903D02*
X8960800Y-15320903D01*
X8960800Y-15280903D02*
X8920800Y-15320903D01*
X8984300Y-11590200D02*
X9024300Y-11630200D01*
X9024300Y-11590200D02*
X8984300Y-11630200D01*
X9073200Y-13985900D02*
X9113200Y-14025900D01*
X9113200Y-13985900D02*
X9073200Y-14025900D01*
X9085900Y-13416600D02*
X9125900Y-13456600D01*
X9125900Y-13416600D02*
X9085900Y-13456600D01*
X9098600Y-10724200D02*
X9138600Y-10764200D01*
X9138600Y-10724200D02*
X9098600Y-10764200D01*
X9111300Y-11590200D02*
X9151300Y-11630200D01*
X9151300Y-11590200D02*
X9111300Y-11630200D01*
X9157020Y-13338930D02*
X9197020Y-13378930D01*
X9197020Y-13338930D02*
X9157020Y-13378930D01*
X9162100Y-8539800D02*
X9202100Y-8579800D01*
X9202100Y-8539800D02*
X9162100Y-8579800D01*
X9183690Y-8944930D02*
X9223690Y-8984930D01*
X9223690Y-8944930D02*
X9183690Y-8984930D01*
X9183690Y-9120100D02*
X9223690Y-9160100D01*
X9223690Y-9120100D02*
X9183690Y-9160100D01*
X9261583Y-13338930D02*
X9301583Y-13378930D01*
X9301583Y-13338930D02*
X9261583Y-13378930D01*
X9365300Y-11918000D02*
X9405300Y-11958000D01*
X9405300Y-11918000D02*
X9365300Y-11958000D01*
X9366147Y-13338930D02*
X9406147Y-13378930D01*
X9406147Y-13338930D02*
X9366147Y-13378930D01*
X9470710Y-13338930D02*
X9510710Y-13378930D01*
X9510710Y-13338930D02*
X9470710Y-13378930D01*
X9482801Y-14567220D02*
X9522801Y-14607220D01*
X9522801Y-14567220D02*
X9482801Y-14607220D01*
X9505555Y-14408800D02*
X9545555Y-14448800D01*
X9545555Y-14408800D02*
X9505555Y-14448800D01*
X9555301Y-14694220D02*
X9595301Y-14734220D01*
X9595301Y-14694220D02*
X9555301Y-14734220D01*
X9555800Y-14864400D02*
X9595800Y-14904400D01*
X9595800Y-14864400D02*
X9555800Y-14904400D01*
X9568500Y-10724200D02*
X9608500Y-10764200D01*
X9608500Y-10724200D02*
X9568500Y-10764200D01*
X9575273Y-13338930D02*
X9615273Y-13378930D01*
X9615273Y-13338930D02*
X9575273Y-13378930D01*
X9577410Y-14336300D02*
X9617410Y-14376300D01*
X9617410Y-14336300D02*
X9577410Y-14376300D01*
X9606600Y-15575600D02*
X9646600Y-15615600D01*
X9646600Y-15575600D02*
X9606600Y-15615600D01*
X9650113Y-14263800D02*
X9690113Y-14303800D01*
X9690113Y-14263800D02*
X9650113Y-14303800D01*
X9679837Y-13338930D02*
X9719837Y-13378930D01*
X9719837Y-13338930D02*
X9679837Y-13378930D01*
X9708200Y-8819200D02*
X9748200Y-8859200D01*
X9748200Y-8819200D02*
X9708200Y-8859200D01*
X9720900Y-14191300D02*
X9760900Y-14231300D01*
X9760900Y-14191300D02*
X9720900Y-14231300D01*
X9759000Y-13632500D02*
X9799000Y-13672500D01*
X9799000Y-13632500D02*
X9759000Y-13672500D01*
X9761540Y-13756960D02*
X9801540Y-13796960D01*
X9801540Y-13756960D02*
X9761540Y-13796960D01*
X9784400Y-13338930D02*
X9824400Y-13378930D01*
X9824400Y-13338930D02*
X9784400Y-13378930D01*
X9873300Y-11918000D02*
X9913300Y-11958000D01*
X9913300Y-11918000D02*
X9873300Y-11958000D01*
X9915300Y-13632500D02*
X9955300Y-13672500D01*
X9955300Y-13632500D02*
X9915300Y-13672500D01*
X9924100Y-14394500D02*
X9964100Y-14434500D01*
X9964100Y-14394500D02*
X9924100Y-14434500D01*
X10051100Y-13111800D02*
X10091100Y-13151800D01*
X10091100Y-13111800D02*
X10051100Y-13151800D01*
X10089200Y-14762800D02*
X10129200Y-14802800D01*
X10129200Y-14762800D02*
X10089200Y-14802800D01*
X10279700Y-13391200D02*
X10319700Y-13431200D01*
X10319700Y-13391200D02*
X10279700Y-13431200D01*
X10305100Y-12502200D02*
X10345100Y-12542200D01*
X10345100Y-12502200D02*
X10305100Y-12542200D01*
X10305100Y-12629200D02*
X10345100Y-12669200D01*
X10345100Y-12629200D02*
X10305100Y-12669200D01*
X10306370Y-12387900D02*
X10346370Y-12427900D01*
X10346370Y-12387900D02*
X10306370Y-12427900D01*
X10330500Y-15740700D02*
X10370500Y-15780700D01*
X10370500Y-15740700D02*
X10330500Y-15780700D01*
X10355900Y-11524300D02*
X10395900Y-11564300D01*
X10395900Y-11524300D02*
X10355900Y-11564300D01*
X10433370Y-13951270D02*
X10473370Y-13991270D01*
X10473370Y-13951270D02*
X10433370Y-13991270D01*
X10457500Y-14643400D02*
X10497500Y-14683400D01*
X10497500Y-14643400D02*
X10457500Y-14683400D01*
X10524201Y-12527600D02*
X10564201Y-12567600D01*
X10564201Y-12527600D02*
X10524201Y-12567600D01*
X10533700Y-14398200D02*
X10573700Y-14438200D01*
X10573700Y-14398200D02*
X10533700Y-14438200D01*
X10569202Y-12692700D02*
X10609202Y-12732700D01*
X10609202Y-12692700D02*
X10569202Y-12732700D01*
X10622600Y-12934000D02*
X10662600Y-12974000D01*
X10662600Y-12934000D02*
X10622600Y-12974000D01*
X10622600Y-14546900D02*
X10662600Y-14586900D01*
X10662600Y-14546900D02*
X10622600Y-14586900D01*
X10644631Y-12095800D02*
X10684631Y-12135800D01*
X10684631Y-12095800D02*
X10644631Y-12135800D01*
X10768928Y-13773146D02*
X10808928Y-13813146D01*
X10808928Y-13773146D02*
X10768928Y-13813146D01*
X10800400Y-14089700D02*
X10840400Y-14129700D01*
X10840400Y-14089700D02*
X10800400Y-14129700D01*
X10800400Y-14242100D02*
X10840400Y-14282100D01*
X10840400Y-14242100D02*
X10800400Y-14282100D01*
X11219500Y-14800900D02*
X11259500Y-14840900D01*
X11259500Y-14800900D02*
X11219500Y-14840900D01*
X11333800Y-15347000D02*
X11373800Y-15387000D01*
X11373800Y-15347000D02*
X11333800Y-15387000D01*
X11714800Y-8108000D02*
X11754800Y-8148000D01*
X11754800Y-8108000D02*
X11714800Y-8148000D01*
X11714800Y-14585000D02*
X11754800Y-14625000D01*
X11754800Y-14585000D02*
X11714800Y-14625000D01*
X12519980Y-9505000D02*
X12559980Y-9545000D01*
X12559980Y-9505000D02*
X12519980Y-9545000D01*
X12591100Y-13886500D02*
X12631100Y-13926500D01*
X12631100Y-13886500D02*
X12591100Y-13926500D01*
X12654600Y-9888540D02*
X12694600Y-9928540D01*
X12694600Y-9888540D02*
X12654600Y-9928540D01*
X12718100Y-9390700D02*
X12758100Y-9430700D01*
X12758100Y-9390700D02*
X12718100Y-9430700D01*
X12718100Y-13886500D02*
X12758100Y-13926500D01*
X12758100Y-13886500D02*
X12718100Y-13926500D01*
X12751120Y-8920800D02*
X12791120Y-8960800D01*
X12791120Y-8920800D02*
X12751120Y-8960800D01*
X12845100Y-13886500D02*
X12885100Y-13926500D01*
X12885100Y-13886500D02*
X12845100Y-13926500D01*
X12857800Y-11232200D02*
X12897800Y-11272200D01*
X12897800Y-11232200D02*
X12857800Y-11272200D01*
X12870500Y-9543100D02*
X12910500Y-9583100D01*
X12910500Y-9543100D02*
X12870500Y-9583100D01*
X12934000Y-9047800D02*
X12974000Y-9087800D01*
X12974000Y-9047800D02*
X12934000Y-9087800D01*
X13035600Y-8362000D02*
X13075600Y-8402000D01*
X13075600Y-8362000D02*
X13035600Y-8402000D01*
X13035600Y-14839000D02*
X13075600Y-14879000D01*
X13075600Y-14839000D02*
X13035600Y-14879000D01*
X13086400Y-14089700D02*
X13126400Y-14129700D01*
X13126400Y-14089700D02*
X13086400Y-14129700D01*
X13391200Y-7600000D02*
X13431200Y-7640000D01*
X13431200Y-7600000D02*
X13391200Y-7640000D01*
X13467400Y-14915200D02*
X13507400Y-14955200D01*
X13507400Y-14915200D02*
X13467400Y-14955200D01*
X13467400Y-15245400D02*
X13507400Y-15285400D01*
X13507400Y-15245400D02*
X13467400Y-15285400D01*
X13683300Y-10876600D02*
X13723300Y-10916600D01*
X13723300Y-10876600D02*
X13683300Y-10916600D01*
X13683300Y-10673400D02*
X13723300Y-10713400D01*
X13723300Y-10673400D02*
X13683300Y-10713400D01*
X14534200Y-15651800D02*
X14574200Y-15691800D01*
X14574200Y-15651800D02*
X14534200Y-15691800D01*
X6778780Y-8719820D02*
G75*
G03X6778780Y-8719820I-30000J0D01*
G01*
X8185300Y-7014600D02*
G75*
G03X8185300Y-7014600I-30000J0D01*
G01*
X8185300Y-7499600D02*
G75*
G03X8185300Y-7499600I-30000J0D01*
G01*
X8198640Y-9754501D02*
G75*
G03X8198640Y-9754501I-30000J0D01*
G01*
X8462800Y-7257100D02*
G75*
G03X8462800Y-7257100I-30000J0D01*
G01*
X8566940Y-9382760D02*
G75*
G03X8566940Y-9382760I-30000J0D01*
G01*
X8740300Y-7014600D02*
G75*
G03X8740300Y-7014600I-30000J0D01*
G01*
X8740300Y-7499600D02*
G75*
G03X8740300Y-7499600I-30000J0D01*
G01*
X8958100Y-15468600D02*
G75*
G03X8958100Y-15468600I-30000J0D01*
G01*
X9047000Y-13195300D02*
G75*
G03X9047000Y-13195300I-30000J0D01*
G01*
X9288300Y-12026900D02*
G75*
G03X9288300Y-12026900I-30000J0D01*
G01*
X9288300Y-12510400D02*
G75*
G03X9288300Y-12510400I-30000J0D01*
G01*
X10482099Y-8686800D02*
G75*
G03X10482099Y-8686800I-30000J0D01*
G01*
X11056601Y-8686800D02*
G75*
G03X11056601Y-8686800I-30000J0D01*
G01*
X11714000Y-9740900D02*
G75*
G03X11714000Y-9740900I-30000J0D01*
G01*
X11891800Y-11226800D02*
G75*
G03X11891800Y-11226800I-30000J0D01*
G01*
X9732800Y-10937100D02*
G75*
G03X9732800Y-10937100I-30000J0D01*
G01*
X9732800Y-11087100D02*
G75*
G03X9732800Y-11087100I-30000J0D01*
G01*
X12109600Y-11465000D02*
X12109600Y-11535000D01*
X12074600Y-11500000D02*
X12144600Y-11500000D01*
X12617600Y-11465000D02*
X12617600Y-11535000D01*
X12582600Y-11500000D02*
X12652600Y-11500000D01*
X12871600Y-11465000D02*
X12871600Y-11535000D01*
X12836600Y-11500000D02*
X12906600Y-11500000D01*
X13125600Y-11465000D02*
X13125600Y-11535000D01*
X13090600Y-11500000D02*
X13160600Y-11500000D01*
X13379600Y-11465000D02*
X13379600Y-11535000D01*
X13344600Y-11500000D02*
X13414600Y-11500000D01*
X11077285Y-12144084D02*
X11077285Y-12087515D01*
X11020716Y-12087515D01*
X11020716Y-12144084D01*
X11077285Y-12144084D01*
X11277284Y-12144084D02*
X11277284Y-12087515D01*
X11220715Y-12087515D01*
X11220715Y-12144084D01*
X11277284Y-12144084D01*
X11883884Y-11528284D02*
X11883884Y-11471715D01*
X11827315Y-11471715D01*
X11827315Y-11528284D01*
X11883884Y-11528284D01*
X7927684Y-11275084D02*
X7927684Y-11218515D01*
X7871115Y-11218515D01*
X7871115Y-11275084D01*
X7927684Y-11275084D01*
X7927684Y-11763084D02*
X7927684Y-11706515D01*
X7871115Y-11706515D01*
X7871115Y-11763084D01*
X7927684Y-11763084D01*
X13137884Y-10899485D02*
X13137884Y-10842916D01*
X13081315Y-10842916D01*
X13081315Y-10899485D01*
X13137884Y-10899485D01*
X13337884Y-10899485D02*
X13337884Y-10842916D01*
X13281315Y-10842916D01*
X13281315Y-10899485D01*
X13337884Y-10899485D01*
X11356684Y-9146885D02*
X11356684Y-9090316D01*
X11300115Y-9090316D01*
X11300115Y-9146885D01*
X11356684Y-9146885D01*
X11556684Y-9146885D02*
X11556684Y-9090316D01*
X11500115Y-9090316D01*
X11500115Y-9146885D01*
X11556684Y-9146885D01*
X9604085Y-8207084D02*
X9604085Y-8150515D01*
X9547516Y-8150515D01*
X9547516Y-8207084D01*
X9604085Y-8207084D01*
X9604085Y-8457085D02*
X9604085Y-8400516D01*
X9547516Y-8400516D01*
X9547516Y-8457085D01*
X9604085Y-8457085D01*
X6569100Y-9594200D02*
X6615100Y-9548200D01*
X6569100Y-9502200D01*
X6523100Y-9548200D01*
X6569100Y-9594200D01*
X6569100Y-9844200D02*
X6615100Y-9798200D01*
X6569100Y-9752200D01*
X6523100Y-9798200D01*
X6569100Y-9844200D01*
X6769100Y-9594200D02*
X6815100Y-9548200D01*
X6769100Y-9502200D01*
X6723100Y-9548200D01*
X6769100Y-9594200D01*
X6769100Y-9844200D02*
X6815100Y-9798200D01*
X6769100Y-9752200D01*
X6723100Y-9798200D01*
X6769100Y-9844200D01*
X6993800Y-8128800D02*
X7093800Y-8228800D01*
X7093800Y-8128800D02*
X6993800Y-8228800D01*
X7093800Y-8178800D02*
G75*
G03X7093800Y-8178800I-50000J0D01*
G01*
X7493800Y-8128800D02*
X7593800Y-8228800D01*
X7593800Y-8128800D02*
X7493800Y-8228800D01*
X7593800Y-8178800D02*
G75*
G03X7593800Y-8178800I-50000J0D01*
G01*
X13881200Y-11900700D02*
X13981200Y-12000700D01*
X13981200Y-11900700D02*
X13881200Y-12000700D01*
X13981200Y-11950700D02*
G75*
G03X13981200Y-11950700I-50000J0D01*
G01*
X14631200Y-11900700D02*
X14731200Y-12000700D01*
X14731200Y-11900700D02*
X14631200Y-12000700D01*
X14731200Y-11950700D02*
G75*
G03X14731200Y-11950700I-50000J0D01*
G01*
X10084600Y-11126000D02*
X10184600Y-11226000D01*
X10184600Y-11126000D02*
X10084600Y-11226000D01*
X10184600Y-11176000D02*
G75*
G03X10184600Y-11176000I-50000J0D01*
G01*
X10338600Y-11126000D02*
X10438600Y-11226000D01*
X10438600Y-11126000D02*
X10338600Y-11226000D01*
X10438600Y-11176000D02*
G75*
G03X10438600Y-11176000I-50000J0D01*
G01*
X11976200Y-10973600D02*
X12076200Y-11073600D01*
X12076200Y-10973600D02*
X11976200Y-11073600D01*
X12076200Y-11023600D02*
G75*
G03X12076200Y-11023600I-50000J0D01*
G01*
X12726200Y-10973600D02*
X12826200Y-11073600D01*
X12826200Y-10973600D02*
X12726200Y-11073600D01*
X12826200Y-11023600D02*
G75*
G03X12826200Y-11023600I-50000J0D01*
G01*
X13881200Y-7900200D02*
X13981200Y-8000200D01*
X13981200Y-7900200D02*
X13881200Y-8000200D01*
X13981200Y-7950200D02*
G75*
G03X13981200Y-7950200I-50000J0D01*
G01*
X14631200Y-7900200D02*
X14731200Y-8000200D01*
X14731200Y-7900200D02*
X14631200Y-8000200D01*
X14731200Y-7950200D02*
G75*
G03X14731200Y-7950200I-50000J0D01*
G01*
X5947762Y-7297762D02*
X6047838Y-7397838D01*
X6047838Y-7297762D02*
X5947762Y-7397838D01*
X5997800Y-7297762D02*
X5997800Y-7397838D01*
X5947762Y-7347800D02*
X6047838Y-7347800D01*
X5957762Y-7267838D02*
X5957762Y-7427762D01*
X6037838Y-7267838D02*
X6037838Y-7427762D01*
X5957762Y-7427762D02*
G75*
G03X6037838Y-7427762I40038J0D01*
G01*
X6037838Y-7267838D02*
G75*
G03X5957762Y-7267838I-40038J0D01*
G01*
X6277802Y-7797762D02*
X6377878Y-7897838D01*
X6377878Y-7797762D02*
X6277802Y-7897838D01*
X6327840Y-7797762D02*
X6327840Y-7897838D01*
X6277802Y-7847800D02*
X6377878Y-7847800D01*
X6247878Y-7887838D02*
X6407802Y-7887838D01*
X6247878Y-7807762D02*
X6407802Y-7807762D01*
X6407802Y-7887838D02*
G75*
G03X6407802Y-7807762I0J40038D01*
G01*
X6247878Y-7807762D02*
G75*
G03X6247878Y-7887838I0J-40038D01*
G01*
X6562762Y-7297762D02*
X6662838Y-7397838D01*
X6662838Y-7297762D02*
X6562762Y-7397838D01*
X6612800Y-7297762D02*
X6612800Y-7397838D01*
X6562762Y-7347800D02*
X6662838Y-7347800D01*
X6572762Y-7237838D02*
X6572762Y-7457762D01*
X6652838Y-7237838D02*
X6652838Y-7457762D01*
X6572762Y-7457762D02*
G75*
G03X6652838Y-7457762I40038J0D01*
G01*
X6652838Y-7237838D02*
G75*
G03X6572762Y-7237838I-40038J0D01*
G01*
X13662000Y-13440000D02*
X13782000Y-13560000D01*
X13782000Y-13440000D02*
X13662000Y-13560000D01*
X13764427Y-13542427D02*
X13764427Y-13457573D01*
X13679573Y-13457573D01*
X13679573Y-13542427D01*
X13764427Y-13542427D01*
X14170000Y-13440000D02*
X14290000Y-13560000D01*
X14290000Y-13440000D02*
X14170000Y-13560000D01*
X14272427Y-13542427D02*
X14272427Y-13457573D01*
X14187573Y-13457573D01*
X14187573Y-13542427D01*
X14272427Y-13542427D01*
X13725000Y-9440000D02*
X13845000Y-9560000D01*
X13845000Y-9440000D02*
X13725000Y-9560000D01*
X13827427Y-9542427D02*
X13827427Y-9457573D01*
X13742573Y-9457573D01*
X13742573Y-9542427D01*
X13827427Y-9542427D01*
X14615000Y-8742000D02*
X14735000Y-8862000D01*
X14735000Y-8742000D02*
X14615000Y-8862000D01*
X14717427Y-8844427D02*
X14717427Y-8759573D01*
X14632573Y-8759573D01*
X14632573Y-8844427D01*
X14717427Y-8844427D01*
X13642000Y-13039000D02*
X13802000Y-13199000D01*
X13802000Y-13039000D02*
X13642000Y-13199000D01*
X13722000Y-13199000D02*
X13802000Y-13119000D01*
X13722000Y-13039000D01*
X13642000Y-13119000D01*
X13722000Y-13199000D01*
X13642000Y-13801000D02*
X13802000Y-13961000D01*
X13802000Y-13801000D02*
X13642000Y-13961000D01*
X13722000Y-13961000D02*
X13802000Y-13881000D01*
X13722000Y-13801000D01*
X13642000Y-13881000D01*
X13722000Y-13961000D01*
X14086500Y-9801000D02*
X14246500Y-9961000D01*
X14246500Y-9801000D02*
X14086500Y-9961000D01*
X14166500Y-9961000D02*
X14246500Y-9881000D01*
X14166500Y-9801000D01*
X14086500Y-9881000D01*
X14166500Y-9961000D01*
X14150000Y-9039000D02*
X14310000Y-9199000D01*
X14310000Y-9039000D02*
X14150000Y-9199000D01*
X14230000Y-9199000D02*
X14310000Y-9119000D01*
X14230000Y-9039000D01*
X14150000Y-9119000D01*
X14230000Y-9199000D01*
X6298100Y-8954700D02*
X6298100Y-9187700D01*
X6181600Y-9071200D02*
X6414600Y-9071200D01*
X6414600Y-9071200D02*
G75*
G03X6414600Y-9071200I-116500J0D01*
G01*
X6298100Y-10158700D02*
X6298100Y-10391700D01*
X6181600Y-10275200D02*
X6414600Y-10275200D01*
X6414600Y-10275200D02*
G75*
G03X6414600Y-10275200I-116500J0D01*
G01*
X10652323Y-15224223D02*
X10652323Y-15154177D01*
X10582277Y-15154177D01*
X10582277Y-15224223D01*
X10652323Y-15224223D01*
X10666830Y-15189200D02*
G75*
G03X10666830Y-15189200I-49530J0D01*
G01*
X10753823Y-15986223D02*
X10753823Y-15916177D01*
X10683777Y-15916177D01*
X10683777Y-15986223D01*
X10753823Y-15986223D01*
X10768330Y-15951200D02*
G75*
G03X10768330Y-15951200I-49530J0D01*
G01*
X10855323Y-15224223D02*
X10855323Y-15154177D01*
X10785277Y-15154177D01*
X10785277Y-15224223D01*
X10855323Y-15224223D01*
X10869830Y-15189200D02*
G75*
G03X10869830Y-15189200I-49530J0D01*
G01*
X14611000Y-13961000D02*
X14691000Y-13881000D01*
X14611000Y-13801000D01*
X14531000Y-13881000D01*
X14611000Y-13961000D01*
X14691000Y-13881000D02*
G75*
G03X14691000Y-13881000I-80000J0D01*
G01*
X15119000Y-13199000D02*
X15199000Y-13119000D01*
X15119000Y-13039000D01*
X15039000Y-13119000D01*
X15119000Y-13199000D01*
X15199000Y-13119000D02*
G75*
G03X15199000Y-13119000I-80000J0D01*
G01*
X14611000Y-9961000D02*
X14691000Y-9881000D01*
X14611000Y-9801000D01*
X14531000Y-9881000D01*
X14611000Y-9961000D01*
X14691000Y-9881000D02*
G75*
G03X14691000Y-9881000I-80000J0D01*
G01*
X15119000Y-9199000D02*
X15199000Y-9119000D01*
X15119000Y-9039000D01*
X15039000Y-9119000D01*
X15119000Y-9199000D01*
X15199000Y-9119000D02*
G75*
G03X15199000Y-9119000I-80000J0D01*
G01*
X14960000Y-14885000D02*
X14960000Y-15115000D01*
X14845000Y-15000000D02*
X15075000Y-15000000D01*
X15041318Y-15081318D02*
X15041318Y-14918682D01*
X14878682Y-14918682D01*
X14878682Y-15081318D01*
X15041318Y-15081318D01*
X14960000Y-10885000D02*
X14960000Y-11115000D01*
X14845000Y-11000000D02*
X15075000Y-11000000D01*
X15041318Y-11081318D02*
X15041318Y-10918682D01*
X14878682Y-10918682D01*
X14878682Y-11081318D01*
X15041318Y-11081318D01*
X14960000Y-15685000D02*
X14960000Y-15915000D01*
X14845000Y-15800000D02*
X15075000Y-15800000D01*
X15041318Y-15881318D02*
X15041318Y-15718682D01*
X14878682Y-15718682D01*
X14878682Y-15881318D01*
X15041318Y-15881318D01*
X6076950Y-10554270D02*
X6076950Y-10784270D01*
X5961950Y-10669270D02*
X6191950Y-10669270D01*
X6158268Y-10750588D02*
X6158268Y-10587952D01*
X5995632Y-10587952D01*
X5995632Y-10750588D01*
X6158268Y-10750588D01*
X10464800Y-15260950D02*
X10464800Y-15498450D01*
X10346050Y-15379700D02*
X10583550Y-15379700D01*
X10464800Y-15498450D02*
X10583550Y-15379700D01*
X10464800Y-15260950D01*
X10346050Y-15379700D01*
X10464800Y-15498450D01*
X10464800Y-15832450D02*
X10464800Y-16069950D01*
X10346050Y-15951200D02*
X10583550Y-15951200D01*
X10464800Y-16069950D02*
X10583550Y-15951200D01*
X10464800Y-15832450D01*
X10346050Y-15951200D01*
X10464800Y-16069950D01*
X10972800Y-15260950D02*
X10972800Y-15498450D01*
X10854050Y-15379700D02*
X11091550Y-15379700D01*
X10972800Y-15498450D02*
X11091550Y-15379700D01*
X10972800Y-15260950D01*
X10854050Y-15379700D01*
X10972800Y-15498450D01*
X10972800Y-15832450D02*
X10972800Y-16069950D01*
X10854050Y-15951200D02*
X11091550Y-15951200D01*
X10972800Y-16069950D02*
X11091550Y-15951200D01*
X10972800Y-15832450D01*
X10854050Y-15951200D01*
X10972800Y-16069950D01*
D12*
X5783928Y-16968214D02*
X5783928Y-16668214D01*
X5855357Y-16668214D01*
X5898214Y-16682500D01*
X5926786Y-16711071D01*
X5941071Y-16739643D01*
X5955357Y-16796786D01*
X5955357Y-16839643D01*
X5941071Y-16896786D01*
X5926786Y-16925357D01*
X5898214Y-16953929D01*
X5855357Y-16968214D01*
X5783928Y-16968214D01*
X6083928Y-16968214D02*
X6083928Y-16768214D01*
X6083928Y-16825357D02*
X6098214Y-16796786D01*
X6112500Y-16782500D01*
X6141071Y-16768214D01*
X6169643Y-16768214D01*
X6269643Y-16968214D02*
X6269643Y-16768214D01*
X6269643Y-16668214D02*
X6255357Y-16682500D01*
X6269643Y-16696786D01*
X6283928Y-16682500D01*
X6269643Y-16668214D01*
X6269643Y-16696786D01*
X6455357Y-16968214D02*
X6426786Y-16953929D01*
X6412500Y-16925357D01*
X6412500Y-16668214D01*
X6612500Y-16968214D02*
X6583928Y-16953929D01*
X6569643Y-16925357D01*
X6569643Y-16668214D01*
X6955357Y-16968214D02*
X6955357Y-16668214D01*
X7055357Y-16882500D01*
X7155357Y-16668214D01*
X7155357Y-16968214D01*
X7426786Y-16968214D02*
X7426786Y-16811072D01*
X7412500Y-16782500D01*
X7383928Y-16768214D01*
X7326786Y-16768214D01*
X7298214Y-16782500D01*
X7426786Y-16953929D02*
X7398214Y-16968214D01*
X7326786Y-16968214D01*
X7298214Y-16953929D01*
X7283928Y-16925357D01*
X7283928Y-16896786D01*
X7298214Y-16868214D01*
X7326786Y-16853929D01*
X7398214Y-16853929D01*
X7426786Y-16839643D01*
X7569643Y-16768214D02*
X7569643Y-17068214D01*
X7569643Y-16782500D02*
X7598214Y-16768214D01*
X7655357Y-16768214D01*
X7683928Y-16782500D01*
X7698214Y-16796786D01*
X7712500Y-16825357D01*
X7712500Y-16911072D01*
X7698214Y-16939643D01*
X7683928Y-16953929D01*
X7655357Y-16968214D01*
X7598214Y-16968214D01*
X7569643Y-16953929D01*
X7841071Y-16939643D02*
X7855357Y-16953929D01*
X7841071Y-16968214D01*
X7826786Y-16953929D01*
X7841071Y-16939643D01*
X7841071Y-16968214D01*
X7841071Y-16782500D02*
X7855357Y-16796786D01*
X7841071Y-16811072D01*
X7826786Y-16796786D01*
X7841071Y-16782500D01*
X7841071Y-16811072D01*
X5457500Y-17442500D02*
X5497500Y-17482500D01*
X5497500Y-17442500D02*
X5457500Y-17482500D01*
X5841071Y-17298214D02*
X5869643Y-17298214D01*
X5898214Y-17312500D01*
X5912500Y-17326786D01*
X5926786Y-17355357D01*
X5941071Y-17412500D01*
X5941071Y-17483929D01*
X5926786Y-17541072D01*
X5912500Y-17569643D01*
X5898214Y-17583929D01*
X5869643Y-17598214D01*
X5841071Y-17598214D01*
X5812500Y-17583929D01*
X5798214Y-17569643D01*
X5783928Y-17541072D01*
X5769643Y-17483929D01*
X5769643Y-17412500D01*
X5783928Y-17355357D01*
X5798214Y-17326786D01*
X5812500Y-17312500D01*
X5841071Y-17298214D01*
X6069643Y-17569643D02*
X6083928Y-17583929D01*
X6069643Y-17598214D01*
X6055357Y-17583929D01*
X6069643Y-17569643D01*
X6069643Y-17598214D01*
X6341071Y-17398214D02*
X6341071Y-17598214D01*
X6269643Y-17283929D02*
X6198214Y-17498214D01*
X6383928Y-17498214D01*
X6555357Y-17298214D02*
X6583928Y-17298214D01*
X6612500Y-17312500D01*
X6626786Y-17326786D01*
X6641071Y-17355357D01*
X6655357Y-17412500D01*
X6655357Y-17483929D01*
X6641071Y-17541072D01*
X6626786Y-17569643D01*
X6612500Y-17583929D01*
X6583928Y-17598214D01*
X6555357Y-17598214D01*
X6526786Y-17583929D01*
X6512500Y-17569643D01*
X6498214Y-17541072D01*
X6483928Y-17483929D01*
X6483928Y-17412500D01*
X6498214Y-17355357D01*
X6512500Y-17326786D01*
X6526786Y-17312500D01*
X6555357Y-17298214D01*
X6783928Y-17598214D02*
X6783928Y-17398214D01*
X6783928Y-17426786D02*
X6798214Y-17412500D01*
X6826786Y-17398214D01*
X6869643Y-17398214D01*
X6898214Y-17412500D01*
X6912500Y-17441072D01*
X6912500Y-17598214D01*
X6912500Y-17441072D02*
X6926786Y-17412500D01*
X6955357Y-17398214D01*
X6998214Y-17398214D01*
X7026786Y-17412500D01*
X7041071Y-17441072D01*
X7041071Y-17598214D01*
X7183928Y-17598214D02*
X7183928Y-17398214D01*
X7183928Y-17426786D02*
X7198214Y-17412500D01*
X7226786Y-17398214D01*
X7269643Y-17398214D01*
X7298214Y-17412500D01*
X7312500Y-17441072D01*
X7312500Y-17598214D01*
X7312500Y-17441072D02*
X7326786Y-17412500D01*
X7355357Y-17398214D01*
X7398214Y-17398214D01*
X7426786Y-17412500D01*
X7441071Y-17441072D01*
X7441071Y-17598214D01*
X8026786Y-17283929D02*
X7769643Y-17669643D01*
X8412500Y-17298214D02*
X8441071Y-17298214D01*
X8469643Y-17312500D01*
X8483928Y-17326786D01*
X8498214Y-17355357D01*
X8512500Y-17412500D01*
X8512500Y-17483929D01*
X8498214Y-17541072D01*
X8483928Y-17569643D01*
X8469643Y-17583929D01*
X8441071Y-17598214D01*
X8412500Y-17598214D01*
X8383928Y-17583929D01*
X8369643Y-17569643D01*
X8355357Y-17541072D01*
X8341071Y-17483929D01*
X8341071Y-17412500D01*
X8355357Y-17355357D01*
X8369643Y-17326786D01*
X8383928Y-17312500D01*
X8412500Y-17298214D01*
X8641071Y-17569643D02*
X8655357Y-17583929D01*
X8641071Y-17598214D01*
X8626786Y-17583929D01*
X8641071Y-17569643D01*
X8641071Y-17598214D01*
X8841071Y-17298214D02*
X8869643Y-17298214D01*
X8898214Y-17312500D01*
X8912500Y-17326786D01*
X8926786Y-17355357D01*
X8941071Y-17412500D01*
X8941071Y-17483929D01*
X8926786Y-17541072D01*
X8912500Y-17569643D01*
X8898214Y-17583929D01*
X8869643Y-17598214D01*
X8841071Y-17598214D01*
X8812500Y-17583929D01*
X8798214Y-17569643D01*
X8783928Y-17541072D01*
X8769643Y-17483929D01*
X8769643Y-17412500D01*
X8783928Y-17355357D01*
X8798214Y-17326786D01*
X8812500Y-17312500D01*
X8841071Y-17298214D01*
X9226786Y-17598214D02*
X9055357Y-17598214D01*
X9141071Y-17598214D02*
X9141071Y-17298214D01*
X9112500Y-17341072D01*
X9083928Y-17369643D01*
X9055357Y-17383929D01*
X9483928Y-17298214D02*
X9426786Y-17298214D01*
X9398214Y-17312500D01*
X9383928Y-17326786D01*
X9355357Y-17369643D01*
X9341071Y-17426786D01*
X9341071Y-17541072D01*
X9355357Y-17569643D01*
X9369643Y-17583929D01*
X9398214Y-17598214D01*
X9455357Y-17598214D01*
X9483928Y-17583929D01*
X9498214Y-17569643D01*
X9512500Y-17541072D01*
X9512500Y-17469643D01*
X9498214Y-17441072D01*
X9483928Y-17426786D01*
X9455357Y-17412500D01*
X9398214Y-17412500D01*
X9369643Y-17426786D01*
X9355357Y-17441072D01*
X9341071Y-17469643D01*
X9626786Y-17298214D02*
X9626786Y-17355357D01*
X9741071Y-17298214D02*
X9741071Y-17355357D01*
X10183928Y-17712500D02*
X10169643Y-17698214D01*
X10141071Y-17655357D01*
X10126786Y-17626786D01*
X10112500Y-17583929D01*
X10098214Y-17512500D01*
X10098214Y-17455357D01*
X10112500Y-17383929D01*
X10126786Y-17341072D01*
X10141071Y-17312500D01*
X10169643Y-17269643D01*
X10183928Y-17255357D01*
X10455357Y-17598214D02*
X10283928Y-17598214D01*
X10369643Y-17598214D02*
X10369643Y-17298214D01*
X10341071Y-17341072D01*
X10312500Y-17369643D01*
X10283928Y-17383929D01*
X10641071Y-17298214D02*
X10669643Y-17298214D01*
X10698214Y-17312500D01*
X10712500Y-17326786D01*
X10726786Y-17355357D01*
X10741071Y-17412500D01*
X10741071Y-17483929D01*
X10726786Y-17541072D01*
X10712500Y-17569643D01*
X10698214Y-17583929D01*
X10669643Y-17598214D01*
X10641071Y-17598214D01*
X10612500Y-17583929D01*
X10598214Y-17569643D01*
X10583928Y-17541072D01*
X10569643Y-17483929D01*
X10569643Y-17412500D01*
X10583928Y-17355357D01*
X10598214Y-17326786D01*
X10612500Y-17312500D01*
X10641071Y-17298214D01*
X10926786Y-17298214D02*
X10955357Y-17298214D01*
X10983928Y-17312500D01*
X10998214Y-17326786D01*
X11012500Y-17355357D01*
X11026786Y-17412500D01*
X11026786Y-17483929D01*
X11012500Y-17541072D01*
X10998214Y-17569643D01*
X10983928Y-17583929D01*
X10955357Y-17598214D01*
X10926786Y-17598214D01*
X10898214Y-17583929D01*
X10883928Y-17569643D01*
X10869643Y-17541072D01*
X10855357Y-17483929D01*
X10855357Y-17412500D01*
X10869643Y-17355357D01*
X10883928Y-17326786D01*
X10898214Y-17312500D01*
X10926786Y-17298214D01*
X11383928Y-17598214D02*
X11383928Y-17298214D01*
X11512500Y-17598214D02*
X11512500Y-17441072D01*
X11498214Y-17412500D01*
X11469643Y-17398214D01*
X11426786Y-17398214D01*
X11398214Y-17412500D01*
X11383928Y-17426786D01*
X11698214Y-17598214D02*
X11669643Y-17583929D01*
X11655357Y-17569643D01*
X11641071Y-17541072D01*
X11641071Y-17455357D01*
X11655357Y-17426786D01*
X11669643Y-17412500D01*
X11698214Y-17398214D01*
X11741071Y-17398214D01*
X11769643Y-17412500D01*
X11783928Y-17426786D01*
X11798214Y-17455357D01*
X11798214Y-17541072D01*
X11783928Y-17569643D01*
X11769643Y-17583929D01*
X11741071Y-17598214D01*
X11698214Y-17598214D01*
X11969643Y-17598214D02*
X11941071Y-17583929D01*
X11926786Y-17555357D01*
X11926786Y-17298214D01*
X12198214Y-17583929D02*
X12169643Y-17598214D01*
X12112500Y-17598214D01*
X12083928Y-17583929D01*
X12069643Y-17555357D01*
X12069643Y-17441072D01*
X12083928Y-17412500D01*
X12112500Y-17398214D01*
X12169643Y-17398214D01*
X12198214Y-17412500D01*
X12212500Y-17441072D01*
X12212500Y-17469643D01*
X12069643Y-17498214D01*
X12326786Y-17583929D02*
X12355357Y-17598214D01*
X12412500Y-17598214D01*
X12441071Y-17583929D01*
X12455357Y-17555357D01*
X12455357Y-17541072D01*
X12441071Y-17512500D01*
X12412500Y-17498214D01*
X12369643Y-17498214D01*
X12341071Y-17483929D01*
X12326786Y-17455357D01*
X12326786Y-17441072D01*
X12341071Y-17412500D01*
X12369643Y-17398214D01*
X12412500Y-17398214D01*
X12441071Y-17412500D01*
X12555357Y-17712500D02*
X12569643Y-17698214D01*
X12598214Y-17655357D01*
X12612500Y-17626786D01*
X12626786Y-17583929D01*
X12641071Y-17512500D01*
X12641071Y-17455357D01*
X12626786Y-17383929D01*
X12612500Y-17341072D01*
X12598214Y-17312500D01*
X12569643Y-17269643D01*
X12555357Y-17255357D01*
X5497500Y-17858500D02*
G75*
G03X5497500Y-17858500I-30000J0D01*
G01*
X5841071Y-17694214D02*
X5869643Y-17694214D01*
X5898214Y-17708500D01*
X5912500Y-17722786D01*
X5926786Y-17751357D01*
X5941071Y-17808500D01*
X5941071Y-17879929D01*
X5926786Y-17937072D01*
X5912500Y-17965643D01*
X5898214Y-17979929D01*
X5869643Y-17994214D01*
X5841071Y-17994214D01*
X5812500Y-17979929D01*
X5798214Y-17965643D01*
X5783928Y-17937072D01*
X5769643Y-17879929D01*
X5769643Y-17808500D01*
X5783928Y-17751357D01*
X5798214Y-17722786D01*
X5812500Y-17708500D01*
X5841071Y-17694214D01*
X6069643Y-17965643D02*
X6083928Y-17979929D01*
X6069643Y-17994214D01*
X6055357Y-17979929D01*
X6069643Y-17965643D01*
X6069643Y-17994214D01*
X6341071Y-17694214D02*
X6283928Y-17694214D01*
X6255357Y-17708500D01*
X6241071Y-17722786D01*
X6212500Y-17765643D01*
X6198214Y-17822786D01*
X6198214Y-17937072D01*
X6212500Y-17965643D01*
X6226786Y-17979929D01*
X6255357Y-17994214D01*
X6312500Y-17994214D01*
X6341071Y-17979929D01*
X6355357Y-17965643D01*
X6369643Y-17937072D01*
X6369643Y-17865643D01*
X6355357Y-17837072D01*
X6341071Y-17822786D01*
X6312500Y-17808500D01*
X6255357Y-17808500D01*
X6226786Y-17822786D01*
X6212500Y-17837072D01*
X6198214Y-17865643D01*
X6555357Y-17694214D02*
X6583928Y-17694214D01*
X6612500Y-17708500D01*
X6626786Y-17722786D01*
X6641071Y-17751357D01*
X6655357Y-17808500D01*
X6655357Y-17879929D01*
X6641071Y-17937072D01*
X6626786Y-17965643D01*
X6612500Y-17979929D01*
X6583928Y-17994214D01*
X6555357Y-17994214D01*
X6526786Y-17979929D01*
X6512500Y-17965643D01*
X6498214Y-17937072D01*
X6483928Y-17879929D01*
X6483928Y-17808500D01*
X6498214Y-17751357D01*
X6512500Y-17722786D01*
X6526786Y-17708500D01*
X6555357Y-17694214D01*
X6783928Y-17994214D02*
X6783928Y-17794214D01*
X6783928Y-17822786D02*
X6798214Y-17808500D01*
X6826786Y-17794214D01*
X6869643Y-17794214D01*
X6898214Y-17808500D01*
X6912500Y-17837072D01*
X6912500Y-17994214D01*
X6912500Y-17837072D02*
X6926786Y-17808500D01*
X6955357Y-17794214D01*
X6998214Y-17794214D01*
X7026786Y-17808500D01*
X7041071Y-17837072D01*
X7041071Y-17994214D01*
X7183928Y-17994214D02*
X7183928Y-17794214D01*
X7183928Y-17822786D02*
X7198214Y-17808500D01*
X7226786Y-17794214D01*
X7269643Y-17794214D01*
X7298214Y-17808500D01*
X7312500Y-17837072D01*
X7312500Y-17994214D01*
X7312500Y-17837072D02*
X7326786Y-17808500D01*
X7355357Y-17794214D01*
X7398214Y-17794214D01*
X7426786Y-17808500D01*
X7441071Y-17837072D01*
X7441071Y-17994214D01*
X8026786Y-17679929D02*
X7769643Y-18065643D01*
X8412500Y-17694214D02*
X8441071Y-17694214D01*
X8469643Y-17708500D01*
X8483928Y-17722786D01*
X8498214Y-17751357D01*
X8512500Y-17808500D01*
X8512500Y-17879929D01*
X8498214Y-17937072D01*
X8483928Y-17965643D01*
X8469643Y-17979929D01*
X8441071Y-17994214D01*
X8412500Y-17994214D01*
X8383928Y-17979929D01*
X8369643Y-17965643D01*
X8355357Y-17937072D01*
X8341071Y-17879929D01*
X8341071Y-17808500D01*
X8355357Y-17751357D01*
X8369643Y-17722786D01*
X8383928Y-17708500D01*
X8412500Y-17694214D01*
X8641071Y-17965643D02*
X8655357Y-17979929D01*
X8641071Y-17994214D01*
X8626786Y-17979929D01*
X8641071Y-17965643D01*
X8641071Y-17994214D01*
X8841071Y-17694214D02*
X8869643Y-17694214D01*
X8898214Y-17708500D01*
X8912500Y-17722786D01*
X8926786Y-17751357D01*
X8941071Y-17808500D01*
X8941071Y-17879929D01*
X8926786Y-17937072D01*
X8912500Y-17965643D01*
X8898214Y-17979929D01*
X8869643Y-17994214D01*
X8841071Y-17994214D01*
X8812500Y-17979929D01*
X8798214Y-17965643D01*
X8783928Y-17937072D01*
X8769643Y-17879929D01*
X8769643Y-17808500D01*
X8783928Y-17751357D01*
X8798214Y-17722786D01*
X8812500Y-17708500D01*
X8841071Y-17694214D01*
X9055357Y-17722786D02*
X9069643Y-17708500D01*
X9098214Y-17694214D01*
X9169643Y-17694214D01*
X9198214Y-17708500D01*
X9212500Y-17722786D01*
X9226786Y-17751357D01*
X9226786Y-17779929D01*
X9212500Y-17822786D01*
X9041071Y-17994214D01*
X9226786Y-17994214D01*
X9483928Y-17794214D02*
X9483928Y-17994214D01*
X9412500Y-17679929D02*
X9341071Y-17894214D01*
X9526786Y-17894214D01*
X9626786Y-17694214D02*
X9626786Y-17751357D01*
X9741071Y-17694214D02*
X9741071Y-17751357D01*
X10183928Y-18108500D02*
X10169643Y-18094214D01*
X10141071Y-18051357D01*
X10126786Y-18022786D01*
X10112500Y-17979929D01*
X10098214Y-17908500D01*
X10098214Y-17851357D01*
X10112500Y-17779929D01*
X10126786Y-17737072D01*
X10141071Y-17708500D01*
X10169643Y-17665643D01*
X10183928Y-17651357D01*
X10455357Y-17994214D02*
X10283928Y-17994214D01*
X10369643Y-17994214D02*
X10369643Y-17694214D01*
X10341071Y-17737072D01*
X10312500Y-17765643D01*
X10283928Y-17779929D01*
X10626786Y-17822786D02*
X10598214Y-17808500D01*
X10583928Y-17794214D01*
X10569643Y-17765643D01*
X10569643Y-17751357D01*
X10583928Y-17722786D01*
X10598214Y-17708500D01*
X10626786Y-17694214D01*
X10683928Y-17694214D01*
X10712500Y-17708500D01*
X10726786Y-17722786D01*
X10741071Y-17751357D01*
X10741071Y-17765643D01*
X10726786Y-17794214D01*
X10712500Y-17808500D01*
X10683928Y-17822786D01*
X10626786Y-17822786D01*
X10598214Y-17837072D01*
X10583928Y-17851357D01*
X10569643Y-17879929D01*
X10569643Y-17937072D01*
X10583928Y-17965643D01*
X10598214Y-17979929D01*
X10626786Y-17994214D01*
X10683928Y-17994214D01*
X10712500Y-17979929D01*
X10726786Y-17965643D01*
X10741071Y-17937072D01*
X10741071Y-17879929D01*
X10726786Y-17851357D01*
X10712500Y-17837072D01*
X10683928Y-17822786D01*
X11098214Y-17994214D02*
X11098214Y-17694214D01*
X11226786Y-17994214D02*
X11226786Y-17837072D01*
X11212500Y-17808500D01*
X11183928Y-17794214D01*
X11141071Y-17794214D01*
X11112500Y-17808500D01*
X11098214Y-17822786D01*
X11412500Y-17994214D02*
X11383928Y-17979929D01*
X11369643Y-17965643D01*
X11355357Y-17937072D01*
X11355357Y-17851357D01*
X11369643Y-17822786D01*
X11383928Y-17808500D01*
X11412500Y-17794214D01*
X11455357Y-17794214D01*
X11483928Y-17808500D01*
X11498214Y-17822786D01*
X11512500Y-17851357D01*
X11512500Y-17937072D01*
X11498214Y-17965643D01*
X11483928Y-17979929D01*
X11455357Y-17994214D01*
X11412500Y-17994214D01*
X11683928Y-17994214D02*
X11655357Y-17979929D01*
X11641071Y-17951357D01*
X11641071Y-17694214D01*
X11912500Y-17979929D02*
X11883928Y-17994214D01*
X11826786Y-17994214D01*
X11798214Y-17979929D01*
X11783928Y-17951357D01*
X11783928Y-17837072D01*
X11798214Y-17808500D01*
X11826786Y-17794214D01*
X11883928Y-17794214D01*
X11912500Y-17808500D01*
X11926786Y-17837072D01*
X11926786Y-17865643D01*
X11783928Y-17894214D01*
X12041071Y-17979929D02*
X12069643Y-17994214D01*
X12126786Y-17994214D01*
X12155357Y-17979929D01*
X12169643Y-17951357D01*
X12169643Y-17937072D01*
X12155357Y-17908500D01*
X12126786Y-17894214D01*
X12083928Y-17894214D01*
X12055357Y-17879929D01*
X12041071Y-17851357D01*
X12041071Y-17837072D01*
X12055357Y-17808500D01*
X12083928Y-17794214D01*
X12126786Y-17794214D01*
X12155357Y-17808500D01*
X12269643Y-18108500D02*
X12283928Y-18094214D01*
X12312500Y-18051357D01*
X12326786Y-18022786D01*
X12341071Y-17979929D01*
X12355357Y-17908500D01*
X12355357Y-17851357D01*
X12341071Y-17779929D01*
X12326786Y-17737072D01*
X12312500Y-17708500D01*
X12283928Y-17665643D01*
X12269643Y-17651357D01*
X5462500Y-18219500D02*
X5462500Y-18289500D01*
X5427500Y-18254500D02*
X5497500Y-18254500D01*
X5841071Y-18090214D02*
X5869643Y-18090214D01*
X5898214Y-18104500D01*
X5912500Y-18118786D01*
X5926786Y-18147357D01*
X5941071Y-18204500D01*
X5941071Y-18275929D01*
X5926786Y-18333072D01*
X5912500Y-18361643D01*
X5898214Y-18375929D01*
X5869643Y-18390214D01*
X5841071Y-18390214D01*
X5812500Y-18375929D01*
X5798214Y-18361643D01*
X5783928Y-18333072D01*
X5769643Y-18275929D01*
X5769643Y-18204500D01*
X5783928Y-18147357D01*
X5798214Y-18118786D01*
X5812500Y-18104500D01*
X5841071Y-18090214D01*
X6069643Y-18361643D02*
X6083928Y-18375929D01*
X6069643Y-18390214D01*
X6055357Y-18375929D01*
X6069643Y-18361643D01*
X6069643Y-18390214D01*
X6183928Y-18090214D02*
X6383928Y-18090214D01*
X6255357Y-18390214D01*
X6555357Y-18090214D02*
X6583928Y-18090214D01*
X6612500Y-18104500D01*
X6626786Y-18118786D01*
X6641071Y-18147357D01*
X6655357Y-18204500D01*
X6655357Y-18275929D01*
X6641071Y-18333072D01*
X6626786Y-18361643D01*
X6612500Y-18375929D01*
X6583928Y-18390214D01*
X6555357Y-18390214D01*
X6526786Y-18375929D01*
X6512500Y-18361643D01*
X6498214Y-18333072D01*
X6483928Y-18275929D01*
X6483928Y-18204500D01*
X6498214Y-18147357D01*
X6512500Y-18118786D01*
X6526786Y-18104500D01*
X6555357Y-18090214D01*
X6783928Y-18390214D02*
X6783928Y-18190214D01*
X6783928Y-18218786D02*
X6798214Y-18204500D01*
X6826786Y-18190214D01*
X6869643Y-18190214D01*
X6898214Y-18204500D01*
X6912500Y-18233072D01*
X6912500Y-18390214D01*
X6912500Y-18233072D02*
X6926786Y-18204500D01*
X6955357Y-18190214D01*
X6998214Y-18190214D01*
X7026786Y-18204500D01*
X7041071Y-18233072D01*
X7041071Y-18390214D01*
X7183928Y-18390214D02*
X7183928Y-18190214D01*
X7183928Y-18218786D02*
X7198214Y-18204500D01*
X7226786Y-18190214D01*
X7269643Y-18190214D01*
X7298214Y-18204500D01*
X7312500Y-18233072D01*
X7312500Y-18390214D01*
X7312500Y-18233072D02*
X7326786Y-18204500D01*
X7355357Y-18190214D01*
X7398214Y-18190214D01*
X7426786Y-18204500D01*
X7441071Y-18233072D01*
X7441071Y-18390214D01*
X8026786Y-18075929D02*
X7769643Y-18461643D01*
X8412500Y-18090214D02*
X8441071Y-18090214D01*
X8469643Y-18104500D01*
X8483928Y-18118786D01*
X8498214Y-18147357D01*
X8512500Y-18204500D01*
X8512500Y-18275929D01*
X8498214Y-18333072D01*
X8483928Y-18361643D01*
X8469643Y-18375929D01*
X8441071Y-18390214D01*
X8412500Y-18390214D01*
X8383928Y-18375929D01*
X8369643Y-18361643D01*
X8355357Y-18333072D01*
X8341071Y-18275929D01*
X8341071Y-18204500D01*
X8355357Y-18147357D01*
X8369643Y-18118786D01*
X8383928Y-18104500D01*
X8412500Y-18090214D01*
X8641071Y-18361643D02*
X8655357Y-18375929D01*
X8641071Y-18390214D01*
X8626786Y-18375929D01*
X8641071Y-18361643D01*
X8641071Y-18390214D01*
X8841071Y-18090214D02*
X8869643Y-18090214D01*
X8898214Y-18104500D01*
X8912500Y-18118786D01*
X8926786Y-18147357D01*
X8941071Y-18204500D01*
X8941071Y-18275929D01*
X8926786Y-18333072D01*
X8912500Y-18361643D01*
X8898214Y-18375929D01*
X8869643Y-18390214D01*
X8841071Y-18390214D01*
X8812500Y-18375929D01*
X8798214Y-18361643D01*
X8783928Y-18333072D01*
X8769643Y-18275929D01*
X8769643Y-18204500D01*
X8783928Y-18147357D01*
X8798214Y-18118786D01*
X8812500Y-18104500D01*
X8841071Y-18090214D01*
X9055357Y-18118786D02*
X9069643Y-18104500D01*
X9098214Y-18090214D01*
X9169643Y-18090214D01*
X9198214Y-18104500D01*
X9212500Y-18118786D01*
X9226786Y-18147357D01*
X9226786Y-18175929D01*
X9212500Y-18218786D01*
X9041071Y-18390214D01*
X9226786Y-18390214D01*
X9398214Y-18218786D02*
X9369643Y-18204500D01*
X9355357Y-18190214D01*
X9341071Y-18161643D01*
X9341071Y-18147357D01*
X9355357Y-18118786D01*
X9369643Y-18104500D01*
X9398214Y-18090214D01*
X9455357Y-18090214D01*
X9483928Y-18104500D01*
X9498214Y-18118786D01*
X9512500Y-18147357D01*
X9512500Y-18161643D01*
X9498214Y-18190214D01*
X9483928Y-18204500D01*
X9455357Y-18218786D01*
X9398214Y-18218786D01*
X9369643Y-18233072D01*
X9355357Y-18247357D01*
X9341071Y-18275929D01*
X9341071Y-18333072D01*
X9355357Y-18361643D01*
X9369643Y-18375929D01*
X9398214Y-18390214D01*
X9455357Y-18390214D01*
X9483928Y-18375929D01*
X9498214Y-18361643D01*
X9512500Y-18333072D01*
X9512500Y-18275929D01*
X9498214Y-18247357D01*
X9483928Y-18233072D01*
X9455357Y-18218786D01*
X9626786Y-18090214D02*
X9626786Y-18147357D01*
X9741071Y-18090214D02*
X9741071Y-18147357D01*
X10183928Y-18504500D02*
X10169643Y-18490214D01*
X10141071Y-18447357D01*
X10126786Y-18418786D01*
X10112500Y-18375929D01*
X10098214Y-18304500D01*
X10098214Y-18247357D01*
X10112500Y-18175929D01*
X10126786Y-18133072D01*
X10141071Y-18104500D01*
X10169643Y-18061643D01*
X10183928Y-18047357D01*
X10441071Y-18090214D02*
X10298214Y-18090214D01*
X10283928Y-18233072D01*
X10298214Y-18218786D01*
X10326786Y-18204500D01*
X10398214Y-18204500D01*
X10426786Y-18218786D01*
X10441071Y-18233072D01*
X10455357Y-18261643D01*
X10455357Y-18333072D01*
X10441071Y-18361643D01*
X10426786Y-18375929D01*
X10398214Y-18390214D01*
X10326786Y-18390214D01*
X10298214Y-18375929D01*
X10283928Y-18361643D01*
X10812500Y-18390214D02*
X10812500Y-18090214D01*
X10941071Y-18390214D02*
X10941071Y-18233072D01*
X10926786Y-18204500D01*
X10898214Y-18190214D01*
X10855357Y-18190214D01*
X10826786Y-18204500D01*
X10812500Y-18218786D01*
X11126786Y-18390214D02*
X11098214Y-18375929D01*
X11083928Y-18361643D01*
X11069643Y-18333072D01*
X11069643Y-18247357D01*
X11083928Y-18218786D01*
X11098214Y-18204500D01*
X11126786Y-18190214D01*
X11169643Y-18190214D01*
X11198214Y-18204500D01*
X11212500Y-18218786D01*
X11226786Y-18247357D01*
X11226786Y-18333072D01*
X11212500Y-18361643D01*
X11198214Y-18375929D01*
X11169643Y-18390214D01*
X11126786Y-18390214D01*
X11398214Y-18390214D02*
X11369643Y-18375929D01*
X11355357Y-18347357D01*
X11355357Y-18090214D01*
X11626786Y-18375929D02*
X11598214Y-18390214D01*
X11541071Y-18390214D01*
X11512500Y-18375929D01*
X11498214Y-18347357D01*
X11498214Y-18233072D01*
X11512500Y-18204500D01*
X11541071Y-18190214D01*
X11598214Y-18190214D01*
X11626786Y-18204500D01*
X11641071Y-18233072D01*
X11641071Y-18261643D01*
X11498214Y-18290214D01*
X11755357Y-18375929D02*
X11783928Y-18390214D01*
X11841071Y-18390214D01*
X11869643Y-18375929D01*
X11883928Y-18347357D01*
X11883928Y-18333072D01*
X11869643Y-18304500D01*
X11841071Y-18290214D01*
X11798214Y-18290214D01*
X11769643Y-18275929D01*
X11755357Y-18247357D01*
X11755357Y-18233072D01*
X11769643Y-18204500D01*
X11798214Y-18190214D01*
X11841071Y-18190214D01*
X11869643Y-18204500D01*
X11983928Y-18504500D02*
X11998214Y-18490214D01*
X12026786Y-18447357D01*
X12041071Y-18418786D01*
X12055357Y-18375929D01*
X12069643Y-18304500D01*
X12069643Y-18247357D01*
X12055357Y-18175929D01*
X12041071Y-18133072D01*
X12026786Y-18104500D01*
X11998214Y-18061643D01*
X11983928Y-18047357D01*
X5485784Y-18678785D02*
X5485784Y-18622216D01*
X5429215Y-18622216D01*
X5429215Y-18678785D01*
X5485784Y-18678785D01*
X5841071Y-18486214D02*
X5869643Y-18486214D01*
X5898214Y-18500500D01*
X5912500Y-18514786D01*
X5926786Y-18543357D01*
X5941071Y-18600500D01*
X5941071Y-18671929D01*
X5926786Y-18729072D01*
X5912500Y-18757643D01*
X5898214Y-18771929D01*
X5869643Y-18786214D01*
X5841071Y-18786214D01*
X5812500Y-18771929D01*
X5798214Y-18757643D01*
X5783928Y-18729072D01*
X5769643Y-18671929D01*
X5769643Y-18600500D01*
X5783928Y-18543357D01*
X5798214Y-18514786D01*
X5812500Y-18500500D01*
X5841071Y-18486214D01*
X6069643Y-18757643D02*
X6083928Y-18771929D01*
X6069643Y-18786214D01*
X6055357Y-18771929D01*
X6069643Y-18757643D01*
X6069643Y-18786214D01*
X6255357Y-18614786D02*
X6226786Y-18600500D01*
X6212500Y-18586214D01*
X6198214Y-18557643D01*
X6198214Y-18543357D01*
X6212500Y-18514786D01*
X6226786Y-18500500D01*
X6255357Y-18486214D01*
X6312500Y-18486214D01*
X6341071Y-18500500D01*
X6355357Y-18514786D01*
X6369643Y-18543357D01*
X6369643Y-18557643D01*
X6355357Y-18586214D01*
X6341071Y-18600500D01*
X6312500Y-18614786D01*
X6255357Y-18614786D01*
X6226786Y-18629072D01*
X6212500Y-18643357D01*
X6198214Y-18671929D01*
X6198214Y-18729072D01*
X6212500Y-18757643D01*
X6226786Y-18771929D01*
X6255357Y-18786214D01*
X6312500Y-18786214D01*
X6341071Y-18771929D01*
X6355357Y-18757643D01*
X6369643Y-18729072D01*
X6369643Y-18671929D01*
X6355357Y-18643357D01*
X6341071Y-18629072D01*
X6312500Y-18614786D01*
X6555357Y-18486214D02*
X6583928Y-18486214D01*
X6612500Y-18500500D01*
X6626786Y-18514786D01*
X6641071Y-18543357D01*
X6655357Y-18600500D01*
X6655357Y-18671929D01*
X6641071Y-18729072D01*
X6626786Y-18757643D01*
X6612500Y-18771929D01*
X6583928Y-18786214D01*
X6555357Y-18786214D01*
X6526786Y-18771929D01*
X6512500Y-18757643D01*
X6498214Y-18729072D01*
X6483928Y-18671929D01*
X6483928Y-18600500D01*
X6498214Y-18543357D01*
X6512500Y-18514786D01*
X6526786Y-18500500D01*
X6555357Y-18486214D01*
X6783928Y-18786214D02*
X6783928Y-18586214D01*
X6783928Y-18614786D02*
X6798214Y-18600500D01*
X6826786Y-18586214D01*
X6869643Y-18586214D01*
X6898214Y-18600500D01*
X6912500Y-18629072D01*
X6912500Y-18786214D01*
X6912500Y-18629072D02*
X6926786Y-18600500D01*
X6955357Y-18586214D01*
X6998214Y-18586214D01*
X7026786Y-18600500D01*
X7041071Y-18629072D01*
X7041071Y-18786214D01*
X7183928Y-18786214D02*
X7183928Y-18586214D01*
X7183928Y-18614786D02*
X7198214Y-18600500D01*
X7226786Y-18586214D01*
X7269643Y-18586214D01*
X7298214Y-18600500D01*
X7312500Y-18629072D01*
X7312500Y-18786214D01*
X7312500Y-18629072D02*
X7326786Y-18600500D01*
X7355357Y-18586214D01*
X7398214Y-18586214D01*
X7426786Y-18600500D01*
X7441071Y-18629072D01*
X7441071Y-18786214D01*
X8026786Y-18471929D02*
X7769643Y-18857643D01*
X8412500Y-18486214D02*
X8441071Y-18486214D01*
X8469643Y-18500500D01*
X8483928Y-18514786D01*
X8498214Y-18543357D01*
X8512500Y-18600500D01*
X8512500Y-18671929D01*
X8498214Y-18729072D01*
X8483928Y-18757643D01*
X8469643Y-18771929D01*
X8441071Y-18786214D01*
X8412500Y-18786214D01*
X8383928Y-18771929D01*
X8369643Y-18757643D01*
X8355357Y-18729072D01*
X8341071Y-18671929D01*
X8341071Y-18600500D01*
X8355357Y-18543357D01*
X8369643Y-18514786D01*
X8383928Y-18500500D01*
X8412500Y-18486214D01*
X8641071Y-18757643D02*
X8655357Y-18771929D01*
X8641071Y-18786214D01*
X8626786Y-18771929D01*
X8641071Y-18757643D01*
X8641071Y-18786214D01*
X8841071Y-18486214D02*
X8869643Y-18486214D01*
X8898214Y-18500500D01*
X8912500Y-18514786D01*
X8926786Y-18543357D01*
X8941071Y-18600500D01*
X8941071Y-18671929D01*
X8926786Y-18729072D01*
X8912500Y-18757643D01*
X8898214Y-18771929D01*
X8869643Y-18786214D01*
X8841071Y-18786214D01*
X8812500Y-18771929D01*
X8798214Y-18757643D01*
X8783928Y-18729072D01*
X8769643Y-18671929D01*
X8769643Y-18600500D01*
X8783928Y-18543357D01*
X8798214Y-18514786D01*
X8812500Y-18500500D01*
X8841071Y-18486214D01*
X9041071Y-18486214D02*
X9226786Y-18486214D01*
X9126786Y-18600500D01*
X9169643Y-18600500D01*
X9198214Y-18614786D01*
X9212500Y-18629072D01*
X9226786Y-18657643D01*
X9226786Y-18729072D01*
X9212500Y-18757643D01*
X9198214Y-18771929D01*
X9169643Y-18786214D01*
X9083928Y-18786214D01*
X9055357Y-18771929D01*
X9041071Y-18757643D01*
X9512500Y-18786214D02*
X9341071Y-18786214D01*
X9426786Y-18786214D02*
X9426786Y-18486214D01*
X9398214Y-18529072D01*
X9369643Y-18557643D01*
X9341071Y-18571929D01*
X9626786Y-18486214D02*
X9626786Y-18543357D01*
X9741071Y-18486214D02*
X9741071Y-18543357D01*
X10183928Y-18900500D02*
X10169643Y-18886214D01*
X10141071Y-18843357D01*
X10126786Y-18814786D01*
X10112500Y-18771929D01*
X10098214Y-18700500D01*
X10098214Y-18643357D01*
X10112500Y-18571929D01*
X10126786Y-18529072D01*
X10141071Y-18500500D01*
X10169643Y-18457643D01*
X10183928Y-18443357D01*
X10455357Y-18786214D02*
X10283928Y-18786214D01*
X10369643Y-18786214D02*
X10369643Y-18486214D01*
X10341071Y-18529072D01*
X10312500Y-18557643D01*
X10283928Y-18571929D01*
X10741071Y-18786214D02*
X10569643Y-18786214D01*
X10655357Y-18786214D02*
X10655357Y-18486214D01*
X10626786Y-18529072D01*
X10598214Y-18557643D01*
X10569643Y-18571929D01*
X11098214Y-18786214D02*
X11098214Y-18486214D01*
X11226786Y-18786214D02*
X11226786Y-18629072D01*
X11212500Y-18600500D01*
X11183928Y-18586214D01*
X11141071Y-18586214D01*
X11112500Y-18600500D01*
X11098214Y-18614786D01*
X11412500Y-18786214D02*
X11383928Y-18771929D01*
X11369643Y-18757643D01*
X11355357Y-18729072D01*
X11355357Y-18643357D01*
X11369643Y-18614786D01*
X11383928Y-18600500D01*
X11412500Y-18586214D01*
X11455357Y-18586214D01*
X11483928Y-18600500D01*
X11498214Y-18614786D01*
X11512500Y-18643357D01*
X11512500Y-18729072D01*
X11498214Y-18757643D01*
X11483928Y-18771929D01*
X11455357Y-18786214D01*
X11412500Y-18786214D01*
X11683928Y-18786214D02*
X11655357Y-18771929D01*
X11641071Y-18743357D01*
X11641071Y-18486214D01*
X11912500Y-18771929D02*
X11883928Y-18786214D01*
X11826786Y-18786214D01*
X11798214Y-18771929D01*
X11783928Y-18743357D01*
X11783928Y-18629072D01*
X11798214Y-18600500D01*
X11826786Y-18586214D01*
X11883928Y-18586214D01*
X11912500Y-18600500D01*
X11926786Y-18629072D01*
X11926786Y-18657643D01*
X11783928Y-18686214D01*
X12041071Y-18771929D02*
X12069643Y-18786214D01*
X12126786Y-18786214D01*
X12155357Y-18771929D01*
X12169643Y-18743357D01*
X12169643Y-18729072D01*
X12155357Y-18700500D01*
X12126786Y-18686214D01*
X12083928Y-18686214D01*
X12055357Y-18671929D01*
X12041071Y-18643357D01*
X12041071Y-18629072D01*
X12055357Y-18600500D01*
X12083928Y-18586214D01*
X12126786Y-18586214D01*
X12155357Y-18600500D01*
X12269643Y-18900500D02*
X12283928Y-18886214D01*
X12312500Y-18843357D01*
X12326786Y-18814786D01*
X12341071Y-18771929D01*
X12355357Y-18700500D01*
X12355357Y-18643357D01*
X12341071Y-18571929D01*
X12326786Y-18529072D01*
X12312500Y-18500500D01*
X12283928Y-18457643D01*
X12269643Y-18443357D01*
X5451500Y-19092500D02*
X5497500Y-19046500D01*
X5451500Y-19000500D01*
X5405500Y-19046500D01*
X5451500Y-19092500D01*
X5841071Y-18882214D02*
X5869643Y-18882214D01*
X5898214Y-18896500D01*
X5912500Y-18910786D01*
X5926786Y-18939357D01*
X5941071Y-18996500D01*
X5941071Y-19067929D01*
X5926786Y-19125072D01*
X5912500Y-19153643D01*
X5898214Y-19167929D01*
X5869643Y-19182214D01*
X5841071Y-19182214D01*
X5812500Y-19167929D01*
X5798214Y-19153643D01*
X5783928Y-19125072D01*
X5769643Y-19067929D01*
X5769643Y-18996500D01*
X5783928Y-18939357D01*
X5798214Y-18910786D01*
X5812500Y-18896500D01*
X5841071Y-18882214D01*
X6069643Y-19153643D02*
X6083928Y-19167929D01*
X6069643Y-19182214D01*
X6055357Y-19167929D01*
X6069643Y-19153643D01*
X6069643Y-19182214D01*
X6226786Y-19182214D02*
X6283928Y-19182214D01*
X6312500Y-19167929D01*
X6326786Y-19153643D01*
X6355357Y-19110786D01*
X6369643Y-19053643D01*
X6369643Y-18939357D01*
X6355357Y-18910786D01*
X6341071Y-18896500D01*
X6312500Y-18882214D01*
X6255357Y-18882214D01*
X6226786Y-18896500D01*
X6212500Y-18910786D01*
X6198214Y-18939357D01*
X6198214Y-19010786D01*
X6212500Y-19039357D01*
X6226786Y-19053643D01*
X6255357Y-19067929D01*
X6312500Y-19067929D01*
X6341071Y-19053643D01*
X6355357Y-19039357D01*
X6369643Y-19010786D01*
X6483928Y-18910786D02*
X6498214Y-18896500D01*
X6526786Y-18882214D01*
X6598214Y-18882214D01*
X6626786Y-18896500D01*
X6641071Y-18910786D01*
X6655357Y-18939357D01*
X6655357Y-18967929D01*
X6641071Y-19010786D01*
X6469643Y-19182214D01*
X6655357Y-19182214D01*
X6783928Y-19182214D02*
X6783928Y-18982214D01*
X6783928Y-19010786D02*
X6798214Y-18996500D01*
X6826786Y-18982214D01*
X6869643Y-18982214D01*
X6898214Y-18996500D01*
X6912500Y-19025072D01*
X6912500Y-19182214D01*
X6912500Y-19025072D02*
X6926786Y-18996500D01*
X6955357Y-18982214D01*
X6998214Y-18982214D01*
X7026786Y-18996500D01*
X7041071Y-19025072D01*
X7041071Y-19182214D01*
X7183928Y-19182214D02*
X7183928Y-18982214D01*
X7183928Y-19010786D02*
X7198214Y-18996500D01*
X7226786Y-18982214D01*
X7269643Y-18982214D01*
X7298214Y-18996500D01*
X7312500Y-19025072D01*
X7312500Y-19182214D01*
X7312500Y-19025072D02*
X7326786Y-18996500D01*
X7355357Y-18982214D01*
X7398214Y-18982214D01*
X7426786Y-18996500D01*
X7441071Y-19025072D01*
X7441071Y-19182214D01*
X8026786Y-18867929D02*
X7769643Y-19253643D01*
X8412500Y-18882214D02*
X8441071Y-18882214D01*
X8469643Y-18896500D01*
X8483928Y-18910786D01*
X8498214Y-18939357D01*
X8512500Y-18996500D01*
X8512500Y-19067929D01*
X8498214Y-19125072D01*
X8483928Y-19153643D01*
X8469643Y-19167929D01*
X8441071Y-19182214D01*
X8412500Y-19182214D01*
X8383928Y-19167929D01*
X8369643Y-19153643D01*
X8355357Y-19125072D01*
X8341071Y-19067929D01*
X8341071Y-18996500D01*
X8355357Y-18939357D01*
X8369643Y-18910786D01*
X8383928Y-18896500D01*
X8412500Y-18882214D01*
X8641071Y-19153643D02*
X8655357Y-19167929D01*
X8641071Y-19182214D01*
X8626786Y-19167929D01*
X8641071Y-19153643D01*
X8641071Y-19182214D01*
X8841071Y-18882214D02*
X8869643Y-18882214D01*
X8898214Y-18896500D01*
X8912500Y-18910786D01*
X8926786Y-18939357D01*
X8941071Y-18996500D01*
X8941071Y-19067929D01*
X8926786Y-19125072D01*
X8912500Y-19153643D01*
X8898214Y-19167929D01*
X8869643Y-19182214D01*
X8841071Y-19182214D01*
X8812500Y-19167929D01*
X8798214Y-19153643D01*
X8783928Y-19125072D01*
X8769643Y-19067929D01*
X8769643Y-18996500D01*
X8783928Y-18939357D01*
X8798214Y-18910786D01*
X8812500Y-18896500D01*
X8841071Y-18882214D01*
X9041071Y-18882214D02*
X9226786Y-18882214D01*
X9126786Y-18996500D01*
X9169643Y-18996500D01*
X9198214Y-19010786D01*
X9212500Y-19025072D01*
X9226786Y-19053643D01*
X9226786Y-19125072D01*
X9212500Y-19153643D01*
X9198214Y-19167929D01*
X9169643Y-19182214D01*
X9083928Y-19182214D01*
X9055357Y-19167929D01*
X9041071Y-19153643D01*
X9483928Y-18882214D02*
X9426786Y-18882214D01*
X9398214Y-18896500D01*
X9383928Y-18910786D01*
X9355357Y-18953643D01*
X9341071Y-19010786D01*
X9341071Y-19125072D01*
X9355357Y-19153643D01*
X9369643Y-19167929D01*
X9398214Y-19182214D01*
X9455357Y-19182214D01*
X9483928Y-19167929D01*
X9498214Y-19153643D01*
X9512500Y-19125072D01*
X9512500Y-19053643D01*
X9498214Y-19025072D01*
X9483928Y-19010786D01*
X9455357Y-18996500D01*
X9398214Y-18996500D01*
X9369643Y-19010786D01*
X9355357Y-19025072D01*
X9341071Y-19053643D01*
X9626786Y-18882214D02*
X9626786Y-18939357D01*
X9741071Y-18882214D02*
X9741071Y-18939357D01*
X10183928Y-19296500D02*
X10169643Y-19282214D01*
X10141071Y-19239357D01*
X10126786Y-19210786D01*
X10112500Y-19167929D01*
X10098214Y-19096500D01*
X10098214Y-19039357D01*
X10112500Y-18967929D01*
X10126786Y-18925072D01*
X10141071Y-18896500D01*
X10169643Y-18853643D01*
X10183928Y-18839357D01*
X10426786Y-18982214D02*
X10426786Y-19182214D01*
X10355357Y-18867929D02*
X10283928Y-19082214D01*
X10469643Y-19082214D01*
X10812500Y-19182214D02*
X10812500Y-18882214D01*
X10941071Y-19182214D02*
X10941071Y-19025072D01*
X10926786Y-18996500D01*
X10898214Y-18982214D01*
X10855357Y-18982214D01*
X10826786Y-18996500D01*
X10812500Y-19010786D01*
X11126786Y-19182214D02*
X11098214Y-19167929D01*
X11083928Y-19153643D01*
X11069643Y-19125072D01*
X11069643Y-19039357D01*
X11083928Y-19010786D01*
X11098214Y-18996500D01*
X11126786Y-18982214D01*
X11169643Y-18982214D01*
X11198214Y-18996500D01*
X11212500Y-19010786D01*
X11226786Y-19039357D01*
X11226786Y-19125072D01*
X11212500Y-19153643D01*
X11198214Y-19167929D01*
X11169643Y-19182214D01*
X11126786Y-19182214D01*
X11398214Y-19182214D02*
X11369643Y-19167929D01*
X11355357Y-19139357D01*
X11355357Y-18882214D01*
X11626786Y-19167929D02*
X11598214Y-19182214D01*
X11541071Y-19182214D01*
X11512500Y-19167929D01*
X11498214Y-19139357D01*
X11498214Y-19025072D01*
X11512500Y-18996500D01*
X11541071Y-18982214D01*
X11598214Y-18982214D01*
X11626786Y-18996500D01*
X11641071Y-19025072D01*
X11641071Y-19053643D01*
X11498214Y-19082214D01*
X11755357Y-19167929D02*
X11783928Y-19182214D01*
X11841071Y-19182214D01*
X11869643Y-19167929D01*
X11883928Y-19139357D01*
X11883928Y-19125072D01*
X11869643Y-19096500D01*
X11841071Y-19082214D01*
X11798214Y-19082214D01*
X11769643Y-19067929D01*
X11755357Y-19039357D01*
X11755357Y-19025072D01*
X11769643Y-18996500D01*
X11798214Y-18982214D01*
X11841071Y-18982214D01*
X11869643Y-18996500D01*
X11983928Y-19296500D02*
X11998214Y-19282214D01*
X12026786Y-19239357D01*
X12041071Y-19210786D01*
X12055357Y-19167929D01*
X12069643Y-19096500D01*
X12069643Y-19039357D01*
X12055357Y-18967929D01*
X12041071Y-18925072D01*
X12026786Y-18896500D01*
X11998214Y-18853643D01*
X11983928Y-18839357D01*
X5397500Y-19392500D02*
X5497500Y-19492500D01*
X5497500Y-19392500D02*
X5397500Y-19492500D01*
X5497500Y-19442500D02*
G75*
G03X5497500Y-19442500I-50000J0D01*
G01*
X5941071Y-19578214D02*
X5769643Y-19578214D01*
X5855357Y-19578214D02*
X5855357Y-19278214D01*
X5826786Y-19321072D01*
X5798214Y-19349643D01*
X5769643Y-19363929D01*
X6069643Y-19549643D02*
X6083928Y-19563929D01*
X6069643Y-19578214D01*
X6055357Y-19563929D01*
X6069643Y-19549643D01*
X6069643Y-19578214D01*
X6269643Y-19278214D02*
X6298214Y-19278214D01*
X6326786Y-19292500D01*
X6341071Y-19306786D01*
X6355357Y-19335357D01*
X6369643Y-19392500D01*
X6369643Y-19463929D01*
X6355357Y-19521072D01*
X6341071Y-19549643D01*
X6326786Y-19563929D01*
X6298214Y-19578214D01*
X6269643Y-19578214D01*
X6241071Y-19563929D01*
X6226786Y-19549643D01*
X6212500Y-19521072D01*
X6198214Y-19463929D01*
X6198214Y-19392500D01*
X6212500Y-19335357D01*
X6226786Y-19306786D01*
X6241071Y-19292500D01*
X6269643Y-19278214D01*
X6555357Y-19278214D02*
X6583928Y-19278214D01*
X6612500Y-19292500D01*
X6626786Y-19306786D01*
X6641071Y-19335357D01*
X6655357Y-19392500D01*
X6655357Y-19463929D01*
X6641071Y-19521072D01*
X6626786Y-19549643D01*
X6612500Y-19563929D01*
X6583928Y-19578214D01*
X6555357Y-19578214D01*
X6526786Y-19563929D01*
X6512500Y-19549643D01*
X6498214Y-19521072D01*
X6483928Y-19463929D01*
X6483928Y-19392500D01*
X6498214Y-19335357D01*
X6512500Y-19306786D01*
X6526786Y-19292500D01*
X6555357Y-19278214D01*
X6783928Y-19578214D02*
X6783928Y-19378214D01*
X6783928Y-19406786D02*
X6798214Y-19392500D01*
X6826786Y-19378214D01*
X6869643Y-19378214D01*
X6898214Y-19392500D01*
X6912500Y-19421072D01*
X6912500Y-19578214D01*
X6912500Y-19421072D02*
X6926786Y-19392500D01*
X6955357Y-19378214D01*
X6998214Y-19378214D01*
X7026786Y-19392500D01*
X7041071Y-19421072D01*
X7041071Y-19578214D01*
X7183928Y-19578214D02*
X7183928Y-19378214D01*
X7183928Y-19406786D02*
X7198214Y-19392500D01*
X7226786Y-19378214D01*
X7269643Y-19378214D01*
X7298214Y-19392500D01*
X7312500Y-19421072D01*
X7312500Y-19578214D01*
X7312500Y-19421072D02*
X7326786Y-19392500D01*
X7355357Y-19378214D01*
X7398214Y-19378214D01*
X7426786Y-19392500D01*
X7441071Y-19421072D01*
X7441071Y-19578214D01*
X8026786Y-19263929D02*
X7769643Y-19649643D01*
X8412500Y-19278214D02*
X8441071Y-19278214D01*
X8469643Y-19292500D01*
X8483928Y-19306786D01*
X8498214Y-19335357D01*
X8512500Y-19392500D01*
X8512500Y-19463929D01*
X8498214Y-19521072D01*
X8483928Y-19549643D01*
X8469643Y-19563929D01*
X8441071Y-19578214D01*
X8412500Y-19578214D01*
X8383928Y-19563929D01*
X8369643Y-19549643D01*
X8355357Y-19521072D01*
X8341071Y-19463929D01*
X8341071Y-19392500D01*
X8355357Y-19335357D01*
X8369643Y-19306786D01*
X8383928Y-19292500D01*
X8412500Y-19278214D01*
X8641071Y-19549643D02*
X8655357Y-19563929D01*
X8641071Y-19578214D01*
X8626786Y-19563929D01*
X8641071Y-19549643D01*
X8641071Y-19578214D01*
X8841071Y-19278214D02*
X8869643Y-19278214D01*
X8898214Y-19292500D01*
X8912500Y-19306786D01*
X8926786Y-19335357D01*
X8941071Y-19392500D01*
X8941071Y-19463929D01*
X8926786Y-19521072D01*
X8912500Y-19549643D01*
X8898214Y-19563929D01*
X8869643Y-19578214D01*
X8841071Y-19578214D01*
X8812500Y-19563929D01*
X8798214Y-19549643D01*
X8783928Y-19521072D01*
X8769643Y-19463929D01*
X8769643Y-19392500D01*
X8783928Y-19335357D01*
X8798214Y-19306786D01*
X8812500Y-19292500D01*
X8841071Y-19278214D01*
X9041071Y-19278214D02*
X9226786Y-19278214D01*
X9126786Y-19392500D01*
X9169643Y-19392500D01*
X9198214Y-19406786D01*
X9212500Y-19421072D01*
X9226786Y-19449643D01*
X9226786Y-19521072D01*
X9212500Y-19549643D01*
X9198214Y-19563929D01*
X9169643Y-19578214D01*
X9083928Y-19578214D01*
X9055357Y-19563929D01*
X9041071Y-19549643D01*
X9369643Y-19578214D02*
X9426786Y-19578214D01*
X9455357Y-19563929D01*
X9469643Y-19549643D01*
X9498214Y-19506786D01*
X9512500Y-19449643D01*
X9512500Y-19335357D01*
X9498214Y-19306786D01*
X9483928Y-19292500D01*
X9455357Y-19278214D01*
X9398214Y-19278214D01*
X9369643Y-19292500D01*
X9355357Y-19306786D01*
X9341071Y-19335357D01*
X9341071Y-19406786D01*
X9355357Y-19435357D01*
X9369643Y-19449643D01*
X9398214Y-19463929D01*
X9455357Y-19463929D01*
X9483928Y-19449643D01*
X9498214Y-19435357D01*
X9512500Y-19406786D01*
X9626786Y-19278214D02*
X9626786Y-19335357D01*
X9741071Y-19278214D02*
X9741071Y-19335357D01*
X10183928Y-19692500D02*
X10169643Y-19678214D01*
X10141071Y-19635357D01*
X10126786Y-19606786D01*
X10112500Y-19563929D01*
X10098214Y-19492500D01*
X10098214Y-19435357D01*
X10112500Y-19363929D01*
X10126786Y-19321072D01*
X10141071Y-19292500D01*
X10169643Y-19249643D01*
X10183928Y-19235357D01*
X10455357Y-19578214D02*
X10283928Y-19578214D01*
X10369643Y-19578214D02*
X10369643Y-19278214D01*
X10341071Y-19321072D01*
X10312500Y-19349643D01*
X10283928Y-19363929D01*
X10641071Y-19278214D02*
X10669643Y-19278214D01*
X10698214Y-19292500D01*
X10712500Y-19306786D01*
X10726786Y-19335357D01*
X10741071Y-19392500D01*
X10741071Y-19463929D01*
X10726786Y-19521072D01*
X10712500Y-19549643D01*
X10698214Y-19563929D01*
X10669643Y-19578214D01*
X10641071Y-19578214D01*
X10612500Y-19563929D01*
X10598214Y-19549643D01*
X10583928Y-19521072D01*
X10569643Y-19463929D01*
X10569643Y-19392500D01*
X10583928Y-19335357D01*
X10598214Y-19306786D01*
X10612500Y-19292500D01*
X10641071Y-19278214D01*
X11098214Y-19578214D02*
X11098214Y-19278214D01*
X11226786Y-19578214D02*
X11226786Y-19421072D01*
X11212500Y-19392500D01*
X11183928Y-19378214D01*
X11141071Y-19378214D01*
X11112500Y-19392500D01*
X11098214Y-19406786D01*
X11412500Y-19578214D02*
X11383928Y-19563929D01*
X11369643Y-19549643D01*
X11355357Y-19521072D01*
X11355357Y-19435357D01*
X11369643Y-19406786D01*
X11383928Y-19392500D01*
X11412500Y-19378214D01*
X11455357Y-19378214D01*
X11483928Y-19392500D01*
X11498214Y-19406786D01*
X11512500Y-19435357D01*
X11512500Y-19521072D01*
X11498214Y-19549643D01*
X11483928Y-19563929D01*
X11455357Y-19578214D01*
X11412500Y-19578214D01*
X11683928Y-19578214D02*
X11655357Y-19563929D01*
X11641071Y-19535357D01*
X11641071Y-19278214D01*
X11912500Y-19563929D02*
X11883928Y-19578214D01*
X11826786Y-19578214D01*
X11798214Y-19563929D01*
X11783928Y-19535357D01*
X11783928Y-19421072D01*
X11798214Y-19392500D01*
X11826786Y-19378214D01*
X11883928Y-19378214D01*
X11912500Y-19392500D01*
X11926786Y-19421072D01*
X11926786Y-19449643D01*
X11783928Y-19478214D01*
X12041071Y-19563929D02*
X12069643Y-19578214D01*
X12126786Y-19578214D01*
X12155357Y-19563929D01*
X12169643Y-19535357D01*
X12169643Y-19521072D01*
X12155357Y-19492500D01*
X12126786Y-19478214D01*
X12083928Y-19478214D01*
X12055357Y-19463929D01*
X12041071Y-19435357D01*
X12041071Y-19421072D01*
X12055357Y-19392500D01*
X12083928Y-19378214D01*
X12126786Y-19378214D01*
X12155357Y-19392500D01*
X12269643Y-19692500D02*
X12283928Y-19678214D01*
X12312500Y-19635357D01*
X12326786Y-19606786D01*
X12341071Y-19563929D01*
X12355357Y-19492500D01*
X12355357Y-19435357D01*
X12341071Y-19363929D01*
X12326786Y-19321072D01*
X12312500Y-19292500D01*
X12283928Y-19249643D01*
X12269643Y-19235357D01*
X5397424Y-19788462D02*
X5497500Y-19888538D01*
X5497500Y-19788462D02*
X5397424Y-19888538D01*
X5447462Y-19788462D02*
X5447462Y-19888538D01*
X5397424Y-19838500D02*
X5497500Y-19838500D01*
X5941071Y-19974214D02*
X5769643Y-19974214D01*
X5855357Y-19974214D02*
X5855357Y-19674214D01*
X5826786Y-19717072D01*
X5798214Y-19745643D01*
X5769643Y-19759929D01*
X6069643Y-19945643D02*
X6083928Y-19959929D01*
X6069643Y-19974214D01*
X6055357Y-19959929D01*
X6069643Y-19945643D01*
X6069643Y-19974214D01*
X6269643Y-19674214D02*
X6298214Y-19674214D01*
X6326786Y-19688500D01*
X6341071Y-19702786D01*
X6355357Y-19731357D01*
X6369643Y-19788500D01*
X6369643Y-19859929D01*
X6355357Y-19917072D01*
X6341071Y-19945643D01*
X6326786Y-19959929D01*
X6298214Y-19974214D01*
X6269643Y-19974214D01*
X6241071Y-19959929D01*
X6226786Y-19945643D01*
X6212500Y-19917072D01*
X6198214Y-19859929D01*
X6198214Y-19788500D01*
X6212500Y-19731357D01*
X6226786Y-19702786D01*
X6241071Y-19688500D01*
X6269643Y-19674214D01*
X6555357Y-19674214D02*
X6583928Y-19674214D01*
X6612500Y-19688500D01*
X6626786Y-19702786D01*
X6641071Y-19731357D01*
X6655357Y-19788500D01*
X6655357Y-19859929D01*
X6641071Y-19917072D01*
X6626786Y-19945643D01*
X6612500Y-19959929D01*
X6583928Y-19974214D01*
X6555357Y-19974214D01*
X6526786Y-19959929D01*
X6512500Y-19945643D01*
X6498214Y-19917072D01*
X6483928Y-19859929D01*
X6483928Y-19788500D01*
X6498214Y-19731357D01*
X6512500Y-19702786D01*
X6526786Y-19688500D01*
X6555357Y-19674214D01*
X6783928Y-19974214D02*
X6783928Y-19774214D01*
X6783928Y-19802786D02*
X6798214Y-19788500D01*
X6826786Y-19774214D01*
X6869643Y-19774214D01*
X6898214Y-19788500D01*
X6912500Y-19817072D01*
X6912500Y-19974214D01*
X6912500Y-19817072D02*
X6926786Y-19788500D01*
X6955357Y-19774214D01*
X6998214Y-19774214D01*
X7026786Y-19788500D01*
X7041071Y-19817072D01*
X7041071Y-19974214D01*
X7183928Y-19974214D02*
X7183928Y-19774214D01*
X7183928Y-19802786D02*
X7198214Y-19788500D01*
X7226786Y-19774214D01*
X7269643Y-19774214D01*
X7298214Y-19788500D01*
X7312500Y-19817072D01*
X7312500Y-19974214D01*
X7312500Y-19817072D02*
X7326786Y-19788500D01*
X7355357Y-19774214D01*
X7398214Y-19774214D01*
X7426786Y-19788500D01*
X7441071Y-19817072D01*
X7441071Y-19974214D01*
X8026786Y-19659929D02*
X7769643Y-20045643D01*
X8412500Y-19674214D02*
X8441071Y-19674214D01*
X8469643Y-19688500D01*
X8483928Y-19702786D01*
X8498214Y-19731357D01*
X8512500Y-19788500D01*
X8512500Y-19859929D01*
X8498214Y-19917072D01*
X8483928Y-19945643D01*
X8469643Y-19959929D01*
X8441071Y-19974214D01*
X8412500Y-19974214D01*
X8383928Y-19959929D01*
X8369643Y-19945643D01*
X8355357Y-19917072D01*
X8341071Y-19859929D01*
X8341071Y-19788500D01*
X8355357Y-19731357D01*
X8369643Y-19702786D01*
X8383928Y-19688500D01*
X8412500Y-19674214D01*
X8641071Y-19945643D02*
X8655357Y-19959929D01*
X8641071Y-19974214D01*
X8626786Y-19959929D01*
X8641071Y-19945643D01*
X8641071Y-19974214D01*
X8841071Y-19674214D02*
X8869643Y-19674214D01*
X8898214Y-19688500D01*
X8912500Y-19702786D01*
X8926786Y-19731357D01*
X8941071Y-19788500D01*
X8941071Y-19859929D01*
X8926786Y-19917072D01*
X8912500Y-19945643D01*
X8898214Y-19959929D01*
X8869643Y-19974214D01*
X8841071Y-19974214D01*
X8812500Y-19959929D01*
X8798214Y-19945643D01*
X8783928Y-19917072D01*
X8769643Y-19859929D01*
X8769643Y-19788500D01*
X8783928Y-19731357D01*
X8798214Y-19702786D01*
X8812500Y-19688500D01*
X8841071Y-19674214D01*
X9041071Y-19674214D02*
X9226786Y-19674214D01*
X9126786Y-19788500D01*
X9169643Y-19788500D01*
X9198214Y-19802786D01*
X9212500Y-19817072D01*
X9226786Y-19845643D01*
X9226786Y-19917072D01*
X9212500Y-19945643D01*
X9198214Y-19959929D01*
X9169643Y-19974214D01*
X9083928Y-19974214D01*
X9055357Y-19959929D01*
X9041071Y-19945643D01*
X9369643Y-19974214D02*
X9426786Y-19974214D01*
X9455357Y-19959929D01*
X9469643Y-19945643D01*
X9498214Y-19902786D01*
X9512500Y-19845643D01*
X9512500Y-19731357D01*
X9498214Y-19702786D01*
X9483928Y-19688500D01*
X9455357Y-19674214D01*
X9398214Y-19674214D01*
X9369643Y-19688500D01*
X9355357Y-19702786D01*
X9341071Y-19731357D01*
X9341071Y-19802786D01*
X9355357Y-19831357D01*
X9369643Y-19845643D01*
X9398214Y-19859929D01*
X9455357Y-19859929D01*
X9483928Y-19845643D01*
X9498214Y-19831357D01*
X9512500Y-19802786D01*
X9626786Y-19674214D02*
X9626786Y-19731357D01*
X9741071Y-19674214D02*
X9741071Y-19731357D01*
X10183928Y-20088500D02*
X10169643Y-20074214D01*
X10141071Y-20031357D01*
X10126786Y-20002786D01*
X10112500Y-19959929D01*
X10098214Y-19888500D01*
X10098214Y-19831357D01*
X10112500Y-19759929D01*
X10126786Y-19717072D01*
X10141071Y-19688500D01*
X10169643Y-19645643D01*
X10183928Y-19631357D01*
X10355357Y-19674214D02*
X10383928Y-19674214D01*
X10412500Y-19688500D01*
X10426786Y-19702786D01*
X10441071Y-19731357D01*
X10455357Y-19788500D01*
X10455357Y-19859929D01*
X10441071Y-19917072D01*
X10426786Y-19945643D01*
X10412500Y-19959929D01*
X10383928Y-19974214D01*
X10355357Y-19974214D01*
X10326786Y-19959929D01*
X10312500Y-19945643D01*
X10298214Y-19917072D01*
X10283928Y-19859929D01*
X10283928Y-19788500D01*
X10298214Y-19731357D01*
X10312500Y-19702786D01*
X10326786Y-19688500D01*
X10355357Y-19674214D01*
X10812500Y-19974214D02*
X10812500Y-19674214D01*
X10941071Y-19974214D02*
X10941071Y-19817072D01*
X10926786Y-19788500D01*
X10898214Y-19774214D01*
X10855357Y-19774214D01*
X10826786Y-19788500D01*
X10812500Y-19802786D01*
X11126786Y-19974214D02*
X11098214Y-19959929D01*
X11083928Y-19945643D01*
X11069643Y-19917072D01*
X11069643Y-19831357D01*
X11083928Y-19802786D01*
X11098214Y-19788500D01*
X11126786Y-19774214D01*
X11169643Y-19774214D01*
X11198214Y-19788500D01*
X11212500Y-19802786D01*
X11226786Y-19831357D01*
X11226786Y-19917072D01*
X11212500Y-19945643D01*
X11198214Y-19959929D01*
X11169643Y-19974214D01*
X11126786Y-19974214D01*
X11398214Y-19974214D02*
X11369643Y-19959929D01*
X11355357Y-19931357D01*
X11355357Y-19674214D01*
X11626786Y-19959929D02*
X11598214Y-19974214D01*
X11541071Y-19974214D01*
X11512500Y-19959929D01*
X11498214Y-19931357D01*
X11498214Y-19817072D01*
X11512500Y-19788500D01*
X11541071Y-19774214D01*
X11598214Y-19774214D01*
X11626786Y-19788500D01*
X11641071Y-19817072D01*
X11641071Y-19845643D01*
X11498214Y-19874214D01*
X11755357Y-19959929D02*
X11783928Y-19974214D01*
X11841071Y-19974214D01*
X11869643Y-19959929D01*
X11883928Y-19931357D01*
X11883928Y-19917072D01*
X11869643Y-19888500D01*
X11841071Y-19874214D01*
X11798214Y-19874214D01*
X11769643Y-19859929D01*
X11755357Y-19831357D01*
X11755357Y-19817072D01*
X11769643Y-19788500D01*
X11798214Y-19774214D01*
X11841071Y-19774214D01*
X11869643Y-19788500D01*
X12241071Y-19859929D02*
X12469643Y-19859929D01*
X12355357Y-19974214D02*
X12355357Y-19745643D01*
X12812500Y-19674214D02*
X12998214Y-19674214D01*
X12898214Y-19788500D01*
X12941071Y-19788500D01*
X12969643Y-19802786D01*
X12983928Y-19817072D01*
X12998214Y-19845643D01*
X12998214Y-19917072D01*
X12983928Y-19945643D01*
X12969643Y-19959929D01*
X12941071Y-19974214D01*
X12855357Y-19974214D01*
X12826786Y-19959929D01*
X12812500Y-19945643D01*
X13341071Y-19959929D02*
X13369643Y-19974214D01*
X13426786Y-19974214D01*
X13455357Y-19959929D01*
X13469643Y-19931357D01*
X13469643Y-19917072D01*
X13455357Y-19888500D01*
X13426786Y-19874214D01*
X13383928Y-19874214D01*
X13355357Y-19859929D01*
X13341071Y-19831357D01*
X13341071Y-19817072D01*
X13355357Y-19788500D01*
X13383928Y-19774214D01*
X13426786Y-19774214D01*
X13455357Y-19788500D01*
X13641071Y-19974214D02*
X13612500Y-19959929D01*
X13598214Y-19931357D01*
X13598214Y-19674214D01*
X13798214Y-19974214D02*
X13769643Y-19959929D01*
X13755357Y-19945643D01*
X13741071Y-19917072D01*
X13741071Y-19831357D01*
X13755357Y-19802786D01*
X13769643Y-19788500D01*
X13798214Y-19774214D01*
X13841071Y-19774214D01*
X13869643Y-19788500D01*
X13883928Y-19802786D01*
X13898214Y-19831357D01*
X13898214Y-19917072D01*
X13883928Y-19945643D01*
X13869643Y-19959929D01*
X13841071Y-19974214D01*
X13798214Y-19974214D01*
X13983928Y-19774214D02*
X14098214Y-19774214D01*
X14026786Y-19674214D02*
X14026786Y-19931357D01*
X14041071Y-19959929D01*
X14069643Y-19974214D01*
X14098214Y-19974214D01*
X14183928Y-19959929D02*
X14212500Y-19974214D01*
X14269643Y-19974214D01*
X14298214Y-19959929D01*
X14312500Y-19931357D01*
X14312500Y-19917072D01*
X14298214Y-19888500D01*
X14269643Y-19874214D01*
X14226786Y-19874214D01*
X14198214Y-19859929D01*
X14183928Y-19831357D01*
X14183928Y-19817072D01*
X14198214Y-19788500D01*
X14226786Y-19774214D01*
X14269643Y-19774214D01*
X14298214Y-19788500D01*
X14412500Y-20088500D02*
X14426786Y-20074214D01*
X14455357Y-20031357D01*
X14469643Y-20002786D01*
X14483928Y-19959929D01*
X14498214Y-19888500D01*
X14498214Y-19831357D01*
X14483928Y-19759929D01*
X14469643Y-19717072D01*
X14455357Y-19688500D01*
X14426786Y-19645643D01*
X14412500Y-19631357D01*
X5377500Y-20174500D02*
X5497500Y-20294500D01*
X5497500Y-20174500D02*
X5377500Y-20294500D01*
X5479927Y-20276927D02*
X5479927Y-20192073D01*
X5395073Y-20192073D01*
X5395073Y-20276927D01*
X5479927Y-20276927D01*
X5941071Y-20370214D02*
X5769643Y-20370214D01*
X5855357Y-20370214D02*
X5855357Y-20070214D01*
X5826786Y-20113072D01*
X5798214Y-20141643D01*
X5769643Y-20155929D01*
X6069643Y-20341643D02*
X6083928Y-20355929D01*
X6069643Y-20370214D01*
X6055357Y-20355929D01*
X6069643Y-20341643D01*
X6069643Y-20370214D01*
X6198214Y-20098786D02*
X6212500Y-20084500D01*
X6241071Y-20070214D01*
X6312500Y-20070214D01*
X6341071Y-20084500D01*
X6355357Y-20098786D01*
X6369643Y-20127357D01*
X6369643Y-20155929D01*
X6355357Y-20198786D01*
X6183928Y-20370214D01*
X6369643Y-20370214D01*
X6555357Y-20070214D02*
X6583928Y-20070214D01*
X6612500Y-20084500D01*
X6626786Y-20098786D01*
X6641071Y-20127357D01*
X6655357Y-20184500D01*
X6655357Y-20255929D01*
X6641071Y-20313072D01*
X6626786Y-20341643D01*
X6612500Y-20355929D01*
X6583928Y-20370214D01*
X6555357Y-20370214D01*
X6526786Y-20355929D01*
X6512500Y-20341643D01*
X6498214Y-20313072D01*
X6483928Y-20255929D01*
X6483928Y-20184500D01*
X6498214Y-20127357D01*
X6512500Y-20098786D01*
X6526786Y-20084500D01*
X6555357Y-20070214D01*
X6783928Y-20370214D02*
X6783928Y-20170214D01*
X6783928Y-20198786D02*
X6798214Y-20184500D01*
X6826786Y-20170214D01*
X6869643Y-20170214D01*
X6898214Y-20184500D01*
X6912500Y-20213072D01*
X6912500Y-20370214D01*
X6912500Y-20213072D02*
X6926786Y-20184500D01*
X6955357Y-20170214D01*
X6998214Y-20170214D01*
X7026786Y-20184500D01*
X7041071Y-20213072D01*
X7041071Y-20370214D01*
X7183928Y-20370214D02*
X7183928Y-20170214D01*
X7183928Y-20198786D02*
X7198214Y-20184500D01*
X7226786Y-20170214D01*
X7269643Y-20170214D01*
X7298214Y-20184500D01*
X7312500Y-20213072D01*
X7312500Y-20370214D01*
X7312500Y-20213072D02*
X7326786Y-20184500D01*
X7355357Y-20170214D01*
X7398214Y-20170214D01*
X7426786Y-20184500D01*
X7441071Y-20213072D01*
X7441071Y-20370214D01*
X8026786Y-20055929D02*
X7769643Y-20441643D01*
X8412500Y-20070214D02*
X8441071Y-20070214D01*
X8469643Y-20084500D01*
X8483928Y-20098786D01*
X8498214Y-20127357D01*
X8512500Y-20184500D01*
X8512500Y-20255929D01*
X8498214Y-20313072D01*
X8483928Y-20341643D01*
X8469643Y-20355929D01*
X8441071Y-20370214D01*
X8412500Y-20370214D01*
X8383928Y-20355929D01*
X8369643Y-20341643D01*
X8355357Y-20313072D01*
X8341071Y-20255929D01*
X8341071Y-20184500D01*
X8355357Y-20127357D01*
X8369643Y-20098786D01*
X8383928Y-20084500D01*
X8412500Y-20070214D01*
X8641071Y-20341643D02*
X8655357Y-20355929D01*
X8641071Y-20370214D01*
X8626786Y-20355929D01*
X8641071Y-20341643D01*
X8641071Y-20370214D01*
X8841071Y-20070214D02*
X8869643Y-20070214D01*
X8898214Y-20084500D01*
X8912500Y-20098786D01*
X8926786Y-20127357D01*
X8941071Y-20184500D01*
X8941071Y-20255929D01*
X8926786Y-20313072D01*
X8912500Y-20341643D01*
X8898214Y-20355929D01*
X8869643Y-20370214D01*
X8841071Y-20370214D01*
X8812500Y-20355929D01*
X8798214Y-20341643D01*
X8783928Y-20313072D01*
X8769643Y-20255929D01*
X8769643Y-20184500D01*
X8783928Y-20127357D01*
X8798214Y-20098786D01*
X8812500Y-20084500D01*
X8841071Y-20070214D01*
X9198214Y-20170214D02*
X9198214Y-20370214D01*
X9126786Y-20055929D02*
X9055357Y-20270214D01*
X9241071Y-20270214D01*
X9326786Y-20070214D02*
X9526786Y-20070214D01*
X9398214Y-20370214D01*
X9626786Y-20070214D02*
X9626786Y-20127357D01*
X9741071Y-20070214D02*
X9741071Y-20127357D01*
X10183928Y-20484500D02*
X10169643Y-20470214D01*
X10141071Y-20427357D01*
X10126786Y-20398786D01*
X10112500Y-20355929D01*
X10098214Y-20284500D01*
X10098214Y-20227357D01*
X10112500Y-20155929D01*
X10126786Y-20113072D01*
X10141071Y-20084500D01*
X10169643Y-20041643D01*
X10183928Y-20027357D01*
X10426786Y-20170214D02*
X10426786Y-20370214D01*
X10355357Y-20055929D02*
X10283928Y-20270214D01*
X10469643Y-20270214D01*
X10812500Y-20370214D02*
X10812500Y-20070214D01*
X10941071Y-20370214D02*
X10941071Y-20213072D01*
X10926786Y-20184500D01*
X10898214Y-20170214D01*
X10855357Y-20170214D01*
X10826786Y-20184500D01*
X10812500Y-20198786D01*
X11126786Y-20370214D02*
X11098214Y-20355929D01*
X11083928Y-20341643D01*
X11069643Y-20313072D01*
X11069643Y-20227357D01*
X11083928Y-20198786D01*
X11098214Y-20184500D01*
X11126786Y-20170214D01*
X11169643Y-20170214D01*
X11198214Y-20184500D01*
X11212500Y-20198786D01*
X11226786Y-20227357D01*
X11226786Y-20313072D01*
X11212500Y-20341643D01*
X11198214Y-20355929D01*
X11169643Y-20370214D01*
X11126786Y-20370214D01*
X11398214Y-20370214D02*
X11369643Y-20355929D01*
X11355357Y-20327357D01*
X11355357Y-20070214D01*
X11626786Y-20355929D02*
X11598214Y-20370214D01*
X11541071Y-20370214D01*
X11512500Y-20355929D01*
X11498214Y-20327357D01*
X11498214Y-20213072D01*
X11512500Y-20184500D01*
X11541071Y-20170214D01*
X11598214Y-20170214D01*
X11626786Y-20184500D01*
X11641071Y-20213072D01*
X11641071Y-20241643D01*
X11498214Y-20270214D01*
X11755357Y-20355929D02*
X11783928Y-20370214D01*
X11841071Y-20370214D01*
X11869643Y-20355929D01*
X11883928Y-20327357D01*
X11883928Y-20313072D01*
X11869643Y-20284500D01*
X11841071Y-20270214D01*
X11798214Y-20270214D01*
X11769643Y-20255929D01*
X11755357Y-20227357D01*
X11755357Y-20213072D01*
X11769643Y-20184500D01*
X11798214Y-20170214D01*
X11841071Y-20170214D01*
X11869643Y-20184500D01*
X11983928Y-20484500D02*
X11998214Y-20470214D01*
X12026786Y-20427357D01*
X12041071Y-20398786D01*
X12055357Y-20355929D01*
X12069643Y-20284500D01*
X12069643Y-20227357D01*
X12055357Y-20155929D01*
X12041071Y-20113072D01*
X12026786Y-20084500D01*
X11998214Y-20041643D01*
X11983928Y-20027357D01*
X5337500Y-20550500D02*
X5497500Y-20710500D01*
X5497500Y-20550500D02*
X5337500Y-20710500D01*
X5417500Y-20710500D02*
X5497500Y-20630500D01*
X5417500Y-20550500D01*
X5337500Y-20630500D01*
X5417500Y-20710500D01*
X5941071Y-20766214D02*
X5769643Y-20766214D01*
X5855357Y-20766214D02*
X5855357Y-20466214D01*
X5826786Y-20509072D01*
X5798214Y-20537643D01*
X5769643Y-20551929D01*
X6069643Y-20737643D02*
X6083928Y-20751929D01*
X6069643Y-20766214D01*
X6055357Y-20751929D01*
X6069643Y-20737643D01*
X6069643Y-20766214D01*
X6341071Y-20466214D02*
X6283928Y-20466214D01*
X6255357Y-20480500D01*
X6241071Y-20494786D01*
X6212500Y-20537643D01*
X6198214Y-20594786D01*
X6198214Y-20709072D01*
X6212500Y-20737643D01*
X6226786Y-20751929D01*
X6255357Y-20766214D01*
X6312500Y-20766214D01*
X6341071Y-20751929D01*
X6355357Y-20737643D01*
X6369643Y-20709072D01*
X6369643Y-20637643D01*
X6355357Y-20609072D01*
X6341071Y-20594786D01*
X6312500Y-20580500D01*
X6255357Y-20580500D01*
X6226786Y-20594786D01*
X6212500Y-20609072D01*
X6198214Y-20637643D01*
X6555357Y-20466214D02*
X6583928Y-20466214D01*
X6612500Y-20480500D01*
X6626786Y-20494786D01*
X6641071Y-20523357D01*
X6655357Y-20580500D01*
X6655357Y-20651929D01*
X6641071Y-20709072D01*
X6626786Y-20737643D01*
X6612500Y-20751929D01*
X6583928Y-20766214D01*
X6555357Y-20766214D01*
X6526786Y-20751929D01*
X6512500Y-20737643D01*
X6498214Y-20709072D01*
X6483928Y-20651929D01*
X6483928Y-20580500D01*
X6498214Y-20523357D01*
X6512500Y-20494786D01*
X6526786Y-20480500D01*
X6555357Y-20466214D01*
X6783928Y-20766214D02*
X6783928Y-20566214D01*
X6783928Y-20594786D02*
X6798214Y-20580500D01*
X6826786Y-20566214D01*
X6869643Y-20566214D01*
X6898214Y-20580500D01*
X6912500Y-20609072D01*
X6912500Y-20766214D01*
X6912500Y-20609072D02*
X6926786Y-20580500D01*
X6955357Y-20566214D01*
X6998214Y-20566214D01*
X7026786Y-20580500D01*
X7041071Y-20609072D01*
X7041071Y-20766214D01*
X7183928Y-20766214D02*
X7183928Y-20566214D01*
X7183928Y-20594786D02*
X7198214Y-20580500D01*
X7226786Y-20566214D01*
X7269643Y-20566214D01*
X7298214Y-20580500D01*
X7312500Y-20609072D01*
X7312500Y-20766214D01*
X7312500Y-20609072D02*
X7326786Y-20580500D01*
X7355357Y-20566214D01*
X7398214Y-20566214D01*
X7426786Y-20580500D01*
X7441071Y-20609072D01*
X7441071Y-20766214D01*
X8026786Y-20451929D02*
X7769643Y-20837643D01*
X8412500Y-20466214D02*
X8441071Y-20466214D01*
X8469643Y-20480500D01*
X8483928Y-20494786D01*
X8498214Y-20523357D01*
X8512500Y-20580500D01*
X8512500Y-20651929D01*
X8498214Y-20709072D01*
X8483928Y-20737643D01*
X8469643Y-20751929D01*
X8441071Y-20766214D01*
X8412500Y-20766214D01*
X8383928Y-20751929D01*
X8369643Y-20737643D01*
X8355357Y-20709072D01*
X8341071Y-20651929D01*
X8341071Y-20580500D01*
X8355357Y-20523357D01*
X8369643Y-20494786D01*
X8383928Y-20480500D01*
X8412500Y-20466214D01*
X8641071Y-20737643D02*
X8655357Y-20751929D01*
X8641071Y-20766214D01*
X8626786Y-20751929D01*
X8641071Y-20737643D01*
X8641071Y-20766214D01*
X8841071Y-20466214D02*
X8869643Y-20466214D01*
X8898214Y-20480500D01*
X8912500Y-20494786D01*
X8926786Y-20523357D01*
X8941071Y-20580500D01*
X8941071Y-20651929D01*
X8926786Y-20709072D01*
X8912500Y-20737643D01*
X8898214Y-20751929D01*
X8869643Y-20766214D01*
X8841071Y-20766214D01*
X8812500Y-20751929D01*
X8798214Y-20737643D01*
X8783928Y-20709072D01*
X8769643Y-20651929D01*
X8769643Y-20580500D01*
X8783928Y-20523357D01*
X8798214Y-20494786D01*
X8812500Y-20480500D01*
X8841071Y-20466214D01*
X9198214Y-20466214D02*
X9141071Y-20466214D01*
X9112500Y-20480500D01*
X9098214Y-20494786D01*
X9069643Y-20537643D01*
X9055357Y-20594786D01*
X9055357Y-20709072D01*
X9069643Y-20737643D01*
X9083928Y-20751929D01*
X9112500Y-20766214D01*
X9169643Y-20766214D01*
X9198214Y-20751929D01*
X9212500Y-20737643D01*
X9226786Y-20709072D01*
X9226786Y-20637643D01*
X9212500Y-20609072D01*
X9198214Y-20594786D01*
X9169643Y-20580500D01*
X9112500Y-20580500D01*
X9083928Y-20594786D01*
X9069643Y-20609072D01*
X9055357Y-20637643D01*
X9326786Y-20466214D02*
X9512500Y-20466214D01*
X9412500Y-20580500D01*
X9455357Y-20580500D01*
X9483928Y-20594786D01*
X9498214Y-20609072D01*
X9512500Y-20637643D01*
X9512500Y-20709072D01*
X9498214Y-20737643D01*
X9483928Y-20751929D01*
X9455357Y-20766214D01*
X9369643Y-20766214D01*
X9341071Y-20751929D01*
X9326786Y-20737643D01*
X9626786Y-20466214D02*
X9626786Y-20523357D01*
X9741071Y-20466214D02*
X9741071Y-20523357D01*
X10183928Y-20880500D02*
X10169643Y-20866214D01*
X10141071Y-20823357D01*
X10126786Y-20794786D01*
X10112500Y-20751929D01*
X10098214Y-20680500D01*
X10098214Y-20623357D01*
X10112500Y-20551929D01*
X10126786Y-20509072D01*
X10141071Y-20480500D01*
X10169643Y-20437643D01*
X10183928Y-20423357D01*
X10426786Y-20566214D02*
X10426786Y-20766214D01*
X10355357Y-20451929D02*
X10283928Y-20666214D01*
X10469643Y-20666214D01*
X10812500Y-20766214D02*
X10812500Y-20466214D01*
X10941071Y-20766214D02*
X10941071Y-20609072D01*
X10926786Y-20580500D01*
X10898214Y-20566214D01*
X10855357Y-20566214D01*
X10826786Y-20580500D01*
X10812500Y-20594786D01*
X11126786Y-20766214D02*
X11098214Y-20751929D01*
X11083928Y-20737643D01*
X11069643Y-20709072D01*
X11069643Y-20623357D01*
X11083928Y-20594786D01*
X11098214Y-20580500D01*
X11126786Y-20566214D01*
X11169643Y-20566214D01*
X11198214Y-20580500D01*
X11212500Y-20594786D01*
X11226786Y-20623357D01*
X11226786Y-20709072D01*
X11212500Y-20737643D01*
X11198214Y-20751929D01*
X11169643Y-20766214D01*
X11126786Y-20766214D01*
X11398214Y-20766214D02*
X11369643Y-20751929D01*
X11355357Y-20723357D01*
X11355357Y-20466214D01*
X11626786Y-20751929D02*
X11598214Y-20766214D01*
X11541071Y-20766214D01*
X11512500Y-20751929D01*
X11498214Y-20723357D01*
X11498214Y-20609072D01*
X11512500Y-20580500D01*
X11541071Y-20566214D01*
X11598214Y-20566214D01*
X11626786Y-20580500D01*
X11641071Y-20609072D01*
X11641071Y-20637643D01*
X11498214Y-20666214D01*
X11755357Y-20751929D02*
X11783928Y-20766214D01*
X11841071Y-20766214D01*
X11869643Y-20751929D01*
X11883928Y-20723357D01*
X11883928Y-20709072D01*
X11869643Y-20680500D01*
X11841071Y-20666214D01*
X11798214Y-20666214D01*
X11769643Y-20651929D01*
X11755357Y-20623357D01*
X11755357Y-20609072D01*
X11769643Y-20580500D01*
X11798214Y-20566214D01*
X11841071Y-20566214D01*
X11869643Y-20580500D01*
X11983928Y-20880500D02*
X11998214Y-20866214D01*
X12026786Y-20823357D01*
X12041071Y-20794786D01*
X12055357Y-20751929D01*
X12069643Y-20680500D01*
X12069643Y-20623357D01*
X12055357Y-20551929D01*
X12041071Y-20509072D01*
X12026786Y-20480500D01*
X11998214Y-20437643D01*
X11983928Y-20423357D01*
X5381000Y-20910000D02*
X5381000Y-21143000D01*
X5264500Y-21026500D02*
X5497500Y-21026500D01*
X5497500Y-21026500D02*
G75*
G03X5497500Y-21026500I-116500J0D01*
G01*
X5769643Y-20890786D02*
X5783928Y-20876500D01*
X5812500Y-20862214D01*
X5883928Y-20862214D01*
X5912500Y-20876500D01*
X5926786Y-20890786D01*
X5941071Y-20919357D01*
X5941071Y-20947929D01*
X5926786Y-20990786D01*
X5755357Y-21162214D01*
X5941071Y-21162214D01*
X6069643Y-21133643D02*
X6083928Y-21147929D01*
X6069643Y-21162214D01*
X6055357Y-21147929D01*
X6069643Y-21133643D01*
X6069643Y-21162214D01*
X6183928Y-20862214D02*
X6369643Y-20862214D01*
X6269643Y-20976500D01*
X6312500Y-20976500D01*
X6341071Y-20990786D01*
X6355357Y-21005072D01*
X6369643Y-21033643D01*
X6369643Y-21105072D01*
X6355357Y-21133643D01*
X6341071Y-21147929D01*
X6312500Y-21162214D01*
X6226786Y-21162214D01*
X6198214Y-21147929D01*
X6183928Y-21133643D01*
X6469643Y-20862214D02*
X6655357Y-20862214D01*
X6555357Y-20976500D01*
X6598214Y-20976500D01*
X6626786Y-20990786D01*
X6641071Y-21005072D01*
X6655357Y-21033643D01*
X6655357Y-21105072D01*
X6641071Y-21133643D01*
X6626786Y-21147929D01*
X6598214Y-21162214D01*
X6512500Y-21162214D01*
X6483928Y-21147929D01*
X6469643Y-21133643D01*
X6783928Y-21162214D02*
X6783928Y-20962214D01*
X6783928Y-20990786D02*
X6798214Y-20976500D01*
X6826786Y-20962214D01*
X6869643Y-20962214D01*
X6898214Y-20976500D01*
X6912500Y-21005072D01*
X6912500Y-21162214D01*
X6912500Y-21005072D02*
X6926786Y-20976500D01*
X6955357Y-20962214D01*
X6998214Y-20962214D01*
X7026786Y-20976500D01*
X7041071Y-21005072D01*
X7041071Y-21162214D01*
X7183928Y-21162214D02*
X7183928Y-20962214D01*
X7183928Y-20990786D02*
X7198214Y-20976500D01*
X7226786Y-20962214D01*
X7269643Y-20962214D01*
X7298214Y-20976500D01*
X7312500Y-21005072D01*
X7312500Y-21162214D01*
X7312500Y-21005072D02*
X7326786Y-20976500D01*
X7355357Y-20962214D01*
X7398214Y-20962214D01*
X7426786Y-20976500D01*
X7441071Y-21005072D01*
X7441071Y-21162214D01*
X8026786Y-20847929D02*
X7769643Y-21233643D01*
X8412500Y-20862214D02*
X8441071Y-20862214D01*
X8469643Y-20876500D01*
X8483928Y-20890786D01*
X8498214Y-20919357D01*
X8512500Y-20976500D01*
X8512500Y-21047929D01*
X8498214Y-21105072D01*
X8483928Y-21133643D01*
X8469643Y-21147929D01*
X8441071Y-21162214D01*
X8412500Y-21162214D01*
X8383928Y-21147929D01*
X8369643Y-21133643D01*
X8355357Y-21105072D01*
X8341071Y-21047929D01*
X8341071Y-20976500D01*
X8355357Y-20919357D01*
X8369643Y-20890786D01*
X8383928Y-20876500D01*
X8412500Y-20862214D01*
X8641071Y-21133643D02*
X8655357Y-21147929D01*
X8641071Y-21162214D01*
X8626786Y-21147929D01*
X8641071Y-21133643D01*
X8641071Y-21162214D01*
X8841071Y-20862214D02*
X8869643Y-20862214D01*
X8898214Y-20876500D01*
X8912500Y-20890786D01*
X8926786Y-20919357D01*
X8941071Y-20976500D01*
X8941071Y-21047929D01*
X8926786Y-21105072D01*
X8912500Y-21133643D01*
X8898214Y-21147929D01*
X8869643Y-21162214D01*
X8841071Y-21162214D01*
X8812500Y-21147929D01*
X8798214Y-21133643D01*
X8783928Y-21105072D01*
X8769643Y-21047929D01*
X8769643Y-20976500D01*
X8783928Y-20919357D01*
X8798214Y-20890786D01*
X8812500Y-20876500D01*
X8841071Y-20862214D01*
X9083928Y-21162214D02*
X9141071Y-21162214D01*
X9169643Y-21147929D01*
X9183928Y-21133643D01*
X9212500Y-21090786D01*
X9226786Y-21033643D01*
X9226786Y-20919357D01*
X9212500Y-20890786D01*
X9198214Y-20876500D01*
X9169643Y-20862214D01*
X9112500Y-20862214D01*
X9083928Y-20876500D01*
X9069643Y-20890786D01*
X9055357Y-20919357D01*
X9055357Y-20990786D01*
X9069643Y-21019357D01*
X9083928Y-21033643D01*
X9112500Y-21047929D01*
X9169643Y-21047929D01*
X9198214Y-21033643D01*
X9212500Y-21019357D01*
X9226786Y-20990786D01*
X9341071Y-20890786D02*
X9355357Y-20876500D01*
X9383928Y-20862214D01*
X9455357Y-20862214D01*
X9483928Y-20876500D01*
X9498214Y-20890786D01*
X9512500Y-20919357D01*
X9512500Y-20947929D01*
X9498214Y-20990786D01*
X9326786Y-21162214D01*
X9512500Y-21162214D01*
X9626786Y-20862214D02*
X9626786Y-20919357D01*
X9741071Y-20862214D02*
X9741071Y-20919357D01*
X10183928Y-21276500D02*
X10169643Y-21262214D01*
X10141071Y-21219357D01*
X10126786Y-21190786D01*
X10112500Y-21147929D01*
X10098214Y-21076500D01*
X10098214Y-21019357D01*
X10112500Y-20947929D01*
X10126786Y-20905072D01*
X10141071Y-20876500D01*
X10169643Y-20833643D01*
X10183928Y-20819357D01*
X10283928Y-20890786D02*
X10298214Y-20876500D01*
X10326786Y-20862214D01*
X10398214Y-20862214D01*
X10426786Y-20876500D01*
X10441071Y-20890786D01*
X10455357Y-20919357D01*
X10455357Y-20947929D01*
X10441071Y-20990786D01*
X10269643Y-21162214D01*
X10455357Y-21162214D01*
X10812500Y-21162214D02*
X10812500Y-20862214D01*
X10941071Y-21162214D02*
X10941071Y-21005072D01*
X10926786Y-20976500D01*
X10898214Y-20962214D01*
X10855357Y-20962214D01*
X10826786Y-20976500D01*
X10812500Y-20990786D01*
X11126786Y-21162214D02*
X11098214Y-21147929D01*
X11083928Y-21133643D01*
X11069643Y-21105072D01*
X11069643Y-21019357D01*
X11083928Y-20990786D01*
X11098214Y-20976500D01*
X11126786Y-20962214D01*
X11169643Y-20962214D01*
X11198214Y-20976500D01*
X11212500Y-20990786D01*
X11226786Y-21019357D01*
X11226786Y-21105072D01*
X11212500Y-21133643D01*
X11198214Y-21147929D01*
X11169643Y-21162214D01*
X11126786Y-21162214D01*
X11398214Y-21162214D02*
X11369643Y-21147929D01*
X11355357Y-21119357D01*
X11355357Y-20862214D01*
X11626786Y-21147929D02*
X11598214Y-21162214D01*
X11541071Y-21162214D01*
X11512500Y-21147929D01*
X11498214Y-21119357D01*
X11498214Y-21005072D01*
X11512500Y-20976500D01*
X11541071Y-20962214D01*
X11598214Y-20962214D01*
X11626786Y-20976500D01*
X11641071Y-21005072D01*
X11641071Y-21033643D01*
X11498214Y-21062214D01*
X11755357Y-21147929D02*
X11783928Y-21162214D01*
X11841071Y-21162214D01*
X11869643Y-21147929D01*
X11883928Y-21119357D01*
X11883928Y-21105072D01*
X11869643Y-21076500D01*
X11841071Y-21062214D01*
X11798214Y-21062214D01*
X11769643Y-21047929D01*
X11755357Y-21019357D01*
X11755357Y-21005072D01*
X11769643Y-20976500D01*
X11798214Y-20962214D01*
X11841071Y-20962214D01*
X11869643Y-20976500D01*
X11983928Y-21276500D02*
X11998214Y-21262214D01*
X12026786Y-21219357D01*
X12041071Y-21190786D01*
X12055357Y-21147929D01*
X12069643Y-21076500D01*
X12069643Y-21019357D01*
X12055357Y-20947929D01*
X12041071Y-20905072D01*
X12026786Y-20876500D01*
X11998214Y-20833643D01*
X11983928Y-20819357D01*
X5482993Y-21457523D02*
X5482993Y-21387477D01*
X5412947Y-21387477D01*
X5412947Y-21457523D01*
X5482993Y-21457523D01*
X5497500Y-21422500D02*
G75*
G03X5497500Y-21422500I-49530J0D01*
G01*
X5841071Y-21258214D02*
X5869643Y-21258214D01*
X5898214Y-21272500D01*
X5912500Y-21286786D01*
X5926786Y-21315357D01*
X5941071Y-21372500D01*
X5941071Y-21443929D01*
X5926786Y-21501072D01*
X5912500Y-21529643D01*
X5898214Y-21543929D01*
X5869643Y-21558214D01*
X5841071Y-21558214D01*
X5812500Y-21543929D01*
X5798214Y-21529643D01*
X5783928Y-21501072D01*
X5769643Y-21443929D01*
X5769643Y-21372500D01*
X5783928Y-21315357D01*
X5798214Y-21286786D01*
X5812500Y-21272500D01*
X5841071Y-21258214D01*
X6069643Y-21529643D02*
X6083928Y-21543929D01*
X6069643Y-21558214D01*
X6055357Y-21543929D01*
X6069643Y-21529643D01*
X6069643Y-21558214D01*
X6226786Y-21558214D02*
X6283928Y-21558214D01*
X6312500Y-21543929D01*
X6326786Y-21529643D01*
X6355357Y-21486786D01*
X6369643Y-21429643D01*
X6369643Y-21315357D01*
X6355357Y-21286786D01*
X6341071Y-21272500D01*
X6312500Y-21258214D01*
X6255357Y-21258214D01*
X6226786Y-21272500D01*
X6212500Y-21286786D01*
X6198214Y-21315357D01*
X6198214Y-21386786D01*
X6212500Y-21415357D01*
X6226786Y-21429643D01*
X6255357Y-21443929D01*
X6312500Y-21443929D01*
X6341071Y-21429643D01*
X6355357Y-21415357D01*
X6369643Y-21386786D01*
X6512500Y-21558214D02*
X6569643Y-21558214D01*
X6598214Y-21543929D01*
X6612500Y-21529643D01*
X6641071Y-21486786D01*
X6655357Y-21429643D01*
X6655357Y-21315357D01*
X6641071Y-21286786D01*
X6626786Y-21272500D01*
X6598214Y-21258214D01*
X6541071Y-21258214D01*
X6512500Y-21272500D01*
X6498214Y-21286786D01*
X6483928Y-21315357D01*
X6483928Y-21386786D01*
X6498214Y-21415357D01*
X6512500Y-21429643D01*
X6541071Y-21443929D01*
X6598214Y-21443929D01*
X6626786Y-21429643D01*
X6641071Y-21415357D01*
X6655357Y-21386786D01*
X6783928Y-21558214D02*
X6783928Y-21358214D01*
X6783928Y-21386786D02*
X6798214Y-21372500D01*
X6826786Y-21358214D01*
X6869643Y-21358214D01*
X6898214Y-21372500D01*
X6912500Y-21401072D01*
X6912500Y-21558214D01*
X6912500Y-21401072D02*
X6926786Y-21372500D01*
X6955357Y-21358214D01*
X6998214Y-21358214D01*
X7026786Y-21372500D01*
X7041071Y-21401072D01*
X7041071Y-21558214D01*
X7183928Y-21558214D02*
X7183928Y-21358214D01*
X7183928Y-21386786D02*
X7198214Y-21372500D01*
X7226786Y-21358214D01*
X7269643Y-21358214D01*
X7298214Y-21372500D01*
X7312500Y-21401072D01*
X7312500Y-21558214D01*
X7312500Y-21401072D02*
X7326786Y-21372500D01*
X7355357Y-21358214D01*
X7398214Y-21358214D01*
X7426786Y-21372500D01*
X7441071Y-21401072D01*
X7441071Y-21558214D01*
X8026786Y-21243929D02*
X7769643Y-21629643D01*
X8412500Y-21258214D02*
X8441071Y-21258214D01*
X8469643Y-21272500D01*
X8483928Y-21286786D01*
X8498214Y-21315357D01*
X8512500Y-21372500D01*
X8512500Y-21443929D01*
X8498214Y-21501072D01*
X8483928Y-21529643D01*
X8469643Y-21543929D01*
X8441071Y-21558214D01*
X8412500Y-21558214D01*
X8383928Y-21543929D01*
X8369643Y-21529643D01*
X8355357Y-21501072D01*
X8341071Y-21443929D01*
X8341071Y-21372500D01*
X8355357Y-21315357D01*
X8369643Y-21286786D01*
X8383928Y-21272500D01*
X8412500Y-21258214D01*
X8641071Y-21529643D02*
X8655357Y-21543929D01*
X8641071Y-21558214D01*
X8626786Y-21543929D01*
X8641071Y-21529643D01*
X8641071Y-21558214D01*
X8841071Y-21258214D02*
X8869643Y-21258214D01*
X8898214Y-21272500D01*
X8912500Y-21286786D01*
X8926786Y-21315357D01*
X8941071Y-21372500D01*
X8941071Y-21443929D01*
X8926786Y-21501072D01*
X8912500Y-21529643D01*
X8898214Y-21543929D01*
X8869643Y-21558214D01*
X8841071Y-21558214D01*
X8812500Y-21543929D01*
X8798214Y-21529643D01*
X8783928Y-21501072D01*
X8769643Y-21443929D01*
X8769643Y-21372500D01*
X8783928Y-21315357D01*
X8798214Y-21286786D01*
X8812500Y-21272500D01*
X8841071Y-21258214D01*
X9041071Y-21258214D02*
X9226786Y-21258214D01*
X9126786Y-21372500D01*
X9169643Y-21372500D01*
X9198214Y-21386786D01*
X9212500Y-21401072D01*
X9226786Y-21429643D01*
X9226786Y-21501072D01*
X9212500Y-21529643D01*
X9198214Y-21543929D01*
X9169643Y-21558214D01*
X9083928Y-21558214D01*
X9055357Y-21543929D01*
X9041071Y-21529643D01*
X9369643Y-21558214D02*
X9426786Y-21558214D01*
X9455357Y-21543929D01*
X9469643Y-21529643D01*
X9498214Y-21486786D01*
X9512500Y-21429643D01*
X9512500Y-21315357D01*
X9498214Y-21286786D01*
X9483928Y-21272500D01*
X9455357Y-21258214D01*
X9398214Y-21258214D01*
X9369643Y-21272500D01*
X9355357Y-21286786D01*
X9341071Y-21315357D01*
X9341071Y-21386786D01*
X9355357Y-21415357D01*
X9369643Y-21429643D01*
X9398214Y-21443929D01*
X9455357Y-21443929D01*
X9483928Y-21429643D01*
X9498214Y-21415357D01*
X9512500Y-21386786D01*
X9626786Y-21258214D02*
X9626786Y-21315357D01*
X9741071Y-21258214D02*
X9741071Y-21315357D01*
X10183928Y-21672500D02*
X10169643Y-21658214D01*
X10141071Y-21615357D01*
X10126786Y-21586786D01*
X10112500Y-21543929D01*
X10098214Y-21472500D01*
X10098214Y-21415357D01*
X10112500Y-21343929D01*
X10126786Y-21301072D01*
X10141071Y-21272500D01*
X10169643Y-21229643D01*
X10183928Y-21215357D01*
X10269643Y-21258214D02*
X10455357Y-21258214D01*
X10355357Y-21372500D01*
X10398214Y-21372500D01*
X10426786Y-21386786D01*
X10441071Y-21401072D01*
X10455357Y-21429643D01*
X10455357Y-21501072D01*
X10441071Y-21529643D01*
X10426786Y-21543929D01*
X10398214Y-21558214D01*
X10312500Y-21558214D01*
X10283928Y-21543929D01*
X10269643Y-21529643D01*
X10812500Y-21558214D02*
X10812500Y-21258214D01*
X10941071Y-21558214D02*
X10941071Y-21401072D01*
X10926786Y-21372500D01*
X10898214Y-21358214D01*
X10855357Y-21358214D01*
X10826786Y-21372500D01*
X10812500Y-21386786D01*
X11126786Y-21558214D02*
X11098214Y-21543929D01*
X11083928Y-21529643D01*
X11069643Y-21501072D01*
X11069643Y-21415357D01*
X11083928Y-21386786D01*
X11098214Y-21372500D01*
X11126786Y-21358214D01*
X11169643Y-21358214D01*
X11198214Y-21372500D01*
X11212500Y-21386786D01*
X11226786Y-21415357D01*
X11226786Y-21501072D01*
X11212500Y-21529643D01*
X11198214Y-21543929D01*
X11169643Y-21558214D01*
X11126786Y-21558214D01*
X11398214Y-21558214D02*
X11369643Y-21543929D01*
X11355357Y-21515357D01*
X11355357Y-21258214D01*
X11626786Y-21543929D02*
X11598214Y-21558214D01*
X11541071Y-21558214D01*
X11512500Y-21543929D01*
X11498214Y-21515357D01*
X11498214Y-21401072D01*
X11512500Y-21372500D01*
X11541071Y-21358214D01*
X11598214Y-21358214D01*
X11626786Y-21372500D01*
X11641071Y-21401072D01*
X11641071Y-21429643D01*
X11498214Y-21458214D01*
X11755357Y-21543929D02*
X11783928Y-21558214D01*
X11841071Y-21558214D01*
X11869643Y-21543929D01*
X11883928Y-21515357D01*
X11883928Y-21501072D01*
X11869643Y-21472500D01*
X11841071Y-21458214D01*
X11798214Y-21458214D01*
X11769643Y-21443929D01*
X11755357Y-21415357D01*
X11755357Y-21401072D01*
X11769643Y-21372500D01*
X11798214Y-21358214D01*
X11841071Y-21358214D01*
X11869643Y-21372500D01*
X11983928Y-21672500D02*
X11998214Y-21658214D01*
X12026786Y-21615357D01*
X12041071Y-21586786D01*
X12055357Y-21543929D01*
X12069643Y-21472500D01*
X12069643Y-21415357D01*
X12055357Y-21343929D01*
X12041071Y-21301072D01*
X12026786Y-21272500D01*
X11998214Y-21229643D01*
X11983928Y-21215357D01*
X12526786Y-21672500D02*
X12512500Y-21658214D01*
X12483928Y-21615357D01*
X12469643Y-21586786D01*
X12455357Y-21543929D01*
X12441071Y-21472500D01*
X12441071Y-21415357D01*
X12455357Y-21343929D01*
X12469643Y-21301072D01*
X12483928Y-21272500D01*
X12512500Y-21229643D01*
X12526786Y-21215357D01*
X12641071Y-21358214D02*
X12641071Y-21558214D01*
X12641071Y-21386786D02*
X12655357Y-21372500D01*
X12683928Y-21358214D01*
X12726786Y-21358214D01*
X12755357Y-21372500D01*
X12769643Y-21401072D01*
X12769643Y-21558214D01*
X12955357Y-21558214D02*
X12926786Y-21543929D01*
X12912500Y-21529643D01*
X12898214Y-21501072D01*
X12898214Y-21415357D01*
X12912500Y-21386786D01*
X12926786Y-21372500D01*
X12955357Y-21358214D01*
X12998214Y-21358214D01*
X13026786Y-21372500D01*
X13041071Y-21386786D01*
X13055357Y-21415357D01*
X13055357Y-21501072D01*
X13041071Y-21529643D01*
X13026786Y-21543929D01*
X12998214Y-21558214D01*
X12955357Y-21558214D01*
X13141071Y-21358214D02*
X13255357Y-21358214D01*
X13183928Y-21258214D02*
X13183928Y-21515357D01*
X13198214Y-21543929D01*
X13226786Y-21558214D01*
X13255357Y-21558214D01*
X13583928Y-21358214D02*
X13583928Y-21658214D01*
X13583928Y-21372500D02*
X13612500Y-21358214D01*
X13669643Y-21358214D01*
X13698214Y-21372500D01*
X13712500Y-21386786D01*
X13726786Y-21415357D01*
X13726786Y-21501072D01*
X13712500Y-21529643D01*
X13698214Y-21543929D01*
X13669643Y-21558214D01*
X13612500Y-21558214D01*
X13583928Y-21543929D01*
X13898214Y-21558214D02*
X13869643Y-21543929D01*
X13855357Y-21515357D01*
X13855357Y-21258214D01*
X14141071Y-21558214D02*
X14141071Y-21401072D01*
X14126786Y-21372500D01*
X14098214Y-21358214D01*
X14041071Y-21358214D01*
X14012500Y-21372500D01*
X14141071Y-21543929D02*
X14112500Y-21558214D01*
X14041071Y-21558214D01*
X14012500Y-21543929D01*
X13998214Y-21515357D01*
X13998214Y-21486786D01*
X14012500Y-21458214D01*
X14041071Y-21443929D01*
X14112500Y-21443929D01*
X14141071Y-21429643D01*
X14241071Y-21358214D02*
X14355357Y-21358214D01*
X14283928Y-21258214D02*
X14283928Y-21515357D01*
X14298214Y-21543929D01*
X14326786Y-21558214D01*
X14355357Y-21558214D01*
X14569643Y-21543929D02*
X14541071Y-21558214D01*
X14483928Y-21558214D01*
X14455357Y-21543929D01*
X14441071Y-21515357D01*
X14441071Y-21401072D01*
X14455357Y-21372500D01*
X14483928Y-21358214D01*
X14541071Y-21358214D01*
X14569643Y-21372500D01*
X14583928Y-21401072D01*
X14583928Y-21429643D01*
X14441071Y-21458214D01*
X14841071Y-21558214D02*
X14841071Y-21258214D01*
X14841071Y-21543929D02*
X14812500Y-21558214D01*
X14755357Y-21558214D01*
X14726786Y-21543929D01*
X14712500Y-21529643D01*
X14698214Y-21501072D01*
X14698214Y-21415357D01*
X14712500Y-21386786D01*
X14726786Y-21372500D01*
X14755357Y-21358214D01*
X14812500Y-21358214D01*
X14841071Y-21372500D01*
X14955357Y-21672500D02*
X14969643Y-21658214D01*
X14998214Y-21615357D01*
X15012500Y-21586786D01*
X15026786Y-21543929D01*
X15041071Y-21472500D01*
X15041071Y-21415357D01*
X15026786Y-21343929D01*
X15012500Y-21301072D01*
X14998214Y-21272500D01*
X14969643Y-21229643D01*
X14955357Y-21215357D01*
X5417500Y-21898500D02*
X5497500Y-21818500D01*
X5417500Y-21738500D01*
X5337500Y-21818500D01*
X5417500Y-21898500D01*
X5497500Y-21818500D02*
G75*
G03X5497500Y-21818500I-80000J0D01*
G01*
X5941071Y-21954214D02*
X5769643Y-21954214D01*
X5855357Y-21954214D02*
X5855357Y-21654214D01*
X5826786Y-21697072D01*
X5798214Y-21725643D01*
X5769643Y-21739929D01*
X6069643Y-21925643D02*
X6083928Y-21939929D01*
X6069643Y-21954214D01*
X6055357Y-21939929D01*
X6069643Y-21925643D01*
X6069643Y-21954214D01*
X6341071Y-21654214D02*
X6283928Y-21654214D01*
X6255357Y-21668500D01*
X6241071Y-21682786D01*
X6212500Y-21725643D01*
X6198214Y-21782786D01*
X6198214Y-21897072D01*
X6212500Y-21925643D01*
X6226786Y-21939929D01*
X6255357Y-21954214D01*
X6312500Y-21954214D01*
X6341071Y-21939929D01*
X6355357Y-21925643D01*
X6369643Y-21897072D01*
X6369643Y-21825643D01*
X6355357Y-21797072D01*
X6341071Y-21782786D01*
X6312500Y-21768500D01*
X6255357Y-21768500D01*
X6226786Y-21782786D01*
X6212500Y-21797072D01*
X6198214Y-21825643D01*
X6555357Y-21654214D02*
X6583928Y-21654214D01*
X6612500Y-21668500D01*
X6626786Y-21682786D01*
X6641071Y-21711357D01*
X6655357Y-21768500D01*
X6655357Y-21839929D01*
X6641071Y-21897072D01*
X6626786Y-21925643D01*
X6612500Y-21939929D01*
X6583928Y-21954214D01*
X6555357Y-21954214D01*
X6526786Y-21939929D01*
X6512500Y-21925643D01*
X6498214Y-21897072D01*
X6483928Y-21839929D01*
X6483928Y-21768500D01*
X6498214Y-21711357D01*
X6512500Y-21682786D01*
X6526786Y-21668500D01*
X6555357Y-21654214D01*
X6783928Y-21954214D02*
X6783928Y-21754214D01*
X6783928Y-21782786D02*
X6798214Y-21768500D01*
X6826786Y-21754214D01*
X6869643Y-21754214D01*
X6898214Y-21768500D01*
X6912500Y-21797072D01*
X6912500Y-21954214D01*
X6912500Y-21797072D02*
X6926786Y-21768500D01*
X6955357Y-21754214D01*
X6998214Y-21754214D01*
X7026786Y-21768500D01*
X7041071Y-21797072D01*
X7041071Y-21954214D01*
X7183928Y-21954214D02*
X7183928Y-21754214D01*
X7183928Y-21782786D02*
X7198214Y-21768500D01*
X7226786Y-21754214D01*
X7269643Y-21754214D01*
X7298214Y-21768500D01*
X7312500Y-21797072D01*
X7312500Y-21954214D01*
X7312500Y-21797072D02*
X7326786Y-21768500D01*
X7355357Y-21754214D01*
X7398214Y-21754214D01*
X7426786Y-21768500D01*
X7441071Y-21797072D01*
X7441071Y-21954214D01*
X8026786Y-21639929D02*
X7769643Y-22025643D01*
X8412500Y-21654214D02*
X8441071Y-21654214D01*
X8469643Y-21668500D01*
X8483928Y-21682786D01*
X8498214Y-21711357D01*
X8512500Y-21768500D01*
X8512500Y-21839929D01*
X8498214Y-21897072D01*
X8483928Y-21925643D01*
X8469643Y-21939929D01*
X8441071Y-21954214D01*
X8412500Y-21954214D01*
X8383928Y-21939929D01*
X8369643Y-21925643D01*
X8355357Y-21897072D01*
X8341071Y-21839929D01*
X8341071Y-21768500D01*
X8355357Y-21711357D01*
X8369643Y-21682786D01*
X8383928Y-21668500D01*
X8412500Y-21654214D01*
X8641071Y-21925643D02*
X8655357Y-21939929D01*
X8641071Y-21954214D01*
X8626786Y-21939929D01*
X8641071Y-21925643D01*
X8641071Y-21954214D01*
X8841071Y-21654214D02*
X8869643Y-21654214D01*
X8898214Y-21668500D01*
X8912500Y-21682786D01*
X8926786Y-21711357D01*
X8941071Y-21768500D01*
X8941071Y-21839929D01*
X8926786Y-21897072D01*
X8912500Y-21925643D01*
X8898214Y-21939929D01*
X8869643Y-21954214D01*
X8841071Y-21954214D01*
X8812500Y-21939929D01*
X8798214Y-21925643D01*
X8783928Y-21897072D01*
X8769643Y-21839929D01*
X8769643Y-21768500D01*
X8783928Y-21711357D01*
X8798214Y-21682786D01*
X8812500Y-21668500D01*
X8841071Y-21654214D01*
X9198214Y-21654214D02*
X9141071Y-21654214D01*
X9112500Y-21668500D01*
X9098214Y-21682786D01*
X9069643Y-21725643D01*
X9055357Y-21782786D01*
X9055357Y-21897072D01*
X9069643Y-21925643D01*
X9083928Y-21939929D01*
X9112500Y-21954214D01*
X9169643Y-21954214D01*
X9198214Y-21939929D01*
X9212500Y-21925643D01*
X9226786Y-21897072D01*
X9226786Y-21825643D01*
X9212500Y-21797072D01*
X9198214Y-21782786D01*
X9169643Y-21768500D01*
X9112500Y-21768500D01*
X9083928Y-21782786D01*
X9069643Y-21797072D01*
X9055357Y-21825643D01*
X9326786Y-21654214D02*
X9512500Y-21654214D01*
X9412500Y-21768500D01*
X9455357Y-21768500D01*
X9483928Y-21782786D01*
X9498214Y-21797072D01*
X9512500Y-21825643D01*
X9512500Y-21897072D01*
X9498214Y-21925643D01*
X9483928Y-21939929D01*
X9455357Y-21954214D01*
X9369643Y-21954214D01*
X9341071Y-21939929D01*
X9326786Y-21925643D01*
X9626786Y-21654214D02*
X9626786Y-21711357D01*
X9741071Y-21654214D02*
X9741071Y-21711357D01*
X10183928Y-22068500D02*
X10169643Y-22054214D01*
X10141071Y-22011357D01*
X10126786Y-21982786D01*
X10112500Y-21939929D01*
X10098214Y-21868500D01*
X10098214Y-21811357D01*
X10112500Y-21739929D01*
X10126786Y-21697072D01*
X10141071Y-21668500D01*
X10169643Y-21625643D01*
X10183928Y-21611357D01*
X10426786Y-21754214D02*
X10426786Y-21954214D01*
X10355357Y-21639929D02*
X10283928Y-21854214D01*
X10469643Y-21854214D01*
X10812500Y-21954214D02*
X10812500Y-21654214D01*
X10941071Y-21954214D02*
X10941071Y-21797072D01*
X10926786Y-21768500D01*
X10898214Y-21754214D01*
X10855357Y-21754214D01*
X10826786Y-21768500D01*
X10812500Y-21782786D01*
X11126786Y-21954214D02*
X11098214Y-21939929D01*
X11083928Y-21925643D01*
X11069643Y-21897072D01*
X11069643Y-21811357D01*
X11083928Y-21782786D01*
X11098214Y-21768500D01*
X11126786Y-21754214D01*
X11169643Y-21754214D01*
X11198214Y-21768500D01*
X11212500Y-21782786D01*
X11226786Y-21811357D01*
X11226786Y-21897072D01*
X11212500Y-21925643D01*
X11198214Y-21939929D01*
X11169643Y-21954214D01*
X11126786Y-21954214D01*
X11398214Y-21954214D02*
X11369643Y-21939929D01*
X11355357Y-21911357D01*
X11355357Y-21654214D01*
X11626786Y-21939929D02*
X11598214Y-21954214D01*
X11541071Y-21954214D01*
X11512500Y-21939929D01*
X11498214Y-21911357D01*
X11498214Y-21797072D01*
X11512500Y-21768500D01*
X11541071Y-21754214D01*
X11598214Y-21754214D01*
X11626786Y-21768500D01*
X11641071Y-21797072D01*
X11641071Y-21825643D01*
X11498214Y-21854214D01*
X11755357Y-21939929D02*
X11783928Y-21954214D01*
X11841071Y-21954214D01*
X11869643Y-21939929D01*
X11883928Y-21911357D01*
X11883928Y-21897072D01*
X11869643Y-21868500D01*
X11841071Y-21854214D01*
X11798214Y-21854214D01*
X11769643Y-21839929D01*
X11755357Y-21811357D01*
X11755357Y-21797072D01*
X11769643Y-21768500D01*
X11798214Y-21754214D01*
X11841071Y-21754214D01*
X11869643Y-21768500D01*
X11983928Y-22068500D02*
X11998214Y-22054214D01*
X12026786Y-22011357D01*
X12041071Y-21982786D01*
X12055357Y-21939929D01*
X12069643Y-21868500D01*
X12069643Y-21811357D01*
X12055357Y-21739929D01*
X12041071Y-21697072D01*
X12026786Y-21668500D01*
X11998214Y-21625643D01*
X11983928Y-21611357D01*
X12526786Y-22068500D02*
X12512500Y-22054214D01*
X12483928Y-22011357D01*
X12469643Y-21982786D01*
X12455357Y-21939929D01*
X12441071Y-21868500D01*
X12441071Y-21811357D01*
X12455357Y-21739929D01*
X12469643Y-21697072D01*
X12483928Y-21668500D01*
X12512500Y-21625643D01*
X12526786Y-21611357D01*
X12641071Y-21754214D02*
X12641071Y-21954214D01*
X12641071Y-21782786D02*
X12655357Y-21768500D01*
X12683928Y-21754214D01*
X12726786Y-21754214D01*
X12755357Y-21768500D01*
X12769643Y-21797072D01*
X12769643Y-21954214D01*
X12955357Y-21954214D02*
X12926786Y-21939929D01*
X12912500Y-21925643D01*
X12898214Y-21897072D01*
X12898214Y-21811357D01*
X12912500Y-21782786D01*
X12926786Y-21768500D01*
X12955357Y-21754214D01*
X12998214Y-21754214D01*
X13026786Y-21768500D01*
X13041071Y-21782786D01*
X13055357Y-21811357D01*
X13055357Y-21897072D01*
X13041071Y-21925643D01*
X13026786Y-21939929D01*
X12998214Y-21954214D01*
X12955357Y-21954214D01*
X13141071Y-21754214D02*
X13255357Y-21754214D01*
X13183928Y-21654214D02*
X13183928Y-21911357D01*
X13198214Y-21939929D01*
X13226786Y-21954214D01*
X13255357Y-21954214D01*
X13583928Y-21754214D02*
X13583928Y-22054214D01*
X13583928Y-21768500D02*
X13612500Y-21754214D01*
X13669643Y-21754214D01*
X13698214Y-21768500D01*
X13712500Y-21782786D01*
X13726786Y-21811357D01*
X13726786Y-21897072D01*
X13712500Y-21925643D01*
X13698214Y-21939929D01*
X13669643Y-21954214D01*
X13612500Y-21954214D01*
X13583928Y-21939929D01*
X13898214Y-21954214D02*
X13869643Y-21939929D01*
X13855357Y-21911357D01*
X13855357Y-21654214D01*
X14141071Y-21954214D02*
X14141071Y-21797072D01*
X14126786Y-21768500D01*
X14098214Y-21754214D01*
X14041071Y-21754214D01*
X14012500Y-21768500D01*
X14141071Y-21939929D02*
X14112500Y-21954214D01*
X14041071Y-21954214D01*
X14012500Y-21939929D01*
X13998214Y-21911357D01*
X13998214Y-21882786D01*
X14012500Y-21854214D01*
X14041071Y-21839929D01*
X14112500Y-21839929D01*
X14141071Y-21825643D01*
X14241071Y-21754214D02*
X14355357Y-21754214D01*
X14283928Y-21654214D02*
X14283928Y-21911357D01*
X14298214Y-21939929D01*
X14326786Y-21954214D01*
X14355357Y-21954214D01*
X14569643Y-21939929D02*
X14541071Y-21954214D01*
X14483928Y-21954214D01*
X14455357Y-21939929D01*
X14441071Y-21911357D01*
X14441071Y-21797072D01*
X14455357Y-21768500D01*
X14483928Y-21754214D01*
X14541071Y-21754214D01*
X14569643Y-21768500D01*
X14583928Y-21797072D01*
X14583928Y-21825643D01*
X14441071Y-21854214D01*
X14841071Y-21954214D02*
X14841071Y-21654214D01*
X14841071Y-21939929D02*
X14812500Y-21954214D01*
X14755357Y-21954214D01*
X14726786Y-21939929D01*
X14712500Y-21925643D01*
X14698214Y-21897072D01*
X14698214Y-21811357D01*
X14712500Y-21782786D01*
X14726786Y-21768500D01*
X14755357Y-21754214D01*
X14812500Y-21754214D01*
X14841071Y-21768500D01*
X14955357Y-22068500D02*
X14969643Y-22054214D01*
X14998214Y-22011357D01*
X15012500Y-21982786D01*
X15026786Y-21939929D01*
X15041071Y-21868500D01*
X15041071Y-21811357D01*
X15026786Y-21739929D01*
X15012500Y-21697072D01*
X14998214Y-21668500D01*
X14969643Y-21625643D01*
X14955357Y-21611357D01*
X5382500Y-22099500D02*
X5382500Y-22329500D01*
X5267500Y-22214500D02*
X5497500Y-22214500D01*
X5463818Y-22295818D02*
X5463818Y-22133182D01*
X5301182Y-22133182D01*
X5301182Y-22295818D01*
X5463818Y-22295818D01*
X5769643Y-22078786D02*
X5783928Y-22064500D01*
X5812500Y-22050214D01*
X5883928Y-22050214D01*
X5912500Y-22064500D01*
X5926786Y-22078786D01*
X5941071Y-22107357D01*
X5941071Y-22135929D01*
X5926786Y-22178786D01*
X5755357Y-22350214D01*
X5941071Y-22350214D01*
X6069643Y-22321643D02*
X6083928Y-22335929D01*
X6069643Y-22350214D01*
X6055357Y-22335929D01*
X6069643Y-22321643D01*
X6069643Y-22350214D01*
X6183928Y-22050214D02*
X6369643Y-22050214D01*
X6269643Y-22164500D01*
X6312500Y-22164500D01*
X6341071Y-22178786D01*
X6355357Y-22193072D01*
X6369643Y-22221643D01*
X6369643Y-22293072D01*
X6355357Y-22321643D01*
X6341071Y-22335929D01*
X6312500Y-22350214D01*
X6226786Y-22350214D01*
X6198214Y-22335929D01*
X6183928Y-22321643D01*
X6555357Y-22050214D02*
X6583928Y-22050214D01*
X6612500Y-22064500D01*
X6626786Y-22078786D01*
X6641071Y-22107357D01*
X6655357Y-22164500D01*
X6655357Y-22235929D01*
X6641071Y-22293072D01*
X6626786Y-22321643D01*
X6612500Y-22335929D01*
X6583928Y-22350214D01*
X6555357Y-22350214D01*
X6526786Y-22335929D01*
X6512500Y-22321643D01*
X6498214Y-22293072D01*
X6483928Y-22235929D01*
X6483928Y-22164500D01*
X6498214Y-22107357D01*
X6512500Y-22078786D01*
X6526786Y-22064500D01*
X6555357Y-22050214D01*
X6783928Y-22350214D02*
X6783928Y-22150214D01*
X6783928Y-22178786D02*
X6798214Y-22164500D01*
X6826786Y-22150214D01*
X6869643Y-22150214D01*
X6898214Y-22164500D01*
X6912500Y-22193072D01*
X6912500Y-22350214D01*
X6912500Y-22193072D02*
X6926786Y-22164500D01*
X6955357Y-22150214D01*
X6998214Y-22150214D01*
X7026786Y-22164500D01*
X7041071Y-22193072D01*
X7041071Y-22350214D01*
X7183928Y-22350214D02*
X7183928Y-22150214D01*
X7183928Y-22178786D02*
X7198214Y-22164500D01*
X7226786Y-22150214D01*
X7269643Y-22150214D01*
X7298214Y-22164500D01*
X7312500Y-22193072D01*
X7312500Y-22350214D01*
X7312500Y-22193072D02*
X7326786Y-22164500D01*
X7355357Y-22150214D01*
X7398214Y-22150214D01*
X7426786Y-22164500D01*
X7441071Y-22193072D01*
X7441071Y-22350214D01*
X8026786Y-22035929D02*
X7769643Y-22421643D01*
X8412500Y-22050214D02*
X8441071Y-22050214D01*
X8469643Y-22064500D01*
X8483928Y-22078786D01*
X8498214Y-22107357D01*
X8512500Y-22164500D01*
X8512500Y-22235929D01*
X8498214Y-22293072D01*
X8483928Y-22321643D01*
X8469643Y-22335929D01*
X8441071Y-22350214D01*
X8412500Y-22350214D01*
X8383928Y-22335929D01*
X8369643Y-22321643D01*
X8355357Y-22293072D01*
X8341071Y-22235929D01*
X8341071Y-22164500D01*
X8355357Y-22107357D01*
X8369643Y-22078786D01*
X8383928Y-22064500D01*
X8412500Y-22050214D01*
X8641071Y-22321643D02*
X8655357Y-22335929D01*
X8641071Y-22350214D01*
X8626786Y-22335929D01*
X8641071Y-22321643D01*
X8641071Y-22350214D01*
X8841071Y-22050214D02*
X8869643Y-22050214D01*
X8898214Y-22064500D01*
X8912500Y-22078786D01*
X8926786Y-22107357D01*
X8941071Y-22164500D01*
X8941071Y-22235929D01*
X8926786Y-22293072D01*
X8912500Y-22321643D01*
X8898214Y-22335929D01*
X8869643Y-22350214D01*
X8841071Y-22350214D01*
X8812500Y-22335929D01*
X8798214Y-22321643D01*
X8783928Y-22293072D01*
X8769643Y-22235929D01*
X8769643Y-22164500D01*
X8783928Y-22107357D01*
X8798214Y-22078786D01*
X8812500Y-22064500D01*
X8841071Y-22050214D01*
X9083928Y-22350214D02*
X9141071Y-22350214D01*
X9169643Y-22335929D01*
X9183928Y-22321643D01*
X9212500Y-22278786D01*
X9226786Y-22221643D01*
X9226786Y-22107357D01*
X9212500Y-22078786D01*
X9198214Y-22064500D01*
X9169643Y-22050214D01*
X9112500Y-22050214D01*
X9083928Y-22064500D01*
X9069643Y-22078786D01*
X9055357Y-22107357D01*
X9055357Y-22178786D01*
X9069643Y-22207357D01*
X9083928Y-22221643D01*
X9112500Y-22235929D01*
X9169643Y-22235929D01*
X9198214Y-22221643D01*
X9212500Y-22207357D01*
X9226786Y-22178786D01*
X9512500Y-22350214D02*
X9341071Y-22350214D01*
X9426786Y-22350214D02*
X9426786Y-22050214D01*
X9398214Y-22093072D01*
X9369643Y-22121643D01*
X9341071Y-22135929D01*
X9626786Y-22050214D02*
X9626786Y-22107357D01*
X9741071Y-22050214D02*
X9741071Y-22107357D01*
X10183928Y-22464500D02*
X10169643Y-22450214D01*
X10141071Y-22407357D01*
X10126786Y-22378786D01*
X10112500Y-22335929D01*
X10098214Y-22264500D01*
X10098214Y-22207357D01*
X10112500Y-22135929D01*
X10126786Y-22093072D01*
X10141071Y-22064500D01*
X10169643Y-22021643D01*
X10183928Y-22007357D01*
X10426786Y-22150214D02*
X10426786Y-22350214D01*
X10355357Y-22035929D02*
X10283928Y-22250214D01*
X10469643Y-22250214D01*
X10812500Y-22350214D02*
X10812500Y-22050214D01*
X10941071Y-22350214D02*
X10941071Y-22193072D01*
X10926786Y-22164500D01*
X10898214Y-22150214D01*
X10855357Y-22150214D01*
X10826786Y-22164500D01*
X10812500Y-22178786D01*
X11126786Y-22350214D02*
X11098214Y-22335929D01*
X11083928Y-22321643D01*
X11069643Y-22293072D01*
X11069643Y-22207357D01*
X11083928Y-22178786D01*
X11098214Y-22164500D01*
X11126786Y-22150214D01*
X11169643Y-22150214D01*
X11198214Y-22164500D01*
X11212500Y-22178786D01*
X11226786Y-22207357D01*
X11226786Y-22293072D01*
X11212500Y-22321643D01*
X11198214Y-22335929D01*
X11169643Y-22350214D01*
X11126786Y-22350214D01*
X11398214Y-22350214D02*
X11369643Y-22335929D01*
X11355357Y-22307357D01*
X11355357Y-22050214D01*
X11626786Y-22335929D02*
X11598214Y-22350214D01*
X11541071Y-22350214D01*
X11512500Y-22335929D01*
X11498214Y-22307357D01*
X11498214Y-22193072D01*
X11512500Y-22164500D01*
X11541071Y-22150214D01*
X11598214Y-22150214D01*
X11626786Y-22164500D01*
X11641071Y-22193072D01*
X11641071Y-22221643D01*
X11498214Y-22250214D01*
X11755357Y-22335929D02*
X11783928Y-22350214D01*
X11841071Y-22350214D01*
X11869643Y-22335929D01*
X11883928Y-22307357D01*
X11883928Y-22293072D01*
X11869643Y-22264500D01*
X11841071Y-22250214D01*
X11798214Y-22250214D01*
X11769643Y-22235929D01*
X11755357Y-22207357D01*
X11755357Y-22193072D01*
X11769643Y-22164500D01*
X11798214Y-22150214D01*
X11841071Y-22150214D01*
X11869643Y-22164500D01*
X11983928Y-22464500D02*
X11998214Y-22450214D01*
X12026786Y-22407357D01*
X12041071Y-22378786D01*
X12055357Y-22335929D01*
X12069643Y-22264500D01*
X12069643Y-22207357D01*
X12055357Y-22135929D01*
X12041071Y-22093072D01*
X12026786Y-22064500D01*
X11998214Y-22021643D01*
X11983928Y-22007357D01*
X12526786Y-22464500D02*
X12512500Y-22450214D01*
X12483928Y-22407357D01*
X12469643Y-22378786D01*
X12455357Y-22335929D01*
X12441071Y-22264500D01*
X12441071Y-22207357D01*
X12455357Y-22135929D01*
X12469643Y-22093072D01*
X12483928Y-22064500D01*
X12512500Y-22021643D01*
X12526786Y-22007357D01*
X12641071Y-22150214D02*
X12641071Y-22350214D01*
X12641071Y-22178786D02*
X12655357Y-22164500D01*
X12683928Y-22150214D01*
X12726786Y-22150214D01*
X12755357Y-22164500D01*
X12769643Y-22193072D01*
X12769643Y-22350214D01*
X12955357Y-22350214D02*
X12926786Y-22335929D01*
X12912500Y-22321643D01*
X12898214Y-22293072D01*
X12898214Y-22207357D01*
X12912500Y-22178786D01*
X12926786Y-22164500D01*
X12955357Y-22150214D01*
X12998214Y-22150214D01*
X13026786Y-22164500D01*
X13041071Y-22178786D01*
X13055357Y-22207357D01*
X13055357Y-22293072D01*
X13041071Y-22321643D01*
X13026786Y-22335929D01*
X12998214Y-22350214D01*
X12955357Y-22350214D01*
X13141071Y-22150214D02*
X13255357Y-22150214D01*
X13183928Y-22050214D02*
X13183928Y-22307357D01*
X13198214Y-22335929D01*
X13226786Y-22350214D01*
X13255357Y-22350214D01*
X13583928Y-22150214D02*
X13583928Y-22450214D01*
X13583928Y-22164500D02*
X13612500Y-22150214D01*
X13669643Y-22150214D01*
X13698214Y-22164500D01*
X13712500Y-22178786D01*
X13726786Y-22207357D01*
X13726786Y-22293072D01*
X13712500Y-22321643D01*
X13698214Y-22335929D01*
X13669643Y-22350214D01*
X13612500Y-22350214D01*
X13583928Y-22335929D01*
X13898214Y-22350214D02*
X13869643Y-22335929D01*
X13855357Y-22307357D01*
X13855357Y-22050214D01*
X14141071Y-22350214D02*
X14141071Y-22193072D01*
X14126786Y-22164500D01*
X14098214Y-22150214D01*
X14041071Y-22150214D01*
X14012500Y-22164500D01*
X14141071Y-22335929D02*
X14112500Y-22350214D01*
X14041071Y-22350214D01*
X14012500Y-22335929D01*
X13998214Y-22307357D01*
X13998214Y-22278786D01*
X14012500Y-22250214D01*
X14041071Y-22235929D01*
X14112500Y-22235929D01*
X14141071Y-22221643D01*
X14241071Y-22150214D02*
X14355357Y-22150214D01*
X14283928Y-22050214D02*
X14283928Y-22307357D01*
X14298214Y-22335929D01*
X14326786Y-22350214D01*
X14355357Y-22350214D01*
X14569643Y-22335929D02*
X14541071Y-22350214D01*
X14483928Y-22350214D01*
X14455357Y-22335929D01*
X14441071Y-22307357D01*
X14441071Y-22193072D01*
X14455357Y-22164500D01*
X14483928Y-22150214D01*
X14541071Y-22150214D01*
X14569643Y-22164500D01*
X14583928Y-22193072D01*
X14583928Y-22221643D01*
X14441071Y-22250214D01*
X14841071Y-22350214D02*
X14841071Y-22050214D01*
X14841071Y-22335929D02*
X14812500Y-22350214D01*
X14755357Y-22350214D01*
X14726786Y-22335929D01*
X14712500Y-22321643D01*
X14698214Y-22293072D01*
X14698214Y-22207357D01*
X14712500Y-22178786D01*
X14726786Y-22164500D01*
X14755357Y-22150214D01*
X14812500Y-22150214D01*
X14841071Y-22164500D01*
X14955357Y-22464500D02*
X14969643Y-22450214D01*
X14998214Y-22407357D01*
X15012500Y-22378786D01*
X15026786Y-22335929D01*
X15041071Y-22264500D01*
X15041071Y-22207357D01*
X15026786Y-22135929D01*
X15012500Y-22093072D01*
X14998214Y-22064500D01*
X14969643Y-22021643D01*
X14955357Y-22007357D01*
X5378750Y-22491750D02*
X5378750Y-22729250D01*
X5260000Y-22610500D02*
X5497500Y-22610500D01*
X5378750Y-22729250D02*
X5497500Y-22610500D01*
X5378750Y-22491750D01*
X5260000Y-22610500D01*
X5378750Y-22729250D01*
X5769643Y-22474786D02*
X5783928Y-22460500D01*
X5812500Y-22446214D01*
X5883928Y-22446214D01*
X5912500Y-22460500D01*
X5926786Y-22474786D01*
X5941071Y-22503357D01*
X5941071Y-22531929D01*
X5926786Y-22574786D01*
X5755357Y-22746214D01*
X5941071Y-22746214D01*
X6069643Y-22717643D02*
X6083928Y-22731929D01*
X6069643Y-22746214D01*
X6055357Y-22731929D01*
X6069643Y-22717643D01*
X6069643Y-22746214D01*
X6183928Y-22446214D02*
X6369643Y-22446214D01*
X6269643Y-22560500D01*
X6312500Y-22560500D01*
X6341071Y-22574786D01*
X6355357Y-22589071D01*
X6369643Y-22617643D01*
X6369643Y-22689071D01*
X6355357Y-22717643D01*
X6341071Y-22731929D01*
X6312500Y-22746214D01*
X6226786Y-22746214D01*
X6198214Y-22731929D01*
X6183928Y-22717643D01*
X6541071Y-22574786D02*
X6512500Y-22560500D01*
X6498214Y-22546214D01*
X6483928Y-22517643D01*
X6483928Y-22503357D01*
X6498214Y-22474786D01*
X6512500Y-22460500D01*
X6541071Y-22446214D01*
X6598214Y-22446214D01*
X6626786Y-22460500D01*
X6641071Y-22474786D01*
X6655357Y-22503357D01*
X6655357Y-22517643D01*
X6641071Y-22546214D01*
X6626786Y-22560500D01*
X6598214Y-22574786D01*
X6541071Y-22574786D01*
X6512500Y-22589071D01*
X6498214Y-22603357D01*
X6483928Y-22631929D01*
X6483928Y-22689071D01*
X6498214Y-22717643D01*
X6512500Y-22731929D01*
X6541071Y-22746214D01*
X6598214Y-22746214D01*
X6626786Y-22731929D01*
X6641071Y-22717643D01*
X6655357Y-22689071D01*
X6655357Y-22631929D01*
X6641071Y-22603357D01*
X6626786Y-22589071D01*
X6598214Y-22574786D01*
X6783928Y-22746214D02*
X6783928Y-22546214D01*
X6783928Y-22574786D02*
X6798214Y-22560500D01*
X6826786Y-22546214D01*
X6869643Y-22546214D01*
X6898214Y-22560500D01*
X6912500Y-22589071D01*
X6912500Y-22746214D01*
X6912500Y-22589071D02*
X6926786Y-22560500D01*
X6955357Y-22546214D01*
X6998214Y-22546214D01*
X7026786Y-22560500D01*
X7041071Y-22589071D01*
X7041071Y-22746214D01*
X7183928Y-22746214D02*
X7183928Y-22546214D01*
X7183928Y-22574786D02*
X7198214Y-22560500D01*
X7226786Y-22546214D01*
X7269643Y-22546214D01*
X7298214Y-22560500D01*
X7312500Y-22589071D01*
X7312500Y-22746214D01*
X7312500Y-22589071D02*
X7326786Y-22560500D01*
X7355357Y-22546214D01*
X7398214Y-22546214D01*
X7426786Y-22560500D01*
X7441071Y-22589071D01*
X7441071Y-22746214D01*
X8026786Y-22431929D02*
X7769643Y-22817643D01*
X8412500Y-22446214D02*
X8441071Y-22446214D01*
X8469643Y-22460500D01*
X8483928Y-22474786D01*
X8498214Y-22503357D01*
X8512500Y-22560500D01*
X8512500Y-22631929D01*
X8498214Y-22689071D01*
X8483928Y-22717643D01*
X8469643Y-22731929D01*
X8441071Y-22746214D01*
X8412500Y-22746214D01*
X8383928Y-22731929D01*
X8369643Y-22717643D01*
X8355357Y-22689071D01*
X8341071Y-22631929D01*
X8341071Y-22560500D01*
X8355357Y-22503357D01*
X8369643Y-22474786D01*
X8383928Y-22460500D01*
X8412500Y-22446214D01*
X8641071Y-22717643D02*
X8655357Y-22731929D01*
X8641071Y-22746214D01*
X8626786Y-22731929D01*
X8641071Y-22717643D01*
X8641071Y-22746214D01*
X8841071Y-22446214D02*
X8869643Y-22446214D01*
X8898214Y-22460500D01*
X8912500Y-22474786D01*
X8926786Y-22503357D01*
X8941071Y-22560500D01*
X8941071Y-22631929D01*
X8926786Y-22689071D01*
X8912500Y-22717643D01*
X8898214Y-22731929D01*
X8869643Y-22746214D01*
X8841071Y-22746214D01*
X8812500Y-22731929D01*
X8798214Y-22717643D01*
X8783928Y-22689071D01*
X8769643Y-22631929D01*
X8769643Y-22560500D01*
X8783928Y-22503357D01*
X8798214Y-22474786D01*
X8812500Y-22460500D01*
X8841071Y-22446214D01*
X9083928Y-22746214D02*
X9141071Y-22746214D01*
X9169643Y-22731929D01*
X9183928Y-22717643D01*
X9212500Y-22674786D01*
X9226786Y-22617643D01*
X9226786Y-22503357D01*
X9212500Y-22474786D01*
X9198214Y-22460500D01*
X9169643Y-22446214D01*
X9112500Y-22446214D01*
X9083928Y-22460500D01*
X9069643Y-22474786D01*
X9055357Y-22503357D01*
X9055357Y-22574786D01*
X9069643Y-22603357D01*
X9083928Y-22617643D01*
X9112500Y-22631929D01*
X9169643Y-22631929D01*
X9198214Y-22617643D01*
X9212500Y-22603357D01*
X9226786Y-22574786D01*
X9483928Y-22546214D02*
X9483928Y-22746214D01*
X9412500Y-22431929D02*
X9341071Y-22646214D01*
X9526786Y-22646214D01*
X9626786Y-22446214D02*
X9626786Y-22503357D01*
X9741071Y-22446214D02*
X9741071Y-22503357D01*
X10183928Y-22860500D02*
X10169643Y-22846214D01*
X10141071Y-22803357D01*
X10126786Y-22774786D01*
X10112500Y-22731929D01*
X10098214Y-22660500D01*
X10098214Y-22603357D01*
X10112500Y-22531929D01*
X10126786Y-22489071D01*
X10141071Y-22460500D01*
X10169643Y-22417643D01*
X10183928Y-22403357D01*
X10426786Y-22546214D02*
X10426786Y-22746214D01*
X10355357Y-22431929D02*
X10283928Y-22646214D01*
X10469643Y-22646214D01*
X10812500Y-22746214D02*
X10812500Y-22446214D01*
X10941071Y-22746214D02*
X10941071Y-22589071D01*
X10926786Y-22560500D01*
X10898214Y-22546214D01*
X10855357Y-22546214D01*
X10826786Y-22560500D01*
X10812500Y-22574786D01*
X11126786Y-22746214D02*
X11098214Y-22731929D01*
X11083928Y-22717643D01*
X11069643Y-22689071D01*
X11069643Y-22603357D01*
X11083928Y-22574786D01*
X11098214Y-22560500D01*
X11126786Y-22546214D01*
X11169643Y-22546214D01*
X11198214Y-22560500D01*
X11212500Y-22574786D01*
X11226786Y-22603357D01*
X11226786Y-22689071D01*
X11212500Y-22717643D01*
X11198214Y-22731929D01*
X11169643Y-22746214D01*
X11126786Y-22746214D01*
X11398214Y-22746214D02*
X11369643Y-22731929D01*
X11355357Y-22703357D01*
X11355357Y-22446214D01*
X11626786Y-22731929D02*
X11598214Y-22746214D01*
X11541071Y-22746214D01*
X11512500Y-22731929D01*
X11498214Y-22703357D01*
X11498214Y-22589071D01*
X11512500Y-22560500D01*
X11541071Y-22546214D01*
X11598214Y-22546214D01*
X11626786Y-22560500D01*
X11641071Y-22589071D01*
X11641071Y-22617643D01*
X11498214Y-22646214D01*
X11755357Y-22731929D02*
X11783928Y-22746214D01*
X11841071Y-22746214D01*
X11869643Y-22731929D01*
X11883928Y-22703357D01*
X11883928Y-22689071D01*
X11869643Y-22660500D01*
X11841071Y-22646214D01*
X11798214Y-22646214D01*
X11769643Y-22631929D01*
X11755357Y-22603357D01*
X11755357Y-22589071D01*
X11769643Y-22560500D01*
X11798214Y-22546214D01*
X11841071Y-22546214D01*
X11869643Y-22560500D01*
X11983928Y-22860500D02*
X11998214Y-22846214D01*
X12026786Y-22803357D01*
X12041071Y-22774786D01*
X12055357Y-22731929D01*
X12069643Y-22660500D01*
X12069643Y-22603357D01*
X12055357Y-22531929D01*
X12041071Y-22489071D01*
X12026786Y-22460500D01*
X11998214Y-22417643D01*
X11983928Y-22403357D01*
X12526786Y-22860500D02*
X12512500Y-22846214D01*
X12483928Y-22803357D01*
X12469643Y-22774786D01*
X12455357Y-22731929D01*
X12441071Y-22660500D01*
X12441071Y-22603357D01*
X12455357Y-22531929D01*
X12469643Y-22489071D01*
X12483928Y-22460500D01*
X12512500Y-22417643D01*
X12526786Y-22403357D01*
X12641071Y-22546214D02*
X12641071Y-22746214D01*
X12641071Y-22574786D02*
X12655357Y-22560500D01*
X12683928Y-22546214D01*
X12726786Y-22546214D01*
X12755357Y-22560500D01*
X12769643Y-22589071D01*
X12769643Y-22746214D01*
X12955357Y-22746214D02*
X12926786Y-22731929D01*
X12912500Y-22717643D01*
X12898214Y-22689071D01*
X12898214Y-22603357D01*
X12912500Y-22574786D01*
X12926786Y-22560500D01*
X12955357Y-22546214D01*
X12998214Y-22546214D01*
X13026786Y-22560500D01*
X13041071Y-22574786D01*
X13055357Y-22603357D01*
X13055357Y-22689071D01*
X13041071Y-22717643D01*
X13026786Y-22731929D01*
X12998214Y-22746214D01*
X12955357Y-22746214D01*
X13141071Y-22546214D02*
X13255357Y-22546214D01*
X13183928Y-22446214D02*
X13183928Y-22703357D01*
X13198214Y-22731929D01*
X13226786Y-22746214D01*
X13255357Y-22746214D01*
X13583928Y-22546214D02*
X13583928Y-22846214D01*
X13583928Y-22560500D02*
X13612500Y-22546214D01*
X13669643Y-22546214D01*
X13698214Y-22560500D01*
X13712500Y-22574786D01*
X13726786Y-22603357D01*
X13726786Y-22689071D01*
X13712500Y-22717643D01*
X13698214Y-22731929D01*
X13669643Y-22746214D01*
X13612500Y-22746214D01*
X13583928Y-22731929D01*
X13898214Y-22746214D02*
X13869643Y-22731929D01*
X13855357Y-22703357D01*
X13855357Y-22446214D01*
X14141071Y-22746214D02*
X14141071Y-22589071D01*
X14126786Y-22560500D01*
X14098214Y-22546214D01*
X14041071Y-22546214D01*
X14012500Y-22560500D01*
X14141071Y-22731929D02*
X14112500Y-22746214D01*
X14041071Y-22746214D01*
X14012500Y-22731929D01*
X13998214Y-22703357D01*
X13998214Y-22674786D01*
X14012500Y-22646214D01*
X14041071Y-22631929D01*
X14112500Y-22631929D01*
X14141071Y-22617643D01*
X14241071Y-22546214D02*
X14355357Y-22546214D01*
X14283928Y-22446214D02*
X14283928Y-22703357D01*
X14298214Y-22731929D01*
X14326786Y-22746214D01*
X14355357Y-22746214D01*
X14569643Y-22731929D02*
X14541071Y-22746214D01*
X14483928Y-22746214D01*
X14455357Y-22731929D01*
X14441071Y-22703357D01*
X14441071Y-22589071D01*
X14455357Y-22560500D01*
X14483928Y-22546214D01*
X14541071Y-22546214D01*
X14569643Y-22560500D01*
X14583928Y-22589071D01*
X14583928Y-22617643D01*
X14441071Y-22646214D01*
X14841071Y-22746214D02*
X14841071Y-22446214D01*
X14841071Y-22731929D02*
X14812500Y-22746214D01*
X14755357Y-22746214D01*
X14726786Y-22731929D01*
X14712500Y-22717643D01*
X14698214Y-22689071D01*
X14698214Y-22603357D01*
X14712500Y-22574786D01*
X14726786Y-22560500D01*
X14755357Y-22546214D01*
X14812500Y-22546214D01*
X14841071Y-22560500D01*
X14955357Y-22860500D02*
X14969643Y-22846214D01*
X14998214Y-22803357D01*
X15012500Y-22774786D01*
X15026786Y-22731929D01*
X15041071Y-22660500D01*
X15041071Y-22603357D01*
X15026786Y-22531929D01*
X15012500Y-22489071D01*
X14998214Y-22460500D01*
X14969643Y-22417643D01*
X14955357Y-22403357D01*
M02*
