G04 #@! TF.GenerationSoftware,KiCad,Pcbnew,5.0.1*
G04 #@! TF.CreationDate,2019-02-02T17:49:27+01:00*
G04 #@! TF.ProjectId,UsbDmx,557362446D782E6B696361645F706362,rev?*
G04 #@! TF.SameCoordinates,Original*
G04 #@! TF.FileFunction,Copper,L2,Bot,Signal*
G04 #@! TF.FilePolarity,Positive*
%FSLAX46Y46*%
G04 Gerber Fmt 4.6, Leading zero omitted, Abs format (unit mm)*
G04 Created by KiCad (PCBNEW 5.0.1) date Sa 02 Feb 2019 17:49:27 CET*
%MOMM*%
%LPD*%
G01*
G04 APERTURE LIST*
G04 #@! TA.AperFunction,ComponentPad*
%ADD10C,3.000000*%
G04 #@! TD*
G04 #@! TA.AperFunction,ComponentPad*
%ADD11R,3.500120X3.500120*%
G04 #@! TD*
G04 #@! TA.AperFunction,ComponentPad*
%ADD12R,3.500120X4.000000*%
G04 #@! TD*
G04 #@! TA.AperFunction,ComponentPad*
%ADD13C,2.000000*%
G04 #@! TD*
G04 #@! TA.AperFunction,ComponentPad*
%ADD14C,1.200000*%
G04 #@! TD*
G04 #@! TA.AperFunction,ComponentPad*
%ADD15R,1.200000X1.200000*%
G04 #@! TD*
G04 #@! TA.AperFunction,ComponentPad*
%ADD16R,2.000000X2.000000*%
G04 #@! TD*
G04 #@! TA.AperFunction,ComponentPad*
%ADD17C,1.600000*%
G04 #@! TD*
G04 #@! TA.AperFunction,ComponentPad*
%ADD18R,1.600000X1.600000*%
G04 #@! TD*
G04 #@! TA.AperFunction,ComponentPad*
%ADD19C,3.500000*%
G04 #@! TD*
G04 #@! TA.AperFunction,ComponentPad*
%ADD20C,1.700000*%
G04 #@! TD*
G04 #@! TA.AperFunction,ComponentPad*
%ADD21R,1.700000X1.700000*%
G04 #@! TD*
G04 #@! TA.AperFunction,ComponentPad*
%ADD22O,1.700000X1.700000*%
G04 #@! TD*
G04 #@! TA.AperFunction,SMDPad,CuDef*
%ADD23R,1.900000X0.800000*%
G04 #@! TD*
G04 #@! TA.AperFunction,ComponentPad*
%ADD24C,1.500000*%
G04 #@! TD*
G04 #@! TA.AperFunction,ViaPad*
%ADD25C,0.800000*%
G04 #@! TD*
G04 #@! TA.AperFunction,ViaPad*
%ADD26C,1.400000*%
G04 #@! TD*
G04 #@! TA.AperFunction,Conductor*
%ADD27C,0.250000*%
G04 #@! TD*
G04 #@! TA.AperFunction,Conductor*
%ADD28C,0.500000*%
G04 #@! TD*
G04 #@! TA.AperFunction,Conductor*
%ADD29C,0.254000*%
G04 #@! TD*
G04 APERTURE END LIST*
D10*
G04 #@! TO.P,CON202,G*
G04 #@! TO.N,Net-(C214-Pad1)*
X142300000Y-135000000D03*
G04 #@! TO.P,CON202,3*
G04 #@! TO.N,/DmxInOut/RX_+*
X137220000Y-135000000D03*
G04 #@! TO.P,CON202,1*
G04 #@! TO.N,Net-(CON202-Pad1)*
X137220000Y-138810000D03*
G04 #@! TO.P,CON202,2*
G04 #@! TO.N,/DmxInOut/RX_-*
X137220000Y-131190000D03*
G04 #@! TD*
G04 #@! TO.P,CON201,G*
G04 #@! TO.N,Net-(C203-Pad1)*
X146750000Y-88020000D03*
G04 #@! TO.P,CON201,3*
G04 #@! TO.N,/DmxInOut/TX_+*
X137850000Y-95000000D03*
G04 #@! TO.P,CON201,2*
G04 #@! TO.N,/DmxInOut/TX_-*
X141665000Y-98810000D03*
G04 #@! TO.P,CON201,1*
G04 #@! TO.N,Net-(CON201-Pad1)*
X142300000Y-91190000D03*
G04 #@! TD*
D11*
G04 #@! TO.P,J102,3*
G04 #@! TO.N,GND*
X63278400Y-78478000D03*
G04 #@! TO.P,J102,2*
X59978000Y-73478000D03*
D12*
G04 #@! TO.P,J102,1*
G04 #@! TO.N,Net-(D104-Pad2)*
X66128000Y-73478000D03*
G04 #@! TD*
D13*
G04 #@! TO.P,U205,7*
G04 #@! TO.N,N/C*
X133796000Y-115000000D03*
G04 #@! TO.P,U205,6*
G04 #@! TO.N,+5VA*
X131256000Y-115000000D03*
G04 #@! TO.P,U205,5*
G04 #@! TO.N,N/C*
X128716000Y-115000000D03*
G04 #@! TO.P,U205,4*
G04 #@! TO.N,GNDA*
X126176000Y-115000000D03*
G04 #@! TO.P,U205,2*
G04 #@! TO.N,GND*
X121096000Y-115000000D03*
G04 #@! TO.P,U205,1*
G04 #@! TO.N,Net-(C209-Pad1)*
X118556000Y-115000000D03*
G04 #@! TD*
D14*
G04 #@! TO.P,C109,2*
G04 #@! TO.N,GND*
X97028000Y-109371000D03*
D15*
G04 #@! TO.P,C109,1*
G04 #@! TO.N,Net-(C108-Pad1)*
X97028000Y-110871000D03*
G04 #@! TD*
D13*
G04 #@! TO.P,C110,2*
G04 #@! TO.N,GND*
X70438000Y-81788000D03*
D16*
G04 #@! TO.P,C110,1*
G04 #@! TO.N,Net-(C110-Pad1)*
X75438000Y-81788000D03*
G04 #@! TD*
D17*
G04 #@! TO.P,C113,2*
G04 #@! TO.N,GND*
X95758000Y-84288000D03*
D18*
G04 #@! TO.P,C113,1*
G04 #@! TO.N,/5V_EXT*
X95758000Y-81788000D03*
G04 #@! TD*
D17*
G04 #@! TO.P,C116,2*
G04 #@! TO.N,GND*
X112490000Y-121158000D03*
D18*
G04 #@! TO.P,C116,1*
G04 #@! TO.N,/RESET*
X110490000Y-121158000D03*
G04 #@! TD*
D13*
G04 #@! TO.P,C203,2*
G04 #@! TO.N,GNDA*
X139312000Y-79502000D03*
G04 #@! TO.P,C203,1*
G04 #@! TO.N,Net-(C203-Pad1)*
X146812000Y-79502000D03*
G04 #@! TD*
D17*
G04 #@! TO.P,C207,2*
G04 #@! TO.N,Net-(C207-Pad2)*
X115284000Y-91186000D03*
D18*
G04 #@! TO.P,C207,1*
G04 #@! TO.N,+5V*
X113284000Y-91186000D03*
G04 #@! TD*
D17*
G04 #@! TO.P,C211,2*
G04 #@! TO.N,GNDA*
X131096000Y-108712000D03*
D18*
G04 #@! TO.P,C211,1*
G04 #@! TO.N,+5VA*
X133096000Y-108712000D03*
G04 #@! TD*
D13*
G04 #@! TO.P,C212,2*
G04 #@! TO.N,GND*
X120262000Y-110236000D03*
G04 #@! TO.P,C212,1*
G04 #@! TO.N,GNDA*
X127762000Y-110236000D03*
G04 #@! TD*
G04 #@! TO.P,C214,2*
G04 #@! TO.N,GNDA*
X139312000Y-119507000D03*
G04 #@! TO.P,C214,1*
G04 #@! TO.N,Net-(C214-Pad1)*
X146812000Y-119507000D03*
G04 #@! TD*
D19*
G04 #@! TO.P,J101,5*
G04 #@! TO.N,Net-(C104-Pad1)*
X62981000Y-90712000D03*
X62981000Y-102752000D03*
D20*
G04 #@! TO.P,J101,4*
G04 #@! TO.N,GND*
X65691000Y-97982000D03*
G04 #@! TO.P,J101,3*
G04 #@! TO.N,Net-(J101-Pad3)*
X65691000Y-95482000D03*
G04 #@! TO.P,J101,2*
G04 #@! TO.N,Net-(J101-Pad2)*
X67691000Y-95482000D03*
D21*
G04 #@! TO.P,J101,1*
G04 #@! TO.N,Net-(C105-Pad1)*
X67691000Y-97982000D03*
G04 #@! TD*
D22*
G04 #@! TO.P,JP101,2*
G04 #@! TO.N,/RESET_USBN*
X101346000Y-111760000D03*
D21*
G04 #@! TO.P,JP101,1*
G04 #@! TO.N,Net-(JP101-Pad1)*
X103886000Y-111760000D03*
G04 #@! TD*
D23*
G04 #@! TO.P,U203,3*
G04 #@! TO.N,GNDA*
X131088000Y-97917000D03*
G04 #@! TO.P,U203,2*
G04 #@! TO.N,/DmxInOut/TX_-*
X134088000Y-98867000D03*
G04 #@! TO.P,U203,1*
G04 #@! TO.N,/DmxInOut/TX_+*
X134088000Y-96967000D03*
G04 #@! TD*
G04 #@! TO.P,U207,3*
G04 #@! TO.N,GNDA*
X130961000Y-132969000D03*
G04 #@! TO.P,U207,2*
G04 #@! TO.N,/DmxInOut/RX_+*
X133961000Y-133919000D03*
G04 #@! TO.P,U207,1*
G04 #@! TO.N,/DmxInOut/RX_-*
X133961000Y-132019000D03*
G04 #@! TD*
D24*
G04 #@! TO.P,Y101,2*
G04 #@! TO.N,Net-(C103-Pad1)*
X78994000Y-112468000D03*
G04 #@! TO.P,Y101,1*
G04 #@! TO.N,Net-(C102-Pad1)*
X78994000Y-117348000D03*
G04 #@! TD*
D25*
G04 #@! TO.N,GND*
X117348000Y-146050000D03*
X113538000Y-153670000D03*
X117348000Y-81280000D03*
X85598000Y-85598000D03*
X91821000Y-85598000D03*
X81026000Y-94488000D03*
X75311000Y-90424000D03*
X98933000Y-119380000D03*
X91313000Y-116102000D03*
X90043000Y-116102000D03*
X76454000Y-114935000D03*
X93853000Y-119380000D03*
X80264000Y-105410000D03*
X97282000Y-88392000D03*
X108204000Y-141097000D03*
X108204000Y-142621000D03*
X67945000Y-133477000D03*
X60071000Y-135255000D03*
X60071000Y-146685000D03*
X96266000Y-155956000D03*
X87376000Y-144145000D03*
X97815400Y-137769600D03*
X103505000Y-157607000D03*
D26*
X116840000Y-97409000D03*
X118618000Y-112268000D03*
D25*
X64058800Y-108013500D03*
D26*
X84328000Y-72571000D03*
X81553000Y-70146000D03*
X87103000Y-70146000D03*
X87103000Y-74996000D03*
X81553000Y-74996000D03*
X67487800Y-87198200D03*
D25*
X112395000Y-148209000D03*
X103759000Y-115443000D03*
X75438000Y-96774000D03*
X72644000Y-150495000D03*
X88519000Y-132588000D03*
X102997000Y-134112000D03*
X100711000Y-131318000D03*
X99441000Y-144145000D03*
D26*
G04 #@! TO.N,+5V*
X92583000Y-120269000D03*
X92583000Y-125104000D03*
X90170000Y-131953000D03*
X89281000Y-154686000D03*
X104520986Y-86868000D03*
X110266006Y-86868000D03*
X85369400Y-93827600D03*
D25*
X95885000Y-107442000D03*
X91186000Y-107442000D03*
D26*
X81686400Y-97545010D03*
D25*
G04 #@! TO.N,/RESET*
X104775000Y-146634000D03*
X105537000Y-144182000D03*
X106646311Y-121158000D03*
G04 #@! TO.N,/SENSE_5V_EXT*
X104533700Y-139712700D03*
X92036900Y-89649300D03*
X92036900Y-91401000D03*
X107889278Y-137931459D03*
G04 #@! TO.N,/SENSE_5V_USB*
X105892020Y-127127000D03*
X103251000Y-125222000D03*
X69837300Y-121843800D03*
X73228200Y-121843800D03*
G04 #@! TO.N,GNDA*
X129540000Y-90678000D03*
X134112000Y-76200000D03*
X130556000Y-83820000D03*
X128778000Y-112522000D03*
X130556000Y-148590000D03*
X145542000Y-156718000D03*
X131064000Y-141097000D03*
X127711200Y-89408000D03*
X126111000Y-139065000D03*
X127381000Y-139065000D03*
X128651000Y-139065000D03*
G04 #@! TO.N,+5VA*
X134874000Y-149352000D03*
X134874000Y-152654000D03*
X125399800Y-95250000D03*
X126745996Y-99085400D03*
G04 #@! TO.N,/LED_USB*
X105442010Y-125476000D03*
X69850000Y-120650000D03*
X103263700Y-124079000D03*
X73228662Y-120620410D03*
G04 #@! TO.N,/DmxInOut/DMX_EN*
X101092000Y-147828000D03*
X106426000Y-145669000D03*
G04 #@! TO.N,/ALE*
X89408000Y-145796000D03*
X91059000Y-134366000D03*
X89408000Y-153009032D03*
G04 #@! TO.N,/AD6*
X97409000Y-142113000D03*
X98044000Y-133589296D03*
G04 #@! TO.N,/AD5*
X96701130Y-142838000D03*
X96998365Y-133589296D03*
G04 #@! TO.N,/AD4*
X95974102Y-143563000D03*
X95952732Y-133589296D03*
G04 #@! TO.N,/AD3*
X95255547Y-144288000D03*
X94907099Y-133589296D03*
G04 #@! TO.N,/AD2*
X93861466Y-133589296D03*
X95028010Y-145872200D03*
G04 #@! TO.N,/AD1*
X95753010Y-147142200D03*
X92815833Y-133589296D03*
G04 #@! TO.N,/AD0*
X95758000Y-148844000D03*
X91770200Y-133589296D03*
G04 #@! TO.N,/USB_INT*
X103251000Y-126492000D03*
X106426000Y-129540000D03*
G04 #@! TO.N,/WR*
X97790000Y-136525000D03*
X99353000Y-136525000D03*
G04 #@! TO.N,/RD*
X90932000Y-140059000D03*
X86867996Y-141605000D03*
X82296000Y-136271000D03*
X83058000Y-138430000D03*
G04 #@! TO.N,/A13*
X82931000Y-144272000D03*
X82276994Y-142093994D03*
G04 #@! TO.N,/A11*
X88777653Y-139323653D03*
X86868000Y-140335000D03*
G04 #@! TO.N,/DmxInOut/TX_A*
X127381000Y-94107000D03*
X128905000Y-95631000D03*
G04 #@! TO.N,Net-(C105-Pad1)*
X76581000Y-94488000D03*
G04 #@! TO.N,Net-(C205-Pad1)*
X137033000Y-108966000D03*
X137033004Y-106934000D03*
G04 #@! TD*
D27*
G04 #@! TO.N,GND*
X117348000Y-146050000D02*
X117348000Y-149860000D01*
X117348000Y-149860000D02*
X113538000Y-153670000D01*
X112490000Y-121158000D02*
X112490000Y-130334000D01*
X112490000Y-130334000D02*
X108712000Y-134112000D01*
X108712000Y-134112000D02*
X102997000Y-134112000D01*
X102997000Y-134112000D02*
X100711000Y-131826000D01*
X100711000Y-131826000D02*
X100711000Y-131318000D01*
X102997000Y-134112000D02*
X102997000Y-140589000D01*
X102997000Y-140589000D02*
X99441000Y-144145000D01*
D28*
G04 #@! TO.N,+5V*
X92583000Y-120269000D02*
X92583000Y-125104000D01*
X104520986Y-86868000D02*
X110266006Y-86868000D01*
D27*
X95885000Y-107442000D02*
X91186000Y-107442000D01*
D28*
X90170000Y-134735002D02*
X91070998Y-135636000D01*
X88581001Y-153986001D02*
X89281000Y-154686000D01*
X91070998Y-135636000D02*
X92075000Y-135636000D01*
X88557999Y-144868001D02*
X88557999Y-153962999D01*
X92837000Y-136398000D02*
X92837000Y-140589000D01*
X92837000Y-140589000D02*
X88557999Y-144868001D01*
X88557999Y-153962999D02*
X88581001Y-153986001D01*
X92075000Y-135636000D02*
X92837000Y-136398000D01*
X90170000Y-131953000D02*
X90170000Y-134735002D01*
X85369400Y-93827600D02*
X81686400Y-97510600D01*
X81686400Y-97510600D02*
X81686400Y-97545010D01*
D27*
G04 #@! TO.N,/RESET*
X104775000Y-146634000D02*
X104775000Y-144944000D01*
X104775000Y-144944000D02*
X105537000Y-144182000D01*
X110490000Y-121158000D02*
X106646311Y-121158000D01*
G04 #@! TO.N,/SENSE_5V_EXT*
X92036900Y-89649300D02*
X92036900Y-91401000D01*
X104533700Y-139712700D02*
X106314941Y-137931459D01*
X106314941Y-137931459D02*
X107889278Y-137931459D01*
G04 #@! TO.N,/SENSE_5V_USB*
X105892020Y-127127000D02*
X103987020Y-125222000D01*
X103987020Y-125222000D02*
X103251000Y-125222000D01*
X69837300Y-121843800D02*
X73228200Y-121843800D01*
G04 #@! TO.N,+5VA*
X134874000Y-149352000D02*
X134874000Y-152654000D01*
D28*
X126745996Y-96596196D02*
X125399800Y-95250000D01*
X126745996Y-99085400D02*
X126745996Y-96596196D01*
G04 #@! TO.N,Net-(C203-Pad1)*
X146812000Y-87958000D02*
X146750000Y-88020000D01*
X146812000Y-79502000D02*
X146812000Y-87958000D01*
D27*
G04 #@! TO.N,/LED_USB*
X105442010Y-125476000D02*
X104045010Y-124079000D01*
X104045010Y-124079000D02*
X103263700Y-124079000D01*
X73199072Y-120650000D02*
X73228662Y-120620410D01*
X69850000Y-120650000D02*
X73199072Y-120650000D01*
G04 #@! TO.N,/DmxInOut/DMX_EN*
X104654002Y-147828000D02*
X104267000Y-147828000D01*
X105500001Y-146982001D02*
X104654002Y-147828000D01*
X105500001Y-146594999D02*
X105500001Y-146982001D01*
X106426000Y-145669000D02*
X105500001Y-146594999D01*
X101092000Y-147828000D02*
X104267000Y-147828000D01*
G04 #@! TO.N,/ALE*
X89408000Y-144901356D02*
X89408000Y-145230315D01*
X93322956Y-140986400D02*
X89408000Y-144901356D01*
X91059000Y-134366000D02*
X91624685Y-134366000D01*
X93599000Y-140710357D02*
X93322956Y-140986400D01*
X91624685Y-134366000D02*
X93599000Y-136340315D01*
X93599000Y-136340315D02*
X93599000Y-140710357D01*
X89408000Y-145230315D02*
X89408000Y-145796000D01*
X89408000Y-145796000D02*
X89408000Y-153009032D01*
G04 #@! TO.N,/AD6*
X97409000Y-142113000D02*
X97009001Y-141713001D01*
X97009001Y-134624295D02*
X98044000Y-133589296D01*
X97009001Y-141713001D02*
X97009001Y-134624295D01*
G04 #@! TO.N,/AD5*
X96701130Y-142272315D02*
X96520000Y-142091185D01*
X96701130Y-142838000D02*
X96701130Y-142272315D01*
X96520000Y-134067661D02*
X96998365Y-133589296D01*
X96520000Y-142091185D02*
X96520000Y-134067661D01*
G04 #@! TO.N,/AD4*
X95974102Y-142997315D02*
X95974102Y-143563000D01*
X95974102Y-134019889D02*
X95974102Y-142997315D01*
X95952732Y-133998519D02*
X95974102Y-134019889D01*
X95952732Y-133589296D02*
X95952732Y-133998519D01*
G04 #@! TO.N,/AD3*
X95123000Y-143777452D02*
X95255547Y-143909999D01*
X95504000Y-141351000D02*
X95123000Y-141732000D01*
X94907099Y-133589296D02*
X95504000Y-134186197D01*
X95123000Y-141732000D02*
X95123000Y-143777452D01*
X95255547Y-143909999D02*
X95255547Y-144288000D01*
X95504000Y-134186197D02*
X95504000Y-141351000D01*
G04 #@! TO.N,/AD2*
X95021400Y-134749230D02*
X95021400Y-141197190D01*
X93861466Y-133589296D02*
X95021400Y-134749230D01*
X94628011Y-145472201D02*
X95028010Y-145872200D01*
X94513400Y-141705190D02*
X94513400Y-145357590D01*
X95021400Y-141197190D02*
X94513400Y-141705190D01*
X94513400Y-145357590D02*
X94628011Y-145472201D01*
G04 #@! TO.N,/AD1*
X94564200Y-135337663D02*
X94564200Y-141017979D01*
X94056200Y-146011075D02*
X95187325Y-147142200D01*
X95187325Y-147142200D02*
X95753010Y-147142200D01*
X94056200Y-141525979D02*
X94056200Y-146011075D01*
X92815833Y-133589296D02*
X94564200Y-135337663D01*
X94564200Y-141017979D02*
X94056200Y-141525979D01*
G04 #@! TO.N,/AD0*
X93573600Y-146659600D02*
X95358001Y-148444001D01*
X95358001Y-148444001D02*
X95758000Y-148844000D01*
X93573600Y-141372167D02*
X93573600Y-146659600D01*
X94081600Y-135900696D02*
X94081600Y-140864167D01*
X91770200Y-133589296D02*
X94081600Y-135900696D01*
X94081600Y-140864167D02*
X93573600Y-141372167D01*
G04 #@! TO.N,/USB_INT*
X106299000Y-129540000D02*
X106426000Y-129540000D01*
X103251000Y-126492000D02*
X106299000Y-129540000D01*
G04 #@! TO.N,/WR*
X97790000Y-136525000D02*
X99353000Y-136525000D01*
G04 #@! TO.N,/RD*
X90932000Y-140059000D02*
X89386000Y-141605000D01*
X87433681Y-141605000D02*
X86867996Y-141605000D01*
X89386000Y-141605000D02*
X87433681Y-141605000D01*
X82296000Y-137668000D02*
X82658001Y-138030001D01*
X82658001Y-138030001D02*
X83058000Y-138430000D01*
X82296000Y-136271000D02*
X82296000Y-137668000D01*
G04 #@! TO.N,/A13*
X82276994Y-143617994D02*
X82931000Y-144272000D01*
X82276994Y-142093994D02*
X82276994Y-143617994D01*
G04 #@! TO.N,/A11*
X87766306Y-140335000D02*
X88777653Y-139323653D01*
X86868000Y-140335000D02*
X87766306Y-140335000D01*
G04 #@! TO.N,/DmxInOut/TX_A*
X127381000Y-94107000D02*
X128905000Y-95631000D01*
G04 #@! TO.N,/DmxInOut/TX_-*
X141608000Y-98867000D02*
X141665000Y-98810000D01*
X134088000Y-98867000D02*
X141608000Y-98867000D01*
G04 #@! TO.N,/DmxInOut/TX_+*
X135883000Y-96967000D02*
X137850000Y-95000000D01*
X134088000Y-96967000D02*
X135883000Y-96967000D01*
G04 #@! TO.N,/DmxInOut/RX_-*
X135891000Y-131190000D02*
X137220000Y-131190000D01*
X133961000Y-132019000D02*
X135062000Y-132019000D01*
X135062000Y-132019000D02*
X135891000Y-131190000D01*
G04 #@! TO.N,/DmxInOut/RX_+*
X135062000Y-133919000D02*
X133961000Y-133919000D01*
X137220000Y-135000000D02*
X136143000Y-135000000D01*
X136143000Y-135000000D02*
X135062000Y-133919000D01*
D28*
G04 #@! TO.N,Net-(C105-Pad1)*
X71185000Y-94488000D02*
X67691000Y-97982000D01*
X76581000Y-94488000D02*
X71185000Y-94488000D01*
D27*
G04 #@! TO.N,Net-(C205-Pad1)*
X137033000Y-106934004D02*
X137033004Y-106934000D01*
X137033000Y-108966000D02*
X137033000Y-106934004D01*
D28*
G04 #@! TO.N,Net-(C214-Pad1)*
X146812000Y-130488000D02*
X142300000Y-135000000D01*
X146812000Y-119507000D02*
X146812000Y-130488000D01*
G04 #@! TD*
D29*
G04 #@! TO.N,GNDA*
G36*
X150873000Y-89768073D02*
X150377138Y-89973466D01*
X149973466Y-90377138D01*
X149755000Y-90904561D01*
X149755000Y-91475439D01*
X149973466Y-92002862D01*
X150377138Y-92406534D01*
X150873000Y-92611927D01*
X150873000Y-108748629D01*
X150611121Y-108486750D01*
X149955059Y-108215000D01*
X149244941Y-108215000D01*
X148588879Y-108486750D01*
X148086750Y-108988879D01*
X147815000Y-109644941D01*
X147815000Y-110355059D01*
X148086750Y-111011121D01*
X148588879Y-111513250D01*
X149244941Y-111785000D01*
X149955059Y-111785000D01*
X150611121Y-111513250D01*
X150873000Y-111251371D01*
X150873000Y-129768073D01*
X150377138Y-129973466D01*
X149973466Y-130377138D01*
X149755000Y-130904561D01*
X149755000Y-131475439D01*
X149973466Y-132002862D01*
X150377138Y-132406534D01*
X150873000Y-132611927D01*
X150873000Y-148748629D01*
X150611121Y-148486750D01*
X149955059Y-148215000D01*
X149244941Y-148215000D01*
X148588879Y-148486750D01*
X148086750Y-148988879D01*
X147815000Y-149644941D01*
X147815000Y-150355059D01*
X148086750Y-151011121D01*
X148588879Y-151513250D01*
X149244941Y-151785000D01*
X149955059Y-151785000D01*
X150611121Y-151513250D01*
X150873000Y-151251371D01*
X150873000Y-156748629D01*
X150611121Y-156486750D01*
X149955059Y-156215000D01*
X149244941Y-156215000D01*
X148588879Y-156486750D01*
X148086750Y-156988879D01*
X147815000Y-157644941D01*
X147815000Y-158355059D01*
X148086750Y-159011121D01*
X148588879Y-159513250D01*
X149244941Y-159785000D01*
X149955059Y-159785000D01*
X150611121Y-159513250D01*
X150873000Y-159251371D01*
X150873000Y-160873000D01*
X133052606Y-160873000D01*
X127127000Y-154947394D01*
X127127000Y-149146126D01*
X133839000Y-149146126D01*
X133839000Y-149557874D01*
X133996569Y-149938280D01*
X134114000Y-150055711D01*
X134114001Y-151950288D01*
X133996569Y-152067720D01*
X133839000Y-152448126D01*
X133839000Y-152859874D01*
X133996569Y-153240280D01*
X134287720Y-153531431D01*
X134668126Y-153689000D01*
X135079874Y-153689000D01*
X135460280Y-153531431D01*
X135751431Y-153240280D01*
X135909000Y-152859874D01*
X135909000Y-152448126D01*
X135751431Y-152067720D01*
X135634000Y-151950289D01*
X135634000Y-150055711D01*
X135751431Y-149938280D01*
X135909000Y-149557874D01*
X135909000Y-149146126D01*
X135751431Y-148765720D01*
X135460280Y-148474569D01*
X135079874Y-148317000D01*
X134668126Y-148317000D01*
X134287720Y-148474569D01*
X133996569Y-148765720D01*
X133839000Y-149146126D01*
X127127000Y-149146126D01*
X127127000Y-146000000D01*
X127117333Y-145951399D01*
X127089803Y-145910197D01*
X124127000Y-142947394D01*
X124127000Y-133254750D01*
X129376000Y-133254750D01*
X129376000Y-133495310D01*
X129472673Y-133728699D01*
X129651302Y-133907327D01*
X129884691Y-134004000D01*
X130675250Y-134004000D01*
X130834000Y-133845250D01*
X130834000Y-133096000D01*
X129534750Y-133096000D01*
X129376000Y-133254750D01*
X124127000Y-133254750D01*
X124127000Y-132442690D01*
X129376000Y-132442690D01*
X129376000Y-132683250D01*
X129534750Y-132842000D01*
X130834000Y-132842000D01*
X130834000Y-132092750D01*
X131088000Y-132092750D01*
X131088000Y-132842000D01*
X132387250Y-132842000D01*
X132472781Y-132756469D01*
X132553191Y-132876809D01*
X132691164Y-132969000D01*
X132553191Y-133061191D01*
X132472781Y-133181531D01*
X132387250Y-133096000D01*
X131088000Y-133096000D01*
X131088000Y-133845250D01*
X131246750Y-134004000D01*
X132037309Y-134004000D01*
X132270698Y-133907327D01*
X132363560Y-133814466D01*
X132363560Y-134319000D01*
X132412843Y-134566765D01*
X132553191Y-134776809D01*
X132763235Y-134917157D01*
X133011000Y-134966440D01*
X134911000Y-134966440D01*
X135014126Y-134945927D01*
X135085000Y-135016802D01*
X135085000Y-135424678D01*
X135410034Y-136209380D01*
X136010620Y-136809966D01*
X136240053Y-136905000D01*
X136010620Y-137000034D01*
X135410034Y-137600620D01*
X135085000Y-138385322D01*
X135085000Y-139234678D01*
X135410034Y-140019380D01*
X136010620Y-140619966D01*
X136795322Y-140945000D01*
X137644678Y-140945000D01*
X138429380Y-140619966D01*
X139029966Y-140019380D01*
X139355000Y-139234678D01*
X139355000Y-138524561D01*
X144675000Y-138524561D01*
X144675000Y-139095439D01*
X144893466Y-139622862D01*
X145297138Y-140026534D01*
X145824561Y-140245000D01*
X146395439Y-140245000D01*
X146922862Y-140026534D01*
X147326534Y-139622862D01*
X147545000Y-139095439D01*
X147545000Y-138524561D01*
X147326534Y-137997138D01*
X146922862Y-137593466D01*
X146395439Y-137375000D01*
X145824561Y-137375000D01*
X145297138Y-137593466D01*
X144893466Y-137997138D01*
X144675000Y-138524561D01*
X139355000Y-138524561D01*
X139355000Y-138385322D01*
X139029966Y-137600620D01*
X138429380Y-137000034D01*
X138199947Y-136905000D01*
X138429380Y-136809966D01*
X139029966Y-136209380D01*
X139355000Y-135424678D01*
X139355000Y-134575322D01*
X140165000Y-134575322D01*
X140165000Y-135424678D01*
X140490034Y-136209380D01*
X141090620Y-136809966D01*
X141875322Y-137135000D01*
X142724678Y-137135000D01*
X143509380Y-136809966D01*
X144109966Y-136209380D01*
X144435000Y-135424678D01*
X144435000Y-134575322D01*
X144300637Y-134250941D01*
X147376156Y-131175423D01*
X147450049Y-131126049D01*
X147645652Y-130833310D01*
X147697000Y-130575165D01*
X147697000Y-130575161D01*
X147714337Y-130488000D01*
X147697000Y-130400839D01*
X147697000Y-120910132D01*
X147738153Y-120893086D01*
X148198086Y-120433153D01*
X148447000Y-119832222D01*
X148447000Y-119181778D01*
X148198086Y-118580847D01*
X147738153Y-118120914D01*
X147137222Y-117872000D01*
X146486778Y-117872000D01*
X145885847Y-118120914D01*
X145425914Y-118580847D01*
X145177000Y-119181778D01*
X145177000Y-119832222D01*
X145425914Y-120433153D01*
X145885847Y-120893086D01*
X145927000Y-120910132D01*
X145927001Y-130121420D01*
X143049059Y-132999363D01*
X142724678Y-132865000D01*
X141875322Y-132865000D01*
X141090620Y-133190034D01*
X140490034Y-133790620D01*
X140165000Y-134575322D01*
X139355000Y-134575322D01*
X139029966Y-133790620D01*
X138429380Y-133190034D01*
X138199947Y-133095000D01*
X138429380Y-132999966D01*
X139029966Y-132399380D01*
X139355000Y-131614678D01*
X139355000Y-130765322D01*
X139029966Y-129980620D01*
X138429380Y-129380034D01*
X137644678Y-129055000D01*
X136795322Y-129055000D01*
X136010620Y-129380034D01*
X135410034Y-129980620D01*
X135085000Y-130765322D01*
X135085000Y-130921198D01*
X135014126Y-130992073D01*
X134911000Y-130971560D01*
X133011000Y-130971560D01*
X132763235Y-131020843D01*
X132553191Y-131161191D01*
X132412843Y-131371235D01*
X132363560Y-131619000D01*
X132363560Y-132123534D01*
X132270698Y-132030673D01*
X132037309Y-131934000D01*
X131246750Y-131934000D01*
X131088000Y-132092750D01*
X130834000Y-132092750D01*
X130675250Y-131934000D01*
X129884691Y-131934000D01*
X129651302Y-132030673D01*
X129472673Y-132209301D01*
X129376000Y-132442690D01*
X124127000Y-132442690D01*
X124127000Y-125052606D01*
X126089803Y-123089803D01*
X126117333Y-123048601D01*
X126127000Y-123000000D01*
X126127000Y-120659532D01*
X138339073Y-120659532D01*
X138437736Y-120926387D01*
X139047461Y-121152908D01*
X139697460Y-121128856D01*
X140186264Y-120926387D01*
X140284927Y-120659532D01*
X139312000Y-119686605D01*
X138339073Y-120659532D01*
X126127000Y-120659532D01*
X126127000Y-119242461D01*
X137666092Y-119242461D01*
X137690144Y-119892460D01*
X137892613Y-120381264D01*
X138159468Y-120479927D01*
X139132395Y-119507000D01*
X139491605Y-119507000D01*
X140464532Y-120479927D01*
X140731387Y-120381264D01*
X140957908Y-119771539D01*
X140933856Y-119121540D01*
X140731387Y-118632736D01*
X140464532Y-118534073D01*
X139491605Y-119507000D01*
X139132395Y-119507000D01*
X138159468Y-118534073D01*
X137892613Y-118632736D01*
X137666092Y-119242461D01*
X126127000Y-119242461D01*
X126127000Y-118354468D01*
X138339073Y-118354468D01*
X139312000Y-119327395D01*
X140284927Y-118354468D01*
X140186264Y-118087613D01*
X139576539Y-117861092D01*
X138926540Y-117885144D01*
X138437736Y-118087613D01*
X138339073Y-118354468D01*
X126127000Y-118354468D01*
X126127000Y-116637932D01*
X126561460Y-116621856D01*
X127050264Y-116419387D01*
X127148927Y-116152532D01*
X126176000Y-115179605D01*
X126161858Y-115193748D01*
X126127000Y-115158890D01*
X126127000Y-115000000D01*
X126355605Y-115000000D01*
X127328532Y-115972927D01*
X127363689Y-115959928D01*
X127789847Y-116386086D01*
X128390778Y-116635000D01*
X129041222Y-116635000D01*
X129642153Y-116386086D01*
X129986000Y-116042239D01*
X130329847Y-116386086D01*
X130930778Y-116635000D01*
X131581222Y-116635000D01*
X132182153Y-116386086D01*
X132526000Y-116042239D01*
X132869847Y-116386086D01*
X133470778Y-116635000D01*
X134121222Y-116635000D01*
X134722153Y-116386086D01*
X135182086Y-115926153D01*
X135431000Y-115325222D01*
X135431000Y-114674778D01*
X135182086Y-114073847D01*
X134722153Y-113613914D01*
X134121222Y-113365000D01*
X133470778Y-113365000D01*
X132869847Y-113613914D01*
X132526000Y-113957761D01*
X132182153Y-113613914D01*
X131581222Y-113365000D01*
X130930778Y-113365000D01*
X130329847Y-113613914D01*
X129986000Y-113957761D01*
X129642153Y-113613914D01*
X129041222Y-113365000D01*
X128390778Y-113365000D01*
X127789847Y-113613914D01*
X127363689Y-114040072D01*
X127328532Y-114027073D01*
X126355605Y-115000000D01*
X126127000Y-115000000D01*
X126127000Y-114841110D01*
X126161858Y-114806253D01*
X126176000Y-114820395D01*
X127148927Y-113847468D01*
X127050264Y-113580613D01*
X126440539Y-113354092D01*
X126127000Y-113365694D01*
X126127000Y-111388532D01*
X126789073Y-111388532D01*
X126887736Y-111655387D01*
X127497461Y-111881908D01*
X128147460Y-111857856D01*
X128636264Y-111655387D01*
X128734927Y-111388532D01*
X127762000Y-110415605D01*
X126789073Y-111388532D01*
X126127000Y-111388532D01*
X126127000Y-110266247D01*
X126140144Y-110621460D01*
X126342613Y-111110264D01*
X126609468Y-111208927D01*
X127582395Y-110236000D01*
X127941605Y-110236000D01*
X128914532Y-111208927D01*
X129181387Y-111110264D01*
X129407908Y-110500539D01*
X129383856Y-109850540D01*
X129181387Y-109361736D01*
X128914532Y-109263073D01*
X127941605Y-110236000D01*
X127582395Y-110236000D01*
X126609468Y-109263073D01*
X126342613Y-109361736D01*
X126127000Y-109942100D01*
X126127000Y-109083468D01*
X126789073Y-109083468D01*
X127762000Y-110056395D01*
X128734927Y-109083468D01*
X128636264Y-108816613D01*
X128026539Y-108590092D01*
X127376540Y-108614144D01*
X126887736Y-108816613D01*
X126789073Y-109083468D01*
X126127000Y-109083468D01*
X126127000Y-108495223D01*
X129649035Y-108495223D01*
X129676222Y-109065454D01*
X129842136Y-109466005D01*
X130088255Y-109540139D01*
X130916395Y-108712000D01*
X130088255Y-107883861D01*
X129842136Y-107957995D01*
X129649035Y-108495223D01*
X126127000Y-108495223D01*
X126127000Y-108000000D01*
X126105670Y-107929553D01*
X125955472Y-107704255D01*
X130267861Y-107704255D01*
X131096000Y-108532395D01*
X131110142Y-108518252D01*
X131289748Y-108697858D01*
X131275605Y-108712000D01*
X131289748Y-108726143D01*
X131110142Y-108905748D01*
X131096000Y-108891605D01*
X130267861Y-109719745D01*
X130341995Y-109965864D01*
X130879223Y-110158965D01*
X131449454Y-110131778D01*
X131839067Y-109970395D01*
X132048235Y-110110157D01*
X132296000Y-110159440D01*
X133896000Y-110159440D01*
X134143765Y-110110157D01*
X134353809Y-109969809D01*
X134494157Y-109759765D01*
X134543440Y-109512000D01*
X134543440Y-108760126D01*
X135998000Y-108760126D01*
X135998000Y-109171874D01*
X136155569Y-109552280D01*
X136446720Y-109843431D01*
X136827126Y-110001000D01*
X137238874Y-110001000D01*
X137619280Y-109843431D01*
X137910431Y-109552280D01*
X138068000Y-109171874D01*
X138068000Y-108760126D01*
X137910431Y-108379720D01*
X137793000Y-108262289D01*
X137793000Y-107637715D01*
X137910435Y-107520280D01*
X138068004Y-107139874D01*
X138068004Y-106728126D01*
X137910435Y-106347720D01*
X137619284Y-106056569D01*
X137238878Y-105899000D01*
X136827130Y-105899000D01*
X136446724Y-106056569D01*
X136155573Y-106347720D01*
X135998004Y-106728126D01*
X135998004Y-107139874D01*
X136155573Y-107520280D01*
X136273001Y-107637708D01*
X136273000Y-108262289D01*
X136155569Y-108379720D01*
X135998000Y-108760126D01*
X134543440Y-108760126D01*
X134543440Y-107912000D01*
X134494157Y-107664235D01*
X134353809Y-107454191D01*
X134143765Y-107313843D01*
X133896000Y-107264560D01*
X132296000Y-107264560D01*
X132048235Y-107313843D01*
X131838484Y-107453995D01*
X131312777Y-107265035D01*
X130742546Y-107292222D01*
X130341995Y-107458136D01*
X130267861Y-107704255D01*
X125955472Y-107704255D01*
X124127000Y-104961548D01*
X124127000Y-95044126D01*
X124364800Y-95044126D01*
X124364800Y-95455874D01*
X124522369Y-95836280D01*
X124813520Y-96127431D01*
X125175653Y-96277431D01*
X125860997Y-96962776D01*
X125860996Y-98517393D01*
X125710996Y-98879526D01*
X125710996Y-99291274D01*
X125868565Y-99671680D01*
X126159716Y-99962831D01*
X126540122Y-100120400D01*
X126951870Y-100120400D01*
X127332276Y-99962831D01*
X127623427Y-99671680D01*
X127780996Y-99291274D01*
X127780996Y-98879526D01*
X127630996Y-98517393D01*
X127630996Y-98202750D01*
X129503000Y-98202750D01*
X129503000Y-98443310D01*
X129599673Y-98676699D01*
X129778302Y-98855327D01*
X130011691Y-98952000D01*
X130802250Y-98952000D01*
X130961000Y-98793250D01*
X130961000Y-98044000D01*
X129661750Y-98044000D01*
X129503000Y-98202750D01*
X127630996Y-98202750D01*
X127630996Y-97390690D01*
X129503000Y-97390690D01*
X129503000Y-97631250D01*
X129661750Y-97790000D01*
X130961000Y-97790000D01*
X130961000Y-97040750D01*
X131215000Y-97040750D01*
X131215000Y-97790000D01*
X132514250Y-97790000D01*
X132599781Y-97704469D01*
X132680191Y-97824809D01*
X132818164Y-97917000D01*
X132680191Y-98009191D01*
X132599781Y-98129531D01*
X132514250Y-98044000D01*
X131215000Y-98044000D01*
X131215000Y-98793250D01*
X131373750Y-98952000D01*
X132164309Y-98952000D01*
X132397698Y-98855327D01*
X132490560Y-98762466D01*
X132490560Y-99267000D01*
X132539843Y-99514765D01*
X132680191Y-99724809D01*
X132890235Y-99865157D01*
X133138000Y-99914440D01*
X135038000Y-99914440D01*
X135285765Y-99865157D01*
X135495809Y-99724809D01*
X135561163Y-99627000D01*
X139692505Y-99627000D01*
X139855034Y-100019380D01*
X140455620Y-100619966D01*
X141240322Y-100945000D01*
X142089678Y-100945000D01*
X142874380Y-100619966D01*
X143474966Y-100019380D01*
X143800000Y-99234678D01*
X143800000Y-98524561D01*
X144675000Y-98524561D01*
X144675000Y-99095439D01*
X144893466Y-99622862D01*
X145297138Y-100026534D01*
X145824561Y-100245000D01*
X146395439Y-100245000D01*
X146922862Y-100026534D01*
X147326534Y-99622862D01*
X147545000Y-99095439D01*
X147545000Y-98524561D01*
X147326534Y-97997138D01*
X146922862Y-97593466D01*
X146395439Y-97375000D01*
X145824561Y-97375000D01*
X145297138Y-97593466D01*
X144893466Y-97997138D01*
X144675000Y-98524561D01*
X143800000Y-98524561D01*
X143800000Y-98385322D01*
X143474966Y-97600620D01*
X142874380Y-97000034D01*
X142089678Y-96675000D01*
X141240322Y-96675000D01*
X140455620Y-97000034D01*
X139855034Y-97600620D01*
X139645285Y-98107000D01*
X135561163Y-98107000D01*
X135495809Y-98009191D01*
X135357836Y-97917000D01*
X135495809Y-97824809D01*
X135561163Y-97727000D01*
X135808153Y-97727000D01*
X135883000Y-97741888D01*
X135957847Y-97727000D01*
X135957852Y-97727000D01*
X136179537Y-97682904D01*
X136430929Y-97514929D01*
X136473331Y-97451470D01*
X136975941Y-96948860D01*
X137425322Y-97135000D01*
X138274678Y-97135000D01*
X139059380Y-96809966D01*
X139659966Y-96209380D01*
X139985000Y-95424678D01*
X139985000Y-94575322D01*
X139659966Y-93790620D01*
X139059380Y-93190034D01*
X138274678Y-92865000D01*
X137425322Y-92865000D01*
X136640620Y-93190034D01*
X136040034Y-93790620D01*
X135715000Y-94575322D01*
X135715000Y-95424678D01*
X135901140Y-95874059D01*
X135568199Y-96207000D01*
X135561163Y-96207000D01*
X135495809Y-96109191D01*
X135285765Y-95968843D01*
X135038000Y-95919560D01*
X133138000Y-95919560D01*
X132890235Y-95968843D01*
X132680191Y-96109191D01*
X132539843Y-96319235D01*
X132490560Y-96567000D01*
X132490560Y-97071534D01*
X132397698Y-96978673D01*
X132164309Y-96882000D01*
X131373750Y-96882000D01*
X131215000Y-97040750D01*
X130961000Y-97040750D01*
X130802250Y-96882000D01*
X130011691Y-96882000D01*
X129778302Y-96978673D01*
X129599673Y-97157301D01*
X129503000Y-97390690D01*
X127630996Y-97390690D01*
X127630996Y-96683357D01*
X127648333Y-96596196D01*
X127630996Y-96509035D01*
X127630996Y-96509031D01*
X127579648Y-96250886D01*
X127384045Y-95958147D01*
X127310152Y-95908773D01*
X126427231Y-95025853D01*
X126277231Y-94663720D01*
X125986080Y-94372569D01*
X125605674Y-94215000D01*
X125193926Y-94215000D01*
X124813520Y-94372569D01*
X124522369Y-94663720D01*
X124364800Y-95044126D01*
X124127000Y-95044126D01*
X124127000Y-93901126D01*
X126346000Y-93901126D01*
X126346000Y-94312874D01*
X126503569Y-94693280D01*
X126794720Y-94984431D01*
X127175126Y-95142000D01*
X127341198Y-95142000D01*
X127870000Y-95670802D01*
X127870000Y-95836874D01*
X128027569Y-96217280D01*
X128318720Y-96508431D01*
X128699126Y-96666000D01*
X129110874Y-96666000D01*
X129491280Y-96508431D01*
X129782431Y-96217280D01*
X129940000Y-95836874D01*
X129940000Y-95425126D01*
X129782431Y-95044720D01*
X129491280Y-94753569D01*
X129110874Y-94596000D01*
X128944802Y-94596000D01*
X128416000Y-94067198D01*
X128416000Y-93901126D01*
X128258431Y-93520720D01*
X127967280Y-93229569D01*
X127586874Y-93072000D01*
X127175126Y-93072000D01*
X126794720Y-93229569D01*
X126503569Y-93520720D01*
X126346000Y-93901126D01*
X124127000Y-93901126D01*
X124127000Y-90765322D01*
X140165000Y-90765322D01*
X140165000Y-91614678D01*
X140490034Y-92399380D01*
X141090620Y-92999966D01*
X141875322Y-93325000D01*
X142724678Y-93325000D01*
X143509380Y-92999966D01*
X144109966Y-92399380D01*
X144435000Y-91614678D01*
X144435000Y-90834352D01*
X144695470Y-91094822D01*
X146028545Y-91647000D01*
X147471455Y-91647000D01*
X148804530Y-91094822D01*
X149824822Y-90074530D01*
X150377000Y-88741455D01*
X150377000Y-87298545D01*
X149824822Y-85965470D01*
X149189000Y-85329648D01*
X149189000Y-81547246D01*
X149462943Y-81273303D01*
X149939000Y-80123999D01*
X149939000Y-78880001D01*
X149462943Y-77730697D01*
X148583303Y-76851057D01*
X147433999Y-76375000D01*
X146190001Y-76375000D01*
X145040697Y-76851057D01*
X144161057Y-77730697D01*
X143685000Y-78880001D01*
X143685000Y-80123999D01*
X144161057Y-81273303D01*
X144435000Y-81547246D01*
X144435001Y-85205647D01*
X143675178Y-85965470D01*
X143123000Y-87298545D01*
X143123000Y-88741455D01*
X143362268Y-89319098D01*
X142724678Y-89055000D01*
X141875322Y-89055000D01*
X141090620Y-89380034D01*
X140490034Y-89980620D01*
X140165000Y-90765322D01*
X124127000Y-90765322D01*
X124127000Y-90042333D01*
X127101600Y-86076200D01*
X127123027Y-86031519D01*
X127127000Y-86000000D01*
X127127000Y-80654532D01*
X138339073Y-80654532D01*
X138437736Y-80921387D01*
X139047461Y-81147908D01*
X139697460Y-81123856D01*
X140186264Y-80921387D01*
X140284927Y-80654532D01*
X139312000Y-79681605D01*
X138339073Y-80654532D01*
X127127000Y-80654532D01*
X127127000Y-79237461D01*
X137666092Y-79237461D01*
X137690144Y-79887460D01*
X137892613Y-80376264D01*
X138159468Y-80474927D01*
X139132395Y-79502000D01*
X139491605Y-79502000D01*
X140464532Y-80474927D01*
X140731387Y-80376264D01*
X140957908Y-79766539D01*
X140933856Y-79116540D01*
X140731387Y-78627736D01*
X140464532Y-78529073D01*
X139491605Y-79502000D01*
X139132395Y-79502000D01*
X138159468Y-78529073D01*
X137892613Y-78627736D01*
X137666092Y-79237461D01*
X127127000Y-79237461D01*
X127127000Y-78349468D01*
X138339073Y-78349468D01*
X139312000Y-79322395D01*
X140284927Y-78349468D01*
X140186264Y-78082613D01*
X139576539Y-77856092D01*
X138926540Y-77880144D01*
X138437736Y-78082613D01*
X138339073Y-78349468D01*
X127127000Y-78349468D01*
X127127000Y-75063500D01*
X135042333Y-69127000D01*
X150873000Y-69127000D01*
X150873000Y-89768073D01*
X150873000Y-89768073D01*
G37*
X150873000Y-89768073D02*
X150377138Y-89973466D01*
X149973466Y-90377138D01*
X149755000Y-90904561D01*
X149755000Y-91475439D01*
X149973466Y-92002862D01*
X150377138Y-92406534D01*
X150873000Y-92611927D01*
X150873000Y-108748629D01*
X150611121Y-108486750D01*
X149955059Y-108215000D01*
X149244941Y-108215000D01*
X148588879Y-108486750D01*
X148086750Y-108988879D01*
X147815000Y-109644941D01*
X147815000Y-110355059D01*
X148086750Y-111011121D01*
X148588879Y-111513250D01*
X149244941Y-111785000D01*
X149955059Y-111785000D01*
X150611121Y-111513250D01*
X150873000Y-111251371D01*
X150873000Y-129768073D01*
X150377138Y-129973466D01*
X149973466Y-130377138D01*
X149755000Y-130904561D01*
X149755000Y-131475439D01*
X149973466Y-132002862D01*
X150377138Y-132406534D01*
X150873000Y-132611927D01*
X150873000Y-148748629D01*
X150611121Y-148486750D01*
X149955059Y-148215000D01*
X149244941Y-148215000D01*
X148588879Y-148486750D01*
X148086750Y-148988879D01*
X147815000Y-149644941D01*
X147815000Y-150355059D01*
X148086750Y-151011121D01*
X148588879Y-151513250D01*
X149244941Y-151785000D01*
X149955059Y-151785000D01*
X150611121Y-151513250D01*
X150873000Y-151251371D01*
X150873000Y-156748629D01*
X150611121Y-156486750D01*
X149955059Y-156215000D01*
X149244941Y-156215000D01*
X148588879Y-156486750D01*
X148086750Y-156988879D01*
X147815000Y-157644941D01*
X147815000Y-158355059D01*
X148086750Y-159011121D01*
X148588879Y-159513250D01*
X149244941Y-159785000D01*
X149955059Y-159785000D01*
X150611121Y-159513250D01*
X150873000Y-159251371D01*
X150873000Y-160873000D01*
X133052606Y-160873000D01*
X127127000Y-154947394D01*
X127127000Y-149146126D01*
X133839000Y-149146126D01*
X133839000Y-149557874D01*
X133996569Y-149938280D01*
X134114000Y-150055711D01*
X134114001Y-151950288D01*
X133996569Y-152067720D01*
X133839000Y-152448126D01*
X133839000Y-152859874D01*
X133996569Y-153240280D01*
X134287720Y-153531431D01*
X134668126Y-153689000D01*
X135079874Y-153689000D01*
X135460280Y-153531431D01*
X135751431Y-153240280D01*
X135909000Y-152859874D01*
X135909000Y-152448126D01*
X135751431Y-152067720D01*
X135634000Y-151950289D01*
X135634000Y-150055711D01*
X135751431Y-149938280D01*
X135909000Y-149557874D01*
X135909000Y-149146126D01*
X135751431Y-148765720D01*
X135460280Y-148474569D01*
X135079874Y-148317000D01*
X134668126Y-148317000D01*
X134287720Y-148474569D01*
X133996569Y-148765720D01*
X133839000Y-149146126D01*
X127127000Y-149146126D01*
X127127000Y-146000000D01*
X127117333Y-145951399D01*
X127089803Y-145910197D01*
X124127000Y-142947394D01*
X124127000Y-133254750D01*
X129376000Y-133254750D01*
X129376000Y-133495310D01*
X129472673Y-133728699D01*
X129651302Y-133907327D01*
X129884691Y-134004000D01*
X130675250Y-134004000D01*
X130834000Y-133845250D01*
X130834000Y-133096000D01*
X129534750Y-133096000D01*
X129376000Y-133254750D01*
X124127000Y-133254750D01*
X124127000Y-132442690D01*
X129376000Y-132442690D01*
X129376000Y-132683250D01*
X129534750Y-132842000D01*
X130834000Y-132842000D01*
X130834000Y-132092750D01*
X131088000Y-132092750D01*
X131088000Y-132842000D01*
X132387250Y-132842000D01*
X132472781Y-132756469D01*
X132553191Y-132876809D01*
X132691164Y-132969000D01*
X132553191Y-133061191D01*
X132472781Y-133181531D01*
X132387250Y-133096000D01*
X131088000Y-133096000D01*
X131088000Y-133845250D01*
X131246750Y-134004000D01*
X132037309Y-134004000D01*
X132270698Y-133907327D01*
X132363560Y-133814466D01*
X132363560Y-134319000D01*
X132412843Y-134566765D01*
X132553191Y-134776809D01*
X132763235Y-134917157D01*
X133011000Y-134966440D01*
X134911000Y-134966440D01*
X135014126Y-134945927D01*
X135085000Y-135016802D01*
X135085000Y-135424678D01*
X135410034Y-136209380D01*
X136010620Y-136809966D01*
X136240053Y-136905000D01*
X136010620Y-137000034D01*
X135410034Y-137600620D01*
X135085000Y-138385322D01*
X135085000Y-139234678D01*
X135410034Y-140019380D01*
X136010620Y-140619966D01*
X136795322Y-140945000D01*
X137644678Y-140945000D01*
X138429380Y-140619966D01*
X139029966Y-140019380D01*
X139355000Y-139234678D01*
X139355000Y-138524561D01*
X144675000Y-138524561D01*
X144675000Y-139095439D01*
X144893466Y-139622862D01*
X145297138Y-140026534D01*
X145824561Y-140245000D01*
X146395439Y-140245000D01*
X146922862Y-140026534D01*
X147326534Y-139622862D01*
X147545000Y-139095439D01*
X147545000Y-138524561D01*
X147326534Y-137997138D01*
X146922862Y-137593466D01*
X146395439Y-137375000D01*
X145824561Y-137375000D01*
X145297138Y-137593466D01*
X144893466Y-137997138D01*
X144675000Y-138524561D01*
X139355000Y-138524561D01*
X139355000Y-138385322D01*
X139029966Y-137600620D01*
X138429380Y-137000034D01*
X138199947Y-136905000D01*
X138429380Y-136809966D01*
X139029966Y-136209380D01*
X139355000Y-135424678D01*
X139355000Y-134575322D01*
X140165000Y-134575322D01*
X140165000Y-135424678D01*
X140490034Y-136209380D01*
X141090620Y-136809966D01*
X141875322Y-137135000D01*
X142724678Y-137135000D01*
X143509380Y-136809966D01*
X144109966Y-136209380D01*
X144435000Y-135424678D01*
X144435000Y-134575322D01*
X144300637Y-134250941D01*
X147376156Y-131175423D01*
X147450049Y-131126049D01*
X147645652Y-130833310D01*
X147697000Y-130575165D01*
X147697000Y-130575161D01*
X147714337Y-130488000D01*
X147697000Y-130400839D01*
X147697000Y-120910132D01*
X147738153Y-120893086D01*
X148198086Y-120433153D01*
X148447000Y-119832222D01*
X148447000Y-119181778D01*
X148198086Y-118580847D01*
X147738153Y-118120914D01*
X147137222Y-117872000D01*
X146486778Y-117872000D01*
X145885847Y-118120914D01*
X145425914Y-118580847D01*
X145177000Y-119181778D01*
X145177000Y-119832222D01*
X145425914Y-120433153D01*
X145885847Y-120893086D01*
X145927000Y-120910132D01*
X145927001Y-130121420D01*
X143049059Y-132999363D01*
X142724678Y-132865000D01*
X141875322Y-132865000D01*
X141090620Y-133190034D01*
X140490034Y-133790620D01*
X140165000Y-134575322D01*
X139355000Y-134575322D01*
X139029966Y-133790620D01*
X138429380Y-133190034D01*
X138199947Y-133095000D01*
X138429380Y-132999966D01*
X139029966Y-132399380D01*
X139355000Y-131614678D01*
X139355000Y-130765322D01*
X139029966Y-129980620D01*
X138429380Y-129380034D01*
X137644678Y-129055000D01*
X136795322Y-129055000D01*
X136010620Y-129380034D01*
X135410034Y-129980620D01*
X135085000Y-130765322D01*
X135085000Y-130921198D01*
X135014126Y-130992073D01*
X134911000Y-130971560D01*
X133011000Y-130971560D01*
X132763235Y-131020843D01*
X132553191Y-131161191D01*
X132412843Y-131371235D01*
X132363560Y-131619000D01*
X132363560Y-132123534D01*
X132270698Y-132030673D01*
X132037309Y-131934000D01*
X131246750Y-131934000D01*
X131088000Y-132092750D01*
X130834000Y-132092750D01*
X130675250Y-131934000D01*
X129884691Y-131934000D01*
X129651302Y-132030673D01*
X129472673Y-132209301D01*
X129376000Y-132442690D01*
X124127000Y-132442690D01*
X124127000Y-125052606D01*
X126089803Y-123089803D01*
X126117333Y-123048601D01*
X126127000Y-123000000D01*
X126127000Y-120659532D01*
X138339073Y-120659532D01*
X138437736Y-120926387D01*
X139047461Y-121152908D01*
X139697460Y-121128856D01*
X140186264Y-120926387D01*
X140284927Y-120659532D01*
X139312000Y-119686605D01*
X138339073Y-120659532D01*
X126127000Y-120659532D01*
X126127000Y-119242461D01*
X137666092Y-119242461D01*
X137690144Y-119892460D01*
X137892613Y-120381264D01*
X138159468Y-120479927D01*
X139132395Y-119507000D01*
X139491605Y-119507000D01*
X140464532Y-120479927D01*
X140731387Y-120381264D01*
X140957908Y-119771539D01*
X140933856Y-119121540D01*
X140731387Y-118632736D01*
X140464532Y-118534073D01*
X139491605Y-119507000D01*
X139132395Y-119507000D01*
X138159468Y-118534073D01*
X137892613Y-118632736D01*
X137666092Y-119242461D01*
X126127000Y-119242461D01*
X126127000Y-118354468D01*
X138339073Y-118354468D01*
X139312000Y-119327395D01*
X140284927Y-118354468D01*
X140186264Y-118087613D01*
X139576539Y-117861092D01*
X138926540Y-117885144D01*
X138437736Y-118087613D01*
X138339073Y-118354468D01*
X126127000Y-118354468D01*
X126127000Y-116637932D01*
X126561460Y-116621856D01*
X127050264Y-116419387D01*
X127148927Y-116152532D01*
X126176000Y-115179605D01*
X126161858Y-115193748D01*
X126127000Y-115158890D01*
X126127000Y-115000000D01*
X126355605Y-115000000D01*
X127328532Y-115972927D01*
X127363689Y-115959928D01*
X127789847Y-116386086D01*
X128390778Y-116635000D01*
X129041222Y-116635000D01*
X129642153Y-116386086D01*
X129986000Y-116042239D01*
X130329847Y-116386086D01*
X130930778Y-116635000D01*
X131581222Y-116635000D01*
X132182153Y-116386086D01*
X132526000Y-116042239D01*
X132869847Y-116386086D01*
X133470778Y-116635000D01*
X134121222Y-116635000D01*
X134722153Y-116386086D01*
X135182086Y-115926153D01*
X135431000Y-115325222D01*
X135431000Y-114674778D01*
X135182086Y-114073847D01*
X134722153Y-113613914D01*
X134121222Y-113365000D01*
X133470778Y-113365000D01*
X132869847Y-113613914D01*
X132526000Y-113957761D01*
X132182153Y-113613914D01*
X131581222Y-113365000D01*
X130930778Y-113365000D01*
X130329847Y-113613914D01*
X129986000Y-113957761D01*
X129642153Y-113613914D01*
X129041222Y-113365000D01*
X128390778Y-113365000D01*
X127789847Y-113613914D01*
X127363689Y-114040072D01*
X127328532Y-114027073D01*
X126355605Y-115000000D01*
X126127000Y-115000000D01*
X126127000Y-114841110D01*
X126161858Y-114806253D01*
X126176000Y-114820395D01*
X127148927Y-113847468D01*
X127050264Y-113580613D01*
X126440539Y-113354092D01*
X126127000Y-113365694D01*
X126127000Y-111388532D01*
X126789073Y-111388532D01*
X126887736Y-111655387D01*
X127497461Y-111881908D01*
X128147460Y-111857856D01*
X128636264Y-111655387D01*
X128734927Y-111388532D01*
X127762000Y-110415605D01*
X126789073Y-111388532D01*
X126127000Y-111388532D01*
X126127000Y-110266247D01*
X126140144Y-110621460D01*
X126342613Y-111110264D01*
X126609468Y-111208927D01*
X127582395Y-110236000D01*
X127941605Y-110236000D01*
X128914532Y-111208927D01*
X129181387Y-111110264D01*
X129407908Y-110500539D01*
X129383856Y-109850540D01*
X129181387Y-109361736D01*
X128914532Y-109263073D01*
X127941605Y-110236000D01*
X127582395Y-110236000D01*
X126609468Y-109263073D01*
X126342613Y-109361736D01*
X126127000Y-109942100D01*
X126127000Y-109083468D01*
X126789073Y-109083468D01*
X127762000Y-110056395D01*
X128734927Y-109083468D01*
X128636264Y-108816613D01*
X128026539Y-108590092D01*
X127376540Y-108614144D01*
X126887736Y-108816613D01*
X126789073Y-109083468D01*
X126127000Y-109083468D01*
X126127000Y-108495223D01*
X129649035Y-108495223D01*
X129676222Y-109065454D01*
X129842136Y-109466005D01*
X130088255Y-109540139D01*
X130916395Y-108712000D01*
X130088255Y-107883861D01*
X129842136Y-107957995D01*
X129649035Y-108495223D01*
X126127000Y-108495223D01*
X126127000Y-108000000D01*
X126105670Y-107929553D01*
X125955472Y-107704255D01*
X130267861Y-107704255D01*
X131096000Y-108532395D01*
X131110142Y-108518252D01*
X131289748Y-108697858D01*
X131275605Y-108712000D01*
X131289748Y-108726143D01*
X131110142Y-108905748D01*
X131096000Y-108891605D01*
X130267861Y-109719745D01*
X130341995Y-109965864D01*
X130879223Y-110158965D01*
X131449454Y-110131778D01*
X131839067Y-109970395D01*
X132048235Y-110110157D01*
X132296000Y-110159440D01*
X133896000Y-110159440D01*
X134143765Y-110110157D01*
X134353809Y-109969809D01*
X134494157Y-109759765D01*
X134543440Y-109512000D01*
X134543440Y-108760126D01*
X135998000Y-108760126D01*
X135998000Y-109171874D01*
X136155569Y-109552280D01*
X136446720Y-109843431D01*
X136827126Y-110001000D01*
X137238874Y-110001000D01*
X137619280Y-109843431D01*
X137910431Y-109552280D01*
X138068000Y-109171874D01*
X138068000Y-108760126D01*
X137910431Y-108379720D01*
X137793000Y-108262289D01*
X137793000Y-107637715D01*
X137910435Y-107520280D01*
X138068004Y-107139874D01*
X138068004Y-106728126D01*
X137910435Y-106347720D01*
X137619284Y-106056569D01*
X137238878Y-105899000D01*
X136827130Y-105899000D01*
X136446724Y-106056569D01*
X136155573Y-106347720D01*
X135998004Y-106728126D01*
X135998004Y-107139874D01*
X136155573Y-107520280D01*
X136273001Y-107637708D01*
X136273000Y-108262289D01*
X136155569Y-108379720D01*
X135998000Y-108760126D01*
X134543440Y-108760126D01*
X134543440Y-107912000D01*
X134494157Y-107664235D01*
X134353809Y-107454191D01*
X134143765Y-107313843D01*
X133896000Y-107264560D01*
X132296000Y-107264560D01*
X132048235Y-107313843D01*
X131838484Y-107453995D01*
X131312777Y-107265035D01*
X130742546Y-107292222D01*
X130341995Y-107458136D01*
X130267861Y-107704255D01*
X125955472Y-107704255D01*
X124127000Y-104961548D01*
X124127000Y-95044126D01*
X124364800Y-95044126D01*
X124364800Y-95455874D01*
X124522369Y-95836280D01*
X124813520Y-96127431D01*
X125175653Y-96277431D01*
X125860997Y-96962776D01*
X125860996Y-98517393D01*
X125710996Y-98879526D01*
X125710996Y-99291274D01*
X125868565Y-99671680D01*
X126159716Y-99962831D01*
X126540122Y-100120400D01*
X126951870Y-100120400D01*
X127332276Y-99962831D01*
X127623427Y-99671680D01*
X127780996Y-99291274D01*
X127780996Y-98879526D01*
X127630996Y-98517393D01*
X127630996Y-98202750D01*
X129503000Y-98202750D01*
X129503000Y-98443310D01*
X129599673Y-98676699D01*
X129778302Y-98855327D01*
X130011691Y-98952000D01*
X130802250Y-98952000D01*
X130961000Y-98793250D01*
X130961000Y-98044000D01*
X129661750Y-98044000D01*
X129503000Y-98202750D01*
X127630996Y-98202750D01*
X127630996Y-97390690D01*
X129503000Y-97390690D01*
X129503000Y-97631250D01*
X129661750Y-97790000D01*
X130961000Y-97790000D01*
X130961000Y-97040750D01*
X131215000Y-97040750D01*
X131215000Y-97790000D01*
X132514250Y-97790000D01*
X132599781Y-97704469D01*
X132680191Y-97824809D01*
X132818164Y-97917000D01*
X132680191Y-98009191D01*
X132599781Y-98129531D01*
X132514250Y-98044000D01*
X131215000Y-98044000D01*
X131215000Y-98793250D01*
X131373750Y-98952000D01*
X132164309Y-98952000D01*
X132397698Y-98855327D01*
X132490560Y-98762466D01*
X132490560Y-99267000D01*
X132539843Y-99514765D01*
X132680191Y-99724809D01*
X132890235Y-99865157D01*
X133138000Y-99914440D01*
X135038000Y-99914440D01*
X135285765Y-99865157D01*
X135495809Y-99724809D01*
X135561163Y-99627000D01*
X139692505Y-99627000D01*
X139855034Y-100019380D01*
X140455620Y-100619966D01*
X141240322Y-100945000D01*
X142089678Y-100945000D01*
X142874380Y-100619966D01*
X143474966Y-100019380D01*
X143800000Y-99234678D01*
X143800000Y-98524561D01*
X144675000Y-98524561D01*
X144675000Y-99095439D01*
X144893466Y-99622862D01*
X145297138Y-100026534D01*
X145824561Y-100245000D01*
X146395439Y-100245000D01*
X146922862Y-100026534D01*
X147326534Y-99622862D01*
X147545000Y-99095439D01*
X147545000Y-98524561D01*
X147326534Y-97997138D01*
X146922862Y-97593466D01*
X146395439Y-97375000D01*
X145824561Y-97375000D01*
X145297138Y-97593466D01*
X144893466Y-97997138D01*
X144675000Y-98524561D01*
X143800000Y-98524561D01*
X143800000Y-98385322D01*
X143474966Y-97600620D01*
X142874380Y-97000034D01*
X142089678Y-96675000D01*
X141240322Y-96675000D01*
X140455620Y-97000034D01*
X139855034Y-97600620D01*
X139645285Y-98107000D01*
X135561163Y-98107000D01*
X135495809Y-98009191D01*
X135357836Y-97917000D01*
X135495809Y-97824809D01*
X135561163Y-97727000D01*
X135808153Y-97727000D01*
X135883000Y-97741888D01*
X135957847Y-97727000D01*
X135957852Y-97727000D01*
X136179537Y-97682904D01*
X136430929Y-97514929D01*
X136473331Y-97451470D01*
X136975941Y-96948860D01*
X137425322Y-97135000D01*
X138274678Y-97135000D01*
X139059380Y-96809966D01*
X139659966Y-96209380D01*
X139985000Y-95424678D01*
X139985000Y-94575322D01*
X139659966Y-93790620D01*
X139059380Y-93190034D01*
X138274678Y-92865000D01*
X137425322Y-92865000D01*
X136640620Y-93190034D01*
X136040034Y-93790620D01*
X135715000Y-94575322D01*
X135715000Y-95424678D01*
X135901140Y-95874059D01*
X135568199Y-96207000D01*
X135561163Y-96207000D01*
X135495809Y-96109191D01*
X135285765Y-95968843D01*
X135038000Y-95919560D01*
X133138000Y-95919560D01*
X132890235Y-95968843D01*
X132680191Y-96109191D01*
X132539843Y-96319235D01*
X132490560Y-96567000D01*
X132490560Y-97071534D01*
X132397698Y-96978673D01*
X132164309Y-96882000D01*
X131373750Y-96882000D01*
X131215000Y-97040750D01*
X130961000Y-97040750D01*
X130802250Y-96882000D01*
X130011691Y-96882000D01*
X129778302Y-96978673D01*
X129599673Y-97157301D01*
X129503000Y-97390690D01*
X127630996Y-97390690D01*
X127630996Y-96683357D01*
X127648333Y-96596196D01*
X127630996Y-96509035D01*
X127630996Y-96509031D01*
X127579648Y-96250886D01*
X127384045Y-95958147D01*
X127310152Y-95908773D01*
X126427231Y-95025853D01*
X126277231Y-94663720D01*
X125986080Y-94372569D01*
X125605674Y-94215000D01*
X125193926Y-94215000D01*
X124813520Y-94372569D01*
X124522369Y-94663720D01*
X124364800Y-95044126D01*
X124127000Y-95044126D01*
X124127000Y-93901126D01*
X126346000Y-93901126D01*
X126346000Y-94312874D01*
X126503569Y-94693280D01*
X126794720Y-94984431D01*
X127175126Y-95142000D01*
X127341198Y-95142000D01*
X127870000Y-95670802D01*
X127870000Y-95836874D01*
X128027569Y-96217280D01*
X128318720Y-96508431D01*
X128699126Y-96666000D01*
X129110874Y-96666000D01*
X129491280Y-96508431D01*
X129782431Y-96217280D01*
X129940000Y-95836874D01*
X129940000Y-95425126D01*
X129782431Y-95044720D01*
X129491280Y-94753569D01*
X129110874Y-94596000D01*
X128944802Y-94596000D01*
X128416000Y-94067198D01*
X128416000Y-93901126D01*
X128258431Y-93520720D01*
X127967280Y-93229569D01*
X127586874Y-93072000D01*
X127175126Y-93072000D01*
X126794720Y-93229569D01*
X126503569Y-93520720D01*
X126346000Y-93901126D01*
X124127000Y-93901126D01*
X124127000Y-90765322D01*
X140165000Y-90765322D01*
X140165000Y-91614678D01*
X140490034Y-92399380D01*
X141090620Y-92999966D01*
X141875322Y-93325000D01*
X142724678Y-93325000D01*
X143509380Y-92999966D01*
X144109966Y-92399380D01*
X144435000Y-91614678D01*
X144435000Y-90834352D01*
X144695470Y-91094822D01*
X146028545Y-91647000D01*
X147471455Y-91647000D01*
X148804530Y-91094822D01*
X149824822Y-90074530D01*
X150377000Y-88741455D01*
X150377000Y-87298545D01*
X149824822Y-85965470D01*
X149189000Y-85329648D01*
X149189000Y-81547246D01*
X149462943Y-81273303D01*
X149939000Y-80123999D01*
X149939000Y-78880001D01*
X149462943Y-77730697D01*
X148583303Y-76851057D01*
X147433999Y-76375000D01*
X146190001Y-76375000D01*
X145040697Y-76851057D01*
X144161057Y-77730697D01*
X143685000Y-78880001D01*
X143685000Y-80123999D01*
X144161057Y-81273303D01*
X144435000Y-81547246D01*
X144435001Y-85205647D01*
X143675178Y-85965470D01*
X143123000Y-87298545D01*
X143123000Y-88741455D01*
X143362268Y-89319098D01*
X142724678Y-89055000D01*
X141875322Y-89055000D01*
X141090620Y-89380034D01*
X140490034Y-89980620D01*
X140165000Y-90765322D01*
X124127000Y-90765322D01*
X124127000Y-90042333D01*
X127101600Y-86076200D01*
X127123027Y-86031519D01*
X127127000Y-86000000D01*
X127127000Y-80654532D01*
X138339073Y-80654532D01*
X138437736Y-80921387D01*
X139047461Y-81147908D01*
X139697460Y-81123856D01*
X140186264Y-80921387D01*
X140284927Y-80654532D01*
X139312000Y-79681605D01*
X138339073Y-80654532D01*
X127127000Y-80654532D01*
X127127000Y-79237461D01*
X137666092Y-79237461D01*
X137690144Y-79887460D01*
X137892613Y-80376264D01*
X138159468Y-80474927D01*
X139132395Y-79502000D01*
X139491605Y-79502000D01*
X140464532Y-80474927D01*
X140731387Y-80376264D01*
X140957908Y-79766539D01*
X140933856Y-79116540D01*
X140731387Y-78627736D01*
X140464532Y-78529073D01*
X139491605Y-79502000D01*
X139132395Y-79502000D01*
X138159468Y-78529073D01*
X137892613Y-78627736D01*
X137666092Y-79237461D01*
X127127000Y-79237461D01*
X127127000Y-78349468D01*
X138339073Y-78349468D01*
X139312000Y-79322395D01*
X140284927Y-78349468D01*
X140186264Y-78082613D01*
X139576539Y-77856092D01*
X138926540Y-77880144D01*
X138437736Y-78082613D01*
X138339073Y-78349468D01*
X127127000Y-78349468D01*
X127127000Y-75063500D01*
X135042333Y-69127000D01*
X150873000Y-69127000D01*
X150873000Y-89768073D01*
G04 #@! TO.N,GND*
G36*
X120873000Y-75052606D02*
X120873000Y-85957667D01*
X117898400Y-89923800D01*
X117876973Y-89968481D01*
X117873000Y-90000000D01*
X117873000Y-105000000D01*
X117882667Y-105048601D01*
X117910197Y-105089803D01*
X121873000Y-109052606D01*
X121873000Y-109824331D01*
X121681387Y-109361736D01*
X121414532Y-109263073D01*
X120441605Y-110236000D01*
X121414532Y-111208927D01*
X121681387Y-111110264D01*
X121873000Y-110594501D01*
X121873000Y-113544478D01*
X121360539Y-113354092D01*
X120710540Y-113378144D01*
X120221736Y-113580613D01*
X120123073Y-113847468D01*
X121096000Y-114820395D01*
X121110143Y-114806253D01*
X121289748Y-114985858D01*
X121275605Y-115000000D01*
X121289748Y-115014143D01*
X121110143Y-115193748D01*
X121096000Y-115179605D01*
X120123073Y-116152532D01*
X120221736Y-116419387D01*
X120831461Y-116645908D01*
X121481460Y-116621856D01*
X121873000Y-116459675D01*
X121873000Y-119955452D01*
X117900830Y-124920664D01*
X117878018Y-124964654D01*
X117873000Y-125000000D01*
X117873000Y-143000000D01*
X117882667Y-143048601D01*
X117910197Y-143089803D01*
X120873000Y-146052606D01*
X120873000Y-154951265D01*
X112423139Y-164340000D01*
X55660000Y-164340000D01*
X55660000Y-159149482D01*
X102825500Y-159149482D01*
X102825500Y-159874518D01*
X103102959Y-160544363D01*
X103615637Y-161057041D01*
X104285482Y-161334500D01*
X105010518Y-161334500D01*
X105680363Y-161057041D01*
X106193041Y-160544363D01*
X106318644Y-160241130D01*
X106547736Y-160470222D01*
X106963169Y-160642300D01*
X107412831Y-160642300D01*
X107828264Y-160470222D01*
X108057356Y-160241130D01*
X108182959Y-160544363D01*
X108695637Y-161057041D01*
X109365482Y-161334500D01*
X110090518Y-161334500D01*
X110760363Y-161057041D01*
X111273041Y-160544363D01*
X111550500Y-159874518D01*
X111550500Y-159149482D01*
X111273041Y-158479637D01*
X110760363Y-157966959D01*
X110090518Y-157689500D01*
X109365482Y-157689500D01*
X108695637Y-157966959D01*
X108182959Y-158479637D01*
X108057356Y-158782870D01*
X107828264Y-158553778D01*
X107412831Y-158381700D01*
X106963169Y-158381700D01*
X106547736Y-158553778D01*
X106318644Y-158782870D01*
X106193041Y-158479637D01*
X105680363Y-157966959D01*
X105010518Y-157689500D01*
X104285482Y-157689500D01*
X103615637Y-157966959D01*
X103102959Y-158479637D01*
X102825500Y-159149482D01*
X55660000Y-159149482D01*
X55660000Y-141888120D01*
X81241994Y-141888120D01*
X81241994Y-142299868D01*
X81399563Y-142680274D01*
X81516994Y-142797705D01*
X81516995Y-143543143D01*
X81502106Y-143617994D01*
X81561091Y-143914531D01*
X81673075Y-144082126D01*
X81729066Y-144165923D01*
X81792522Y-144208323D01*
X81896000Y-144311801D01*
X81896000Y-144477874D01*
X82053569Y-144858280D01*
X82344720Y-145149431D01*
X82725126Y-145307000D01*
X83136874Y-145307000D01*
X83517280Y-145149431D01*
X83808431Y-144858280D01*
X83966000Y-144477874D01*
X83966000Y-144066126D01*
X83808431Y-143685720D01*
X83517280Y-143394569D01*
X83136874Y-143237000D01*
X83036994Y-143237000D01*
X83036994Y-142797705D01*
X83154425Y-142680274D01*
X83311994Y-142299868D01*
X83311994Y-141888120D01*
X83154425Y-141507714D01*
X83045837Y-141399126D01*
X85832996Y-141399126D01*
X85832996Y-141810874D01*
X85990565Y-142191280D01*
X86281716Y-142482431D01*
X86662122Y-142640000D01*
X87073870Y-142640000D01*
X87454276Y-142482431D01*
X87571707Y-142365000D01*
X89311153Y-142365000D01*
X89386000Y-142379888D01*
X89460847Y-142365000D01*
X89460852Y-142365000D01*
X89682537Y-142320904D01*
X89933929Y-142152929D01*
X89976331Y-142089470D01*
X90971802Y-141094000D01*
X91080421Y-141094000D01*
X87993846Y-144180576D01*
X87919950Y-144229952D01*
X87724347Y-144522692D01*
X87672999Y-144780837D01*
X87672999Y-144780840D01*
X87655662Y-144868001D01*
X87672999Y-144955162D01*
X87673000Y-153875834D01*
X87655662Y-153962999D01*
X87724347Y-154308308D01*
X87870575Y-154527153D01*
X87870577Y-154527155D01*
X87919951Y-154601048D01*
X87946000Y-154618453D01*
X87946000Y-154951548D01*
X88149242Y-155442217D01*
X88524783Y-155817758D01*
X89015452Y-156021000D01*
X89546548Y-156021000D01*
X90037217Y-155817758D01*
X90412758Y-155442217D01*
X90616000Y-154951548D01*
X90616000Y-154420452D01*
X90412758Y-153929783D01*
X90181859Y-153698884D01*
X90285431Y-153595312D01*
X90352048Y-153434482D01*
X102825500Y-153434482D01*
X102825500Y-154159518D01*
X103102959Y-154829363D01*
X103615637Y-155342041D01*
X104285482Y-155619500D01*
X105010518Y-155619500D01*
X105680363Y-155342041D01*
X106193041Y-154829363D01*
X106470500Y-154159518D01*
X106470500Y-153434482D01*
X106299769Y-153022300D01*
X106397831Y-153022300D01*
X106813264Y-152850222D01*
X107131222Y-152532264D01*
X107188000Y-152395190D01*
X107244778Y-152532264D01*
X107562736Y-152850222D01*
X107978169Y-153022300D01*
X108076231Y-153022300D01*
X107905500Y-153434482D01*
X107905500Y-154159518D01*
X108182959Y-154829363D01*
X108695637Y-155342041D01*
X109365482Y-155619500D01*
X110090518Y-155619500D01*
X110760363Y-155342041D01*
X111273041Y-154829363D01*
X111550500Y-154159518D01*
X111550500Y-153434482D01*
X111273041Y-152764637D01*
X110760363Y-152251959D01*
X110090518Y-151974500D01*
X109365482Y-151974500D01*
X109333300Y-151987830D01*
X109333300Y-151667169D01*
X109161222Y-151251736D01*
X108843264Y-150933778D01*
X108427831Y-150761700D01*
X107978169Y-150761700D01*
X107562736Y-150933778D01*
X107244778Y-151251736D01*
X107188000Y-151388810D01*
X107131222Y-151251736D01*
X106813264Y-150933778D01*
X106397831Y-150761700D01*
X105948169Y-150761700D01*
X105532736Y-150933778D01*
X105214778Y-151251736D01*
X105042700Y-151667169D01*
X105042700Y-151987830D01*
X105010518Y-151974500D01*
X104285482Y-151974500D01*
X103615637Y-152251959D01*
X103102959Y-152764637D01*
X102825500Y-153434482D01*
X90352048Y-153434482D01*
X90443000Y-153214906D01*
X90443000Y-152803158D01*
X90285431Y-152422752D01*
X90168000Y-152305321D01*
X90168000Y-146499711D01*
X90285431Y-146382280D01*
X90443000Y-146001874D01*
X90443000Y-145590126D01*
X90285431Y-145209720D01*
X90229934Y-145154223D01*
X92813600Y-142570557D01*
X92813601Y-146584748D01*
X92798712Y-146659600D01*
X92857697Y-146956137D01*
X92961906Y-147112096D01*
X93025672Y-147207529D01*
X93089128Y-147249929D01*
X94723000Y-148883802D01*
X94723000Y-149049874D01*
X94880569Y-149430280D01*
X95171720Y-149721431D01*
X95552126Y-149879000D01*
X95963874Y-149879000D01*
X96344280Y-149721431D01*
X96635431Y-149430280D01*
X96793000Y-149049874D01*
X96793000Y-148638126D01*
X96635431Y-148257720D01*
X96368316Y-147990605D01*
X96630441Y-147728480D01*
X96674494Y-147622126D01*
X100057000Y-147622126D01*
X100057000Y-148033874D01*
X100214569Y-148414280D01*
X100505720Y-148705431D01*
X100886126Y-148863000D01*
X101297874Y-148863000D01*
X101678280Y-148705431D01*
X101795711Y-148588000D01*
X104579155Y-148588000D01*
X104654002Y-148602888D01*
X104728849Y-148588000D01*
X104728854Y-148588000D01*
X104950539Y-148543904D01*
X105201931Y-148375929D01*
X105244333Y-148312470D01*
X105984474Y-147572330D01*
X106047930Y-147529930D01*
X106215905Y-147278538D01*
X106260001Y-147056852D01*
X106260001Y-147056849D01*
X106274889Y-146982002D01*
X106260440Y-146909362D01*
X106465802Y-146704000D01*
X106631874Y-146704000D01*
X107012280Y-146546431D01*
X107303431Y-146255280D01*
X107461000Y-145874874D01*
X107461000Y-145463126D01*
X107303431Y-145082720D01*
X107012280Y-144791569D01*
X106631874Y-144634000D01*
X106470051Y-144634000D01*
X106572000Y-144387874D01*
X106572000Y-143976126D01*
X106414431Y-143595720D01*
X106123280Y-143304569D01*
X105742874Y-143147000D01*
X105331126Y-143147000D01*
X104950720Y-143304569D01*
X104659569Y-143595720D01*
X104502000Y-143976126D01*
X104502000Y-144142199D01*
X104290528Y-144353671D01*
X104227072Y-144396071D01*
X104184672Y-144459527D01*
X104184671Y-144459528D01*
X104059097Y-144647463D01*
X104000112Y-144944000D01*
X104015001Y-145018851D01*
X104015000Y-145930289D01*
X103897569Y-146047720D01*
X103740000Y-146428126D01*
X103740000Y-146839874D01*
X103834493Y-147068000D01*
X101795711Y-147068000D01*
X101678280Y-146950569D01*
X101297874Y-146793000D01*
X100886126Y-146793000D01*
X100505720Y-146950569D01*
X100214569Y-147241720D01*
X100057000Y-147622126D01*
X96674494Y-147622126D01*
X96788010Y-147348074D01*
X96788010Y-146936326D01*
X96630441Y-146555920D01*
X96339290Y-146264769D01*
X96037464Y-146139749D01*
X96063010Y-146078074D01*
X96063010Y-145666326D01*
X95905441Y-145285920D01*
X95801610Y-145182089D01*
X95841827Y-145165431D01*
X96132978Y-144874280D01*
X96261384Y-144564280D01*
X96560382Y-144440431D01*
X96851533Y-144149280D01*
X96978184Y-143843516D01*
X97287410Y-143715431D01*
X97578561Y-143424280D01*
X97709180Y-143108937D01*
X97995280Y-142990431D01*
X98286431Y-142699280D01*
X98444000Y-142318874D01*
X98444000Y-141907126D01*
X98286431Y-141526720D01*
X97995280Y-141235569D01*
X97769001Y-141141841D01*
X97769001Y-139506826D01*
X103498700Y-139506826D01*
X103498700Y-139918574D01*
X103656269Y-140298980D01*
X103947420Y-140590131D01*
X104327826Y-140747700D01*
X104739574Y-140747700D01*
X105119980Y-140590131D01*
X105411131Y-140298980D01*
X105568700Y-139918574D01*
X105568700Y-139752501D01*
X106629743Y-138691459D01*
X107185567Y-138691459D01*
X107302998Y-138808890D01*
X107683404Y-138966459D01*
X108095152Y-138966459D01*
X108475558Y-138808890D01*
X108766709Y-138517739D01*
X108924278Y-138137333D01*
X108924278Y-137725585D01*
X108766709Y-137345179D01*
X108475558Y-137054028D01*
X108095152Y-136896459D01*
X107683404Y-136896459D01*
X107302998Y-137054028D01*
X107185567Y-137171459D01*
X106389787Y-137171459D01*
X106314940Y-137156571D01*
X106240093Y-137171459D01*
X106240089Y-137171459D01*
X106018404Y-137215555D01*
X105767012Y-137383530D01*
X105724612Y-137446986D01*
X104493899Y-138677700D01*
X104327826Y-138677700D01*
X103947420Y-138835269D01*
X103656269Y-139126420D01*
X103498700Y-139506826D01*
X97769001Y-139506826D01*
X97769001Y-137560000D01*
X97995874Y-137560000D01*
X98376280Y-137402431D01*
X98493711Y-137285000D01*
X98649289Y-137285000D01*
X98766720Y-137402431D01*
X99147126Y-137560000D01*
X99558874Y-137560000D01*
X99939280Y-137402431D01*
X100230431Y-137111280D01*
X100388000Y-136730874D01*
X100388000Y-136319126D01*
X100230431Y-135938720D01*
X99939280Y-135647569D01*
X99558874Y-135490000D01*
X99147126Y-135490000D01*
X98766720Y-135647569D01*
X98649289Y-135765000D01*
X98493711Y-135765000D01*
X98376280Y-135647569D01*
X97995874Y-135490000D01*
X97769001Y-135490000D01*
X97769001Y-134939096D01*
X98083802Y-134624296D01*
X98249874Y-134624296D01*
X98630280Y-134466727D01*
X98921431Y-134175576D01*
X99079000Y-133795170D01*
X99079000Y-133383422D01*
X98921431Y-133003016D01*
X98630280Y-132711865D01*
X98249874Y-132554296D01*
X97838126Y-132554296D01*
X97521183Y-132685578D01*
X97204239Y-132554296D01*
X96792491Y-132554296D01*
X96475549Y-132685578D01*
X96158606Y-132554296D01*
X95746858Y-132554296D01*
X95429916Y-132685578D01*
X95112973Y-132554296D01*
X94701225Y-132554296D01*
X94384283Y-132685578D01*
X94067340Y-132554296D01*
X93655592Y-132554296D01*
X93338650Y-132685578D01*
X93021707Y-132554296D01*
X92609959Y-132554296D01*
X92293017Y-132685578D01*
X91976074Y-132554296D01*
X91564326Y-132554296D01*
X91324839Y-132653495D01*
X91505000Y-132218548D01*
X91505000Y-131687452D01*
X91301758Y-131196783D01*
X90926217Y-130821242D01*
X90435548Y-130618000D01*
X89904452Y-130618000D01*
X89413783Y-130821242D01*
X89038242Y-131196783D01*
X88835000Y-131687452D01*
X88835000Y-132218548D01*
X89038242Y-132709217D01*
X89285000Y-132955975D01*
X89285001Y-134647837D01*
X89267663Y-134735002D01*
X89336348Y-135080311D01*
X89482576Y-135299156D01*
X89482578Y-135299158D01*
X89531952Y-135373051D01*
X89605845Y-135422425D01*
X90383575Y-136200156D01*
X90432949Y-136274049D01*
X90506842Y-136323423D01*
X90506843Y-136323424D01*
X90532121Y-136340314D01*
X90725688Y-136469652D01*
X90983833Y-136521000D01*
X90983837Y-136521000D01*
X91070998Y-136538337D01*
X91158159Y-136521000D01*
X91708422Y-136521000D01*
X91952000Y-136764579D01*
X91952001Y-139816915D01*
X91809431Y-139472720D01*
X91518280Y-139181569D01*
X91137874Y-139024000D01*
X90726126Y-139024000D01*
X90345720Y-139181569D01*
X90054569Y-139472720D01*
X89897000Y-139853126D01*
X89897000Y-140019198D01*
X89071199Y-140845000D01*
X88339578Y-140845000D01*
X88356637Y-140819470D01*
X88817455Y-140358653D01*
X88983527Y-140358653D01*
X89363933Y-140201084D01*
X89655084Y-139909933D01*
X89812653Y-139529527D01*
X89812653Y-139117779D01*
X89655084Y-138737373D01*
X89363933Y-138446222D01*
X88983527Y-138288653D01*
X88571779Y-138288653D01*
X88191373Y-138446222D01*
X87900222Y-138737373D01*
X87742653Y-139117779D01*
X87742653Y-139283851D01*
X87511608Y-139514897D01*
X87454280Y-139457569D01*
X87073874Y-139300000D01*
X86662126Y-139300000D01*
X86281720Y-139457569D01*
X85990569Y-139748720D01*
X85833000Y-140129126D01*
X85833000Y-140540874D01*
X85990569Y-140921280D01*
X86039287Y-140969998D01*
X85990565Y-141018720D01*
X85832996Y-141399126D01*
X83045837Y-141399126D01*
X82863274Y-141216563D01*
X82482868Y-141058994D01*
X82071120Y-141058994D01*
X81690714Y-141216563D01*
X81399563Y-141507714D01*
X81241994Y-141888120D01*
X55660000Y-141888120D01*
X55660000Y-136065126D01*
X81261000Y-136065126D01*
X81261000Y-136476874D01*
X81418569Y-136857280D01*
X81536001Y-136974712D01*
X81536001Y-137593149D01*
X81521112Y-137668000D01*
X81580097Y-137964537D01*
X81695556Y-138137333D01*
X81748072Y-138215929D01*
X81811528Y-138258329D01*
X82023000Y-138469801D01*
X82023000Y-138635874D01*
X82180569Y-139016280D01*
X82471720Y-139307431D01*
X82852126Y-139465000D01*
X83263874Y-139465000D01*
X83644280Y-139307431D01*
X83935431Y-139016280D01*
X84093000Y-138635874D01*
X84093000Y-138224126D01*
X83935431Y-137843720D01*
X83644280Y-137552569D01*
X83263874Y-137395000D01*
X83097801Y-137395000D01*
X83056000Y-137353199D01*
X83056000Y-136974711D01*
X83173431Y-136857280D01*
X83331000Y-136476874D01*
X83331000Y-136065126D01*
X83173431Y-135684720D01*
X82882280Y-135393569D01*
X82501874Y-135236000D01*
X82090126Y-135236000D01*
X81709720Y-135393569D01*
X81418569Y-135684720D01*
X81261000Y-136065126D01*
X55660000Y-136065126D01*
X55660000Y-121637926D01*
X68802300Y-121637926D01*
X68802300Y-122049674D01*
X68959869Y-122430080D01*
X69251020Y-122721231D01*
X69631426Y-122878800D01*
X70043174Y-122878800D01*
X70423580Y-122721231D01*
X70541011Y-122603800D01*
X72524489Y-122603800D01*
X72641920Y-122721231D01*
X73022326Y-122878800D01*
X73434074Y-122878800D01*
X73814480Y-122721231D01*
X74105631Y-122430080D01*
X74263200Y-122049674D01*
X74263200Y-121637926D01*
X74105631Y-121257520D01*
X74080447Y-121232336D01*
X74106093Y-121206690D01*
X74263662Y-120826284D01*
X74263662Y-120414536D01*
X74106093Y-120034130D01*
X74075415Y-120003452D01*
X91248000Y-120003452D01*
X91248000Y-120534548D01*
X91451242Y-121025217D01*
X91698000Y-121271975D01*
X91698001Y-124101024D01*
X91451242Y-124347783D01*
X91248000Y-124838452D01*
X91248000Y-125369548D01*
X91451242Y-125860217D01*
X91826783Y-126235758D01*
X92317452Y-126439000D01*
X92848548Y-126439000D01*
X93339217Y-126235758D01*
X93714758Y-125860217D01*
X93918000Y-125369548D01*
X93918000Y-125016126D01*
X102216000Y-125016126D01*
X102216000Y-125427874D01*
X102373569Y-125808280D01*
X102422289Y-125857000D01*
X102373569Y-125905720D01*
X102216000Y-126286126D01*
X102216000Y-126697874D01*
X102373569Y-127078280D01*
X102664720Y-127369431D01*
X103045126Y-127527000D01*
X103211199Y-127527000D01*
X105391000Y-129706802D01*
X105391000Y-129745874D01*
X105548569Y-130126280D01*
X105839720Y-130417431D01*
X106220126Y-130575000D01*
X106631874Y-130575000D01*
X107012280Y-130417431D01*
X107303431Y-130126280D01*
X107461000Y-129745874D01*
X107461000Y-129334126D01*
X107303431Y-128953720D01*
X107012280Y-128662569D01*
X106631874Y-128505000D01*
X106338802Y-128505000D01*
X105995802Y-128162000D01*
X106097894Y-128162000D01*
X106478300Y-128004431D01*
X106769451Y-127713280D01*
X106927020Y-127332874D01*
X106927020Y-126921126D01*
X106769451Y-126540720D01*
X106478300Y-126249569D01*
X106233536Y-126148185D01*
X106319441Y-126062280D01*
X106477010Y-125681874D01*
X106477010Y-125270126D01*
X106319441Y-124889720D01*
X106028290Y-124598569D01*
X105647884Y-124441000D01*
X105481812Y-124441000D01*
X104635341Y-123594530D01*
X104592939Y-123531071D01*
X104341547Y-123363096D01*
X104119862Y-123319000D01*
X104119857Y-123319000D01*
X104045010Y-123304112D01*
X103970163Y-123319000D01*
X103967411Y-123319000D01*
X103849980Y-123201569D01*
X103469574Y-123044000D01*
X103057826Y-123044000D01*
X102677420Y-123201569D01*
X102386269Y-123492720D01*
X102228700Y-123873126D01*
X102228700Y-124284874D01*
X102373891Y-124635398D01*
X102373569Y-124635720D01*
X102216000Y-125016126D01*
X93918000Y-125016126D01*
X93918000Y-124838452D01*
X93714758Y-124347783D01*
X93468000Y-124101025D01*
X93468000Y-121271975D01*
X93714758Y-121025217D01*
X93745033Y-120952126D01*
X105611311Y-120952126D01*
X105611311Y-121363874D01*
X105768880Y-121744280D01*
X106060031Y-122035431D01*
X106440437Y-122193000D01*
X106852185Y-122193000D01*
X107232591Y-122035431D01*
X107350022Y-121918000D01*
X109042560Y-121918000D01*
X109042560Y-121958000D01*
X109091843Y-122205765D01*
X109232191Y-122415809D01*
X109442235Y-122556157D01*
X109690000Y-122605440D01*
X111290000Y-122605440D01*
X111537765Y-122556157D01*
X111747516Y-122416005D01*
X112273223Y-122604965D01*
X112843454Y-122577778D01*
X113244005Y-122411864D01*
X113318139Y-122165745D01*
X112490000Y-121337605D01*
X112475858Y-121351748D01*
X112296253Y-121172143D01*
X112310395Y-121158000D01*
X112669605Y-121158000D01*
X113497745Y-121986139D01*
X113743864Y-121912005D01*
X113936965Y-121374777D01*
X113909778Y-120804546D01*
X113743864Y-120403995D01*
X113497745Y-120329861D01*
X112669605Y-121158000D01*
X112310395Y-121158000D01*
X112296253Y-121143858D01*
X112475858Y-120964252D01*
X112490000Y-120978395D01*
X113318139Y-120150255D01*
X113244005Y-119904136D01*
X112706777Y-119711035D01*
X112136546Y-119738222D01*
X111746933Y-119899605D01*
X111537765Y-119759843D01*
X111290000Y-119710560D01*
X109690000Y-119710560D01*
X109442235Y-119759843D01*
X109232191Y-119900191D01*
X109091843Y-120110235D01*
X109042560Y-120358000D01*
X109042560Y-120398000D01*
X107350022Y-120398000D01*
X107232591Y-120280569D01*
X106852185Y-120123000D01*
X106440437Y-120123000D01*
X106060031Y-120280569D01*
X105768880Y-120571720D01*
X105611311Y-120952126D01*
X93745033Y-120952126D01*
X93918000Y-120534548D01*
X93918000Y-120003452D01*
X93714758Y-119512783D01*
X93339217Y-119137242D01*
X92848548Y-118934000D01*
X92317452Y-118934000D01*
X91826783Y-119137242D01*
X91451242Y-119512783D01*
X91248000Y-120003452D01*
X74075415Y-120003452D01*
X73814942Y-119742979D01*
X73434536Y-119585410D01*
X73022788Y-119585410D01*
X72642382Y-119742979D01*
X72495361Y-119890000D01*
X70553711Y-119890000D01*
X70436280Y-119772569D01*
X70055874Y-119615000D01*
X69644126Y-119615000D01*
X69263720Y-119772569D01*
X68972569Y-120063720D01*
X68815000Y-120444126D01*
X68815000Y-120855874D01*
X68972569Y-121236280D01*
X68976839Y-121240550D01*
X68959869Y-121257520D01*
X68802300Y-121637926D01*
X55660000Y-121637926D01*
X55660000Y-117072506D01*
X77609000Y-117072506D01*
X77609000Y-117623494D01*
X77819853Y-118132540D01*
X78209460Y-118522147D01*
X78718506Y-118733000D01*
X79269494Y-118733000D01*
X79778540Y-118522147D01*
X80168147Y-118132540D01*
X80379000Y-117623494D01*
X80379000Y-117072506D01*
X80168147Y-116563460D01*
X79778540Y-116173853D01*
X79269494Y-115963000D01*
X78718506Y-115963000D01*
X78209460Y-116173853D01*
X77819853Y-116563460D01*
X77609000Y-117072506D01*
X55660000Y-117072506D01*
X55660000Y-114674778D01*
X116921000Y-114674778D01*
X116921000Y-115325222D01*
X117169914Y-115926153D01*
X117629847Y-116386086D01*
X118230778Y-116635000D01*
X118881222Y-116635000D01*
X119482153Y-116386086D01*
X119908311Y-115959928D01*
X119943468Y-115972927D01*
X120916395Y-115000000D01*
X119943468Y-114027073D01*
X119908311Y-114040072D01*
X119482153Y-113613914D01*
X118881222Y-113365000D01*
X118230778Y-113365000D01*
X117629847Y-113613914D01*
X117169914Y-114073847D01*
X116921000Y-114674778D01*
X55660000Y-114674778D01*
X55660000Y-112192506D01*
X77609000Y-112192506D01*
X77609000Y-112743494D01*
X77819853Y-113252540D01*
X78209460Y-113642147D01*
X78718506Y-113853000D01*
X79269494Y-113853000D01*
X79778540Y-113642147D01*
X80168147Y-113252540D01*
X80379000Y-112743494D01*
X80379000Y-112192506D01*
X80168147Y-111683460D01*
X79778540Y-111293853D01*
X79269494Y-111083000D01*
X78718506Y-111083000D01*
X78209460Y-111293853D01*
X77819853Y-111683460D01*
X77609000Y-112192506D01*
X55660000Y-112192506D01*
X55660000Y-109202036D01*
X95780193Y-109202036D01*
X95810518Y-109692413D01*
X95902505Y-109914490D01*
X95829843Y-110023235D01*
X95780560Y-110271000D01*
X95780560Y-111471000D01*
X95829843Y-111718765D01*
X95970191Y-111928809D01*
X96180235Y-112069157D01*
X96428000Y-112118440D01*
X97628000Y-112118440D01*
X97875765Y-112069157D01*
X98085809Y-111928809D01*
X98198604Y-111760000D01*
X99831908Y-111760000D01*
X99947161Y-112339418D01*
X100275375Y-112830625D01*
X100766582Y-113158839D01*
X101199744Y-113245000D01*
X101492256Y-113245000D01*
X101925418Y-113158839D01*
X102416625Y-112830625D01*
X102428816Y-112812381D01*
X102437843Y-112857765D01*
X102578191Y-113067809D01*
X102788235Y-113208157D01*
X103036000Y-113257440D01*
X104736000Y-113257440D01*
X104983765Y-113208157D01*
X105193809Y-113067809D01*
X105334157Y-112857765D01*
X105383440Y-112610000D01*
X105383440Y-111388532D01*
X119289073Y-111388532D01*
X119387736Y-111655387D01*
X119997461Y-111881908D01*
X120647460Y-111857856D01*
X121136264Y-111655387D01*
X121234927Y-111388532D01*
X120262000Y-110415605D01*
X119289073Y-111388532D01*
X105383440Y-111388532D01*
X105383440Y-110910000D01*
X105334157Y-110662235D01*
X105193809Y-110452191D01*
X104983765Y-110311843D01*
X104736000Y-110262560D01*
X103036000Y-110262560D01*
X102788235Y-110311843D01*
X102578191Y-110452191D01*
X102437843Y-110662235D01*
X102428816Y-110707619D01*
X102416625Y-110689375D01*
X101925418Y-110361161D01*
X101492256Y-110275000D01*
X101199744Y-110275000D01*
X100766582Y-110361161D01*
X100275375Y-110689375D01*
X99947161Y-111180582D01*
X99831908Y-111760000D01*
X98198604Y-111760000D01*
X98226157Y-111718765D01*
X98275440Y-111471000D01*
X98275440Y-110271000D01*
X98226157Y-110023235D01*
X98191563Y-109971461D01*
X118616092Y-109971461D01*
X118640144Y-110621460D01*
X118842613Y-111110264D01*
X119109468Y-111208927D01*
X120082395Y-110236000D01*
X119109468Y-109263073D01*
X118842613Y-109361736D01*
X118616092Y-109971461D01*
X98191563Y-109971461D01*
X98149291Y-109908198D01*
X98275807Y-109539964D01*
X98247578Y-109083468D01*
X119289073Y-109083468D01*
X120262000Y-110056395D01*
X121234927Y-109083468D01*
X121136264Y-108816613D01*
X120526539Y-108590092D01*
X119876540Y-108614144D01*
X119387736Y-108816613D01*
X119289073Y-109083468D01*
X98247578Y-109083468D01*
X98245482Y-109049587D01*
X98116164Y-108737383D01*
X97890735Y-108687870D01*
X97207605Y-109371000D01*
X97221748Y-109385143D01*
X97042143Y-109564748D01*
X97028000Y-109550605D01*
X97013858Y-109564748D01*
X96834253Y-109385143D01*
X96848395Y-109371000D01*
X96165265Y-108687870D01*
X95939836Y-108737383D01*
X95780193Y-109202036D01*
X55660000Y-109202036D01*
X55660000Y-106337641D01*
X58984500Y-106337641D01*
X58984500Y-107047759D01*
X59256250Y-107703821D01*
X59758379Y-108205950D01*
X60414441Y-108477700D01*
X61124559Y-108477700D01*
X61780621Y-108205950D01*
X62282750Y-107703821D01*
X62476475Y-107236126D01*
X90151000Y-107236126D01*
X90151000Y-107647874D01*
X90308569Y-108028280D01*
X90599720Y-108319431D01*
X90980126Y-108477000D01*
X91391874Y-108477000D01*
X91772280Y-108319431D01*
X91889711Y-108202000D01*
X95181289Y-108202000D01*
X95298720Y-108319431D01*
X95679126Y-108477000D01*
X96090874Y-108477000D01*
X96377845Y-108358133D01*
X96344870Y-108508265D01*
X97028000Y-109191395D01*
X97711130Y-108508265D01*
X97661617Y-108282836D01*
X97196964Y-108123193D01*
X96706587Y-108153518D01*
X96588125Y-108202586D01*
X96762431Y-108028280D01*
X96920000Y-107647874D01*
X96920000Y-107236126D01*
X96762431Y-106855720D01*
X96471280Y-106564569D01*
X96090874Y-106407000D01*
X95679126Y-106407000D01*
X95298720Y-106564569D01*
X95181289Y-106682000D01*
X91889711Y-106682000D01*
X91772280Y-106564569D01*
X91391874Y-106407000D01*
X90980126Y-106407000D01*
X90599720Y-106564569D01*
X90308569Y-106855720D01*
X90151000Y-107236126D01*
X62476475Y-107236126D01*
X62554500Y-107047759D01*
X62554500Y-106337641D01*
X62282750Y-105681579D01*
X61780621Y-105179450D01*
X61124559Y-104907700D01*
X60414441Y-104907700D01*
X59758379Y-105179450D01*
X59256250Y-105681579D01*
X58984500Y-106337641D01*
X55660000Y-106337641D01*
X55660000Y-102277594D01*
X60596000Y-102277594D01*
X60596000Y-103226406D01*
X60959095Y-104102994D01*
X61630006Y-104773905D01*
X62506594Y-105137000D01*
X63455406Y-105137000D01*
X64331994Y-104773905D01*
X65002905Y-104102994D01*
X65366000Y-103226406D01*
X65366000Y-102277594D01*
X65002905Y-101401006D01*
X64331994Y-100730095D01*
X63455406Y-100367000D01*
X62506594Y-100367000D01*
X61630006Y-100730095D01*
X60959095Y-101401006D01*
X60596000Y-102277594D01*
X55660000Y-102277594D01*
X55660000Y-97753279D01*
X64194282Y-97753279D01*
X64220685Y-98343458D01*
X64395741Y-98766080D01*
X64647042Y-98846353D01*
X65511395Y-97982000D01*
X64647042Y-97117647D01*
X64395741Y-97197920D01*
X64194282Y-97753279D01*
X55660000Y-97753279D01*
X55660000Y-95186615D01*
X64206000Y-95186615D01*
X64206000Y-95777385D01*
X64432078Y-96323185D01*
X64849815Y-96740922D01*
X64884963Y-96755481D01*
X64826647Y-96938042D01*
X65691000Y-97802395D01*
X65705143Y-97788253D01*
X65884748Y-97967858D01*
X65870605Y-97982000D01*
X65884748Y-97996143D01*
X65705143Y-98175748D01*
X65691000Y-98161605D01*
X64826647Y-99025958D01*
X64906920Y-99277259D01*
X65462279Y-99478718D01*
X66052458Y-99452315D01*
X66406761Y-99305558D01*
X66593235Y-99430157D01*
X66841000Y-99479440D01*
X68541000Y-99479440D01*
X68788765Y-99430157D01*
X68998809Y-99289809D01*
X69139157Y-99079765D01*
X69188440Y-98832000D01*
X69188440Y-97736138D01*
X69645116Y-97279462D01*
X80351400Y-97279462D01*
X80351400Y-97810558D01*
X80554642Y-98301227D01*
X80930183Y-98676768D01*
X81420852Y-98880010D01*
X81951948Y-98880010D01*
X82442617Y-98676768D01*
X82818158Y-98301227D01*
X83021400Y-97810558D01*
X83021400Y-97427178D01*
X85285979Y-95162600D01*
X85634948Y-95162600D01*
X86125617Y-94959358D01*
X86501158Y-94583817D01*
X86704400Y-94093148D01*
X86704400Y-93562052D01*
X86501158Y-93071383D01*
X86125617Y-92695842D01*
X85634948Y-92492600D01*
X85103852Y-92492600D01*
X84613183Y-92695842D01*
X84237642Y-93071383D01*
X84034400Y-93562052D01*
X84034400Y-93911021D01*
X81735412Y-96210010D01*
X81420852Y-96210010D01*
X80930183Y-96413252D01*
X80554642Y-96788793D01*
X80351400Y-97279462D01*
X69645116Y-97279462D01*
X71551579Y-95373000D01*
X76012993Y-95373000D01*
X76375126Y-95523000D01*
X76786874Y-95523000D01*
X77167280Y-95365431D01*
X77458431Y-95074280D01*
X77616000Y-94693874D01*
X77616000Y-94282126D01*
X77458431Y-93901720D01*
X77167280Y-93610569D01*
X76786874Y-93453000D01*
X76375126Y-93453000D01*
X76012993Y-93603000D01*
X71272159Y-93603000D01*
X71184999Y-93585663D01*
X71097839Y-93603000D01*
X71097835Y-93603000D01*
X70839690Y-93654348D01*
X70839688Y-93654349D01*
X70839689Y-93654349D01*
X70620845Y-93800576D01*
X70620844Y-93800577D01*
X70546951Y-93849951D01*
X70497577Y-93923844D01*
X69176000Y-95245421D01*
X69176000Y-95186615D01*
X68949922Y-94640815D01*
X68532185Y-94223078D01*
X67986385Y-93997000D01*
X67395615Y-93997000D01*
X66849815Y-94223078D01*
X66691000Y-94381893D01*
X66532185Y-94223078D01*
X65986385Y-93997000D01*
X65395615Y-93997000D01*
X64849815Y-94223078D01*
X64432078Y-94640815D01*
X64206000Y-95186615D01*
X55660000Y-95186615D01*
X55660000Y-90237594D01*
X60596000Y-90237594D01*
X60596000Y-91186406D01*
X60959095Y-92062994D01*
X61630006Y-92733905D01*
X62506594Y-93097000D01*
X63455406Y-93097000D01*
X64331994Y-92733905D01*
X65002905Y-92062994D01*
X65366000Y-91186406D01*
X65366000Y-90237594D01*
X65037045Y-89443426D01*
X91001900Y-89443426D01*
X91001900Y-89855174D01*
X91159469Y-90235580D01*
X91276900Y-90353011D01*
X91276901Y-90697288D01*
X91159469Y-90814720D01*
X91001900Y-91195126D01*
X91001900Y-91606874D01*
X91159469Y-91987280D01*
X91450620Y-92278431D01*
X91831026Y-92436000D01*
X92242774Y-92436000D01*
X92623180Y-92278431D01*
X92914331Y-91987280D01*
X93071900Y-91606874D01*
X93071900Y-91195126D01*
X92914331Y-90814720D01*
X92796900Y-90697289D01*
X92796900Y-90386000D01*
X111836560Y-90386000D01*
X111836560Y-91986000D01*
X111885843Y-92233765D01*
X112026191Y-92443809D01*
X112236235Y-92584157D01*
X112484000Y-92633440D01*
X114084000Y-92633440D01*
X114331765Y-92584157D01*
X114541809Y-92443809D01*
X114548090Y-92434409D01*
X114998561Y-92621000D01*
X115569439Y-92621000D01*
X116096862Y-92402534D01*
X116500534Y-91998862D01*
X116719000Y-91471439D01*
X116719000Y-90900561D01*
X116500534Y-90373138D01*
X116096862Y-89969466D01*
X115569439Y-89751000D01*
X114998561Y-89751000D01*
X114548090Y-89937591D01*
X114541809Y-89928191D01*
X114331765Y-89787843D01*
X114084000Y-89738560D01*
X112484000Y-89738560D01*
X112236235Y-89787843D01*
X112026191Y-89928191D01*
X111885843Y-90138235D01*
X111836560Y-90386000D01*
X92796900Y-90386000D01*
X92796900Y-90353011D01*
X92914331Y-90235580D01*
X93071900Y-89855174D01*
X93071900Y-89443426D01*
X92914331Y-89063020D01*
X92623180Y-88771869D01*
X92242774Y-88614300D01*
X91831026Y-88614300D01*
X91450620Y-88771869D01*
X91159469Y-89063020D01*
X91001900Y-89443426D01*
X65037045Y-89443426D01*
X65002905Y-89361006D01*
X64331994Y-88690095D01*
X63455406Y-88327000D01*
X62506594Y-88327000D01*
X61630006Y-88690095D01*
X60959095Y-89361006D01*
X60596000Y-90237594D01*
X55660000Y-90237594D01*
X55660000Y-86602452D01*
X103185986Y-86602452D01*
X103185986Y-87133548D01*
X103389228Y-87624217D01*
X103764769Y-87999758D01*
X104255438Y-88203000D01*
X104786534Y-88203000D01*
X105277203Y-87999758D01*
X105523961Y-87753000D01*
X109263031Y-87753000D01*
X109509789Y-87999758D01*
X110000458Y-88203000D01*
X110531554Y-88203000D01*
X111022223Y-87999758D01*
X111397764Y-87624217D01*
X111601006Y-87133548D01*
X111601006Y-86602452D01*
X111397764Y-86111783D01*
X111022223Y-85736242D01*
X110531554Y-85533000D01*
X110000458Y-85533000D01*
X109509789Y-85736242D01*
X109263031Y-85983000D01*
X105523961Y-85983000D01*
X105277203Y-85736242D01*
X104786534Y-85533000D01*
X104255438Y-85533000D01*
X103764769Y-85736242D01*
X103389228Y-86111783D01*
X103185986Y-86602452D01*
X55660000Y-86602452D01*
X55660000Y-85295745D01*
X94929861Y-85295745D01*
X95003995Y-85541864D01*
X95541223Y-85734965D01*
X96111454Y-85707778D01*
X96512005Y-85541864D01*
X96586139Y-85295745D01*
X95758000Y-84467605D01*
X94929861Y-85295745D01*
X55660000Y-85295745D01*
X55660000Y-84071223D01*
X94311035Y-84071223D01*
X94338222Y-84641454D01*
X94504136Y-85042005D01*
X94750255Y-85116139D01*
X95578395Y-84288000D01*
X95937605Y-84288000D01*
X96765745Y-85116139D01*
X97011864Y-85042005D01*
X97204965Y-84504777D01*
X97177778Y-83934546D01*
X97011864Y-83533995D01*
X96765745Y-83459861D01*
X95937605Y-84288000D01*
X95578395Y-84288000D01*
X94750255Y-83459861D01*
X94504136Y-83533995D01*
X94311035Y-84071223D01*
X55660000Y-84071223D01*
X55660000Y-82940532D01*
X69465073Y-82940532D01*
X69563736Y-83207387D01*
X70173461Y-83433908D01*
X70823460Y-83409856D01*
X71312264Y-83207387D01*
X71410927Y-82940532D01*
X70438000Y-81967605D01*
X69465073Y-82940532D01*
X55660000Y-82940532D01*
X55660000Y-81523461D01*
X68792092Y-81523461D01*
X68816144Y-82173460D01*
X69018613Y-82662264D01*
X69285468Y-82760927D01*
X70258395Y-81788000D01*
X70617605Y-81788000D01*
X71590532Y-82760927D01*
X71857387Y-82662264D01*
X72083908Y-82052539D01*
X72059856Y-81402540D01*
X71857387Y-80913736D01*
X71590532Y-80815073D01*
X70617605Y-81788000D01*
X70258395Y-81788000D01*
X69285468Y-80815073D01*
X69018613Y-80913736D01*
X68792092Y-81523461D01*
X55660000Y-81523461D01*
X55660000Y-78763750D01*
X60893340Y-78763750D01*
X60893340Y-80354370D01*
X60990013Y-80587759D01*
X61168642Y-80766387D01*
X61402031Y-80863060D01*
X62992650Y-80863060D01*
X63151400Y-80704310D01*
X63151400Y-78605000D01*
X63405400Y-78605000D01*
X63405400Y-80704310D01*
X63564150Y-80863060D01*
X65154769Y-80863060D01*
X65388158Y-80766387D01*
X65519077Y-80635468D01*
X69465073Y-80635468D01*
X70438000Y-81608395D01*
X71258395Y-80788000D01*
X73790560Y-80788000D01*
X73790560Y-82788000D01*
X73839843Y-83035765D01*
X73980191Y-83245809D01*
X74190235Y-83386157D01*
X74438000Y-83435440D01*
X76438000Y-83435440D01*
X76685765Y-83386157D01*
X76895809Y-83245809D01*
X77036157Y-83035765D01*
X77085440Y-82788000D01*
X77085440Y-80988000D01*
X94310560Y-80988000D01*
X94310560Y-82588000D01*
X94359843Y-82835765D01*
X94500191Y-83045809D01*
X94710235Y-83186157D01*
X94944187Y-83232693D01*
X94929861Y-83280255D01*
X95758000Y-84108395D01*
X96586139Y-83280255D01*
X96571813Y-83232693D01*
X96805765Y-83186157D01*
X97015809Y-83045809D01*
X97156157Y-82835765D01*
X97205440Y-82588000D01*
X97205440Y-80988000D01*
X97156157Y-80740235D01*
X97015809Y-80530191D01*
X96805765Y-80389843D01*
X96558000Y-80340560D01*
X94958000Y-80340560D01*
X94710235Y-80389843D01*
X94500191Y-80530191D01*
X94359843Y-80740235D01*
X94310560Y-80988000D01*
X77085440Y-80988000D01*
X77085440Y-80788000D01*
X77036157Y-80540235D01*
X76895809Y-80330191D01*
X76685765Y-80189843D01*
X76438000Y-80140560D01*
X74438000Y-80140560D01*
X74190235Y-80189843D01*
X73980191Y-80330191D01*
X73839843Y-80540235D01*
X73790560Y-80788000D01*
X71258395Y-80788000D01*
X71410927Y-80635468D01*
X71312264Y-80368613D01*
X70702539Y-80142092D01*
X70052540Y-80166144D01*
X69563736Y-80368613D01*
X69465073Y-80635468D01*
X65519077Y-80635468D01*
X65566787Y-80587759D01*
X65663460Y-80354370D01*
X65663460Y-78763750D01*
X65504710Y-78605000D01*
X63405400Y-78605000D01*
X63151400Y-78605000D01*
X61052090Y-78605000D01*
X60893340Y-78763750D01*
X55660000Y-78763750D01*
X55660000Y-76601630D01*
X60893340Y-76601630D01*
X60893340Y-78192250D01*
X61052090Y-78351000D01*
X63151400Y-78351000D01*
X63151400Y-76251690D01*
X63405400Y-76251690D01*
X63405400Y-78351000D01*
X65504710Y-78351000D01*
X65663460Y-78192250D01*
X65663460Y-76601630D01*
X65566787Y-76368241D01*
X65388158Y-76189613D01*
X65233231Y-76125440D01*
X67878060Y-76125440D01*
X68125825Y-76076157D01*
X68335869Y-75935809D01*
X68476217Y-75725765D01*
X68525500Y-75478000D01*
X68525500Y-71478000D01*
X68476217Y-71230235D01*
X68335869Y-71020191D01*
X68125825Y-70879843D01*
X67878060Y-70830560D01*
X64377940Y-70830560D01*
X64130175Y-70879843D01*
X63920131Y-71020191D01*
X63779783Y-71230235D01*
X63730500Y-71478000D01*
X63730500Y-75478000D01*
X63779783Y-75725765D01*
X63920131Y-75935809D01*
X64130175Y-76076157D01*
X64214550Y-76092940D01*
X63564150Y-76092940D01*
X63405400Y-76251690D01*
X63151400Y-76251690D01*
X62992650Y-76092940D01*
X61402031Y-76092940D01*
X61168642Y-76189613D01*
X60990013Y-76368241D01*
X60893340Y-76601630D01*
X55660000Y-76601630D01*
X55660000Y-73763750D01*
X57592940Y-73763750D01*
X57592940Y-75354370D01*
X57689613Y-75587759D01*
X57868242Y-75766387D01*
X58101631Y-75863060D01*
X59692250Y-75863060D01*
X59851000Y-75704310D01*
X59851000Y-73605000D01*
X60105000Y-73605000D01*
X60105000Y-75704310D01*
X60263750Y-75863060D01*
X61854369Y-75863060D01*
X62087758Y-75766387D01*
X62266387Y-75587759D01*
X62363060Y-75354370D01*
X62363060Y-73763750D01*
X62204310Y-73605000D01*
X60105000Y-73605000D01*
X59851000Y-73605000D01*
X57751690Y-73605000D01*
X57592940Y-73763750D01*
X55660000Y-73763750D01*
X55660000Y-71601630D01*
X57592940Y-71601630D01*
X57592940Y-73192250D01*
X57751690Y-73351000D01*
X59851000Y-73351000D01*
X59851000Y-71251690D01*
X60105000Y-71251690D01*
X60105000Y-73351000D01*
X62204310Y-73351000D01*
X62363060Y-73192250D01*
X62363060Y-71601630D01*
X62266387Y-71368241D01*
X62087758Y-71189613D01*
X61854369Y-71092940D01*
X60263750Y-71092940D01*
X60105000Y-71251690D01*
X59851000Y-71251690D01*
X59692250Y-71092940D01*
X58101631Y-71092940D01*
X57868242Y-71189613D01*
X57689613Y-71368241D01*
X57592940Y-71601630D01*
X55660000Y-71601630D01*
X55660000Y-65660000D01*
X111480394Y-65660000D01*
X120873000Y-75052606D01*
X120873000Y-75052606D01*
G37*
X120873000Y-75052606D02*
X120873000Y-85957667D01*
X117898400Y-89923800D01*
X117876973Y-89968481D01*
X117873000Y-90000000D01*
X117873000Y-105000000D01*
X117882667Y-105048601D01*
X117910197Y-105089803D01*
X121873000Y-109052606D01*
X121873000Y-109824331D01*
X121681387Y-109361736D01*
X121414532Y-109263073D01*
X120441605Y-110236000D01*
X121414532Y-111208927D01*
X121681387Y-111110264D01*
X121873000Y-110594501D01*
X121873000Y-113544478D01*
X121360539Y-113354092D01*
X120710540Y-113378144D01*
X120221736Y-113580613D01*
X120123073Y-113847468D01*
X121096000Y-114820395D01*
X121110143Y-114806253D01*
X121289748Y-114985858D01*
X121275605Y-115000000D01*
X121289748Y-115014143D01*
X121110143Y-115193748D01*
X121096000Y-115179605D01*
X120123073Y-116152532D01*
X120221736Y-116419387D01*
X120831461Y-116645908D01*
X121481460Y-116621856D01*
X121873000Y-116459675D01*
X121873000Y-119955452D01*
X117900830Y-124920664D01*
X117878018Y-124964654D01*
X117873000Y-125000000D01*
X117873000Y-143000000D01*
X117882667Y-143048601D01*
X117910197Y-143089803D01*
X120873000Y-146052606D01*
X120873000Y-154951265D01*
X112423139Y-164340000D01*
X55660000Y-164340000D01*
X55660000Y-159149482D01*
X102825500Y-159149482D01*
X102825500Y-159874518D01*
X103102959Y-160544363D01*
X103615637Y-161057041D01*
X104285482Y-161334500D01*
X105010518Y-161334500D01*
X105680363Y-161057041D01*
X106193041Y-160544363D01*
X106318644Y-160241130D01*
X106547736Y-160470222D01*
X106963169Y-160642300D01*
X107412831Y-160642300D01*
X107828264Y-160470222D01*
X108057356Y-160241130D01*
X108182959Y-160544363D01*
X108695637Y-161057041D01*
X109365482Y-161334500D01*
X110090518Y-161334500D01*
X110760363Y-161057041D01*
X111273041Y-160544363D01*
X111550500Y-159874518D01*
X111550500Y-159149482D01*
X111273041Y-158479637D01*
X110760363Y-157966959D01*
X110090518Y-157689500D01*
X109365482Y-157689500D01*
X108695637Y-157966959D01*
X108182959Y-158479637D01*
X108057356Y-158782870D01*
X107828264Y-158553778D01*
X107412831Y-158381700D01*
X106963169Y-158381700D01*
X106547736Y-158553778D01*
X106318644Y-158782870D01*
X106193041Y-158479637D01*
X105680363Y-157966959D01*
X105010518Y-157689500D01*
X104285482Y-157689500D01*
X103615637Y-157966959D01*
X103102959Y-158479637D01*
X102825500Y-159149482D01*
X55660000Y-159149482D01*
X55660000Y-141888120D01*
X81241994Y-141888120D01*
X81241994Y-142299868D01*
X81399563Y-142680274D01*
X81516994Y-142797705D01*
X81516995Y-143543143D01*
X81502106Y-143617994D01*
X81561091Y-143914531D01*
X81673075Y-144082126D01*
X81729066Y-144165923D01*
X81792522Y-144208323D01*
X81896000Y-144311801D01*
X81896000Y-144477874D01*
X82053569Y-144858280D01*
X82344720Y-145149431D01*
X82725126Y-145307000D01*
X83136874Y-145307000D01*
X83517280Y-145149431D01*
X83808431Y-144858280D01*
X83966000Y-144477874D01*
X83966000Y-144066126D01*
X83808431Y-143685720D01*
X83517280Y-143394569D01*
X83136874Y-143237000D01*
X83036994Y-143237000D01*
X83036994Y-142797705D01*
X83154425Y-142680274D01*
X83311994Y-142299868D01*
X83311994Y-141888120D01*
X83154425Y-141507714D01*
X83045837Y-141399126D01*
X85832996Y-141399126D01*
X85832996Y-141810874D01*
X85990565Y-142191280D01*
X86281716Y-142482431D01*
X86662122Y-142640000D01*
X87073870Y-142640000D01*
X87454276Y-142482431D01*
X87571707Y-142365000D01*
X89311153Y-142365000D01*
X89386000Y-142379888D01*
X89460847Y-142365000D01*
X89460852Y-142365000D01*
X89682537Y-142320904D01*
X89933929Y-142152929D01*
X89976331Y-142089470D01*
X90971802Y-141094000D01*
X91080421Y-141094000D01*
X87993846Y-144180576D01*
X87919950Y-144229952D01*
X87724347Y-144522692D01*
X87672999Y-144780837D01*
X87672999Y-144780840D01*
X87655662Y-144868001D01*
X87672999Y-144955162D01*
X87673000Y-153875834D01*
X87655662Y-153962999D01*
X87724347Y-154308308D01*
X87870575Y-154527153D01*
X87870577Y-154527155D01*
X87919951Y-154601048D01*
X87946000Y-154618453D01*
X87946000Y-154951548D01*
X88149242Y-155442217D01*
X88524783Y-155817758D01*
X89015452Y-156021000D01*
X89546548Y-156021000D01*
X90037217Y-155817758D01*
X90412758Y-155442217D01*
X90616000Y-154951548D01*
X90616000Y-154420452D01*
X90412758Y-153929783D01*
X90181859Y-153698884D01*
X90285431Y-153595312D01*
X90352048Y-153434482D01*
X102825500Y-153434482D01*
X102825500Y-154159518D01*
X103102959Y-154829363D01*
X103615637Y-155342041D01*
X104285482Y-155619500D01*
X105010518Y-155619500D01*
X105680363Y-155342041D01*
X106193041Y-154829363D01*
X106470500Y-154159518D01*
X106470500Y-153434482D01*
X106299769Y-153022300D01*
X106397831Y-153022300D01*
X106813264Y-152850222D01*
X107131222Y-152532264D01*
X107188000Y-152395190D01*
X107244778Y-152532264D01*
X107562736Y-152850222D01*
X107978169Y-153022300D01*
X108076231Y-153022300D01*
X107905500Y-153434482D01*
X107905500Y-154159518D01*
X108182959Y-154829363D01*
X108695637Y-155342041D01*
X109365482Y-155619500D01*
X110090518Y-155619500D01*
X110760363Y-155342041D01*
X111273041Y-154829363D01*
X111550500Y-154159518D01*
X111550500Y-153434482D01*
X111273041Y-152764637D01*
X110760363Y-152251959D01*
X110090518Y-151974500D01*
X109365482Y-151974500D01*
X109333300Y-151987830D01*
X109333300Y-151667169D01*
X109161222Y-151251736D01*
X108843264Y-150933778D01*
X108427831Y-150761700D01*
X107978169Y-150761700D01*
X107562736Y-150933778D01*
X107244778Y-151251736D01*
X107188000Y-151388810D01*
X107131222Y-151251736D01*
X106813264Y-150933778D01*
X106397831Y-150761700D01*
X105948169Y-150761700D01*
X105532736Y-150933778D01*
X105214778Y-151251736D01*
X105042700Y-151667169D01*
X105042700Y-151987830D01*
X105010518Y-151974500D01*
X104285482Y-151974500D01*
X103615637Y-152251959D01*
X103102959Y-152764637D01*
X102825500Y-153434482D01*
X90352048Y-153434482D01*
X90443000Y-153214906D01*
X90443000Y-152803158D01*
X90285431Y-152422752D01*
X90168000Y-152305321D01*
X90168000Y-146499711D01*
X90285431Y-146382280D01*
X90443000Y-146001874D01*
X90443000Y-145590126D01*
X90285431Y-145209720D01*
X90229934Y-145154223D01*
X92813600Y-142570557D01*
X92813601Y-146584748D01*
X92798712Y-146659600D01*
X92857697Y-146956137D01*
X92961906Y-147112096D01*
X93025672Y-147207529D01*
X93089128Y-147249929D01*
X94723000Y-148883802D01*
X94723000Y-149049874D01*
X94880569Y-149430280D01*
X95171720Y-149721431D01*
X95552126Y-149879000D01*
X95963874Y-149879000D01*
X96344280Y-149721431D01*
X96635431Y-149430280D01*
X96793000Y-149049874D01*
X96793000Y-148638126D01*
X96635431Y-148257720D01*
X96368316Y-147990605D01*
X96630441Y-147728480D01*
X96674494Y-147622126D01*
X100057000Y-147622126D01*
X100057000Y-148033874D01*
X100214569Y-148414280D01*
X100505720Y-148705431D01*
X100886126Y-148863000D01*
X101297874Y-148863000D01*
X101678280Y-148705431D01*
X101795711Y-148588000D01*
X104579155Y-148588000D01*
X104654002Y-148602888D01*
X104728849Y-148588000D01*
X104728854Y-148588000D01*
X104950539Y-148543904D01*
X105201931Y-148375929D01*
X105244333Y-148312470D01*
X105984474Y-147572330D01*
X106047930Y-147529930D01*
X106215905Y-147278538D01*
X106260001Y-147056852D01*
X106260001Y-147056849D01*
X106274889Y-146982002D01*
X106260440Y-146909362D01*
X106465802Y-146704000D01*
X106631874Y-146704000D01*
X107012280Y-146546431D01*
X107303431Y-146255280D01*
X107461000Y-145874874D01*
X107461000Y-145463126D01*
X107303431Y-145082720D01*
X107012280Y-144791569D01*
X106631874Y-144634000D01*
X106470051Y-144634000D01*
X106572000Y-144387874D01*
X106572000Y-143976126D01*
X106414431Y-143595720D01*
X106123280Y-143304569D01*
X105742874Y-143147000D01*
X105331126Y-143147000D01*
X104950720Y-143304569D01*
X104659569Y-143595720D01*
X104502000Y-143976126D01*
X104502000Y-144142199D01*
X104290528Y-144353671D01*
X104227072Y-144396071D01*
X104184672Y-144459527D01*
X104184671Y-144459528D01*
X104059097Y-144647463D01*
X104000112Y-144944000D01*
X104015001Y-145018851D01*
X104015000Y-145930289D01*
X103897569Y-146047720D01*
X103740000Y-146428126D01*
X103740000Y-146839874D01*
X103834493Y-147068000D01*
X101795711Y-147068000D01*
X101678280Y-146950569D01*
X101297874Y-146793000D01*
X100886126Y-146793000D01*
X100505720Y-146950569D01*
X100214569Y-147241720D01*
X100057000Y-147622126D01*
X96674494Y-147622126D01*
X96788010Y-147348074D01*
X96788010Y-146936326D01*
X96630441Y-146555920D01*
X96339290Y-146264769D01*
X96037464Y-146139749D01*
X96063010Y-146078074D01*
X96063010Y-145666326D01*
X95905441Y-145285920D01*
X95801610Y-145182089D01*
X95841827Y-145165431D01*
X96132978Y-144874280D01*
X96261384Y-144564280D01*
X96560382Y-144440431D01*
X96851533Y-144149280D01*
X96978184Y-143843516D01*
X97287410Y-143715431D01*
X97578561Y-143424280D01*
X97709180Y-143108937D01*
X97995280Y-142990431D01*
X98286431Y-142699280D01*
X98444000Y-142318874D01*
X98444000Y-141907126D01*
X98286431Y-141526720D01*
X97995280Y-141235569D01*
X97769001Y-141141841D01*
X97769001Y-139506826D01*
X103498700Y-139506826D01*
X103498700Y-139918574D01*
X103656269Y-140298980D01*
X103947420Y-140590131D01*
X104327826Y-140747700D01*
X104739574Y-140747700D01*
X105119980Y-140590131D01*
X105411131Y-140298980D01*
X105568700Y-139918574D01*
X105568700Y-139752501D01*
X106629743Y-138691459D01*
X107185567Y-138691459D01*
X107302998Y-138808890D01*
X107683404Y-138966459D01*
X108095152Y-138966459D01*
X108475558Y-138808890D01*
X108766709Y-138517739D01*
X108924278Y-138137333D01*
X108924278Y-137725585D01*
X108766709Y-137345179D01*
X108475558Y-137054028D01*
X108095152Y-136896459D01*
X107683404Y-136896459D01*
X107302998Y-137054028D01*
X107185567Y-137171459D01*
X106389787Y-137171459D01*
X106314940Y-137156571D01*
X106240093Y-137171459D01*
X106240089Y-137171459D01*
X106018404Y-137215555D01*
X105767012Y-137383530D01*
X105724612Y-137446986D01*
X104493899Y-138677700D01*
X104327826Y-138677700D01*
X103947420Y-138835269D01*
X103656269Y-139126420D01*
X103498700Y-139506826D01*
X97769001Y-139506826D01*
X97769001Y-137560000D01*
X97995874Y-137560000D01*
X98376280Y-137402431D01*
X98493711Y-137285000D01*
X98649289Y-137285000D01*
X98766720Y-137402431D01*
X99147126Y-137560000D01*
X99558874Y-137560000D01*
X99939280Y-137402431D01*
X100230431Y-137111280D01*
X100388000Y-136730874D01*
X100388000Y-136319126D01*
X100230431Y-135938720D01*
X99939280Y-135647569D01*
X99558874Y-135490000D01*
X99147126Y-135490000D01*
X98766720Y-135647569D01*
X98649289Y-135765000D01*
X98493711Y-135765000D01*
X98376280Y-135647569D01*
X97995874Y-135490000D01*
X97769001Y-135490000D01*
X97769001Y-134939096D01*
X98083802Y-134624296D01*
X98249874Y-134624296D01*
X98630280Y-134466727D01*
X98921431Y-134175576D01*
X99079000Y-133795170D01*
X99079000Y-133383422D01*
X98921431Y-133003016D01*
X98630280Y-132711865D01*
X98249874Y-132554296D01*
X97838126Y-132554296D01*
X97521183Y-132685578D01*
X97204239Y-132554296D01*
X96792491Y-132554296D01*
X96475549Y-132685578D01*
X96158606Y-132554296D01*
X95746858Y-132554296D01*
X95429916Y-132685578D01*
X95112973Y-132554296D01*
X94701225Y-132554296D01*
X94384283Y-132685578D01*
X94067340Y-132554296D01*
X93655592Y-132554296D01*
X93338650Y-132685578D01*
X93021707Y-132554296D01*
X92609959Y-132554296D01*
X92293017Y-132685578D01*
X91976074Y-132554296D01*
X91564326Y-132554296D01*
X91324839Y-132653495D01*
X91505000Y-132218548D01*
X91505000Y-131687452D01*
X91301758Y-131196783D01*
X90926217Y-130821242D01*
X90435548Y-130618000D01*
X89904452Y-130618000D01*
X89413783Y-130821242D01*
X89038242Y-131196783D01*
X88835000Y-131687452D01*
X88835000Y-132218548D01*
X89038242Y-132709217D01*
X89285000Y-132955975D01*
X89285001Y-134647837D01*
X89267663Y-134735002D01*
X89336348Y-135080311D01*
X89482576Y-135299156D01*
X89482578Y-135299158D01*
X89531952Y-135373051D01*
X89605845Y-135422425D01*
X90383575Y-136200156D01*
X90432949Y-136274049D01*
X90506842Y-136323423D01*
X90506843Y-136323424D01*
X90532121Y-136340314D01*
X90725688Y-136469652D01*
X90983833Y-136521000D01*
X90983837Y-136521000D01*
X91070998Y-136538337D01*
X91158159Y-136521000D01*
X91708422Y-136521000D01*
X91952000Y-136764579D01*
X91952001Y-139816915D01*
X91809431Y-139472720D01*
X91518280Y-139181569D01*
X91137874Y-139024000D01*
X90726126Y-139024000D01*
X90345720Y-139181569D01*
X90054569Y-139472720D01*
X89897000Y-139853126D01*
X89897000Y-140019198D01*
X89071199Y-140845000D01*
X88339578Y-140845000D01*
X88356637Y-140819470D01*
X88817455Y-140358653D01*
X88983527Y-140358653D01*
X89363933Y-140201084D01*
X89655084Y-139909933D01*
X89812653Y-139529527D01*
X89812653Y-139117779D01*
X89655084Y-138737373D01*
X89363933Y-138446222D01*
X88983527Y-138288653D01*
X88571779Y-138288653D01*
X88191373Y-138446222D01*
X87900222Y-138737373D01*
X87742653Y-139117779D01*
X87742653Y-139283851D01*
X87511608Y-139514897D01*
X87454280Y-139457569D01*
X87073874Y-139300000D01*
X86662126Y-139300000D01*
X86281720Y-139457569D01*
X85990569Y-139748720D01*
X85833000Y-140129126D01*
X85833000Y-140540874D01*
X85990569Y-140921280D01*
X86039287Y-140969998D01*
X85990565Y-141018720D01*
X85832996Y-141399126D01*
X83045837Y-141399126D01*
X82863274Y-141216563D01*
X82482868Y-141058994D01*
X82071120Y-141058994D01*
X81690714Y-141216563D01*
X81399563Y-141507714D01*
X81241994Y-141888120D01*
X55660000Y-141888120D01*
X55660000Y-136065126D01*
X81261000Y-136065126D01*
X81261000Y-136476874D01*
X81418569Y-136857280D01*
X81536001Y-136974712D01*
X81536001Y-137593149D01*
X81521112Y-137668000D01*
X81580097Y-137964537D01*
X81695556Y-138137333D01*
X81748072Y-138215929D01*
X81811528Y-138258329D01*
X82023000Y-138469801D01*
X82023000Y-138635874D01*
X82180569Y-139016280D01*
X82471720Y-139307431D01*
X82852126Y-139465000D01*
X83263874Y-139465000D01*
X83644280Y-139307431D01*
X83935431Y-139016280D01*
X84093000Y-138635874D01*
X84093000Y-138224126D01*
X83935431Y-137843720D01*
X83644280Y-137552569D01*
X83263874Y-137395000D01*
X83097801Y-137395000D01*
X83056000Y-137353199D01*
X83056000Y-136974711D01*
X83173431Y-136857280D01*
X83331000Y-136476874D01*
X83331000Y-136065126D01*
X83173431Y-135684720D01*
X82882280Y-135393569D01*
X82501874Y-135236000D01*
X82090126Y-135236000D01*
X81709720Y-135393569D01*
X81418569Y-135684720D01*
X81261000Y-136065126D01*
X55660000Y-136065126D01*
X55660000Y-121637926D01*
X68802300Y-121637926D01*
X68802300Y-122049674D01*
X68959869Y-122430080D01*
X69251020Y-122721231D01*
X69631426Y-122878800D01*
X70043174Y-122878800D01*
X70423580Y-122721231D01*
X70541011Y-122603800D01*
X72524489Y-122603800D01*
X72641920Y-122721231D01*
X73022326Y-122878800D01*
X73434074Y-122878800D01*
X73814480Y-122721231D01*
X74105631Y-122430080D01*
X74263200Y-122049674D01*
X74263200Y-121637926D01*
X74105631Y-121257520D01*
X74080447Y-121232336D01*
X74106093Y-121206690D01*
X74263662Y-120826284D01*
X74263662Y-120414536D01*
X74106093Y-120034130D01*
X74075415Y-120003452D01*
X91248000Y-120003452D01*
X91248000Y-120534548D01*
X91451242Y-121025217D01*
X91698000Y-121271975D01*
X91698001Y-124101024D01*
X91451242Y-124347783D01*
X91248000Y-124838452D01*
X91248000Y-125369548D01*
X91451242Y-125860217D01*
X91826783Y-126235758D01*
X92317452Y-126439000D01*
X92848548Y-126439000D01*
X93339217Y-126235758D01*
X93714758Y-125860217D01*
X93918000Y-125369548D01*
X93918000Y-125016126D01*
X102216000Y-125016126D01*
X102216000Y-125427874D01*
X102373569Y-125808280D01*
X102422289Y-125857000D01*
X102373569Y-125905720D01*
X102216000Y-126286126D01*
X102216000Y-126697874D01*
X102373569Y-127078280D01*
X102664720Y-127369431D01*
X103045126Y-127527000D01*
X103211199Y-127527000D01*
X105391000Y-129706802D01*
X105391000Y-129745874D01*
X105548569Y-130126280D01*
X105839720Y-130417431D01*
X106220126Y-130575000D01*
X106631874Y-130575000D01*
X107012280Y-130417431D01*
X107303431Y-130126280D01*
X107461000Y-129745874D01*
X107461000Y-129334126D01*
X107303431Y-128953720D01*
X107012280Y-128662569D01*
X106631874Y-128505000D01*
X106338802Y-128505000D01*
X105995802Y-128162000D01*
X106097894Y-128162000D01*
X106478300Y-128004431D01*
X106769451Y-127713280D01*
X106927020Y-127332874D01*
X106927020Y-126921126D01*
X106769451Y-126540720D01*
X106478300Y-126249569D01*
X106233536Y-126148185D01*
X106319441Y-126062280D01*
X106477010Y-125681874D01*
X106477010Y-125270126D01*
X106319441Y-124889720D01*
X106028290Y-124598569D01*
X105647884Y-124441000D01*
X105481812Y-124441000D01*
X104635341Y-123594530D01*
X104592939Y-123531071D01*
X104341547Y-123363096D01*
X104119862Y-123319000D01*
X104119857Y-123319000D01*
X104045010Y-123304112D01*
X103970163Y-123319000D01*
X103967411Y-123319000D01*
X103849980Y-123201569D01*
X103469574Y-123044000D01*
X103057826Y-123044000D01*
X102677420Y-123201569D01*
X102386269Y-123492720D01*
X102228700Y-123873126D01*
X102228700Y-124284874D01*
X102373891Y-124635398D01*
X102373569Y-124635720D01*
X102216000Y-125016126D01*
X93918000Y-125016126D01*
X93918000Y-124838452D01*
X93714758Y-124347783D01*
X93468000Y-124101025D01*
X93468000Y-121271975D01*
X93714758Y-121025217D01*
X93745033Y-120952126D01*
X105611311Y-120952126D01*
X105611311Y-121363874D01*
X105768880Y-121744280D01*
X106060031Y-122035431D01*
X106440437Y-122193000D01*
X106852185Y-122193000D01*
X107232591Y-122035431D01*
X107350022Y-121918000D01*
X109042560Y-121918000D01*
X109042560Y-121958000D01*
X109091843Y-122205765D01*
X109232191Y-122415809D01*
X109442235Y-122556157D01*
X109690000Y-122605440D01*
X111290000Y-122605440D01*
X111537765Y-122556157D01*
X111747516Y-122416005D01*
X112273223Y-122604965D01*
X112843454Y-122577778D01*
X113244005Y-122411864D01*
X113318139Y-122165745D01*
X112490000Y-121337605D01*
X112475858Y-121351748D01*
X112296253Y-121172143D01*
X112310395Y-121158000D01*
X112669605Y-121158000D01*
X113497745Y-121986139D01*
X113743864Y-121912005D01*
X113936965Y-121374777D01*
X113909778Y-120804546D01*
X113743864Y-120403995D01*
X113497745Y-120329861D01*
X112669605Y-121158000D01*
X112310395Y-121158000D01*
X112296253Y-121143858D01*
X112475858Y-120964252D01*
X112490000Y-120978395D01*
X113318139Y-120150255D01*
X113244005Y-119904136D01*
X112706777Y-119711035D01*
X112136546Y-119738222D01*
X111746933Y-119899605D01*
X111537765Y-119759843D01*
X111290000Y-119710560D01*
X109690000Y-119710560D01*
X109442235Y-119759843D01*
X109232191Y-119900191D01*
X109091843Y-120110235D01*
X109042560Y-120358000D01*
X109042560Y-120398000D01*
X107350022Y-120398000D01*
X107232591Y-120280569D01*
X106852185Y-120123000D01*
X106440437Y-120123000D01*
X106060031Y-120280569D01*
X105768880Y-120571720D01*
X105611311Y-120952126D01*
X93745033Y-120952126D01*
X93918000Y-120534548D01*
X93918000Y-120003452D01*
X93714758Y-119512783D01*
X93339217Y-119137242D01*
X92848548Y-118934000D01*
X92317452Y-118934000D01*
X91826783Y-119137242D01*
X91451242Y-119512783D01*
X91248000Y-120003452D01*
X74075415Y-120003452D01*
X73814942Y-119742979D01*
X73434536Y-119585410D01*
X73022788Y-119585410D01*
X72642382Y-119742979D01*
X72495361Y-119890000D01*
X70553711Y-119890000D01*
X70436280Y-119772569D01*
X70055874Y-119615000D01*
X69644126Y-119615000D01*
X69263720Y-119772569D01*
X68972569Y-120063720D01*
X68815000Y-120444126D01*
X68815000Y-120855874D01*
X68972569Y-121236280D01*
X68976839Y-121240550D01*
X68959869Y-121257520D01*
X68802300Y-121637926D01*
X55660000Y-121637926D01*
X55660000Y-117072506D01*
X77609000Y-117072506D01*
X77609000Y-117623494D01*
X77819853Y-118132540D01*
X78209460Y-118522147D01*
X78718506Y-118733000D01*
X79269494Y-118733000D01*
X79778540Y-118522147D01*
X80168147Y-118132540D01*
X80379000Y-117623494D01*
X80379000Y-117072506D01*
X80168147Y-116563460D01*
X79778540Y-116173853D01*
X79269494Y-115963000D01*
X78718506Y-115963000D01*
X78209460Y-116173853D01*
X77819853Y-116563460D01*
X77609000Y-117072506D01*
X55660000Y-117072506D01*
X55660000Y-114674778D01*
X116921000Y-114674778D01*
X116921000Y-115325222D01*
X117169914Y-115926153D01*
X117629847Y-116386086D01*
X118230778Y-116635000D01*
X118881222Y-116635000D01*
X119482153Y-116386086D01*
X119908311Y-115959928D01*
X119943468Y-115972927D01*
X120916395Y-115000000D01*
X119943468Y-114027073D01*
X119908311Y-114040072D01*
X119482153Y-113613914D01*
X118881222Y-113365000D01*
X118230778Y-113365000D01*
X117629847Y-113613914D01*
X117169914Y-114073847D01*
X116921000Y-114674778D01*
X55660000Y-114674778D01*
X55660000Y-112192506D01*
X77609000Y-112192506D01*
X77609000Y-112743494D01*
X77819853Y-113252540D01*
X78209460Y-113642147D01*
X78718506Y-113853000D01*
X79269494Y-113853000D01*
X79778540Y-113642147D01*
X80168147Y-113252540D01*
X80379000Y-112743494D01*
X80379000Y-112192506D01*
X80168147Y-111683460D01*
X79778540Y-111293853D01*
X79269494Y-111083000D01*
X78718506Y-111083000D01*
X78209460Y-111293853D01*
X77819853Y-111683460D01*
X77609000Y-112192506D01*
X55660000Y-112192506D01*
X55660000Y-109202036D01*
X95780193Y-109202036D01*
X95810518Y-109692413D01*
X95902505Y-109914490D01*
X95829843Y-110023235D01*
X95780560Y-110271000D01*
X95780560Y-111471000D01*
X95829843Y-111718765D01*
X95970191Y-111928809D01*
X96180235Y-112069157D01*
X96428000Y-112118440D01*
X97628000Y-112118440D01*
X97875765Y-112069157D01*
X98085809Y-111928809D01*
X98198604Y-111760000D01*
X99831908Y-111760000D01*
X99947161Y-112339418D01*
X100275375Y-112830625D01*
X100766582Y-113158839D01*
X101199744Y-113245000D01*
X101492256Y-113245000D01*
X101925418Y-113158839D01*
X102416625Y-112830625D01*
X102428816Y-112812381D01*
X102437843Y-112857765D01*
X102578191Y-113067809D01*
X102788235Y-113208157D01*
X103036000Y-113257440D01*
X104736000Y-113257440D01*
X104983765Y-113208157D01*
X105193809Y-113067809D01*
X105334157Y-112857765D01*
X105383440Y-112610000D01*
X105383440Y-111388532D01*
X119289073Y-111388532D01*
X119387736Y-111655387D01*
X119997461Y-111881908D01*
X120647460Y-111857856D01*
X121136264Y-111655387D01*
X121234927Y-111388532D01*
X120262000Y-110415605D01*
X119289073Y-111388532D01*
X105383440Y-111388532D01*
X105383440Y-110910000D01*
X105334157Y-110662235D01*
X105193809Y-110452191D01*
X104983765Y-110311843D01*
X104736000Y-110262560D01*
X103036000Y-110262560D01*
X102788235Y-110311843D01*
X102578191Y-110452191D01*
X102437843Y-110662235D01*
X102428816Y-110707619D01*
X102416625Y-110689375D01*
X101925418Y-110361161D01*
X101492256Y-110275000D01*
X101199744Y-110275000D01*
X100766582Y-110361161D01*
X100275375Y-110689375D01*
X99947161Y-111180582D01*
X99831908Y-111760000D01*
X98198604Y-111760000D01*
X98226157Y-111718765D01*
X98275440Y-111471000D01*
X98275440Y-110271000D01*
X98226157Y-110023235D01*
X98191563Y-109971461D01*
X118616092Y-109971461D01*
X118640144Y-110621460D01*
X118842613Y-111110264D01*
X119109468Y-111208927D01*
X120082395Y-110236000D01*
X119109468Y-109263073D01*
X118842613Y-109361736D01*
X118616092Y-109971461D01*
X98191563Y-109971461D01*
X98149291Y-109908198D01*
X98275807Y-109539964D01*
X98247578Y-109083468D01*
X119289073Y-109083468D01*
X120262000Y-110056395D01*
X121234927Y-109083468D01*
X121136264Y-108816613D01*
X120526539Y-108590092D01*
X119876540Y-108614144D01*
X119387736Y-108816613D01*
X119289073Y-109083468D01*
X98247578Y-109083468D01*
X98245482Y-109049587D01*
X98116164Y-108737383D01*
X97890735Y-108687870D01*
X97207605Y-109371000D01*
X97221748Y-109385143D01*
X97042143Y-109564748D01*
X97028000Y-109550605D01*
X97013858Y-109564748D01*
X96834253Y-109385143D01*
X96848395Y-109371000D01*
X96165265Y-108687870D01*
X95939836Y-108737383D01*
X95780193Y-109202036D01*
X55660000Y-109202036D01*
X55660000Y-106337641D01*
X58984500Y-106337641D01*
X58984500Y-107047759D01*
X59256250Y-107703821D01*
X59758379Y-108205950D01*
X60414441Y-108477700D01*
X61124559Y-108477700D01*
X61780621Y-108205950D01*
X62282750Y-107703821D01*
X62476475Y-107236126D01*
X90151000Y-107236126D01*
X90151000Y-107647874D01*
X90308569Y-108028280D01*
X90599720Y-108319431D01*
X90980126Y-108477000D01*
X91391874Y-108477000D01*
X91772280Y-108319431D01*
X91889711Y-108202000D01*
X95181289Y-108202000D01*
X95298720Y-108319431D01*
X95679126Y-108477000D01*
X96090874Y-108477000D01*
X96377845Y-108358133D01*
X96344870Y-108508265D01*
X97028000Y-109191395D01*
X97711130Y-108508265D01*
X97661617Y-108282836D01*
X97196964Y-108123193D01*
X96706587Y-108153518D01*
X96588125Y-108202586D01*
X96762431Y-108028280D01*
X96920000Y-107647874D01*
X96920000Y-107236126D01*
X96762431Y-106855720D01*
X96471280Y-106564569D01*
X96090874Y-106407000D01*
X95679126Y-106407000D01*
X95298720Y-106564569D01*
X95181289Y-106682000D01*
X91889711Y-106682000D01*
X91772280Y-106564569D01*
X91391874Y-106407000D01*
X90980126Y-106407000D01*
X90599720Y-106564569D01*
X90308569Y-106855720D01*
X90151000Y-107236126D01*
X62476475Y-107236126D01*
X62554500Y-107047759D01*
X62554500Y-106337641D01*
X62282750Y-105681579D01*
X61780621Y-105179450D01*
X61124559Y-104907700D01*
X60414441Y-104907700D01*
X59758379Y-105179450D01*
X59256250Y-105681579D01*
X58984500Y-106337641D01*
X55660000Y-106337641D01*
X55660000Y-102277594D01*
X60596000Y-102277594D01*
X60596000Y-103226406D01*
X60959095Y-104102994D01*
X61630006Y-104773905D01*
X62506594Y-105137000D01*
X63455406Y-105137000D01*
X64331994Y-104773905D01*
X65002905Y-104102994D01*
X65366000Y-103226406D01*
X65366000Y-102277594D01*
X65002905Y-101401006D01*
X64331994Y-100730095D01*
X63455406Y-100367000D01*
X62506594Y-100367000D01*
X61630006Y-100730095D01*
X60959095Y-101401006D01*
X60596000Y-102277594D01*
X55660000Y-102277594D01*
X55660000Y-97753279D01*
X64194282Y-97753279D01*
X64220685Y-98343458D01*
X64395741Y-98766080D01*
X64647042Y-98846353D01*
X65511395Y-97982000D01*
X64647042Y-97117647D01*
X64395741Y-97197920D01*
X64194282Y-97753279D01*
X55660000Y-97753279D01*
X55660000Y-95186615D01*
X64206000Y-95186615D01*
X64206000Y-95777385D01*
X64432078Y-96323185D01*
X64849815Y-96740922D01*
X64884963Y-96755481D01*
X64826647Y-96938042D01*
X65691000Y-97802395D01*
X65705143Y-97788253D01*
X65884748Y-97967858D01*
X65870605Y-97982000D01*
X65884748Y-97996143D01*
X65705143Y-98175748D01*
X65691000Y-98161605D01*
X64826647Y-99025958D01*
X64906920Y-99277259D01*
X65462279Y-99478718D01*
X66052458Y-99452315D01*
X66406761Y-99305558D01*
X66593235Y-99430157D01*
X66841000Y-99479440D01*
X68541000Y-99479440D01*
X68788765Y-99430157D01*
X68998809Y-99289809D01*
X69139157Y-99079765D01*
X69188440Y-98832000D01*
X69188440Y-97736138D01*
X69645116Y-97279462D01*
X80351400Y-97279462D01*
X80351400Y-97810558D01*
X80554642Y-98301227D01*
X80930183Y-98676768D01*
X81420852Y-98880010D01*
X81951948Y-98880010D01*
X82442617Y-98676768D01*
X82818158Y-98301227D01*
X83021400Y-97810558D01*
X83021400Y-97427178D01*
X85285979Y-95162600D01*
X85634948Y-95162600D01*
X86125617Y-94959358D01*
X86501158Y-94583817D01*
X86704400Y-94093148D01*
X86704400Y-93562052D01*
X86501158Y-93071383D01*
X86125617Y-92695842D01*
X85634948Y-92492600D01*
X85103852Y-92492600D01*
X84613183Y-92695842D01*
X84237642Y-93071383D01*
X84034400Y-93562052D01*
X84034400Y-93911021D01*
X81735412Y-96210010D01*
X81420852Y-96210010D01*
X80930183Y-96413252D01*
X80554642Y-96788793D01*
X80351400Y-97279462D01*
X69645116Y-97279462D01*
X71551579Y-95373000D01*
X76012993Y-95373000D01*
X76375126Y-95523000D01*
X76786874Y-95523000D01*
X77167280Y-95365431D01*
X77458431Y-95074280D01*
X77616000Y-94693874D01*
X77616000Y-94282126D01*
X77458431Y-93901720D01*
X77167280Y-93610569D01*
X76786874Y-93453000D01*
X76375126Y-93453000D01*
X76012993Y-93603000D01*
X71272159Y-93603000D01*
X71184999Y-93585663D01*
X71097839Y-93603000D01*
X71097835Y-93603000D01*
X70839690Y-93654348D01*
X70839688Y-93654349D01*
X70839689Y-93654349D01*
X70620845Y-93800576D01*
X70620844Y-93800577D01*
X70546951Y-93849951D01*
X70497577Y-93923844D01*
X69176000Y-95245421D01*
X69176000Y-95186615D01*
X68949922Y-94640815D01*
X68532185Y-94223078D01*
X67986385Y-93997000D01*
X67395615Y-93997000D01*
X66849815Y-94223078D01*
X66691000Y-94381893D01*
X66532185Y-94223078D01*
X65986385Y-93997000D01*
X65395615Y-93997000D01*
X64849815Y-94223078D01*
X64432078Y-94640815D01*
X64206000Y-95186615D01*
X55660000Y-95186615D01*
X55660000Y-90237594D01*
X60596000Y-90237594D01*
X60596000Y-91186406D01*
X60959095Y-92062994D01*
X61630006Y-92733905D01*
X62506594Y-93097000D01*
X63455406Y-93097000D01*
X64331994Y-92733905D01*
X65002905Y-92062994D01*
X65366000Y-91186406D01*
X65366000Y-90237594D01*
X65037045Y-89443426D01*
X91001900Y-89443426D01*
X91001900Y-89855174D01*
X91159469Y-90235580D01*
X91276900Y-90353011D01*
X91276901Y-90697288D01*
X91159469Y-90814720D01*
X91001900Y-91195126D01*
X91001900Y-91606874D01*
X91159469Y-91987280D01*
X91450620Y-92278431D01*
X91831026Y-92436000D01*
X92242774Y-92436000D01*
X92623180Y-92278431D01*
X92914331Y-91987280D01*
X93071900Y-91606874D01*
X93071900Y-91195126D01*
X92914331Y-90814720D01*
X92796900Y-90697289D01*
X92796900Y-90386000D01*
X111836560Y-90386000D01*
X111836560Y-91986000D01*
X111885843Y-92233765D01*
X112026191Y-92443809D01*
X112236235Y-92584157D01*
X112484000Y-92633440D01*
X114084000Y-92633440D01*
X114331765Y-92584157D01*
X114541809Y-92443809D01*
X114548090Y-92434409D01*
X114998561Y-92621000D01*
X115569439Y-92621000D01*
X116096862Y-92402534D01*
X116500534Y-91998862D01*
X116719000Y-91471439D01*
X116719000Y-90900561D01*
X116500534Y-90373138D01*
X116096862Y-89969466D01*
X115569439Y-89751000D01*
X114998561Y-89751000D01*
X114548090Y-89937591D01*
X114541809Y-89928191D01*
X114331765Y-89787843D01*
X114084000Y-89738560D01*
X112484000Y-89738560D01*
X112236235Y-89787843D01*
X112026191Y-89928191D01*
X111885843Y-90138235D01*
X111836560Y-90386000D01*
X92796900Y-90386000D01*
X92796900Y-90353011D01*
X92914331Y-90235580D01*
X93071900Y-89855174D01*
X93071900Y-89443426D01*
X92914331Y-89063020D01*
X92623180Y-88771869D01*
X92242774Y-88614300D01*
X91831026Y-88614300D01*
X91450620Y-88771869D01*
X91159469Y-89063020D01*
X91001900Y-89443426D01*
X65037045Y-89443426D01*
X65002905Y-89361006D01*
X64331994Y-88690095D01*
X63455406Y-88327000D01*
X62506594Y-88327000D01*
X61630006Y-88690095D01*
X60959095Y-89361006D01*
X60596000Y-90237594D01*
X55660000Y-90237594D01*
X55660000Y-86602452D01*
X103185986Y-86602452D01*
X103185986Y-87133548D01*
X103389228Y-87624217D01*
X103764769Y-87999758D01*
X104255438Y-88203000D01*
X104786534Y-88203000D01*
X105277203Y-87999758D01*
X105523961Y-87753000D01*
X109263031Y-87753000D01*
X109509789Y-87999758D01*
X110000458Y-88203000D01*
X110531554Y-88203000D01*
X111022223Y-87999758D01*
X111397764Y-87624217D01*
X111601006Y-87133548D01*
X111601006Y-86602452D01*
X111397764Y-86111783D01*
X111022223Y-85736242D01*
X110531554Y-85533000D01*
X110000458Y-85533000D01*
X109509789Y-85736242D01*
X109263031Y-85983000D01*
X105523961Y-85983000D01*
X105277203Y-85736242D01*
X104786534Y-85533000D01*
X104255438Y-85533000D01*
X103764769Y-85736242D01*
X103389228Y-86111783D01*
X103185986Y-86602452D01*
X55660000Y-86602452D01*
X55660000Y-85295745D01*
X94929861Y-85295745D01*
X95003995Y-85541864D01*
X95541223Y-85734965D01*
X96111454Y-85707778D01*
X96512005Y-85541864D01*
X96586139Y-85295745D01*
X95758000Y-84467605D01*
X94929861Y-85295745D01*
X55660000Y-85295745D01*
X55660000Y-84071223D01*
X94311035Y-84071223D01*
X94338222Y-84641454D01*
X94504136Y-85042005D01*
X94750255Y-85116139D01*
X95578395Y-84288000D01*
X95937605Y-84288000D01*
X96765745Y-85116139D01*
X97011864Y-85042005D01*
X97204965Y-84504777D01*
X97177778Y-83934546D01*
X97011864Y-83533995D01*
X96765745Y-83459861D01*
X95937605Y-84288000D01*
X95578395Y-84288000D01*
X94750255Y-83459861D01*
X94504136Y-83533995D01*
X94311035Y-84071223D01*
X55660000Y-84071223D01*
X55660000Y-82940532D01*
X69465073Y-82940532D01*
X69563736Y-83207387D01*
X70173461Y-83433908D01*
X70823460Y-83409856D01*
X71312264Y-83207387D01*
X71410927Y-82940532D01*
X70438000Y-81967605D01*
X69465073Y-82940532D01*
X55660000Y-82940532D01*
X55660000Y-81523461D01*
X68792092Y-81523461D01*
X68816144Y-82173460D01*
X69018613Y-82662264D01*
X69285468Y-82760927D01*
X70258395Y-81788000D01*
X70617605Y-81788000D01*
X71590532Y-82760927D01*
X71857387Y-82662264D01*
X72083908Y-82052539D01*
X72059856Y-81402540D01*
X71857387Y-80913736D01*
X71590532Y-80815073D01*
X70617605Y-81788000D01*
X70258395Y-81788000D01*
X69285468Y-80815073D01*
X69018613Y-80913736D01*
X68792092Y-81523461D01*
X55660000Y-81523461D01*
X55660000Y-78763750D01*
X60893340Y-78763750D01*
X60893340Y-80354370D01*
X60990013Y-80587759D01*
X61168642Y-80766387D01*
X61402031Y-80863060D01*
X62992650Y-80863060D01*
X63151400Y-80704310D01*
X63151400Y-78605000D01*
X63405400Y-78605000D01*
X63405400Y-80704310D01*
X63564150Y-80863060D01*
X65154769Y-80863060D01*
X65388158Y-80766387D01*
X65519077Y-80635468D01*
X69465073Y-80635468D01*
X70438000Y-81608395D01*
X71258395Y-80788000D01*
X73790560Y-80788000D01*
X73790560Y-82788000D01*
X73839843Y-83035765D01*
X73980191Y-83245809D01*
X74190235Y-83386157D01*
X74438000Y-83435440D01*
X76438000Y-83435440D01*
X76685765Y-83386157D01*
X76895809Y-83245809D01*
X77036157Y-83035765D01*
X77085440Y-82788000D01*
X77085440Y-80988000D01*
X94310560Y-80988000D01*
X94310560Y-82588000D01*
X94359843Y-82835765D01*
X94500191Y-83045809D01*
X94710235Y-83186157D01*
X94944187Y-83232693D01*
X94929861Y-83280255D01*
X95758000Y-84108395D01*
X96586139Y-83280255D01*
X96571813Y-83232693D01*
X96805765Y-83186157D01*
X97015809Y-83045809D01*
X97156157Y-82835765D01*
X97205440Y-82588000D01*
X97205440Y-80988000D01*
X97156157Y-80740235D01*
X97015809Y-80530191D01*
X96805765Y-80389843D01*
X96558000Y-80340560D01*
X94958000Y-80340560D01*
X94710235Y-80389843D01*
X94500191Y-80530191D01*
X94359843Y-80740235D01*
X94310560Y-80988000D01*
X77085440Y-80988000D01*
X77085440Y-80788000D01*
X77036157Y-80540235D01*
X76895809Y-80330191D01*
X76685765Y-80189843D01*
X76438000Y-80140560D01*
X74438000Y-80140560D01*
X74190235Y-80189843D01*
X73980191Y-80330191D01*
X73839843Y-80540235D01*
X73790560Y-80788000D01*
X71258395Y-80788000D01*
X71410927Y-80635468D01*
X71312264Y-80368613D01*
X70702539Y-80142092D01*
X70052540Y-80166144D01*
X69563736Y-80368613D01*
X69465073Y-80635468D01*
X65519077Y-80635468D01*
X65566787Y-80587759D01*
X65663460Y-80354370D01*
X65663460Y-78763750D01*
X65504710Y-78605000D01*
X63405400Y-78605000D01*
X63151400Y-78605000D01*
X61052090Y-78605000D01*
X60893340Y-78763750D01*
X55660000Y-78763750D01*
X55660000Y-76601630D01*
X60893340Y-76601630D01*
X60893340Y-78192250D01*
X61052090Y-78351000D01*
X63151400Y-78351000D01*
X63151400Y-76251690D01*
X63405400Y-76251690D01*
X63405400Y-78351000D01*
X65504710Y-78351000D01*
X65663460Y-78192250D01*
X65663460Y-76601630D01*
X65566787Y-76368241D01*
X65388158Y-76189613D01*
X65233231Y-76125440D01*
X67878060Y-76125440D01*
X68125825Y-76076157D01*
X68335869Y-75935809D01*
X68476217Y-75725765D01*
X68525500Y-75478000D01*
X68525500Y-71478000D01*
X68476217Y-71230235D01*
X68335869Y-71020191D01*
X68125825Y-70879843D01*
X67878060Y-70830560D01*
X64377940Y-70830560D01*
X64130175Y-70879843D01*
X63920131Y-71020191D01*
X63779783Y-71230235D01*
X63730500Y-71478000D01*
X63730500Y-75478000D01*
X63779783Y-75725765D01*
X63920131Y-75935809D01*
X64130175Y-76076157D01*
X64214550Y-76092940D01*
X63564150Y-76092940D01*
X63405400Y-76251690D01*
X63151400Y-76251690D01*
X62992650Y-76092940D01*
X61402031Y-76092940D01*
X61168642Y-76189613D01*
X60990013Y-76368241D01*
X60893340Y-76601630D01*
X55660000Y-76601630D01*
X55660000Y-73763750D01*
X57592940Y-73763750D01*
X57592940Y-75354370D01*
X57689613Y-75587759D01*
X57868242Y-75766387D01*
X58101631Y-75863060D01*
X59692250Y-75863060D01*
X59851000Y-75704310D01*
X59851000Y-73605000D01*
X60105000Y-73605000D01*
X60105000Y-75704310D01*
X60263750Y-75863060D01*
X61854369Y-75863060D01*
X62087758Y-75766387D01*
X62266387Y-75587759D01*
X62363060Y-75354370D01*
X62363060Y-73763750D01*
X62204310Y-73605000D01*
X60105000Y-73605000D01*
X59851000Y-73605000D01*
X57751690Y-73605000D01*
X57592940Y-73763750D01*
X55660000Y-73763750D01*
X55660000Y-71601630D01*
X57592940Y-71601630D01*
X57592940Y-73192250D01*
X57751690Y-73351000D01*
X59851000Y-73351000D01*
X59851000Y-71251690D01*
X60105000Y-71251690D01*
X60105000Y-73351000D01*
X62204310Y-73351000D01*
X62363060Y-73192250D01*
X62363060Y-71601630D01*
X62266387Y-71368241D01*
X62087758Y-71189613D01*
X61854369Y-71092940D01*
X60263750Y-71092940D01*
X60105000Y-71251690D01*
X59851000Y-71251690D01*
X59692250Y-71092940D01*
X58101631Y-71092940D01*
X57868242Y-71189613D01*
X57689613Y-71368241D01*
X57592940Y-71601630D01*
X55660000Y-71601630D01*
X55660000Y-65660000D01*
X111480394Y-65660000D01*
X120873000Y-75052606D01*
G04 #@! TD*
M02*
