M48
; DRILL file {KiCad (6.0.0-rc1-dev-1425-g4c184f07a)} date 24.12.2018 19:16:34
; FORMAT={-:-/ absolute / inch / decimal}
; #@! TF.CreationDate,2018-12-24T19:16:34+01:00
; #@! TF.GenerationSoftware,Kicad,Pcbnew,(6.0.0-rc1-dev-1425-g4c184f07a)
FMAT,2
INCH
T1C0.0157
T2C0.0236
T3C0.0276
T4C0.0315
T5C0.0319
T6C0.0394
T7C0.0394
T8C0.0472
T9C0.0630
T10C0.0906
T11C0.0390
T12C0.0630
T13C0.0906
T14C0.0935
%
G90
G05
T1
X2.365Y-5.325
X2.365Y-5.775
X2.522Y-4.2525
X2.675Y-5.255
X2.7495Y-4.797
X2.75Y-4.75
X2.883Y-4.797
X2.883Y-4.7488
X2.885Y-5.925
X2.965Y-3.56
X3.01Y-4.525
X3.015Y-3.72
X3.16Y-4.15
X3.19Y-3.72
X3.205Y-5.615
X3.205Y-5.6785
X3.215Y-5.375
X3.245Y-5.45
X3.37Y-3.37
X3.4Y-5.525
X3.4Y-5.575
X3.44Y-5.675
X3.485Y-5.225
X3.4952Y-5.4852
X3.52Y-5.74
X3.52Y-6.024
X3.545Y-4.5709
X3.58Y-5.5141
X3.585Y-5.29
X3.595Y-4.5709
X3.613Y-5.2594
X3.615Y-3.37
X3.6235Y-3.5295
X3.6235Y-3.5985
X3.6542Y-5.2594
X3.695Y-4.7
X3.6953Y-5.2594
X3.7365Y-5.2594
X3.7413Y-5.743
X3.7502Y-5.6806
X3.7698Y-5.793
X3.77Y-5.86
X3.7777Y-5.2594
X3.7785Y-5.6521
X3.79Y-6.14
X3.8071Y-5.6235
X3.8188Y-5.2594
X3.83Y-3.48
X3.835Y-5.595
X3.85Y-5.375
X3.851Y-5.424
X3.86Y-5.2594
X3.895Y-4.7
X3.9115Y-5.375
X3.98Y-5.82
X4.065Y-4.93
X4.065Y-4.98
X4.0655Y-4.885
X4.075Y-4.55
X4.075Y-6.205
X4.1155Y-5.5005
X4.125Y-5.773
X4.1513Y-4.94
X4.155Y-5.6765
X4.169Y-5.005
X4.19Y-5.1
X4.19Y-5.735
X4.2476Y-5.4304
X4.26Y-5.555
X4.26Y-5.615
X4.47Y-6.05
X4.62Y-3.2
X4.62Y-5.75
X4.93Y-3.82
X5.0Y-3.85
X5.01Y-5.61
X5.03Y-3.56
X5.03Y-5.13
X5.07Y-4.43
X5.1Y-3.57
X5.11Y-5.14
X5.14Y-3.3
X5.14Y-5.85
X5.28Y-3.0
X5.31Y-5.88
X5.31Y-5.97
X5.48Y-4.23
X5.48Y-4.34
X5.49Y-6.13
X5.53Y-4.59
X5.73Y-6.17
T2
X2.657Y-3.433
X3.2107Y-2.7617
X3.2107Y-2.9526
X3.216Y-3.84
X3.32Y-2.8571
X3.361Y-3.694
X3.4293Y-2.7617
X3.4293Y-2.9526
X3.515Y-6.09
X3.55Y-5.195
X3.645Y-4.735
X3.645Y-4.9254
X4.115Y-3.42
X4.3412Y-3.42
X4.6Y-3.835
X4.67Y-4.42
X3.82Y-4.3059
X3.82Y-4.365
T3
X4.7676Y-4.5276
X4.9676Y-4.5276
X5.0676Y-4.5276
X5.1676Y-4.5276
X5.2676Y-4.5276
T4
X4.6676Y-4.5276
X4.46Y-3.59
X4.5387Y-3.59
X3.77Y-3.22
X3.77Y-3.3184
X3.11Y-4.4279
X3.11Y-4.62
X5.1613Y-4.28
X5.24Y-4.28
T5
X2.5863Y-3.7576
X2.5863Y-3.8576
X2.665Y-3.7576
X2.665Y-3.8576
T6
X5.4847Y-3.13
X5.78Y-3.13
X2.7731Y-3.22
X2.97Y-3.22
X4.7347Y-4.34
X5.03Y-4.34
X5.4847Y-4.705
X5.78Y-4.705
T8
X5.4272Y-3.7402
X5.7776Y-3.4654
X5.4024Y-5.315
X5.6024Y-5.315
T9
X5.5774Y-3.8902
X5.6024Y-3.5902
X5.4024Y-5.165
X5.4024Y-5.465
T10
X2.48Y-3.5713
X2.48Y-4.0438
T11
X4.18Y-5.98
X4.22Y-6.28
X4.26Y-5.98
T12
X5.7524Y-3.8902
X5.9524Y-3.5902
X5.7524Y-5.465
X5.9524Y-5.165
T13
X5.8898Y-5.9055
X5.8898Y-6.2205
X5.8898Y-4.3307
X2.3925Y-4.2005
T14
X4.12Y-6.055
X4.12Y-6.28
X4.32Y-6.055
X4.32Y-6.28
T7
G00X2.3613Y-2.8614
M15
G01X2.3613Y-2.9243
M16
G05
G00X2.4598Y-3.0897
M15
G01X2.5228Y-3.0897
M16
G05
G00X2.6035Y-2.8495
M15
G01X2.6035Y-2.9361
M16
G05
T0
M30
