M48
;DRILL file {KiCad 5.0.1} date Sa 02 Feb 2019 17:50:20 CET
;FORMAT={-:-/ absolute / inch / decimal}
FMAT,2
INCH,TZ
T1C0.0157
T2C0.0236
T3C0.0276
T4C0.0315
T5C0.0362
T6C0.0394
T7C0.0394
T8C0.0472
T9C0.0630
T10C0.0917
T11C0.0390
T12C0.0630
T13C0.0906
T14C0.0935
%
G90
G05
M72
T1
X2.365Y-5.325
X2.365Y-5.775
X2.522Y-4.2525
X2.675Y-5.255
X2.7495Y-4.797
X2.75Y-4.75
X2.86Y-5.925
X2.883Y-4.797
X2.883Y-4.7488
X2.965Y-3.56
X2.97Y-3.81
X3.01Y-4.525
X3.015Y-3.72
X3.16Y-4.15
X3.19Y-3.72
X3.2393Y-5.5943
X3.24Y-5.365
X3.265Y-5.68
X3.27Y-5.45
X3.37Y-3.37
X3.42Y-5.575
X3.42Y-5.525
X3.44Y-5.675
X3.485Y-5.22
X3.4952Y-5.4852
X3.52Y-5.74
X3.52Y-6.024
X3.545Y-4.5709
X3.58Y-5.5141
X3.585Y-5.29
X3.59Y-4.23
X3.595Y-4.5709
X3.613Y-5.2594
X3.615Y-3.37
X3.6235Y-3.5295
X3.6235Y-3.5985
X3.6542Y-5.2594
X3.695Y-4.7
X3.6953Y-5.2594
X3.7365Y-5.2594
X3.7413Y-5.743
X3.7502Y-5.6806
X3.7698Y-5.793
X3.77Y-5.86
X3.775Y-4.23
X3.7777Y-5.2594
X3.7785Y-5.6521
X3.79Y-6.14
X3.8071Y-5.6235
X3.8188Y-5.2594
X3.83Y-3.48
X3.835Y-5.595
X3.85Y-5.375
X3.851Y-5.424
X3.86Y-5.2594
X3.895Y-4.7
X3.9115Y-5.375
X3.915Y-5.675
X3.965Y-5.17
X3.98Y-5.82
X4.055Y-5.28
X4.065Y-4.93
X4.065Y-4.98
X4.0655Y-4.885
X4.075Y-6.205
X4.085Y-4.545
X4.1155Y-5.5005
X4.125Y-5.773
X4.1513Y-4.94
X4.155Y-5.6765
X4.169Y-5.005
X4.19Y-5.1
X4.19Y-5.735
X4.1987Y-4.77
X4.2476Y-5.4304
X4.26Y-5.555
X4.26Y-5.615
X4.425Y-5.835
X4.47Y-6.05
X4.62Y-3.2
X4.62Y-5.75
X4.937Y-3.75
X4.965Y-5.475
X4.99Y-3.901
X5.015Y-3.705
X5.015Y-5.475
X5.028Y-3.52
X5.065Y-5.475
X5.07Y-4.43
X5.075Y-3.765
X5.1Y-3.57
X5.14Y-3.3
X5.14Y-5.85
X5.16Y-5.555
X5.28Y-3.
X5.31Y-5.88
X5.31Y-6.01
X5.395Y-4.29
X5.395Y-4.21
X5.73Y-6.17
T2
X2.657Y-3.433
X3.2107Y-2.7617
X3.2107Y-2.9526
X3.216Y-3.8404
X3.32Y-2.8571
X3.361Y-3.694
X3.4293Y-2.7617
X3.4293Y-2.9526
X3.515Y-6.09
X3.55Y-5.195
X3.645Y-4.735
X3.645Y-4.9254
X4.115Y-3.42
X4.3412Y-3.42
X4.6Y-3.835
X4.67Y-4.42
X3.82Y-4.3059
X3.82Y-4.365
T3
X4.7676Y-4.5276
X4.9676Y-4.5276
X5.0676Y-4.5276
X5.1676Y-4.5276
X5.2676Y-4.5276
T4
X4.35Y-4.77
X4.4287Y-4.77
X4.6676Y-4.5276
X3.11Y-4.4279
X3.11Y-4.62
X5.1613Y-4.28
X5.24Y-4.28
X4.46Y-3.59
X4.5387Y-3.59
X3.77Y-3.22
X3.77Y-3.3184
T5
X2.5863Y-3.7591
X2.5863Y-3.8576
X2.665Y-3.7591
X2.665Y-3.8576
T6
X2.7731Y-3.22
X2.97Y-3.22
X5.4847Y-4.705
X5.78Y-4.705
X3.99Y-4.4
X4.09Y-4.4
X4.7347Y-4.34
X5.03Y-4.34
X5.4847Y-3.13
X5.78Y-3.13
T8
X5.4024Y-5.315
X5.6024Y-5.315
X5.4272Y-3.7402
X5.7776Y-3.4654
T9
X5.4024Y-5.165
X5.4024Y-5.465
X5.5774Y-3.8902
X5.6024Y-3.5902
T10
X2.4796Y-3.5713
X2.4796Y-4.0454
T11
X4.18Y-5.98
X4.22Y-6.28
X4.26Y-5.98
T12
X5.7524Y-5.465
X5.9524Y-5.165
X5.7524Y-3.8902
X5.9524Y-3.5902
T13
X5.8898Y-5.9055
X5.8898Y-4.3307
X5.8898Y-6.2205
X2.3925Y-4.2005
T14
X4.12Y-6.055
X4.12Y-6.28
X4.32Y-6.055
X4.32Y-6.28
T7
X2.3613Y-2.8614G85X2.3613Y-2.9243
G05
X2.4598Y-3.0897G85X2.5228Y-3.0897
G05
X2.6035Y-2.8495G85X2.6035Y-2.9361
G05
T0
M30
