G04 #@! TF.GenerationSoftware,KiCad,Pcbnew,5.0.1*
G04 #@! TF.CreationDate,2019-02-02T17:49:27+01:00*
G04 #@! TF.ProjectId,UsbDmx,557362446D782E6B696361645F706362,rev?*
G04 #@! TF.SameCoordinates,Original*
G04 #@! TF.FileFunction,Soldermask,Bot*
G04 #@! TF.FilePolarity,Negative*
%FSLAX46Y46*%
G04 Gerber Fmt 4.6, Leading zero omitted, Abs format (unit mm)*
G04 Created by KiCad (PCBNEW 5.0.1) date Sa 02 Feb 2019 17:49:27 CET*
%MOMM*%
%LPD*%
G01*
G04 APERTURE LIST*
%ADD10C,0.100000*%
G04 APERTURE END LIST*
D10*
G36*
X110089257Y-158321094D02*
X110314650Y-158414455D01*
X110517498Y-158549994D01*
X110690006Y-158722502D01*
X110825545Y-158925350D01*
X110918906Y-159150743D01*
X110966500Y-159390018D01*
X110966500Y-159633982D01*
X110918906Y-159873257D01*
X110825545Y-160098650D01*
X110690006Y-160301498D01*
X110517498Y-160474006D01*
X110314650Y-160609545D01*
X110089257Y-160702906D01*
X109849982Y-160750500D01*
X109606018Y-160750500D01*
X109366743Y-160702906D01*
X109141350Y-160609545D01*
X108938502Y-160474006D01*
X108765994Y-160301498D01*
X108630455Y-160098650D01*
X108537094Y-159873257D01*
X108489500Y-159633982D01*
X108489500Y-159390018D01*
X108537094Y-159150743D01*
X108630455Y-158925350D01*
X108765994Y-158722502D01*
X108938502Y-158549994D01*
X109141350Y-158414455D01*
X109366743Y-158321094D01*
X109606018Y-158273500D01*
X109849982Y-158273500D01*
X110089257Y-158321094D01*
X110089257Y-158321094D01*
G37*
G36*
X105009257Y-158321094D02*
X105234650Y-158414455D01*
X105437498Y-158549994D01*
X105610006Y-158722502D01*
X105745545Y-158925350D01*
X105838906Y-159150743D01*
X105886500Y-159390018D01*
X105886500Y-159633982D01*
X105838906Y-159873257D01*
X105745545Y-160098650D01*
X105610006Y-160301498D01*
X105437498Y-160474006D01*
X105234650Y-160609545D01*
X105009257Y-160702906D01*
X104769982Y-160750500D01*
X104526018Y-160750500D01*
X104286743Y-160702906D01*
X104061350Y-160609545D01*
X103858502Y-160474006D01*
X103685994Y-160301498D01*
X103550455Y-160098650D01*
X103457094Y-159873257D01*
X103409500Y-159633982D01*
X103409500Y-159390018D01*
X103457094Y-159150743D01*
X103550455Y-158925350D01*
X103685994Y-158722502D01*
X103858502Y-158549994D01*
X104061350Y-158414455D01*
X104286743Y-158321094D01*
X104526018Y-158273500D01*
X104769982Y-158273500D01*
X105009257Y-158321094D01*
X105009257Y-158321094D01*
G37*
G36*
X107347350Y-158986694D02*
X107446770Y-159027875D01*
X107536249Y-159087663D01*
X107612337Y-159163751D01*
X107672125Y-159253230D01*
X107713306Y-159352650D01*
X107734300Y-159458194D01*
X107734300Y-159565806D01*
X107713306Y-159671350D01*
X107672125Y-159770770D01*
X107612337Y-159860249D01*
X107536249Y-159936337D01*
X107446770Y-159996125D01*
X107347350Y-160037306D01*
X107241806Y-160058300D01*
X107134194Y-160058300D01*
X107028650Y-160037306D01*
X106929230Y-159996125D01*
X106839751Y-159936337D01*
X106763663Y-159860249D01*
X106703875Y-159770770D01*
X106662694Y-159671350D01*
X106641700Y-159565806D01*
X106641700Y-159458194D01*
X106662694Y-159352650D01*
X106703875Y-159253230D01*
X106763663Y-159163751D01*
X106839751Y-159087663D01*
X106929230Y-159027875D01*
X107028650Y-158986694D01*
X107134194Y-158965700D01*
X107241806Y-158965700D01*
X107347350Y-158986694D01*
X107347350Y-158986694D01*
G37*
G36*
X149950316Y-156845153D02*
X149950318Y-156845154D01*
X149950319Y-156845154D01*
X150031056Y-156878597D01*
X150168888Y-156935688D01*
X150267576Y-157001629D01*
X150365593Y-157067122D01*
X150532878Y-157234407D01*
X150598371Y-157332424D01*
X150664312Y-157431112D01*
X150754847Y-157649684D01*
X150801000Y-157881710D01*
X150801000Y-158118290D01*
X150754847Y-158350316D01*
X150664312Y-158568888D01*
X150598371Y-158667576D01*
X150532878Y-158765593D01*
X150365593Y-158932878D01*
X150316471Y-158965700D01*
X150168888Y-159064312D01*
X150112518Y-159087661D01*
X149950319Y-159154846D01*
X149950318Y-159154846D01*
X149950316Y-159154847D01*
X149718290Y-159201000D01*
X149481710Y-159201000D01*
X149249684Y-159154847D01*
X149249682Y-159154846D01*
X149249681Y-159154846D01*
X149087482Y-159087661D01*
X149031112Y-159064312D01*
X148883529Y-158965700D01*
X148834407Y-158932878D01*
X148667122Y-158765593D01*
X148601629Y-158667576D01*
X148535688Y-158568888D01*
X148445153Y-158350316D01*
X148399000Y-158118290D01*
X148399000Y-157881710D01*
X148445153Y-157649684D01*
X148535688Y-157431112D01*
X148601629Y-157332424D01*
X148667122Y-157234407D01*
X148834407Y-157067122D01*
X148932424Y-157001629D01*
X149031112Y-156935688D01*
X149168944Y-156878597D01*
X149249681Y-156845154D01*
X149249682Y-156845154D01*
X149249684Y-156845153D01*
X149481710Y-156799000D01*
X149718290Y-156799000D01*
X149950316Y-156845153D01*
X149950316Y-156845153D01*
G37*
G36*
X105009257Y-152606094D02*
X105234650Y-152699455D01*
X105437498Y-152834994D01*
X105610006Y-153007502D01*
X105745545Y-153210350D01*
X105838906Y-153435743D01*
X105886500Y-153675018D01*
X105886500Y-153918982D01*
X105838906Y-154158257D01*
X105745545Y-154383650D01*
X105610006Y-154586498D01*
X105437498Y-154759006D01*
X105234650Y-154894545D01*
X105009257Y-154987906D01*
X104769982Y-155035500D01*
X104526018Y-155035500D01*
X104286743Y-154987906D01*
X104061350Y-154894545D01*
X103858502Y-154759006D01*
X103685994Y-154586498D01*
X103550455Y-154383650D01*
X103457094Y-154158257D01*
X103409500Y-153918982D01*
X103409500Y-153675018D01*
X103457094Y-153435743D01*
X103550455Y-153210350D01*
X103685994Y-153007502D01*
X103858502Y-152834994D01*
X104061350Y-152699455D01*
X104286743Y-152606094D01*
X104526018Y-152558500D01*
X104769982Y-152558500D01*
X105009257Y-152606094D01*
X105009257Y-152606094D01*
G37*
G36*
X110089257Y-152606094D02*
X110314650Y-152699455D01*
X110517498Y-152834994D01*
X110690006Y-153007502D01*
X110825545Y-153210350D01*
X110918906Y-153435743D01*
X110966500Y-153675018D01*
X110966500Y-153918982D01*
X110918906Y-154158257D01*
X110825545Y-154383650D01*
X110690006Y-154586498D01*
X110517498Y-154759006D01*
X110314650Y-154894545D01*
X110089257Y-154987906D01*
X109849982Y-155035500D01*
X109606018Y-155035500D01*
X109366743Y-154987906D01*
X109141350Y-154894545D01*
X108938502Y-154759006D01*
X108765994Y-154586498D01*
X108630455Y-154383650D01*
X108537094Y-154158257D01*
X108489500Y-153918982D01*
X108489500Y-153675018D01*
X108537094Y-153435743D01*
X108630455Y-153210350D01*
X108765994Y-153007502D01*
X108938502Y-152834994D01*
X109141350Y-152699455D01*
X109366743Y-152606094D01*
X109606018Y-152558500D01*
X109849982Y-152558500D01*
X110089257Y-152606094D01*
X110089257Y-152606094D01*
G37*
G36*
X108362350Y-151366694D02*
X108461770Y-151407875D01*
X108551249Y-151467663D01*
X108627337Y-151543751D01*
X108687125Y-151633230D01*
X108728306Y-151732650D01*
X108749300Y-151838194D01*
X108749300Y-151945806D01*
X108728306Y-152051350D01*
X108687125Y-152150770D01*
X108627337Y-152240249D01*
X108551249Y-152316337D01*
X108461770Y-152376125D01*
X108362350Y-152417306D01*
X108256806Y-152438300D01*
X108149194Y-152438300D01*
X108043650Y-152417306D01*
X107944230Y-152376125D01*
X107854751Y-152316337D01*
X107778663Y-152240249D01*
X107718875Y-152150770D01*
X107677694Y-152051350D01*
X107656700Y-151945806D01*
X107656700Y-151838194D01*
X107677694Y-151732650D01*
X107718875Y-151633230D01*
X107778663Y-151543751D01*
X107854751Y-151467663D01*
X107944230Y-151407875D01*
X108043650Y-151366694D01*
X108149194Y-151345700D01*
X108256806Y-151345700D01*
X108362350Y-151366694D01*
X108362350Y-151366694D01*
G37*
G36*
X106332350Y-151366694D02*
X106431770Y-151407875D01*
X106521249Y-151467663D01*
X106597337Y-151543751D01*
X106657125Y-151633230D01*
X106698306Y-151732650D01*
X106719300Y-151838194D01*
X106719300Y-151945806D01*
X106698306Y-152051350D01*
X106657125Y-152150770D01*
X106597337Y-152240249D01*
X106521249Y-152316337D01*
X106431770Y-152376125D01*
X106332350Y-152417306D01*
X106226806Y-152438300D01*
X106119194Y-152438300D01*
X106013650Y-152417306D01*
X105914230Y-152376125D01*
X105824751Y-152316337D01*
X105748663Y-152240249D01*
X105688875Y-152150770D01*
X105647694Y-152051350D01*
X105626700Y-151945806D01*
X105626700Y-151838194D01*
X105647694Y-151732650D01*
X105688875Y-151633230D01*
X105748663Y-151543751D01*
X105824751Y-151467663D01*
X105914230Y-151407875D01*
X106013650Y-151366694D01*
X106119194Y-151345700D01*
X106226806Y-151345700D01*
X106332350Y-151366694D01*
X106332350Y-151366694D01*
G37*
G36*
X149950316Y-148845153D02*
X149950318Y-148845154D01*
X149950319Y-148845154D01*
X150031056Y-148878597D01*
X150168888Y-148935688D01*
X150267576Y-149001629D01*
X150365593Y-149067122D01*
X150532878Y-149234407D01*
X150598371Y-149332424D01*
X150664312Y-149431112D01*
X150754847Y-149649684D01*
X150801000Y-149881710D01*
X150801000Y-150118290D01*
X150754847Y-150350316D01*
X150664312Y-150568888D01*
X150598371Y-150667576D01*
X150532878Y-150765593D01*
X150365593Y-150932878D01*
X150267576Y-150998371D01*
X150168888Y-151064312D01*
X150031056Y-151121403D01*
X149950319Y-151154846D01*
X149950318Y-151154846D01*
X149950316Y-151154847D01*
X149718290Y-151201000D01*
X149481710Y-151201000D01*
X149249684Y-151154847D01*
X149249682Y-151154846D01*
X149249681Y-151154846D01*
X149168944Y-151121403D01*
X149031112Y-151064312D01*
X148932424Y-150998371D01*
X148834407Y-150932878D01*
X148667122Y-150765593D01*
X148601629Y-150667576D01*
X148535688Y-150568888D01*
X148445153Y-150350316D01*
X148399000Y-150118290D01*
X148399000Y-149881710D01*
X148445153Y-149649684D01*
X148535688Y-149431112D01*
X148601629Y-149332424D01*
X148667122Y-149234407D01*
X148834407Y-149067122D01*
X148932424Y-149001629D01*
X149031112Y-148935688D01*
X149168944Y-148878597D01*
X149249681Y-148845154D01*
X149249682Y-148845154D01*
X149249684Y-148845153D01*
X149481710Y-148799000D01*
X149718290Y-148799000D01*
X149950316Y-148845153D01*
X149950316Y-148845153D01*
G37*
G36*
X137686703Y-137271486D02*
X137977883Y-137392097D01*
X138239944Y-137567201D01*
X138462799Y-137790056D01*
X138637903Y-138052117D01*
X138758514Y-138343297D01*
X138820000Y-138652412D01*
X138820000Y-138967588D01*
X138758514Y-139276703D01*
X138637903Y-139567883D01*
X138462799Y-139829944D01*
X138239944Y-140052799D01*
X137977883Y-140227903D01*
X137686703Y-140348514D01*
X137377588Y-140410000D01*
X137062412Y-140410000D01*
X136753297Y-140348514D01*
X136462117Y-140227903D01*
X136200056Y-140052799D01*
X135977201Y-139829944D01*
X135802097Y-139567883D01*
X135681486Y-139276703D01*
X135620000Y-138967588D01*
X135620000Y-138652412D01*
X135681486Y-138343297D01*
X135802097Y-138052117D01*
X135977201Y-137790056D01*
X136200056Y-137567201D01*
X136462117Y-137392097D01*
X136753297Y-137271486D01*
X137062412Y-137210000D01*
X137377588Y-137210000D01*
X137686703Y-137271486D01*
X137686703Y-137271486D01*
G37*
G36*
X146372521Y-137944586D02*
X146536309Y-138012429D01*
X146683720Y-138110926D01*
X146809074Y-138236280D01*
X146907571Y-138383691D01*
X146975414Y-138547479D01*
X147010000Y-138721356D01*
X147010000Y-138898644D01*
X146975414Y-139072521D01*
X146907571Y-139236309D01*
X146809074Y-139383720D01*
X146683720Y-139509074D01*
X146536309Y-139607571D01*
X146372521Y-139675414D01*
X146198644Y-139710000D01*
X146021356Y-139710000D01*
X145847479Y-139675414D01*
X145683691Y-139607571D01*
X145536280Y-139509074D01*
X145410926Y-139383720D01*
X145312429Y-139236309D01*
X145244586Y-139072521D01*
X145210000Y-138898644D01*
X145210000Y-138721356D01*
X145244586Y-138547479D01*
X145312429Y-138383691D01*
X145410926Y-138236280D01*
X145536280Y-138110926D01*
X145683691Y-138012429D01*
X145847479Y-137944586D01*
X146021356Y-137910000D01*
X146198644Y-137910000D01*
X146372521Y-137944586D01*
X146372521Y-137944586D01*
G37*
G36*
X137686703Y-133461486D02*
X137977883Y-133582097D01*
X138239944Y-133757201D01*
X138462799Y-133980056D01*
X138637903Y-134242117D01*
X138758514Y-134533297D01*
X138820000Y-134842412D01*
X138820000Y-135157588D01*
X138758514Y-135466703D01*
X138637903Y-135757883D01*
X138462799Y-136019944D01*
X138239944Y-136242799D01*
X137977883Y-136417903D01*
X137686703Y-136538514D01*
X137377588Y-136600000D01*
X137062412Y-136600000D01*
X136753297Y-136538514D01*
X136462117Y-136417903D01*
X136200056Y-136242799D01*
X135977201Y-136019944D01*
X135802097Y-135757883D01*
X135681486Y-135466703D01*
X135620000Y-135157588D01*
X135620000Y-134842412D01*
X135681486Y-134533297D01*
X135802097Y-134242117D01*
X135977201Y-133980056D01*
X136200056Y-133757201D01*
X136462117Y-133582097D01*
X136753297Y-133461486D01*
X137062412Y-133400000D01*
X137377588Y-133400000D01*
X137686703Y-133461486D01*
X137686703Y-133461486D01*
G37*
G36*
X142766703Y-133461486D02*
X143057883Y-133582097D01*
X143319944Y-133757201D01*
X143542799Y-133980056D01*
X143717903Y-134242117D01*
X143838514Y-134533297D01*
X143900000Y-134842412D01*
X143900000Y-135157588D01*
X143838514Y-135466703D01*
X143717903Y-135757883D01*
X143542799Y-136019944D01*
X143319944Y-136242799D01*
X143057883Y-136417903D01*
X142766703Y-136538514D01*
X142457588Y-136600000D01*
X142142412Y-136600000D01*
X141833297Y-136538514D01*
X141542117Y-136417903D01*
X141280056Y-136242799D01*
X141057201Y-136019944D01*
X140882097Y-135757883D01*
X140761486Y-135466703D01*
X140700000Y-135157588D01*
X140700000Y-134842412D01*
X140761486Y-134533297D01*
X140882097Y-134242117D01*
X141057201Y-133980056D01*
X141280056Y-133757201D01*
X141542117Y-133582097D01*
X141833297Y-133461486D01*
X142142412Y-133400000D01*
X142457588Y-133400000D01*
X142766703Y-133461486D01*
X142766703Y-133461486D01*
G37*
G36*
X134962000Y-134370000D02*
X132960000Y-134370000D01*
X132960000Y-133468000D01*
X134962000Y-133468000D01*
X134962000Y-134370000D01*
X134962000Y-134370000D01*
G37*
G36*
X131962000Y-133420000D02*
X129960000Y-133420000D01*
X129960000Y-132518000D01*
X131962000Y-132518000D01*
X131962000Y-133420000D01*
X131962000Y-133420000D01*
G37*
G36*
X137686703Y-129651486D02*
X137977883Y-129772097D01*
X138239944Y-129947201D01*
X138462799Y-130170056D01*
X138637903Y-130432117D01*
X138758514Y-130723297D01*
X138820000Y-131032412D01*
X138820000Y-131347588D01*
X138758514Y-131656703D01*
X138637903Y-131947883D01*
X138462799Y-132209944D01*
X138239944Y-132432799D01*
X137977883Y-132607903D01*
X137686703Y-132728514D01*
X137377588Y-132790000D01*
X137062412Y-132790000D01*
X136753297Y-132728514D01*
X136462117Y-132607903D01*
X136200056Y-132432799D01*
X135977201Y-132209944D01*
X135802097Y-131947883D01*
X135681486Y-131656703D01*
X135620000Y-131347588D01*
X135620000Y-131032412D01*
X135681486Y-130723297D01*
X135802097Y-130432117D01*
X135977201Y-130170056D01*
X136200056Y-129947201D01*
X136462117Y-129772097D01*
X136753297Y-129651486D01*
X137062412Y-129590000D01*
X137377588Y-129590000D01*
X137686703Y-129651486D01*
X137686703Y-129651486D01*
G37*
G36*
X134962000Y-132470000D02*
X132960000Y-132470000D01*
X132960000Y-131568000D01*
X134962000Y-131568000D01*
X134962000Y-132470000D01*
X134962000Y-132470000D01*
G37*
G36*
X151452521Y-130324586D02*
X151616309Y-130392429D01*
X151763720Y-130490926D01*
X151889074Y-130616280D01*
X151987571Y-130763691D01*
X152055414Y-130927479D01*
X152090000Y-131101356D01*
X152090000Y-131278644D01*
X152055414Y-131452521D01*
X151987571Y-131616309D01*
X151889074Y-131763720D01*
X151763720Y-131889074D01*
X151616309Y-131987571D01*
X151452521Y-132055414D01*
X151278644Y-132090000D01*
X151101356Y-132090000D01*
X150927479Y-132055414D01*
X150763691Y-131987571D01*
X150616280Y-131889074D01*
X150490926Y-131763720D01*
X150392429Y-131616309D01*
X150324586Y-131452521D01*
X150290000Y-131278644D01*
X150290000Y-131101356D01*
X150324586Y-130927479D01*
X150392429Y-130763691D01*
X150490926Y-130616280D01*
X150616280Y-130490926D01*
X150763691Y-130392429D01*
X150927479Y-130324586D01*
X151101356Y-130290000D01*
X151278644Y-130290000D01*
X151452521Y-130324586D01*
X151452521Y-130324586D01*
G37*
G36*
X111341000Y-122009000D02*
X109639000Y-122009000D01*
X109639000Y-120307000D01*
X111341000Y-120307000D01*
X111341000Y-122009000D01*
X111341000Y-122009000D01*
G37*
G36*
X112738228Y-120339703D02*
X112893100Y-120403853D01*
X113032481Y-120496985D01*
X113151015Y-120615519D01*
X113244147Y-120754900D01*
X113308297Y-120909772D01*
X113341000Y-121074184D01*
X113341000Y-121241816D01*
X113308297Y-121406228D01*
X113244147Y-121561100D01*
X113151015Y-121700481D01*
X113032481Y-121819015D01*
X112893100Y-121912147D01*
X112738228Y-121976297D01*
X112573816Y-122009000D01*
X112406184Y-122009000D01*
X112241772Y-121976297D01*
X112086900Y-121912147D01*
X111947519Y-121819015D01*
X111828985Y-121700481D01*
X111735853Y-121561100D01*
X111671703Y-121406228D01*
X111639000Y-121241816D01*
X111639000Y-121074184D01*
X111671703Y-120909772D01*
X111735853Y-120754900D01*
X111828985Y-120615519D01*
X111947519Y-120496985D01*
X112086900Y-120403853D01*
X112241772Y-120339703D01*
X112406184Y-120307000D01*
X112573816Y-120307000D01*
X112738228Y-120339703D01*
X112738228Y-120339703D01*
G37*
G36*
X139618565Y-118496389D02*
X139809834Y-118575615D01*
X139981976Y-118690637D01*
X140128363Y-118837024D01*
X140243385Y-119009166D01*
X140322611Y-119200435D01*
X140363000Y-119403484D01*
X140363000Y-119610516D01*
X140322611Y-119813565D01*
X140243385Y-120004834D01*
X140128363Y-120176976D01*
X139981976Y-120323363D01*
X139809834Y-120438385D01*
X139618565Y-120517611D01*
X139415516Y-120558000D01*
X139208484Y-120558000D01*
X139005435Y-120517611D01*
X138814166Y-120438385D01*
X138642024Y-120323363D01*
X138495637Y-120176976D01*
X138380615Y-120004834D01*
X138301389Y-119813565D01*
X138261000Y-119610516D01*
X138261000Y-119403484D01*
X138301389Y-119200435D01*
X138380615Y-119009166D01*
X138495637Y-118837024D01*
X138642024Y-118690637D01*
X138814166Y-118575615D01*
X139005435Y-118496389D01*
X139208484Y-118456000D01*
X139415516Y-118456000D01*
X139618565Y-118496389D01*
X139618565Y-118496389D01*
G37*
G36*
X147118565Y-118496389D02*
X147309834Y-118575615D01*
X147481976Y-118690637D01*
X147628363Y-118837024D01*
X147743385Y-119009166D01*
X147822611Y-119200435D01*
X147863000Y-119403484D01*
X147863000Y-119610516D01*
X147822611Y-119813565D01*
X147743385Y-120004834D01*
X147628363Y-120176976D01*
X147481976Y-120323363D01*
X147309834Y-120438385D01*
X147118565Y-120517611D01*
X146915516Y-120558000D01*
X146708484Y-120558000D01*
X146505435Y-120517611D01*
X146314166Y-120438385D01*
X146142024Y-120323363D01*
X145995637Y-120176976D01*
X145880615Y-120004834D01*
X145801389Y-119813565D01*
X145761000Y-119610516D01*
X145761000Y-119403484D01*
X145801389Y-119200435D01*
X145880615Y-119009166D01*
X145995637Y-118837024D01*
X146142024Y-118690637D01*
X146314166Y-118575615D01*
X146505435Y-118496389D01*
X146708484Y-118456000D01*
X146915516Y-118456000D01*
X147118565Y-118496389D01*
X147118565Y-118496389D01*
G37*
G36*
X79227643Y-116577781D02*
X79373415Y-116638162D01*
X79504611Y-116725824D01*
X79616176Y-116837389D01*
X79703838Y-116968585D01*
X79764219Y-117114357D01*
X79795000Y-117269107D01*
X79795000Y-117426893D01*
X79764219Y-117581643D01*
X79703838Y-117727415D01*
X79616176Y-117858611D01*
X79504611Y-117970176D01*
X79373415Y-118057838D01*
X79227643Y-118118219D01*
X79072893Y-118149000D01*
X78915107Y-118149000D01*
X78760357Y-118118219D01*
X78614585Y-118057838D01*
X78483389Y-117970176D01*
X78371824Y-117858611D01*
X78284162Y-117727415D01*
X78223781Y-117581643D01*
X78193000Y-117426893D01*
X78193000Y-117269107D01*
X78223781Y-117114357D01*
X78284162Y-116968585D01*
X78371824Y-116837389D01*
X78483389Y-116725824D01*
X78614585Y-116638162D01*
X78760357Y-116577781D01*
X78915107Y-116547000D01*
X79072893Y-116547000D01*
X79227643Y-116577781D01*
X79227643Y-116577781D01*
G37*
G36*
X134102565Y-113989389D02*
X134293834Y-114068615D01*
X134465976Y-114183637D01*
X134612363Y-114330024D01*
X134727385Y-114502166D01*
X134806611Y-114693435D01*
X134847000Y-114896484D01*
X134847000Y-115103516D01*
X134806611Y-115306565D01*
X134727385Y-115497834D01*
X134612363Y-115669976D01*
X134465976Y-115816363D01*
X134293834Y-115931385D01*
X134102565Y-116010611D01*
X133899516Y-116051000D01*
X133692484Y-116051000D01*
X133489435Y-116010611D01*
X133298166Y-115931385D01*
X133126024Y-115816363D01*
X132979637Y-115669976D01*
X132864615Y-115497834D01*
X132785389Y-115306565D01*
X132745000Y-115103516D01*
X132745000Y-114896484D01*
X132785389Y-114693435D01*
X132864615Y-114502166D01*
X132979637Y-114330024D01*
X133126024Y-114183637D01*
X133298166Y-114068615D01*
X133489435Y-113989389D01*
X133692484Y-113949000D01*
X133899516Y-113949000D01*
X134102565Y-113989389D01*
X134102565Y-113989389D01*
G37*
G36*
X131562565Y-113989389D02*
X131753834Y-114068615D01*
X131925976Y-114183637D01*
X132072363Y-114330024D01*
X132187385Y-114502166D01*
X132266611Y-114693435D01*
X132307000Y-114896484D01*
X132307000Y-115103516D01*
X132266611Y-115306565D01*
X132187385Y-115497834D01*
X132072363Y-115669976D01*
X131925976Y-115816363D01*
X131753834Y-115931385D01*
X131562565Y-116010611D01*
X131359516Y-116051000D01*
X131152484Y-116051000D01*
X130949435Y-116010611D01*
X130758166Y-115931385D01*
X130586024Y-115816363D01*
X130439637Y-115669976D01*
X130324615Y-115497834D01*
X130245389Y-115306565D01*
X130205000Y-115103516D01*
X130205000Y-114896484D01*
X130245389Y-114693435D01*
X130324615Y-114502166D01*
X130439637Y-114330024D01*
X130586024Y-114183637D01*
X130758166Y-114068615D01*
X130949435Y-113989389D01*
X131152484Y-113949000D01*
X131359516Y-113949000D01*
X131562565Y-113989389D01*
X131562565Y-113989389D01*
G37*
G36*
X129022565Y-113989389D02*
X129213834Y-114068615D01*
X129385976Y-114183637D01*
X129532363Y-114330024D01*
X129647385Y-114502166D01*
X129726611Y-114693435D01*
X129767000Y-114896484D01*
X129767000Y-115103516D01*
X129726611Y-115306565D01*
X129647385Y-115497834D01*
X129532363Y-115669976D01*
X129385976Y-115816363D01*
X129213834Y-115931385D01*
X129022565Y-116010611D01*
X128819516Y-116051000D01*
X128612484Y-116051000D01*
X128409435Y-116010611D01*
X128218166Y-115931385D01*
X128046024Y-115816363D01*
X127899637Y-115669976D01*
X127784615Y-115497834D01*
X127705389Y-115306565D01*
X127665000Y-115103516D01*
X127665000Y-114896484D01*
X127705389Y-114693435D01*
X127784615Y-114502166D01*
X127899637Y-114330024D01*
X128046024Y-114183637D01*
X128218166Y-114068615D01*
X128409435Y-113989389D01*
X128612484Y-113949000D01*
X128819516Y-113949000D01*
X129022565Y-113989389D01*
X129022565Y-113989389D01*
G37*
G36*
X126482565Y-113989389D02*
X126673834Y-114068615D01*
X126845976Y-114183637D01*
X126992363Y-114330024D01*
X127107385Y-114502166D01*
X127186611Y-114693435D01*
X127227000Y-114896484D01*
X127227000Y-115103516D01*
X127186611Y-115306565D01*
X127107385Y-115497834D01*
X126992363Y-115669976D01*
X126845976Y-115816363D01*
X126673834Y-115931385D01*
X126482565Y-116010611D01*
X126279516Y-116051000D01*
X126072484Y-116051000D01*
X125869435Y-116010611D01*
X125678166Y-115931385D01*
X125506024Y-115816363D01*
X125359637Y-115669976D01*
X125244615Y-115497834D01*
X125165389Y-115306565D01*
X125125000Y-115103516D01*
X125125000Y-114896484D01*
X125165389Y-114693435D01*
X125244615Y-114502166D01*
X125359637Y-114330024D01*
X125506024Y-114183637D01*
X125678166Y-114068615D01*
X125869435Y-113989389D01*
X126072484Y-113949000D01*
X126279516Y-113949000D01*
X126482565Y-113989389D01*
X126482565Y-113989389D01*
G37*
G36*
X121402565Y-113989389D02*
X121593834Y-114068615D01*
X121765976Y-114183637D01*
X121912363Y-114330024D01*
X122027385Y-114502166D01*
X122106611Y-114693435D01*
X122147000Y-114896484D01*
X122147000Y-115103516D01*
X122106611Y-115306565D01*
X122027385Y-115497834D01*
X121912363Y-115669976D01*
X121765976Y-115816363D01*
X121593834Y-115931385D01*
X121402565Y-116010611D01*
X121199516Y-116051000D01*
X120992484Y-116051000D01*
X120789435Y-116010611D01*
X120598166Y-115931385D01*
X120426024Y-115816363D01*
X120279637Y-115669976D01*
X120164615Y-115497834D01*
X120085389Y-115306565D01*
X120045000Y-115103516D01*
X120045000Y-114896484D01*
X120085389Y-114693435D01*
X120164615Y-114502166D01*
X120279637Y-114330024D01*
X120426024Y-114183637D01*
X120598166Y-114068615D01*
X120789435Y-113989389D01*
X120992484Y-113949000D01*
X121199516Y-113949000D01*
X121402565Y-113989389D01*
X121402565Y-113989389D01*
G37*
G36*
X118862565Y-113989389D02*
X119053834Y-114068615D01*
X119225976Y-114183637D01*
X119372363Y-114330024D01*
X119487385Y-114502166D01*
X119566611Y-114693435D01*
X119607000Y-114896484D01*
X119607000Y-115103516D01*
X119566611Y-115306565D01*
X119487385Y-115497834D01*
X119372363Y-115669976D01*
X119225976Y-115816363D01*
X119053834Y-115931385D01*
X118862565Y-116010611D01*
X118659516Y-116051000D01*
X118452484Y-116051000D01*
X118249435Y-116010611D01*
X118058166Y-115931385D01*
X117886024Y-115816363D01*
X117739637Y-115669976D01*
X117624615Y-115497834D01*
X117545389Y-115306565D01*
X117505000Y-115103516D01*
X117505000Y-114896484D01*
X117545389Y-114693435D01*
X117624615Y-114502166D01*
X117739637Y-114330024D01*
X117886024Y-114183637D01*
X118058166Y-114068615D01*
X118249435Y-113989389D01*
X118452484Y-113949000D01*
X118659516Y-113949000D01*
X118862565Y-113989389D01*
X118862565Y-113989389D01*
G37*
G36*
X79227643Y-111697781D02*
X79373415Y-111758162D01*
X79504611Y-111845824D01*
X79616176Y-111957389D01*
X79703838Y-112088585D01*
X79764219Y-112234357D01*
X79795000Y-112389107D01*
X79795000Y-112546893D01*
X79764219Y-112701643D01*
X79703838Y-112847415D01*
X79616176Y-112978611D01*
X79504611Y-113090176D01*
X79373415Y-113177838D01*
X79227643Y-113238219D01*
X79072893Y-113269000D01*
X78915107Y-113269000D01*
X78760357Y-113238219D01*
X78614585Y-113177838D01*
X78483389Y-113090176D01*
X78371824Y-112978611D01*
X78284162Y-112847415D01*
X78223781Y-112701643D01*
X78193000Y-112546893D01*
X78193000Y-112389107D01*
X78223781Y-112234357D01*
X78284162Y-112088585D01*
X78371824Y-111957389D01*
X78483389Y-111845824D01*
X78614585Y-111758162D01*
X78760357Y-111697781D01*
X78915107Y-111667000D01*
X79072893Y-111667000D01*
X79227643Y-111697781D01*
X79227643Y-111697781D01*
G37*
G36*
X101456442Y-110865518D02*
X101522627Y-110872037D01*
X101634499Y-110905973D01*
X101692467Y-110923557D01*
X101831087Y-110997652D01*
X101848991Y-111007222D01*
X101884729Y-111036552D01*
X101986186Y-111119814D01*
X102069448Y-111221271D01*
X102098778Y-111257009D01*
X102098779Y-111257011D01*
X102182443Y-111413533D01*
X102182443Y-111413534D01*
X102233963Y-111583373D01*
X102251359Y-111760000D01*
X102233963Y-111936627D01*
X102227664Y-111957392D01*
X102182443Y-112106467D01*
X102114083Y-112234357D01*
X102098778Y-112262991D01*
X102069448Y-112298729D01*
X101986186Y-112400186D01*
X101884729Y-112483448D01*
X101848991Y-112512778D01*
X101848989Y-112512779D01*
X101692467Y-112596443D01*
X101635853Y-112613616D01*
X101522627Y-112647963D01*
X101456442Y-112654482D01*
X101390260Y-112661000D01*
X101301740Y-112661000D01*
X101235558Y-112654482D01*
X101169373Y-112647963D01*
X101056147Y-112613616D01*
X100999533Y-112596443D01*
X100843011Y-112512779D01*
X100843009Y-112512778D01*
X100807271Y-112483448D01*
X100705814Y-112400186D01*
X100622552Y-112298729D01*
X100593222Y-112262991D01*
X100577917Y-112234357D01*
X100509557Y-112106467D01*
X100464336Y-111957392D01*
X100458037Y-111936627D01*
X100440641Y-111760000D01*
X100458037Y-111583373D01*
X100509557Y-111413534D01*
X100509557Y-111413533D01*
X100593221Y-111257011D01*
X100593222Y-111257009D01*
X100622552Y-111221271D01*
X100705814Y-111119814D01*
X100807271Y-111036552D01*
X100843009Y-111007222D01*
X100860913Y-110997652D01*
X100999533Y-110923557D01*
X101057501Y-110905973D01*
X101169373Y-110872037D01*
X101235558Y-110865518D01*
X101301740Y-110859000D01*
X101390260Y-110859000D01*
X101456442Y-110865518D01*
X101456442Y-110865518D01*
G37*
G36*
X104787000Y-112661000D02*
X102985000Y-112661000D01*
X102985000Y-110859000D01*
X104787000Y-110859000D01*
X104787000Y-112661000D01*
X104787000Y-112661000D01*
G37*
G36*
X97217890Y-108745017D02*
X97336361Y-108794089D01*
X97336364Y-108794091D01*
X97412784Y-108845153D01*
X97442992Y-108865338D01*
X97533662Y-108956008D01*
X97604911Y-109062639D01*
X97653983Y-109181110D01*
X97679000Y-109306881D01*
X97679000Y-109435119D01*
X97653983Y-109560890D01*
X97604911Y-109679361D01*
X97533662Y-109785992D01*
X97442992Y-109876662D01*
X97442989Y-109876664D01*
X97442988Y-109876665D01*
X97364012Y-109929435D01*
X97336361Y-109947911D01*
X97260061Y-109979515D01*
X97238450Y-109991066D01*
X97219508Y-110006611D01*
X97203963Y-110025553D01*
X97192411Y-110047164D01*
X97185298Y-110070613D01*
X97182896Y-110094999D01*
X97185298Y-110119386D01*
X97192411Y-110142835D01*
X97203962Y-110164446D01*
X97219507Y-110183388D01*
X97238449Y-110198933D01*
X97260060Y-110210485D01*
X97283509Y-110217598D01*
X97307896Y-110220000D01*
X97679000Y-110220000D01*
X97679000Y-111522000D01*
X96377000Y-111522000D01*
X96377000Y-110220000D01*
X96748104Y-110220000D01*
X96772490Y-110217598D01*
X96795939Y-110210485D01*
X96817550Y-110198934D01*
X96836492Y-110183388D01*
X96852038Y-110164446D01*
X96863589Y-110142835D01*
X96870702Y-110119386D01*
X96873104Y-110095000D01*
X96870702Y-110070614D01*
X96863589Y-110047165D01*
X96852038Y-110025554D01*
X96836492Y-110006612D01*
X96817550Y-109991066D01*
X96795939Y-109979515D01*
X96719639Y-109947911D01*
X96691988Y-109929435D01*
X96613012Y-109876665D01*
X96613011Y-109876664D01*
X96613008Y-109876662D01*
X96522338Y-109785992D01*
X96451089Y-109679361D01*
X96402017Y-109560890D01*
X96377000Y-109435119D01*
X96377000Y-109306881D01*
X96402017Y-109181110D01*
X96451089Y-109062639D01*
X96522338Y-108956008D01*
X96613008Y-108865338D01*
X96643217Y-108845153D01*
X96719636Y-108794091D01*
X96719639Y-108794089D01*
X96838110Y-108745017D01*
X96963881Y-108720000D01*
X97092119Y-108720000D01*
X97217890Y-108745017D01*
X97217890Y-108745017D01*
G37*
G36*
X120568565Y-109225389D02*
X120759834Y-109304615D01*
X120931976Y-109419637D01*
X121078363Y-109566024D01*
X121193385Y-109738166D01*
X121272611Y-109929435D01*
X121313000Y-110132484D01*
X121313000Y-110339516D01*
X121272611Y-110542565D01*
X121193385Y-110733834D01*
X121078363Y-110905976D01*
X120931976Y-111052363D01*
X120759834Y-111167385D01*
X120568565Y-111246611D01*
X120365516Y-111287000D01*
X120158484Y-111287000D01*
X119955435Y-111246611D01*
X119764166Y-111167385D01*
X119592024Y-111052363D01*
X119445637Y-110905976D01*
X119330615Y-110733834D01*
X119251389Y-110542565D01*
X119211000Y-110339516D01*
X119211000Y-110132484D01*
X119251389Y-109929435D01*
X119330615Y-109738166D01*
X119445637Y-109566024D01*
X119592024Y-109419637D01*
X119764166Y-109304615D01*
X119955435Y-109225389D01*
X120158484Y-109185000D01*
X120365516Y-109185000D01*
X120568565Y-109225389D01*
X120568565Y-109225389D01*
G37*
G36*
X128068565Y-109225389D02*
X128259834Y-109304615D01*
X128431976Y-109419637D01*
X128578363Y-109566024D01*
X128693385Y-109738166D01*
X128772611Y-109929435D01*
X128813000Y-110132484D01*
X128813000Y-110339516D01*
X128772611Y-110542565D01*
X128693385Y-110733834D01*
X128578363Y-110905976D01*
X128431976Y-111052363D01*
X128259834Y-111167385D01*
X128068565Y-111246611D01*
X127865516Y-111287000D01*
X127658484Y-111287000D01*
X127455435Y-111246611D01*
X127264166Y-111167385D01*
X127092024Y-111052363D01*
X126945637Y-110905976D01*
X126830615Y-110733834D01*
X126751389Y-110542565D01*
X126711000Y-110339516D01*
X126711000Y-110132484D01*
X126751389Y-109929435D01*
X126830615Y-109738166D01*
X126945637Y-109566024D01*
X127092024Y-109419637D01*
X127264166Y-109304615D01*
X127455435Y-109225389D01*
X127658484Y-109185000D01*
X127865516Y-109185000D01*
X128068565Y-109225389D01*
X128068565Y-109225389D01*
G37*
G36*
X149950316Y-108845153D02*
X149950318Y-108845154D01*
X149950319Y-108845154D01*
X149999040Y-108865335D01*
X150168888Y-108935688D01*
X150267576Y-109001629D01*
X150365593Y-109067122D01*
X150532878Y-109234407D01*
X150579789Y-109304615D01*
X150664312Y-109431112D01*
X150754847Y-109649684D01*
X150801000Y-109881710D01*
X150801000Y-110118290D01*
X150754847Y-110350316D01*
X150664312Y-110568888D01*
X150598371Y-110667576D01*
X150532878Y-110765593D01*
X150365593Y-110932878D01*
X150267576Y-110998371D01*
X150168888Y-111064312D01*
X150034894Y-111119814D01*
X149950319Y-111154846D01*
X149950318Y-111154846D01*
X149950316Y-111154847D01*
X149718290Y-111201000D01*
X149481710Y-111201000D01*
X149249684Y-111154847D01*
X149249682Y-111154846D01*
X149249681Y-111154846D01*
X149165106Y-111119814D01*
X149031112Y-111064312D01*
X148932424Y-110998371D01*
X148834407Y-110932878D01*
X148667122Y-110765593D01*
X148601629Y-110667576D01*
X148535688Y-110568888D01*
X148445153Y-110350316D01*
X148399000Y-110118290D01*
X148399000Y-109881710D01*
X148445153Y-109649684D01*
X148535688Y-109431112D01*
X148620211Y-109304615D01*
X148667122Y-109234407D01*
X148834407Y-109067122D01*
X148932424Y-109001629D01*
X149031112Y-108935688D01*
X149200960Y-108865335D01*
X149249681Y-108845154D01*
X149249682Y-108845154D01*
X149249684Y-108845153D01*
X149481710Y-108799000D01*
X149718290Y-108799000D01*
X149950316Y-108845153D01*
X149950316Y-108845153D01*
G37*
G36*
X133947000Y-109563000D02*
X132245000Y-109563000D01*
X132245000Y-107861000D01*
X133947000Y-107861000D01*
X133947000Y-109563000D01*
X133947000Y-109563000D01*
G37*
G36*
X131344228Y-107893703D02*
X131499100Y-107957853D01*
X131638481Y-108050985D01*
X131757015Y-108169519D01*
X131850147Y-108308900D01*
X131914297Y-108463772D01*
X131947000Y-108628184D01*
X131947000Y-108795816D01*
X131914297Y-108960228D01*
X131850147Y-109115100D01*
X131757015Y-109254481D01*
X131638481Y-109373015D01*
X131499100Y-109466147D01*
X131344228Y-109530297D01*
X131179816Y-109563000D01*
X131012184Y-109563000D01*
X130847772Y-109530297D01*
X130692900Y-109466147D01*
X130553519Y-109373015D01*
X130434985Y-109254481D01*
X130341853Y-109115100D01*
X130277703Y-108960228D01*
X130245000Y-108795816D01*
X130245000Y-108628184D01*
X130277703Y-108463772D01*
X130341853Y-108308900D01*
X130434985Y-108169519D01*
X130553519Y-108050985D01*
X130692900Y-107957853D01*
X130847772Y-107893703D01*
X131012184Y-107861000D01*
X131179816Y-107861000D01*
X131344228Y-107893703D01*
X131344228Y-107893703D01*
G37*
G36*
X61119816Y-105537853D02*
X61119818Y-105537854D01*
X61119819Y-105537854D01*
X61200556Y-105571297D01*
X61338388Y-105628388D01*
X61437076Y-105694329D01*
X61535093Y-105759822D01*
X61702378Y-105927107D01*
X61767871Y-106025124D01*
X61833812Y-106123812D01*
X61924347Y-106342384D01*
X61970500Y-106574410D01*
X61970500Y-106810990D01*
X61924347Y-107043016D01*
X61833812Y-107261588D01*
X61767871Y-107360276D01*
X61702378Y-107458293D01*
X61535093Y-107625578D01*
X61437076Y-107691071D01*
X61338388Y-107757012D01*
X61200556Y-107814103D01*
X61119819Y-107847546D01*
X61119818Y-107847546D01*
X61119816Y-107847547D01*
X60887790Y-107893700D01*
X60651210Y-107893700D01*
X60419184Y-107847547D01*
X60419182Y-107847546D01*
X60419181Y-107847546D01*
X60338444Y-107814103D01*
X60200612Y-107757012D01*
X60101924Y-107691071D01*
X60003907Y-107625578D01*
X59836622Y-107458293D01*
X59771129Y-107360276D01*
X59705188Y-107261588D01*
X59614653Y-107043016D01*
X59568500Y-106810990D01*
X59568500Y-106574410D01*
X59614653Y-106342384D01*
X59705188Y-106123812D01*
X59771129Y-106025124D01*
X59836622Y-105927107D01*
X60003907Y-105759822D01*
X60101924Y-105694329D01*
X60200612Y-105628388D01*
X60338444Y-105571297D01*
X60419181Y-105537854D01*
X60419182Y-105537854D01*
X60419184Y-105537853D01*
X60651210Y-105491700D01*
X60887790Y-105491700D01*
X61119816Y-105537853D01*
X61119816Y-105537853D01*
G37*
G36*
X63506331Y-101020211D02*
X63834092Y-101155974D01*
X64129073Y-101353074D01*
X64379926Y-101603927D01*
X64577026Y-101898908D01*
X64712789Y-102226669D01*
X64782000Y-102574616D01*
X64782000Y-102929384D01*
X64712789Y-103277331D01*
X64577026Y-103605092D01*
X64379926Y-103900073D01*
X64129073Y-104150926D01*
X63834092Y-104348026D01*
X63506331Y-104483789D01*
X63158384Y-104553000D01*
X62803616Y-104553000D01*
X62455669Y-104483789D01*
X62127908Y-104348026D01*
X61832927Y-104150926D01*
X61582074Y-103900073D01*
X61384974Y-103605092D01*
X61249211Y-103277331D01*
X61180000Y-102929384D01*
X61180000Y-102574616D01*
X61249211Y-102226669D01*
X61384974Y-101898908D01*
X61582074Y-101603927D01*
X61832927Y-101353074D01*
X62127908Y-101155974D01*
X62455669Y-101020211D01*
X62803616Y-100951000D01*
X63158384Y-100951000D01*
X63506331Y-101020211D01*
X63506331Y-101020211D01*
G37*
G36*
X142131703Y-97271486D02*
X142422883Y-97392097D01*
X142684944Y-97567201D01*
X142907799Y-97790056D01*
X143082903Y-98052117D01*
X143203514Y-98343297D01*
X143265000Y-98652412D01*
X143265000Y-98967588D01*
X143203514Y-99276703D01*
X143082903Y-99567883D01*
X142907799Y-99829944D01*
X142684944Y-100052799D01*
X142422883Y-100227903D01*
X142131703Y-100348514D01*
X141822588Y-100410000D01*
X141507412Y-100410000D01*
X141198297Y-100348514D01*
X140907117Y-100227903D01*
X140645056Y-100052799D01*
X140422201Y-99829944D01*
X140247097Y-99567883D01*
X140126486Y-99276703D01*
X140065000Y-98967588D01*
X140065000Y-98652412D01*
X140126486Y-98343297D01*
X140247097Y-98052117D01*
X140422201Y-97790056D01*
X140645056Y-97567201D01*
X140907117Y-97392097D01*
X141198297Y-97271486D01*
X141507412Y-97210000D01*
X141822588Y-97210000D01*
X142131703Y-97271486D01*
X142131703Y-97271486D01*
G37*
G36*
X146372521Y-97944586D02*
X146536309Y-98012429D01*
X146683720Y-98110926D01*
X146809074Y-98236280D01*
X146907571Y-98383691D01*
X146975414Y-98547479D01*
X147010000Y-98721356D01*
X147010000Y-98898644D01*
X146975414Y-99072521D01*
X146907571Y-99236309D01*
X146809074Y-99383720D01*
X146683720Y-99509074D01*
X146536309Y-99607571D01*
X146372521Y-99675414D01*
X146198644Y-99710000D01*
X146021356Y-99710000D01*
X145847479Y-99675414D01*
X145683691Y-99607571D01*
X145536280Y-99509074D01*
X145410926Y-99383720D01*
X145312429Y-99236309D01*
X145244586Y-99072521D01*
X145210000Y-98898644D01*
X145210000Y-98721356D01*
X145244586Y-98547479D01*
X145312429Y-98383691D01*
X145410926Y-98236280D01*
X145536280Y-98110926D01*
X145683691Y-98012429D01*
X145847479Y-97944586D01*
X146021356Y-97910000D01*
X146198644Y-97910000D01*
X146372521Y-97944586D01*
X146372521Y-97944586D01*
G37*
G36*
X135089000Y-99318000D02*
X133087000Y-99318000D01*
X133087000Y-98416000D01*
X135089000Y-98416000D01*
X135089000Y-99318000D01*
X135089000Y-99318000D01*
G37*
G36*
X65953812Y-97115624D02*
X66117784Y-97183544D01*
X66265354Y-97282147D01*
X66390853Y-97407646D01*
X66489456Y-97555216D01*
X66549520Y-97700223D01*
X66561066Y-97721824D01*
X66576612Y-97740766D01*
X66595554Y-97756312D01*
X66617165Y-97767863D01*
X66640614Y-97774976D01*
X66665000Y-97777378D01*
X66689386Y-97774976D01*
X66712835Y-97767863D01*
X66734446Y-97756312D01*
X66753388Y-97740766D01*
X66768934Y-97721824D01*
X66780485Y-97700213D01*
X66787598Y-97676764D01*
X66790000Y-97652378D01*
X66790000Y-97081000D01*
X68592000Y-97081000D01*
X68592000Y-98883000D01*
X66790000Y-98883000D01*
X66790000Y-98311622D01*
X66787598Y-98287236D01*
X66780485Y-98263787D01*
X66768934Y-98242176D01*
X66753388Y-98223234D01*
X66734446Y-98207688D01*
X66712835Y-98196137D01*
X66689386Y-98189024D01*
X66665000Y-98186622D01*
X66640614Y-98189024D01*
X66617165Y-98196137D01*
X66595554Y-98207688D01*
X66576612Y-98223234D01*
X66561066Y-98242176D01*
X66549520Y-98263777D01*
X66489456Y-98408784D01*
X66390853Y-98556354D01*
X66265354Y-98681853D01*
X66117784Y-98780456D01*
X65953812Y-98848376D01*
X65779741Y-98883000D01*
X65602259Y-98883000D01*
X65428188Y-98848376D01*
X65264216Y-98780456D01*
X65116646Y-98681853D01*
X64991147Y-98556354D01*
X64892544Y-98408784D01*
X64824624Y-98244812D01*
X64790000Y-98070741D01*
X64790000Y-97893259D01*
X64824624Y-97719188D01*
X64892544Y-97555216D01*
X64991147Y-97407646D01*
X65116646Y-97282147D01*
X65264216Y-97183544D01*
X65428188Y-97115624D01*
X65602259Y-97081000D01*
X65779741Y-97081000D01*
X65953812Y-97115624D01*
X65953812Y-97115624D01*
G37*
G36*
X132089000Y-98368000D02*
X130087000Y-98368000D01*
X130087000Y-97466000D01*
X132089000Y-97466000D01*
X132089000Y-98368000D01*
X132089000Y-98368000D01*
G37*
G36*
X135089000Y-97418000D02*
X133087000Y-97418000D01*
X133087000Y-96516000D01*
X135089000Y-96516000D01*
X135089000Y-97418000D01*
X135089000Y-97418000D01*
G37*
G36*
X138316703Y-93461486D02*
X138607883Y-93582097D01*
X138869944Y-93757201D01*
X139092799Y-93980056D01*
X139267903Y-94242117D01*
X139388514Y-94533297D01*
X139450000Y-94842412D01*
X139450000Y-95157588D01*
X139388514Y-95466703D01*
X139267903Y-95757883D01*
X139092799Y-96019944D01*
X138869944Y-96242799D01*
X138607883Y-96417903D01*
X138316703Y-96538514D01*
X138007588Y-96600000D01*
X137692412Y-96600000D01*
X137383297Y-96538514D01*
X137092117Y-96417903D01*
X136830056Y-96242799D01*
X136607201Y-96019944D01*
X136432097Y-95757883D01*
X136311486Y-95466703D01*
X136250000Y-95157588D01*
X136250000Y-94842412D01*
X136311486Y-94533297D01*
X136432097Y-94242117D01*
X136607201Y-93980056D01*
X136830056Y-93757201D01*
X137092117Y-93582097D01*
X137383297Y-93461486D01*
X137692412Y-93400000D01*
X138007588Y-93400000D01*
X138316703Y-93461486D01*
X138316703Y-93461486D01*
G37*
G36*
X65953812Y-94615624D02*
X66117784Y-94683544D01*
X66265354Y-94782147D01*
X66390853Y-94907646D01*
X66489456Y-95055216D01*
X66557376Y-95219188D01*
X66568404Y-95274633D01*
X66575515Y-95298074D01*
X66587067Y-95319685D01*
X66602612Y-95338627D01*
X66621554Y-95354172D01*
X66643165Y-95365723D01*
X66666614Y-95372836D01*
X66691000Y-95375238D01*
X66715387Y-95372836D01*
X66738836Y-95365723D01*
X66760447Y-95354171D01*
X66779389Y-95338626D01*
X66794934Y-95319684D01*
X66806485Y-95298073D01*
X66813596Y-95274633D01*
X66824624Y-95219188D01*
X66892544Y-95055216D01*
X66991147Y-94907646D01*
X67116646Y-94782147D01*
X67264216Y-94683544D01*
X67428188Y-94615624D01*
X67602259Y-94581000D01*
X67779741Y-94581000D01*
X67953812Y-94615624D01*
X68117784Y-94683544D01*
X68265354Y-94782147D01*
X68390853Y-94907646D01*
X68489456Y-95055216D01*
X68557376Y-95219188D01*
X68592000Y-95393259D01*
X68592000Y-95570741D01*
X68557376Y-95744812D01*
X68489456Y-95908784D01*
X68390853Y-96056354D01*
X68265354Y-96181853D01*
X68117784Y-96280456D01*
X67953812Y-96348376D01*
X67779741Y-96383000D01*
X67602259Y-96383000D01*
X67428188Y-96348376D01*
X67264216Y-96280456D01*
X67116646Y-96181853D01*
X66991147Y-96056354D01*
X66892544Y-95908784D01*
X66824624Y-95744812D01*
X66813596Y-95689367D01*
X66806485Y-95665926D01*
X66794933Y-95644315D01*
X66779388Y-95625373D01*
X66760446Y-95609828D01*
X66738835Y-95598277D01*
X66715386Y-95591164D01*
X66691000Y-95588762D01*
X66666613Y-95591164D01*
X66643164Y-95598277D01*
X66621553Y-95609829D01*
X66602611Y-95625374D01*
X66587066Y-95644316D01*
X66575515Y-95665927D01*
X66568404Y-95689367D01*
X66557376Y-95744812D01*
X66489456Y-95908784D01*
X66390853Y-96056354D01*
X66265354Y-96181853D01*
X66117784Y-96280456D01*
X65953812Y-96348376D01*
X65779741Y-96383000D01*
X65602259Y-96383000D01*
X65428188Y-96348376D01*
X65264216Y-96280456D01*
X65116646Y-96181853D01*
X64991147Y-96056354D01*
X64892544Y-95908784D01*
X64824624Y-95744812D01*
X64790000Y-95570741D01*
X64790000Y-95393259D01*
X64824624Y-95219188D01*
X64892544Y-95055216D01*
X64991147Y-94907646D01*
X65116646Y-94782147D01*
X65264216Y-94683544D01*
X65428188Y-94615624D01*
X65602259Y-94581000D01*
X65779741Y-94581000D01*
X65953812Y-94615624D01*
X65953812Y-94615624D01*
G37*
G36*
X142766703Y-89651486D02*
X143057883Y-89772097D01*
X143319944Y-89947201D01*
X143542799Y-90170056D01*
X143717903Y-90432117D01*
X143838514Y-90723297D01*
X143900000Y-91032412D01*
X143900000Y-91347588D01*
X143838514Y-91656703D01*
X143717903Y-91947883D01*
X143542799Y-92209944D01*
X143319944Y-92432799D01*
X143057883Y-92607903D01*
X142766703Y-92728514D01*
X142457588Y-92790000D01*
X142142412Y-92790000D01*
X141833297Y-92728514D01*
X141542117Y-92607903D01*
X141280056Y-92432799D01*
X141057201Y-92209944D01*
X140882097Y-91947883D01*
X140761486Y-91656703D01*
X140700000Y-91347588D01*
X140700000Y-91032412D01*
X140761486Y-90723297D01*
X140882097Y-90432117D01*
X141057201Y-90170056D01*
X141280056Y-89947201D01*
X141542117Y-89772097D01*
X141833297Y-89651486D01*
X142142412Y-89590000D01*
X142457588Y-89590000D01*
X142766703Y-89651486D01*
X142766703Y-89651486D01*
G37*
G36*
X63506331Y-88980211D02*
X63834092Y-89115974D01*
X64129073Y-89313074D01*
X64379926Y-89563927D01*
X64577026Y-89858908D01*
X64712789Y-90186669D01*
X64782000Y-90534616D01*
X64782000Y-90889384D01*
X64712789Y-91237331D01*
X64577026Y-91565092D01*
X64379926Y-91860073D01*
X64129073Y-92110926D01*
X63834092Y-92308026D01*
X63506331Y-92443789D01*
X63158384Y-92513000D01*
X62803616Y-92513000D01*
X62455669Y-92443789D01*
X62127908Y-92308026D01*
X61832927Y-92110926D01*
X61582074Y-91860073D01*
X61384974Y-91565092D01*
X61249211Y-91237331D01*
X61180000Y-90889384D01*
X61180000Y-90534616D01*
X61249211Y-90186669D01*
X61384974Y-89858908D01*
X61582074Y-89563927D01*
X61832927Y-89313074D01*
X62127908Y-89115974D01*
X62455669Y-88980211D01*
X62803616Y-88911000D01*
X63158384Y-88911000D01*
X63506331Y-88980211D01*
X63506331Y-88980211D01*
G37*
G36*
X151452521Y-90324586D02*
X151616309Y-90392429D01*
X151763720Y-90490926D01*
X151889074Y-90616280D01*
X151987571Y-90763691D01*
X152055414Y-90927479D01*
X152090000Y-91101356D01*
X152090000Y-91278644D01*
X152055414Y-91452521D01*
X151987571Y-91616309D01*
X151889074Y-91763720D01*
X151763720Y-91889074D01*
X151616309Y-91987571D01*
X151452521Y-92055414D01*
X151278644Y-92090000D01*
X151101356Y-92090000D01*
X150927479Y-92055414D01*
X150763691Y-91987571D01*
X150616280Y-91889074D01*
X150490926Y-91763720D01*
X150392429Y-91616309D01*
X150324586Y-91452521D01*
X150290000Y-91278644D01*
X150290000Y-91101356D01*
X150324586Y-90927479D01*
X150392429Y-90763691D01*
X150490926Y-90616280D01*
X150616280Y-90490926D01*
X150763691Y-90392429D01*
X150927479Y-90324586D01*
X151101356Y-90290000D01*
X151278644Y-90290000D01*
X151452521Y-90324586D01*
X151452521Y-90324586D01*
G37*
G36*
X115532228Y-90367703D02*
X115687100Y-90431853D01*
X115826481Y-90524985D01*
X115945015Y-90643519D01*
X116038147Y-90782900D01*
X116102297Y-90937772D01*
X116135000Y-91102184D01*
X116135000Y-91269816D01*
X116102297Y-91434228D01*
X116038147Y-91589100D01*
X115945015Y-91728481D01*
X115826481Y-91847015D01*
X115687100Y-91940147D01*
X115532228Y-92004297D01*
X115367816Y-92037000D01*
X115200184Y-92037000D01*
X115035772Y-92004297D01*
X114880900Y-91940147D01*
X114741519Y-91847015D01*
X114622985Y-91728481D01*
X114529853Y-91589100D01*
X114465703Y-91434228D01*
X114433000Y-91269816D01*
X114433000Y-91102184D01*
X114465703Y-90937772D01*
X114529853Y-90782900D01*
X114622985Y-90643519D01*
X114741519Y-90524985D01*
X114880900Y-90431853D01*
X115035772Y-90367703D01*
X115200184Y-90335000D01*
X115367816Y-90335000D01*
X115532228Y-90367703D01*
X115532228Y-90367703D01*
G37*
G36*
X114135000Y-92037000D02*
X112433000Y-92037000D01*
X112433000Y-90335000D01*
X114135000Y-90335000D01*
X114135000Y-92037000D01*
X114135000Y-92037000D01*
G37*
G36*
X147216703Y-86481486D02*
X147507883Y-86602097D01*
X147769944Y-86777201D01*
X147992799Y-87000056D01*
X148167903Y-87262117D01*
X148288514Y-87553297D01*
X148350000Y-87862412D01*
X148350000Y-88177588D01*
X148288514Y-88486703D01*
X148167903Y-88777883D01*
X147992799Y-89039944D01*
X147769944Y-89262799D01*
X147507883Y-89437903D01*
X147216703Y-89558514D01*
X146907588Y-89620000D01*
X146592412Y-89620000D01*
X146283297Y-89558514D01*
X145992117Y-89437903D01*
X145730056Y-89262799D01*
X145507201Y-89039944D01*
X145332097Y-88777883D01*
X145211486Y-88486703D01*
X145150000Y-88177588D01*
X145150000Y-87862412D01*
X145211486Y-87553297D01*
X145332097Y-87262117D01*
X145507201Y-87000056D01*
X145730056Y-86777201D01*
X145992117Y-86602097D01*
X146283297Y-86481486D01*
X146592412Y-86420000D01*
X146907588Y-86420000D01*
X147216703Y-86481486D01*
X147216703Y-86481486D01*
G37*
G36*
X96006228Y-83469703D02*
X96161100Y-83533853D01*
X96300481Y-83626985D01*
X96419015Y-83745519D01*
X96512147Y-83884900D01*
X96576297Y-84039772D01*
X96609000Y-84204184D01*
X96609000Y-84371816D01*
X96576297Y-84536228D01*
X96512147Y-84691100D01*
X96419015Y-84830481D01*
X96300481Y-84949015D01*
X96161100Y-85042147D01*
X96006228Y-85106297D01*
X95841816Y-85139000D01*
X95674184Y-85139000D01*
X95509772Y-85106297D01*
X95354900Y-85042147D01*
X95215519Y-84949015D01*
X95096985Y-84830481D01*
X95003853Y-84691100D01*
X94939703Y-84536228D01*
X94907000Y-84371816D01*
X94907000Y-84204184D01*
X94939703Y-84039772D01*
X95003853Y-83884900D01*
X95096985Y-83745519D01*
X95215519Y-83626985D01*
X95354900Y-83533853D01*
X95509772Y-83469703D01*
X95674184Y-83437000D01*
X95841816Y-83437000D01*
X96006228Y-83469703D01*
X96006228Y-83469703D01*
G37*
G36*
X76489000Y-82839000D02*
X74387000Y-82839000D01*
X74387000Y-80737000D01*
X76489000Y-80737000D01*
X76489000Y-82839000D01*
X76489000Y-82839000D01*
G37*
G36*
X70744565Y-80777389D02*
X70935834Y-80856615D01*
X71107976Y-80971637D01*
X71254363Y-81118024D01*
X71369385Y-81290166D01*
X71448611Y-81481435D01*
X71489000Y-81684484D01*
X71489000Y-81891516D01*
X71448611Y-82094565D01*
X71369385Y-82285834D01*
X71254363Y-82457976D01*
X71107976Y-82604363D01*
X70935834Y-82719385D01*
X70744565Y-82798611D01*
X70541516Y-82839000D01*
X70334484Y-82839000D01*
X70131435Y-82798611D01*
X69940166Y-82719385D01*
X69768024Y-82604363D01*
X69621637Y-82457976D01*
X69506615Y-82285834D01*
X69427389Y-82094565D01*
X69387000Y-81891516D01*
X69387000Y-81684484D01*
X69427389Y-81481435D01*
X69506615Y-81290166D01*
X69621637Y-81118024D01*
X69768024Y-80971637D01*
X69940166Y-80856615D01*
X70131435Y-80777389D01*
X70334484Y-80737000D01*
X70541516Y-80737000D01*
X70744565Y-80777389D01*
X70744565Y-80777389D01*
G37*
G36*
X96609000Y-82639000D02*
X94907000Y-82639000D01*
X94907000Y-80937000D01*
X96609000Y-80937000D01*
X96609000Y-82639000D01*
X96609000Y-82639000D01*
G37*
G36*
X147118565Y-78491389D02*
X147309834Y-78570615D01*
X147481976Y-78685637D01*
X147628363Y-78832024D01*
X147743385Y-79004166D01*
X147822611Y-79195435D01*
X147863000Y-79398484D01*
X147863000Y-79605516D01*
X147822611Y-79808565D01*
X147743385Y-79999834D01*
X147628363Y-80171976D01*
X147481976Y-80318363D01*
X147309834Y-80433385D01*
X147118565Y-80512611D01*
X146915516Y-80553000D01*
X146708484Y-80553000D01*
X146505435Y-80512611D01*
X146314166Y-80433385D01*
X146142024Y-80318363D01*
X145995637Y-80171976D01*
X145880615Y-79999834D01*
X145801389Y-79808565D01*
X145761000Y-79605516D01*
X145761000Y-79398484D01*
X145801389Y-79195435D01*
X145880615Y-79004166D01*
X145995637Y-78832024D01*
X146142024Y-78685637D01*
X146314166Y-78570615D01*
X146505435Y-78491389D01*
X146708484Y-78451000D01*
X146915516Y-78451000D01*
X147118565Y-78491389D01*
X147118565Y-78491389D01*
G37*
G36*
X139618565Y-78491389D02*
X139809834Y-78570615D01*
X139981976Y-78685637D01*
X140128363Y-78832024D01*
X140243385Y-79004166D01*
X140322611Y-79195435D01*
X140363000Y-79398484D01*
X140363000Y-79605516D01*
X140322611Y-79808565D01*
X140243385Y-79999834D01*
X140128363Y-80171976D01*
X139981976Y-80318363D01*
X139809834Y-80433385D01*
X139618565Y-80512611D01*
X139415516Y-80553000D01*
X139208484Y-80553000D01*
X139005435Y-80512611D01*
X138814166Y-80433385D01*
X138642024Y-80318363D01*
X138495637Y-80171976D01*
X138380615Y-79999834D01*
X138301389Y-79808565D01*
X138261000Y-79605516D01*
X138261000Y-79398484D01*
X138301389Y-79195435D01*
X138380615Y-79004166D01*
X138495637Y-78832024D01*
X138642024Y-78685637D01*
X138814166Y-78570615D01*
X139005435Y-78491389D01*
X139208484Y-78451000D01*
X139415516Y-78451000D01*
X139618565Y-78491389D01*
X139618565Y-78491389D01*
G37*
G36*
X65079460Y-80279060D02*
X61477340Y-80279060D01*
X61477340Y-76676940D01*
X65079460Y-76676940D01*
X65079460Y-80279060D01*
X65079460Y-80279060D01*
G37*
G36*
X67929060Y-75529000D02*
X64326940Y-75529000D01*
X64326940Y-71427000D01*
X67929060Y-71427000D01*
X67929060Y-75529000D01*
X67929060Y-75529000D01*
G37*
G36*
X61779060Y-75279060D02*
X58176940Y-75279060D01*
X58176940Y-71676940D01*
X61779060Y-71676940D01*
X61779060Y-75279060D01*
X61779060Y-75279060D01*
G37*
M02*
